<?xml version="1.0" encoding="UTF-8"?>
<svg width="42px" height="28px" viewBox="0 0 42 28" version="1.1" xmlns="http://www.w3.org/2000/svg" xmlns:xlink="http://www.w3.org/1999/xlink">
    <!-- Generator: Sketch 44.1 (41455) - http://www.bohemiancoding.com/sketch -->
    <title>card-master</title>
    <desc>Created with Sketch.</desc>
    <defs></defs>
    <g id="Page-1" stroke="none" stroke-width="1" fill="none" fill-rule="evenodd">
        <g id="Subscribe-1/4" transform="translate(-694.000000, -1013.000000)">
            <g id="card-master" transform="translate(694.000000, 1013.000000)">
                <path d="M37.7026929,27.5079528 L4.03274016,27.5079528 L4.03274016,27.5079528 C1.82360116,27.5079528 0.0327401575,25.7170918 0.0327401575,23.5079528 L0.0327401575,4.3555748 L0.0327401575,4.3555748 C0.0327401575,2.1464358 1.82360116,0.355574803 4.03274016,0.355574803 L37.7026929,0.355574803 L37.7026929,0.355574803 C39.9118319,0.355574803 41.7026929,2.1464358 41.7026929,4.3555748 L41.7026929,23.5079528 L41.7026929,23.5079528 C41.7026929,25.7170918 39.9118319,27.5079528 37.7026929,27.5079528 Z" id="Shape-Copy" fill="#808080" fill-rule="nonzero"></path>
                <g id="Group" transform="translate(3.637795, 2.968504)">
                    <path d="M17.9902205,18.674126 C17.1674173,19.3762205 16.2834331,19.9867087 15.2979213,20.4417638 C14.5528346,20.787685 13.7733543,21.0165354 12.9746929,21.1944567 C11.9842205,21.4157008 10.9758898,21.4004882 9.97748031,21.3495591 C9.0376063,21.3012756 8.12352756,21.0648189 7.2355748,20.7344409 C6.42170079,20.4291969 5.66140157,20.0297008 4.94409449,19.5438898 C4.28168504,19.0937953 3.67351181,18.5802047 3.13445669,17.9902205 C2.52529134,17.3211969 2.00640945,16.5863622 1.57152756,15.7903465 C1.15582677,15.0297165 0.860834646,14.2237795 0.643228346,13.3894016 C0.517559055,12.9049134 0.438519685,12.4088504 0.38792126,11.9081575 C0.333023622,11.3839843 0.305244094,10.8601417 0.332031496,10.3362992 C0.372708661,9.51217323 0.501023622,8.69962205 0.73384252,7.90492913 C0.934582677,7.21804724 1.19154331,6.55332283 1.52985827,5.92233071 C1.88206299,5.26752756 2.29412598,4.65174803 2.76968504,4.07697638 C3.54420472,3.14107087 4.45464567,2.36522835 5.49108661,1.7448189 C6.49181102,1.14458268 7.5676063,0.715984252 8.71714961,0.484488189 C9.22710236,0.382629921 9.73804724,0.312850394 10.258252,0.274818898 C10.6243465,0.249354331 10.9894488,0.239102362 11.3519055,0.255637795 C11.8605354,0.281102362 12.3678425,0.330708661 12.8688661,0.431244094 C13.6215591,0.580062992 14.3577165,0.788740157 15.059811,1.09629921 C15.7212283,1.386 16.3581732,1.72696063 16.9471654,2.15059843 C17.3069764,2.41020472 17.6489291,2.69097638 17.9898898,2.97340157 C18.2809134,3.10568504 18.4757008,3.34974803 18.6688346,3.58752756 C18.7528346,3.69170079 18.695622,3.76941732 18.5368819,3.77437795 C18.2392441,3.78595276 17.9389606,3.79851969 17.6429764,3.77305512 C17.3466614,3.74626772 17.1317008,3.83787402 16.9792441,4.08855118 C16.9461732,4.14179528 16.8978898,4.18247244 16.8519213,4.24729134 C16.9154173,4.27275591 16.9713071,4.26382677 17.0248819,4.26382677 C17.6786929,4.26382677 18.3321732,4.26911811 18.9859843,4.26018898 C19.1857323,4.25754331 19.3266142,4.32500787 19.4324409,4.4903622 C19.5124724,4.6163622 19.6130079,4.72946457 19.6867559,4.85777953 C19.7608346,4.98377953 19.7327244,5.03338583 19.5875433,5.04992126 C19.5253701,5.05653543 19.4615433,5.05256693 19.3993701,5.05256693 C18.469748,5.05256693 17.5417795,5.05256693 16.6134803,5.05256693 C16.2331654,5.05256693 16.1240315,5.13888189 16.0195276,5.51655118 C16.0602047,5.55226772 16.1084882,5.53937008 16.1531339,5.53937008 C17.3942835,5.53937008 18.6341102,5.54201575 19.8752598,5.53804724 C20.0482205,5.51390551 20.157685,5.59029921 20.2311024,5.74540157 C20.2945984,5.87900787 20.3686772,6.00864567 20.4272126,6.14588976 C20.4731811,6.25006299 20.4397795,6.31124409 20.3253543,6.32248819 C20.2492913,6.33141732 20.1752126,6.32910236 20.1014646,6.32910236 C18.7062047,6.32910236 17.3125984,6.3380315 15.9189921,6.32248819 C15.6468189,6.31984252 15.4814646,6.39491339 15.414,6.66080315 C15.4027559,6.70412598 15.3746457,6.74348031 15.3643937,6.78779528 C15.3643937,6.80697638 15.3710079,6.82351181 15.3872126,6.83607874 C15.4546772,6.85658268 15.5247874,6.84732283 15.5932441,6.84732283 C17.1369921,6.84732283 18.6807402,6.84732283 20.2231654,6.84864567 C20.3402362,6.84864567 20.4546614,6.83607874 20.5690866,6.84368504 C20.6451496,6.8499685 20.724189,6.85658268 20.7675118,6.92503937 C20.881937,7.09535433 20.9328661,7.29014173 20.968252,7.48856693 C20.9811496,7.5636378 20.9199685,7.58381102 20.8617638,7.59538583 C20.7827244,7.61059843 20.7013701,7.60696063 20.6200157,7.60696063 C18.8652756,7.60696063 17.1078898,7.60696063 15.3518268,7.60696063 C15.0604724,7.60696063 14.9437323,7.72006299 14.9268661,8.01009449 C14.9219055,8.07755906 14.949685,8.10666142 15.012189,8.11195276 C15.0743622,8.11856693 15.138189,8.11592126 15.201685,8.11592126 C17.0318268,8.11592126 18.8629606,8.11592126 20.6940945,8.11592126 C20.7625512,8.11592126 20.8313386,8.11592126 20.900126,8.11724409 C21.1491496,8.12220472 21.1924724,8.15792126 21.2510079,8.40330709 C21.3479055,8.82793701 21.3350079,8.84711811 20.9050866,8.84711811 C18.9496063,8.84579528 16.9921417,8.83554331 15.0353386,8.83951181 C14.9665512,8.83951181 14.8977638,8.84182677 14.8293071,8.83422047 C14.5445669,8.78064567 14.2581732,8.81371654 13.9721102,8.80875591 C13.8514016,8.80611024 13.8219685,8.88614173 13.8057638,8.98667717 C13.6873701,9.68744882 13.5527717,10.3855748 13.4330551,11.0863465 C13.3388031,11.6343307 13.2283465,12.1786772 13.1420315,12.7293071 C13.0785354,13.1387244 13.1992441,13.3232598 13.6086614,13.395685 C13.9152283,13.4492598 14.2241102,13.4532283 14.5306772,13.3778268 C14.6947087,13.3371496 14.7916063,13.2468661 14.8064882,13.0739055 C14.8167402,12.9707244 14.891811,12.8566299 14.8445197,12.7726299 C14.7833386,12.6621732 14.6589921,12.7637008 14.5620945,12.7560945 C14.4628819,12.7471654 14.3689606,12.7279843 14.2786772,12.6899528 C14.1794646,12.6466299 14.1186142,12.5665984 14.1338268,12.4597795 C14.1811181,12.1366772 14.2204724,11.8125827 14.2687559,11.4894803 C14.2750394,11.450126 14.290252,11.4120945 14.3335748,11.3955591 C14.3540787,11.3929134 14.3716063,11.3968819 14.3881417,11.408126 C14.4073228,11.6842677 14.5789606,11.7388346 14.8154173,11.7067559 C14.8650236,11.6994803 14.9172756,11.7094016 14.9629134,11.7375118 C15.041622,11.8469764 15.0214488,11.980252 15.041622,12.1026142 C15.1421575,12.7167402 15.4841102,13.1211969 16.078063,13.308378 C16.6108346,13.4773701 17.1538583,13.4595118 17.6968819,13.3755118 C17.9297008,13.340126 18.0834803,13.2283465 18.0973701,12.9651024 C18.1049764,12.812315 18.149622,12.6611811 18.1661575,12.5110394 C18.1152283,12.4703622 18.0834803,12.5110394 18.0530551,12.526252 C17.6065984,12.7514646 17.1373228,12.7808976 16.6591181,12.6777165 C16.353874,12.6115748 16.1339528,12.4230709 16.0234961,12.1257638 C15.9355276,11.8866614 16.0132441,11.7771969 16.2675591,11.775874 C16.881685,11.7732283 17.495811,11.7705827 18.1102677,11.7771969 C18.2577638,11.7798425 18.3275433,11.7404882 18.3414331,11.5814173 C18.3655748,11.3142047 18.4204724,11.0536063 18.4036063,10.7787874 C18.3602835,10.074378 17.7626929,9.65966929 17.1601417,9.6332126 C16.8205039,9.618 16.4825197,9.63453543 16.1607402,9.76417323 C15.6203622,9.98144882 15.3012283,10.3935118 15.1332283,10.9391811 C15.1054488,11.0294646 15.1054488,11.1352913 15.0125197,11.1961417 C14.8511339,11.2417795 14.6871024,11.2212756 14.524063,11.2153228 C14.4007087,11.2113543 14.3653228,11.1273543 14.3653228,11.0192126 C14.353748,10.8565039 14.3983937,10.7014016 14.4314646,10.5449764 C14.4519685,10.4494016 14.5078583,10.4126929 14.6044252,10.421622 C14.7188504,10.4331969 14.8332756,10.4292283 14.9477008,10.4282362 C15.0432756,10.4282362 15.0965197,10.3809449 15.1130551,10.2883465 C15.1371969,10.1421732 15.1613386,9.99467717 15.1868031,9.84850394 C15.2046614,9.7403622 15.1537323,9.70233071 15.0531969,9.70365354 C14.9844094,9.70497638 14.9159528,9.70629921 14.8471654,9.70233071 C14.7747402,9.69703937 14.6831339,9.71390551 14.6487402,9.63486614 C14.6107087,9.54689764 14.6282362,9.45562205 14.7085984,9.38551181 C14.7846614,9.35111811 14.8650236,9.35640945 14.9450551,9.35640945 C17.0010709,9.35640945 19.0560945,9.35640945 21.1137638,9.35640945 C21.3809764,9.35640945 21.4137165,9.38055118 21.4497638,9.56872441 C21.4242992,9.72514961 21.3224409,9.84850394 21.2615906,9.98971654 C21.1243465,10.3128189 21.0327402,10.6471654 20.9662677,10.9904409 C20.9510551,11.0678268 20.9457638,11.1518268 20.8644094,11.1977953 C20.5184882,11.2407874 20.1752126,11.2308661 19.8292913,11.2040787 C19.7274331,11.1557953 19.7707559,11.0820472 19.8041575,11.0172283 C19.926189,10.7873858 20.1318898,10.6408819 20.3785984,10.6256693 C20.6811969,10.6074803 20.8214173,10.4794961 20.8568031,10.1868189 C20.8746614,10.0522205 20.9560157,9.93250394 21.0271181,9.81311811 C21.1035118,9.67951181 21.0932598,9.66429921 20.9358425,9.66429921 C20.6127402,9.66429921 20.3432126,9.77740157 20.1295748,10.0241102 C20.0836063,10.0790079 20.0505354,10.174252 19.9437165,10.1259685 C19.9156063,10.0829764 19.9156063,10.035685 19.9208976,9.98740157 C19.9235433,9.95962205 19.9308189,9.93151181 19.9361102,9.90340157 C19.9615748,9.72151181 19.9486772,9.70629921 19.7634803,9.70365354 C19.5905197,9.70233071 19.419874,9.70233071 19.2469134,9.70365354 C18.9935906,9.70365354 18.9962362,9.70762205 18.9496063,9.9503622 C18.7994646,10.7334803 18.7042205,11.5245354 18.5626772,12.3079843 C18.5054646,12.618189 18.4456063,12.9283937 18.393685,13.2385984 C18.3655748,13.4065984 18.3758268,13.4231339 18.5398583,13.4254488 C18.7405984,13.4294173 18.9403465,13.4201575 19.1410866,13.4280945 C19.2710551,13.4333858 19.327937,13.3784882 19.3444724,13.2551339 C19.3560472,13.1711339 19.3686142,13.0811811 19.4575748,13.0338898 C19.5111496,13.0110709 19.569685,13.009748 19.6255748,13.009748 C20.0908819,13.0084252 20.556189,13.0061102 21.0195118,13.009748 C21.2506772,13.0123937 21.2840787,13.0557165 21.2354646,13.2782835 C21.126,13.7717008 21.126,13.7717008 20.6150551,13.7717008 C18.8437795,13.7717008 17.0721732,13.7717008 15.2995748,13.7717008 C15.2536063,13.7717008 15.2079685,13.7717008 15.162,13.7717008 C14.9930079,13.7769921 14.9774646,13.7945197 15.0260787,13.9522677 C15.0551811,14.0465197 15.0770079,14.1430866 15.1239685,14.2294016 C15.1342205,14.2449449 15.1481102,14.2601575 15.1659685,14.2727244 C15.2383937,14.298189 15.3134646,14.2882677 15.3885354,14.2882677 C17.0060315,14.2909134 18.6248504,14.2882677 20.2436693,14.2909134 C20.4037323,14.2909134 20.564126,14.2727244 20.724189,14.2882677 C20.8690394,14.306126 20.9047559,14.3593701 20.8640787,14.4992598 C20.8260472,14.6265827 20.7675118,14.7433228 20.711622,14.8630394 C20.6656535,14.9546457 20.5922362,15.0006142 20.4930236,15.0078898 C20.4116693,15.0131811 20.330315,15.0131811 20.2516063,15.0131811 C18.7356378,15.0131811 17.2209921,15.0105354 15.7066772,15.0131811 C15.4318583,15.0131811 15.4345039,15.0234331 15.5439685,15.2803937 C15.624,15.4685669 15.7410709,15.529748 15.9408189,15.5271024 C17.2901102,15.5194961 18.6380787,15.521811 19.9870394,15.5244567 C20.3686772,15.5244567 20.3713228,15.5499213 20.2287874,15.8981575 C20.1014646,16.2037323 19.915937,16.2976535 19.5825827,16.2900472 C18.4700787,16.2645827 17.356252,16.280126 16.2420945,16.280126 C16.2027402,16.280126 16.162063,16.2774803 16.1250236,16.2953386 C16.1160945,16.3105512 16.112126,16.3260945 16.1160945,16.343622 C16.4491181,16.8826772 16.3208031,16.7986772 16.9005354,16.8013228 C17.7091181,16.8066142 18.519685,16.8013228 19.3282677,16.8039685 C19.4122677,16.8039685 19.5253701,16.7735433 19.5686929,16.8548976 C19.6159843,16.9461732 19.5214016,17.0225669 19.4681575,17.094 C19.010126,17.6889449 19.1695276,17.5824567 18.4836378,17.5897323 C18.0705827,17.5950236 17.6571969,17.5897323 17.243811,17.592378 C17.1839528,17.592378 17.117811,17.571874 17.0467087,17.6280945 C17.1647717,17.7600472 17.2692756,17.899937 17.3979213,18.0219685 C17.4564567,18.0778583 17.5338425,18.0755433 17.6089134,18.0755433 C17.8506614,18.0778583 18.0910866,18.0755433 18.3325039,18.0778583 C18.3986457,18.0805039 18.4836378,18.067937 18.5104252,18.1466457 C18.5358898,18.2203937 18.482315,18.2838898 18.4290709,18.3245669 C18.2838898,18.440315 18.1707874,18.600378 17.9902205,18.674126 Z" id="Shape" fill="#E6E6E6"></path>
                    <path d="M17.9902205,18.674126 C18.0841417,18.5570551 18.1899685,18.4581732 18.3106772,18.3662362 C18.3817795,18.3129921 18.472063,18.2544567 18.482315,18.1271339 C18.2038583,18.1271339 17.9293701,18.1119213 17.6585197,18.1324252 C17.4716693,18.1476378 17.348315,18.0788504 17.2414961,17.9416063 C17.167748,17.847685 17.0850709,17.7610394 17.0050394,17.6720787 C16.9746142,17.6366929 16.9312913,17.5983307 16.9514646,17.5550079 C16.9729606,17.5067244 17.0328189,17.532189 17.0761417,17.532189 C17.6839843,17.5295433 18.2905039,17.5295433 18.8983465,17.5348346 C19.020378,17.5348346 19.0990866,17.4968031 19.1691969,17.3949449 C19.2912283,17.2196693 19.4297953,17.054315 19.5670394,16.878378 C19.5098268,16.8377008 19.4575748,16.8532441 19.4106142,16.8532441 C18.4594961,16.8505984 17.508378,16.8479528 16.5569291,16.8532441 C16.4286142,16.8532441 16.3406457,16.8277795 16.2784724,16.7083937 C16.2047244,16.5685039 16.1131181,16.4362205 16.0291181,16.301622 C16.0645039,16.2735118 16.1065039,16.2837638 16.146189,16.2837638 C17.2411654,16.2837638 18.3348189,16.2837638 19.4297953,16.2837638 C19.4615433,16.2837638 19.4932913,16.2784724 19.4995748,16.2837638 C18.3794646,16.2837638 17.2375276,16.2811181 16.0942677,16.2837638 C16.070126,16.2837638 16.0482992,16.2860787 16.0294488,16.301622 C16.0053071,16.2761575 16.0026614,16.2480472 16.0433386,16.2430866 C16.0942677,16.2354803 16.146189,16.2377953 16.1971181,16.2377953 C17.3962677,16.2377953 18.5954173,16.2351496 19.7958898,16.2404409 C19.9357795,16.2404409 20.0197795,16.2070394 20.070378,16.0697953 C20.1137008,15.9477638 20.1798425,15.8333386 20.2486299,15.7185827 C20.322378,15.5965512 20.2866614,15.5710866 20.1570236,15.5710866 C19.3877953,15.576378 18.6185669,15.5737323 17.8503307,15.5737323 C17.1674173,15.5737323 16.4845039,15.5687717 15.8015906,15.5790236 C15.6630236,15.5816693 15.5919213,15.5330551 15.5462835,15.4136693 C15.5132126,15.3270236 15.4649291,15.248315 15.4252441,15.1669606 C15.332315,14.9791181 15.3425669,14.9609291 15.5472756,14.9609291 C16.6601102,14.9609291 17.7726142,14.9609291 18.8867717,14.9609291 C19.4145827,14.9609291 19.9410709,14.9586142 20.469874,14.9635748 C20.5766929,14.9635748 20.6425039,14.9331496 20.6782205,14.831622 C20.724189,14.7016535 20.7724724,14.5749921 20.8283622,14.4476693 C20.8663937,14.3636693 20.8462205,14.3305984 20.7572598,14.3305984 C20.7112913,14.3329134 20.6656535,14.3305984 20.619685,14.3305984 C18.8460945,14.3305984 17.0731654,14.3329134 15.3005669,14.3305984 C15.235748,14.3305984 15.1629921,14.358378 15.1047874,14.3024882 C15.1530709,14.274378 15.2066457,14.2872756 15.2572441,14.2872756 C16.8849921,14.2846299 18.514063,14.2846299 20.144126,14.2846299 C20.1874488,14.2846299 20.2330866,14.2819843 20.2433386,14.2846299 C19.7853071,14.2846299 19.2935433,14.2846299 18.800126,14.2846299 C17.6300787,14.2846299 16.4603622,14.2846299 15.290315,14.2846299 C15.2281417,14.2846299 15.164315,14.2690866 15.1034646,14.2998425 C14.9814331,14.1318425 14.9877165,13.9185354 14.878252,13.7174646 C14.9850709,13.7174646 15.0588189,13.7174646 15.1325669,13.7174646 C17.0410866,13.7174646 18.9512598,13.7148189 20.8587874,13.7224252 C21.0214961,13.7224252 21.1002047,13.6767874 21.1233543,13.5190394 C21.1385669,13.4125512 21.1613858,13.3054016 21.1971024,13.2051969 C21.2430709,13.0791969 21.2047087,13.0497638 21.0777165,13.0510866 C20.5333701,13.056378 19.9890236,13.0537323 19.4446772,13.0524094 C19.3758898,12.8910236 19.4407087,12.5361732 19.561748,12.4141417 C19.7198268,12.3668504 19.8798898,12.3873543 20.0399528,12.39 C20.3680157,12.3939685 20.6937638,12.3685039 21.0191811,12.4038898 C21.1005354,12.4280315 21.1336063,12.4954961 21.1716378,12.560315 C21.5202047,13.130126 22.0337953,13.4148661 22.6975276,13.4277638 C22.9495276,13.4330551 23.2035118,13.4469449 23.4528661,13.392378 C23.5649764,13.3669134 23.6767559,13.3388031 23.7759685,13.277622 C23.8626142,13.2270236 23.9234646,13.1569134 23.9413228,13.0510866 C23.982,12.8146299 24.0355748,12.581811 24.076252,12.3301417 C23.6486457,12.6099213 23.2011969,12.6393543 22.7332441,12.5017795 C22.2983622,12.3734646 22.0387559,12.0811181 21.9878268,11.6306929 C21.921685,11.0407087 22.092,10.5052913 22.4379213,10.0284094 C22.5930236,9.81973228 22.8093071,9.68645669 23.0685827,9.64048819 C23.4958583,9.56674016 23.9132126,9.59088189 24.3199843,9.75623622 C24.4876535,9.82502362 24.4926142,9.81973228 24.5233701,9.63420472 C24.5537953,9.43577953 24.5891811,9.23735433 24.6298583,9.0415748 C24.6503622,8.95129134 24.6325039,8.88382677 24.535937,8.85207874 C23.7984567,8.60537008 23.0632913,8.56833071 22.3334173,8.87622047 C22.0486772,8.99692913 21.8095748,9.1751811 21.6237165,9.4308189 C21.5704724,9.50456693 21.5344252,9.62296063 21.4024724,9.60874016 C21.4077638,9.4880315 21.3922205,9.40667717 21.2295118,9.40667717 C19.0511339,9.41296063 16.8744094,9.4116378 14.6973543,9.41296063 C14.668252,9.20825197 14.6616378,9.00850394 14.8193858,8.84447244 C16.1534646,8.84314961 17.4858898,8.84447244 18.8199685,8.84314961 C17.4885354,8.84182677 16.1571024,8.84447244 14.8256693,8.84182677 C14.7988819,8.83951181 14.7889606,8.8239685 14.7952441,8.79751181 C16.8846614,8.79751181 18.973748,8.79751181 21.0621732,8.79618898 C21.275811,8.79618898 21.275811,8.79618898 21.2298425,8.59280315 C21.1332756,8.16817323 21.1332756,8.16817323 20.6934331,8.16817323 C18.7988031,8.16817323 16.9038425,8.16817323 15.0102047,8.16817323 C14.8068189,8.16817323 14.8068189,8.16817323 14.8729606,7.97107087 C14.9185984,7.83746457 14.9288504,7.65954331 15.0217795,7.58182677 C15.1259528,7.49551181 15.3078425,7.55503937 15.4566614,7.55503937 C17.1786614,7.55371654 18.9003307,7.55371654 20.622,7.55371654 C20.7238583,7.55371654 20.8253858,7.55371654 20.9474173,7.55371654 C20.8812756,7.35793701 20.8204252,7.18001575 20.7615591,7.00176378 C20.7261732,6.88601575 20.6368819,6.88998425 20.5429606,6.88998425 C19.2333543,6.89130709 17.9247402,6.89130709 16.616126,6.89130709 C16.2258898,6.89130709 15.8353228,6.89130709 15.4447559,6.88866142 C15.3915118,6.88866142 15.3290079,6.91412598 15.2833701,6.86319685 C15.3432283,6.83144882 15.4067244,6.84666142 15.4692283,6.84666142 C17.0331496,6.84533858 18.5987244,6.84666142 20.1616535,6.84533858 C20.2148976,6.84533858 20.2684724,6.85691339 20.3167559,6.83012598 C20.3372598,6.81491339 20.2988976,6.80598425 20.3141102,6.82251969 C20.3217165,6.83144882 20.3194016,6.83409449 20.3068346,6.83773228 C20.2688031,6.85162205 20.2304409,6.84401575 20.1920787,6.84401575 C18.603685,6.84533858 17.015622,6.84533858 15.4285512,6.84401575 C15.377622,6.84401575 15.3253701,6.85691339 15.2770866,6.82880315 C15.2999055,6.77688189 15.3316535,6.72562205 15.3419055,6.67237795 C15.4156535,6.29834646 15.6623622,6.2656063 15.9930709,6.26924409 C17.4081732,6.28710236 18.8249291,6.27685039 20.2403622,6.27685039 C20.296252,6.27685039 20.3547874,6.27685039 20.4411024,6.27685039 C20.3266772,6.05428346 20.2225039,5.8456063 20.1130394,5.64354331 C20.0624409,5.55458268 19.9632283,5.61444094 19.8891496,5.5899685 C19.8332598,5.55193701 19.7671181,5.57211024 19.705937,5.5707874 C18.5054646,5.56946457 17.3049921,5.5707874 16.1035276,5.56946457 C16.0423465,5.56946457 15.9775276,5.58732283 15.9189921,5.55028346 C15.9914173,5.36971654 16.1071654,5.21329134 16.2000945,5.04429921 C16.2407717,4.96922835 16.311874,5.00229921 16.3690866,5.00229921 C17.411811,4.99965354 18.456189,4.99965354 19.4985827,4.99965354 C19.5607559,4.99965354 19.621937,4.99965354 19.7112283,4.99965354 C19.5673701,4.75691339 19.4159055,4.54691339 19.2472441,4.35113386 C19.1989606,4.29623622 19.1278583,4.31938583 19.068,4.31938583 C18.2934803,4.31806299 17.5202835,4.31806299 16.7179843,4.31806299 C16.8806929,4.1236063 17.0271969,3.94667717 17.1743622,3.77272441 C17.2252913,3.71154331 17.2990394,3.72311811 17.3674961,3.72311811 C17.7974173,3.72311811 18.2260157,3.72311811 18.6886772,3.72311811 C18.5094331,3.40001575 18.2144409,3.21812598 17.9895591,2.97274016 C18.235937,2.70188976 18.5362205,2.4932126 18.8272441,2.27593701 C19.4377323,1.81559055 20.1027874,1.44552756 20.7995906,1.13664567 C21.511937,0.821149606 22.254378,0.599905512 23.0199685,0.448771654 C23.7832441,0.298629921 24.5511496,0.228519685 25.3269921,0.251669291 C26.1967559,0.278456693 27.0539528,0.408094488 27.895937,0.643228346 C28.5064252,0.813874016 29.0990551,1.03379528 29.6685354,1.31092913 C30.3650079,1.65155906 31.0161732,2.06891339 31.6240157,2.5543937 C32.0307874,2.87981102 32.4127559,3.23102362 32.7685984,3.61001575 C33.3026929,4.17850394 33.7607244,4.80519685 34.1674961,5.47025197 C34.5666614,6.12141732 34.8666142,6.81425197 35.1007559,7.53552756 C35.2733858,8.06697638 35.4007087,8.61 35.4972756,9.16195276 C35.6474173,10.0138583 35.6093858,10.8720472 35.5812756,11.7256063 C35.5607717,12.4032283 35.4033543,13.0692756 35.2151811,13.7217638 C35.0015433,14.4569291 34.7191181,15.1636535 34.3530236,15.8356535 C34.0173543,16.456063 33.6205039,17.0384409 33.1628031,17.5751811 C32.9313071,17.8496693 32.6974961,18.1218425 32.4355748,18.3711969 C31.7969764,18.9843307 31.1001732,19.5207402 30.3372283,19.9708346 C29.2918583,20.5862835 28.1651339,20.9808189 26.9802047,21.2195906 C26.2096535,21.3773386 25.4262047,21.362126 24.6454016,21.3644409 C23.7726614,21.3697323 22.9336535,21.204378 22.0996063,20.9751969 C21.3363307,20.7665197 20.6143937,20.4586299 19.9275118,20.0723622 C19.309748,19.7264409 18.7210866,19.3299213 18.1893071,18.8540315 C18.1225039,18.7961575 18.0299055,18.7630866 17.9902205,18.674126 Z" id="Shape" fill="#FFFFFF"></path>
                    <path d="M5.63494488,10.206 C5.42626772,10.7033858 5.21659843,11.2004409 5.00924409,11.6978268 C4.77510236,12.258378 4.54261417,12.8209134 4.31244094,13.3827874 C4.28069291,13.4588504 4.23373228,13.4833228 4.15469291,13.482 C3.85606299,13.4780315 3.5584252,13.4767087 3.25946457,13.482 C3.1423937,13.4846457 3.11329134,13.4350394 3.11461417,13.3282205 C3.12453543,12.8142992 3.05607874,12.3056693 3.04218898,11.7930709 C3.03061417,11.4011811 2.99622047,11.0099528 2.97240945,10.6193858 C2.96215748,10.4629606 2.95587402,10.3038898 2.90626772,10.1425039 C2.87584252,10.3012441 2.84277165,10.460315 2.81466142,10.6207087 C2.65955906,11.5400787 2.50181102,12.4594488 2.35299213,13.3801417 C2.33910236,13.4654646 2.31099213,13.482 2.23724409,13.4806772 C1.97267717,13.4793543 1.70943307,13.4757165 1.44486614,13.482 C1.33407874,13.4859685 1.32283465,13.4350394 1.33804724,13.3460787 C1.47297638,12.5814803 1.60261417,11.8148976 1.73985827,11.0496378 C1.848,10.4365039 1.96474016,9.82370079 2.07552756,9.21056693 C2.08809449,9.13946457 2.10859843,9.05910236 2.10462992,8.9956063 C2.08941732,8.77568504 2.20119685,8.74393701 2.37680315,8.76411024 C2.43897638,8.77072441 2.50280315,8.76014173 2.56497638,8.75782677 C2.9095748,8.72872441 3.25417323,8.72872441 3.59877165,8.75782677 C3.63316535,8.76014173 3.66755906,8.76940157 3.70062992,8.76411024 C3.82762205,8.74492913 3.85937008,8.79188976 3.86730709,8.92285039 C3.90269291,9.54094488 3.93708661,10.161685 3.97148031,10.7794488 C3.98437795,10.9920945 3.97015748,11.2093701 4.01877165,11.4752598 C4.15601575,11.1471969 4.27308661,10.8647717 4.39114961,10.584 C4.63256693,10.0026142 4.87431496,9.42023622 5.11738583,8.8391811 C5.14285039,8.778 5.18848819,8.7627874 5.25330709,8.76411024 C5.41370079,8.76675591 5.57376378,8.76014173 5.73415748,8.75782677 C5.96433071,8.73004724 6.1931811,8.73004724 6.42335433,8.75782677 C6.54274016,8.76014173 6.66477165,8.7743622 6.78316535,8.7627874 C6.92570079,8.75022047 6.94587402,8.81371654 6.92437795,8.93211024 C6.85559055,9.32102362 6.79209449,9.71159055 6.72231496,10.1008346 C6.62310236,10.6603937 6.52025197,11.219622 6.42070866,11.7795118 C6.32811024,12.2993858 6.23749606,12.8209134 6.14489764,13.3411181 C6.12968504,13.4264409 6.10025197,13.489937 5.98086614,13.4849764 C5.72886614,13.4710866 5.47587402,13.4783622 5.22420472,13.4810079 C5.12631496,13.4823307 5.10713386,13.4697638 5.12896063,13.3550079 C5.25330709,12.6952441 5.36177953,12.0325039 5.47587402,11.3714173 C5.53804724,11.0152441 5.60055118,10.6607244 5.66404724,10.3045512 C5.69844094,10.266189 5.68818898,10.221874 5.66537008,10.1861575 C5.65412598,10.1679685 5.64651969,10.1997165 5.63494488,10.206 Z" id="Shape" fill="#808080"></path>
                    <path d="M15.0260787,11.1624094 C15.1289291,10.5724252 15.4341732,10.1134016 15.9404882,9.79922835 C16.1465197,9.67223622 16.3869449,9.61370079 16.6270394,9.59220472 C17.1776693,9.54259843 17.7157323,9.56310236 18.1327559,10.0029449 C18.3182835,10.1987244 18.3996378,10.4417953 18.438,10.7090079 C18.4899213,11.0635276 18.3870709,11.4031654 18.3678898,11.7514016 C18.3625984,11.8707874 18.2726457,11.8287874 18.2154331,11.8287874 C17.5553386,11.8314331 16.8952441,11.8301102 16.2354803,11.8301102 C16.017874,11.8301102 15.9977008,11.8595433 16.059874,12.0682205 C16.1564409,12.3985984 16.4593701,12.6112441 16.7986772,12.6505984 C17.1432756,12.6899528 17.4766299,12.6899528 17.8033701,12.5755276 C17.9445827,12.5245984 18.0791811,12.4521732 18.235937,12.3807402 C18.1863307,12.678378 18.1403622,12.9634488 18.0934016,13.2468661 C18.0831496,13.3027559 18.0299055,13.3103622 17.9915433,13.3308661 C17.8298268,13.4198268 17.6492598,13.4694331 17.4739843,13.4734016 C16.960063,13.4846457 16.440189,13.5292913 15.944126,13.3179685 C15.4050709,13.0891181 15.085937,12.6988819 14.9943307,12.1161732 C14.9751496,11.9981102 14.9715118,11.8797165 14.9586142,11.7616535 C14.8812283,11.5503307 14.9205827,11.3532283 15.0260787,11.1624094 Z" id="Shape" fill="#808080"></path>
                    <path d="M21.4034646,9.60840945 C21.6094961,9.36699213 21.8079213,9.12127559 22.0873701,8.9536063 C22.3926142,8.76907087 22.7259685,8.66985827 23.0692441,8.63811024 C23.585811,8.58751181 24.0964252,8.63811024 24.5875276,8.81735433 C24.6662362,8.84645669 24.727748,8.8772126 24.6943465,9.0032126 C24.6308504,9.23074016 24.5848819,9.46719685 24.5670236,9.70398425 C24.5544567,9.91001575 24.488315,9.88058268 24.3431339,9.81344882 C23.9667874,9.63916535 23.5672913,9.61370079 23.1582047,9.66959055 C22.7104252,9.72944882 22.4587559,10.0231181 22.267937,10.3918583 C22.0800945,10.7619213 21.9855118,11.1571181 22.0265197,11.5731496 C22.0827402,12.1264252 22.3724409,12.4085197 22.9753228,12.5090551 C23.3847402,12.5778425 23.7610866,12.5014488 24.1146142,12.2418425 C24.1271811,12.4224094 24.0663307,12.5751969 24.0511181,12.7312913 C24.0382205,12.859937 24.0077953,12.9869291 23.9849764,13.1152441 C23.9621575,13.253811 23.850378,13.3199528 23.7435591,13.3579843 C23.1178583,13.5805512 21.9302835,13.5831969 21.3730394,12.9168189 C21.2483622,12.7666772 21.1365827,12.6128976 21.0525827,12.4386142 C20.900126,12.311622 20.900126,12.1208031 20.8568031,11.9481732 C20.8389449,11.8833543 20.8412598,11.8145669 20.8362992,11.7471024 C20.795622,11.5473543 20.7728031,11.3505827 20.881937,11.1620787 C20.9708976,10.6170709 21.126,10.0919055 21.4034646,9.60840945 Z" id="Shape" fill="#808080"></path>
                    <path d="M12.1508976,9.58062992 C12.4525039,9.57170079 12.7524567,9.58459843 13.0514173,9.64181102 C13.1595591,9.66231496 13.1545984,9.71059843 13.140378,9.77905512 C13.0997008,9.97880315 13.0527402,10.1772283 13.0107402,10.3756535 C12.9928819,10.4543622 12.9522047,10.4887559 12.8668819,10.4861102 C12.7243465,10.4808189 12.5808189,10.4619685 12.4432441,10.4391496 C12.2348976,10.4060787 12.0414331,10.455685 11.8433386,10.4808189 C11.6869134,10.5013228 11.5585984,10.5925984 11.5457008,10.741748 C11.531811,10.8994961 11.6614488,11.0102835 11.7986929,11.0737795 C11.9832283,11.1574488 12.1763622,11.2249134 12.3671811,11.292378 C12.8414173,11.4590551 13.0031339,11.8936063 12.9204567,12.3489921 C12.9065669,12.4277008 12.9128504,12.5054173 12.8936693,12.5854488 C12.7564252,13.153937 12.2554016,13.4056063 11.7530551,13.4833228 C11.4745984,13.5253228 11.1934961,13.5266457 10.9163622,13.5087874 C10.631622,13.4896063 10.3415906,13.4909291 10.0667717,13.3814646 C9.96623622,13.3421102 9.93713386,13.3054016 9.97020472,13.1932913 C10.0211339,13.0216535 10.0604882,12.8424094 10.0796693,12.6628346 C10.0935591,12.531874 10.1547402,12.5156693 10.2539528,12.5457638 C10.6164094,12.6565512 10.9877953,12.689622 11.3651339,12.6793701 C11.6310236,12.6704409 11.7732283,12.5202992 11.7633071,12.258378 C11.7596693,12.1452756 11.702126,12.085748 11.6095276,12.0344882 C11.3426457,11.886 11.0374016,11.8221732 10.7791181,11.6452441 C10.4269134,11.4025039 10.3531654,11.0565827 10.3911969,10.6888346 C10.4126929,10.4804882 10.4791654,10.2833858 10.5945827,10.1028189 C10.7966457,9.7899685 11.1098268,9.68083465 11.4517795,9.61204724 C11.6829449,9.56508661 11.9167559,9.58426772 12.1508976,9.58062992 Z" id="Shape" fill="#808080"></path>
                    <path d="M14.7959055,8.7971811 C14.7922677,8.80743307 14.7922677,8.8163622 14.7972283,8.82628346 C14.8061575,8.83388976 14.810126,8.84149606 14.8074803,8.84910236 C14.8048346,8.85538583 14.8011969,8.85935433 14.7985512,8.85935433 C14.7654803,9.04388976 14.7310866,9.22809449 14.6980157,9.41229921 C14.6890866,9.48472441 14.6788346,9.55714961 14.6675906,9.64511811 C14.8633701,9.64511811 15.0604724,9.64511811 15.2678268,9.64511811 C15.2218583,9.9043937 15.172252,10.1461417 15.1418268,10.3888819 C15.130252,10.4791654 15.0908976,10.4854488 15.0211181,10.4844567 C14.9066929,10.481811 14.7859843,10.5059528 14.6791654,10.4781732 C14.5062047,10.4308819 14.4847087,10.5353858 14.4615591,10.6534488 C14.4387402,10.7741575 14.4169134,10.896189 14.3954173,11.0185512 C14.3914488,11.0833701 14.3990551,11.1471969 14.4030236,11.2120157 C14.3851654,11.2768346 14.3990551,11.3505827 14.345811,11.4051496 C14.2846299,11.7434646 14.2211339,12.0817795 14.1639213,12.4210866 C14.1447402,12.531874 14.1715276,12.607937 14.3014961,12.6552283 C14.4833858,12.7200472 14.6563465,12.7071496 14.8306299,12.6565512 C14.933811,12.6284409 14.9450551,12.6730866 14.925874,12.7491496 C14.8815591,12.9184724 14.8369134,13.0874646 14.8266614,13.261748 C14.8240157,13.3189606 14.7823465,13.3341732 14.7416693,13.3569921 C14.6361732,13.4168504 14.5204252,13.4449606 14.4020315,13.4588504 C14.067685,13.4982047 13.7320157,13.5111024 13.4075906,13.4069291 C13.1506299,13.324252 13.0272756,13.1069764 13.0821732,12.8066929 C13.180063,12.2623465 13.2614173,11.7170079 13.3708819,11.1753071 C13.4813386,10.6246772 13.5617008,10.0674331 13.6546299,9.51184252 C13.6900157,9.30713386 13.7234173,9.1024252 13.7627717,8.89870866 C13.7793071,8.81107087 13.8176693,8.75617323 13.9317638,8.76113386 C14.1784724,8.7740315 14.4251811,8.76377953 14.6718898,8.7664252 C14.7145512,8.76675591 14.7651496,8.74625197 14.7959055,8.7971811 Z" id="Shape" fill="#808080"></path>
                    <path d="M19.5491811,12.4389449 C19.4870079,12.6386929 19.4526142,12.8437323 19.4450079,13.0520787 C19.3788661,13.1400472 19.3930866,13.2508346 19.3815118,13.3460787 C19.3689449,13.4631496 19.3322362,13.4846457 19.2277323,13.482 C18.9591969,13.4767087 18.6896693,13.4757165 18.4204724,13.482 C18.3043937,13.4859685 18.2918268,13.4466142 18.3123307,13.3407874 C18.4241102,12.7494803 18.532252,12.1568504 18.6341102,11.5632283 C18.7396063,10.956378 18.8361732,10.3485354 18.934063,9.74201575 C18.9469606,9.65537008 18.9939213,9.64544882 19.0650236,9.64644094 C19.3448031,9.64908661 19.6255748,9.64908661 19.9053543,9.64544882 C19.9946457,9.64544882 20.0482205,9.67091339 20.0048976,9.76351181 C19.9668661,9.8395748 20.0075433,9.92622047 19.9589291,9.99633071 C19.9281732,10.0343622 19.9460315,10.0816535 19.9410709,10.1233228 C19.9384252,10.1461417 19.9483465,10.1603622 19.9460315,10.1372126 C19.9460315,10.1358898 19.9536378,10.132252 19.9589291,10.1296063 C20.0988189,10.0684252 20.152063,9.91729134 20.2714488,9.82700787 C20.5409764,9.61965354 20.8362992,9.59948031 21.1769291,9.62229921 C21.0168661,9.87892913 20.8945039,10.132252 20.8409291,10.4120315 C20.8336535,10.450063 20.8310079,10.4907402 20.8207559,10.5277795 C20.7999213,10.5925984 20.8078583,10.6534488 20.6831811,10.6279843 C20.3170866,10.5542362 19.8620315,10.8406299 19.7879528,11.1634016 C19.8107717,11.3734016 19.7118898,11.5652126 19.6966772,11.7685984 C19.6431024,11.9914961 19.6563307,12.2292756 19.5491811,12.4389449 Z" id="Shape" fill="#808080"></path>
                    <path d="M19.653685,11.7661937 C19.6917165,11.5638218 19.6996535,11.3547821 19.7882835,11.1634123 C20.152063,11.1634123 20.5155118,11.1634123 20.881937,11.1620787 C20.8667244,11.3634504 20.8234016,11.564822 20.881937,11.7661937 C20.8667244,11.7761956 20.8568031,11.7905316 20.8389449,11.7928654 C20.4573071,11.8265385 20.0756693,11.8275387 19.6970079,11.7915318 C19.6791496,11.790865 19.666252,11.7751954 19.653685,11.7661937 Z" id="Shape" fill="#FFFFFF"></path>
                    <path d="M14.3838425,11.2133386 C14.3874803,11.1471969 14.3914488,11.082378 14.3954173,11.0172283 C14.3977323,11.1280157 14.442378,11.1759685 14.5630866,11.1673701 C14.7168661,11.1548031 14.8722992,11.1634016 15.0260787,11.1620787 C14.9956535,11.3618268 14.9572913,11.5589291 14.9586142,11.7613228 C14.844189,11.7613228 14.7297638,11.76 14.6153386,11.7586772 C14.3954173,11.7586772 14.3802047,11.7447874 14.3788819,11.5285039 C14.3788819,11.4891496 14.3802047,11.4484724 14.3815276,11.4091181 C14.3977323,11.3429764 14.3315906,11.2771654 14.3838425,11.2133386 Z" id="Shape" fill="#FFFFFF"></path>
                    <path d="M32.324126,13.1919685 C32.0162362,13.4287559 31.678252,13.5620315 31.2916535,13.5468189 C30.7522677,13.524 30.3785669,13.2352913 30.1851024,12.7749449 C29.8338898,11.930315 29.9919685,11.1306614 30.4953071,10.4034331 C30.8537953,9.88851969 31.3624252,9.60377953 32.0112756,9.65074016 C32.3595118,9.67488189 32.6369764,9.84023622 32.8582205,10.1567244 C32.9217165,9.80187402 32.9855433,9.47910236 33.0387874,9.15467717 C33.0513543,9.07696063 33.0847559,9.0032126 33.0794646,8.92053543 C33.0741732,8.85571654 33.1102205,8.79850394 33.1915748,8.79982677 C33.4941732,8.79982677 33.7967717,8.79982677 34.1046614,8.79982677 C33.9899055,9.46488189 33.8807717,10.1147244 33.7686614,10.7632441 C33.634063,11.5490079 33.5014488,12.3364252 33.3618898,13.122189 C33.2983937,13.4806772 33.2907874,13.4793543 32.9270079,13.4793543 C32.7669449,13.4793543 32.6039055,13.4654646 32.4464882,13.4833228 C32.2837795,13.5025039 32.2659213,13.4261102 32.2913858,13.3027559 C32.2986614,13.2643937 32.3142047,13.2290079 32.324126,13.1919685 Z" id="Shape" fill="#808080"></path>
                    <path d="M26.3981575,13.1896535 C26.1643465,13.3497165 25.937811,13.4780315 25.6785354,13.5276378 C25.207937,13.6156063 24.7806614,13.5656693 24.4347402,13.1883307 C24.3074173,13.0494331 24.2541732,12.8804409 24.2313543,12.710126 C24.1777795,12.2775591 24.2568189,11.8631811 24.5670236,11.5377638 C24.8342362,11.2589764 25.1725512,11.1028819 25.5591496,11.0622047 C25.9202835,11.0241732 26.2814173,10.9755591 26.6475118,10.9911024 C26.7414331,10.9947402 26.7391181,10.8740315 26.7288661,10.8052441 C26.7007559,10.615748 26.5430079,10.4874331 26.3323465,10.4847874 C25.8415748,10.4785039 25.3504724,10.4732126 24.8851654,10.6564252 C24.7909134,10.691811 24.7809921,10.6322835 24.7985197,10.5701102 C24.8673071,10.3194331 24.9486614,10.0730551 25.0144724,9.82105512 C25.0323307,9.75127559 25.0806142,9.73606299 25.134189,9.71688189 C25.3908189,9.62924409 25.6606772,9.5796378 25.9325197,9.58228346 C26.2962992,9.58592126 26.6650394,9.53631496 27.0212126,9.64974803 C27.4131024,9.77310236 27.756378,9.96524409 27.8681575,10.3948346 C27.9369449,10.6633701 27.8681575,10.9391811 27.809622,11.2047402 C27.6545197,11.9260157 27.5142992,12.6492756 27.3922677,13.3751811 C27.3720945,13.4912598 27.3291024,13.5167244 27.2272441,13.5154016 C27.0136063,13.5101102 26.7999685,13.5011811 26.5886457,13.5177165 C26.425937,13.5292913 26.3750079,13.4707559 26.3978268,13.3179685 C26.4034488,13.2862205 26.3981575,13.2528189 26.3981575,13.1896535 Z" id="Shape" fill="#808080"></path>
                    <path d="M29.3384882,10.2202205 C29.6334803,9.85908661 29.943685,9.59220472 30.4218898,9.61733858 C30.4037008,9.90472441 30.3352441,10.1745827 30.2896063,10.447748 C30.2770394,10.5251339 30.2515748,10.5496063 30.1702205,10.5532441 C29.4988819,10.5899528 29.1936378,10.8892441 29.0944252,11.5705039 C29.0077795,12.1578425 28.898315,12.744189 28.7991024,13.3318583 C28.7812441,13.4271024 28.7458583,13.4896063 28.6211811,13.4829921 C28.3592598,13.471748 28.0946929,13.4777008 27.830126,13.4803465 C27.7408346,13.4816693 27.7157008,13.4651339 27.7335591,13.3632756 C27.8377323,12.7858583 27.9342992,12.2074488 28.0460787,11.6326772 C28.1631496,11.0347559 28.2597165,10.4348504 28.3589291,9.83329134 C28.3794331,9.69968504 28.4174646,9.63618898 28.5676063,9.64379528 C28.814315,9.65768504 29.0606929,9.64743307 29.3074016,9.64743307 C29.3788346,9.64743307 29.439685,9.63222047 29.4042992,9.75292913 C29.3639528,9.89215748 29.3613071,10.0409764 29.3384882,10.2202205 Z" id="Shape" fill="#808080"></path>
                    <path d="M19.653685,11.7613228 C20.0631024,11.7613228 20.4728504,11.7613228 20.881937,11.7613228 C20.8895433,11.9991024 20.9533701,12.2239843 21.0525827,12.4389449 C20.5515591,12.4389449 20.0505354,12.4389449 19.5495118,12.4389449 C19.5465354,12.2077795 19.6130079,11.9865354 19.653685,11.7613228 Z" id="Shape" fill="#E6E6E6"></path>
                    <path d="M10.0257638,10.0826457 C9.77541732,9.79658268 9.44834646,9.63883465 9.06935433,9.61733858 C8.7475748,9.59948031 8.42480315,9.61601575 8.10302362,9.61237795 C7.92510236,9.60973228 7.75445669,9.65040945 7.58546457,9.69108661 C7.51171654,9.70894488 7.39464567,9.71787402 7.36686614,9.79922835 C7.27393701,10.0740472 7.19886614,10.3564724 7.11486614,10.6425354 C7.21540157,10.6488189 7.27625197,10.5978898 7.34503937,10.5790394 C7.65392126,10.4937165 7.97206299,10.4847874 8.28590551,10.455685 C8.51343307,10.434189 8.75253543,10.4163307 8.9536063,10.5790394 C9.07431496,10.6769291 9.09614173,10.8055748 9.06406299,10.9414961 C9.02966929,11.080063 8.9076378,11.0241732 8.82099213,11.0254961 C8.4916063,11.0321102 8.16486614,11.0496378 7.83548031,11.0866772 C7.15653543,11.1627402 6.48255118,11.775874 6.55133858,12.5530394 C6.58176378,12.8923465 6.68990551,13.1734488 6.9835748,13.3602992 C7.3308189,13.5802205 7.70187402,13.5931181 8.09111811,13.487622 C8.32889764,13.424126 8.54385827,13.3182992 8.75253543,13.1760945 C8.78428346,13.2908504 8.76774803,13.3781575 8.7396378,13.4813386 C8.95592126,13.4813386 9.16195276,13.4813386 9.36666142,13.4813386 C9.69340157,13.4813386 9.70100787,13.4813386 9.74565354,13.1674961 C9.75822047,13.0834961 9.77244094,12.9981732 9.78765354,12.9154961 C9.91464567,12.2329134 10.0456063,11.5509921 10.1805354,10.8684094 C10.2370866,10.5826772 10.2231969,10.3091811 10.0257638,10.0826457 Z M8.94137008,11.8631811 C8.88911811,12.0334961 8.86629921,12.2077795 8.77601575,12.371811 C8.64770079,12.6016535 8.10070866,12.7749449 7.82853543,12.6730866 C7.71675591,12.6324094 7.66185827,12.5189764 7.66185827,12.3231969 C7.6287874,12.0943465 7.80670866,11.9772756 7.95949606,11.8731024 C8.19992126,11.7103937 8.48466142,11.665748 8.77204724,11.6634331 C8.89804724,11.6637638 8.99329134,11.6902205 8.94137008,11.8631811 Z" id="Shape" fill="#808080"></path>
                    <path d="M16.2010866,11.0949449 C16.2149764,10.7199213 16.4606929,10.4517165 16.8472913,10.3868976 C17.1016063,10.3448976 17.380063,10.5763937 17.4194173,10.8369921 C17.4591024,11.0949449 17.4591024,11.0949449 17.1968504,11.0949449 C16.8661417,11.0949449 16.5341102,11.0949449 16.2010866,11.0949449 Z" id="Shape" fill="#E6E6E6"></path>
                    <path d="M32.6320157,11.3165197 C32.6267244,11.7728976 32.5020472,12.1836378 32.1233858,12.4697008 C31.7189291,12.7775906 31.3148031,12.6234803 31.2026929,12.1389921 C31.0757008,11.5946457 31.2179055,11.1280157 31.5793701,10.7225669 C31.7192598,10.5634961 31.9074331,10.4937165 32.1260315,10.5049606 C32.4005197,10.5201732 32.6144882,10.8647717 32.6320157,11.1432283 C32.6346614,11.2004409 32.6320157,11.2589764 32.6320157,11.3165197 Z" id="Shape" fill="#FFFFFF"></path>
                    <path d="M26.4008031,11.6611181 C26.5942677,11.6624409 26.6144409,11.6955118 26.6094803,11.8747559 C26.591622,12.4392756 26.2152756,12.6519213 25.7602205,12.7088031 C25.6203307,12.7253386 25.470189,12.7015276 25.3914803,12.5550236 C25.2949134,12.3757795 25.3174016,12.182315 25.4420787,12.0361417 C25.6229764,11.8238268 25.8620787,11.7295748 26.1289606,11.694189 C26.2255276,11.6812913 26.3194488,11.6710394 26.4008031,11.6611181 Z" id="Shape" fill="#FFFFFF"></path>
                </g>
            </g>
        </g>
    </g>
</svg>