<?xml version="1.0" encoding="UTF-8"?>
<svg width="20px" height="30px" viewBox="0 0 20 30" version="1.1" xmlns="http://www.w3.org/2000/svg" xmlns:xlink="http://www.w3.org/1999/xlink">
    <!-- Generator: Sketch 56.3 (81716) - https://sketch.com -->
    <title>icon-shipping</title>
    <desc>Created with Sketch.</desc>
    <g id="Page-1" stroke="none" stroke-width="1" fill="none" fill-rule="evenodd">
        <g id="Payment-Page" transform="translate(-693.000000, -1207.000000)" fill="#39BF71" fill-rule="nonzero">
            <g id="icon-shipping" transform="translate(693.000000, 1207.000000)">
                <path d="M10,0 C4.7125,0 0.41125,4.30125 0.41125,9.58875 C0.41125,11.049375 0.741875,12.46625 1.39375,13.79875 C1.49875,14.013125 1.716875,14.149375 1.955,14.149375 L18.045,14.149375 C18.28375,14.149375 18.501875,14.013125 18.60625,13.798125 C19.2575,12.464375 19.5875003,11.048125 19.5875003,9.58875 C19.58875,4.30125 15.2875,0 10,0 Z" id="Path"></path>
                <path d="M13.55375,22.846875 L6.4475,22.846875 C6.101875,22.846875 5.8225,23.12625 5.8225,23.471875 L5.8225,29.375 C5.8225,29.720625 6.101875,30 6.4475,30 L13.553125,30 C13.89875,30 14.178126,29.720625 14.178126,29.375 L14.178126,23.471875 C14.17875,23.12625 13.89875,22.846875 13.55375,22.846875 Z" id="Path"></path>
                <g id="Group" transform="translate(1.250000, 13.125000)">
                    <path d="M5.56,10.971875 C5.325625,10.971875 5.10125,10.839375 4.994375,10.61375 L0.513125,1.1275 C0.36625,0.815625 0.499375,0.443125 0.811875,0.295625 C1.124375,0.1475 1.49625,0.2825 1.64375,0.594375 L6.125,10.080625 C6.271875,10.3925 6.13875,10.765 5.82625,10.9125 C5.74,10.9525 5.64875,10.971875 5.56,10.971875 Z" id="Path"></path>
                    <path d="M11.94125,10.971875 C11.851875,10.971875 11.76125,10.953125 11.675,10.911875 C11.3625,10.764375 11.229375,10.391875 11.37625,10.08 L15.85625,0.59375 C16.00375,0.2825 16.375625,0.146875 16.688125,0.295 C17.000625,0.4425 17.13375,0.815 16.986875,1.126875 L12.506875,10.613125 C12.400625,10.839375 12.175625,10.971875 11.94125,10.971875 Z" id="Path"></path>
                </g>
                <path d="M10,23.635 C9.654375,23.635 9.375,23.355625 9.375,23.01 L9.375,13.985625 C9.375,13.64 9.654375,13.360625 10,13.360625 C10.345625,13.360625 10.625,13.64 10.625,13.985625 L10.625,23.01 C10.625,23.355625 10.345625,23.635 10,23.635 Z" id="Path"></path>
            </g>
        </g>
    </g>
</svg>