<?xml version="1.0" encoding="UTF-8"?>
<svg width="945px" height="363px" viewBox="0 0 945 363" version="1.1" xmlns="http://www.w3.org/2000/svg" xmlns:xlink="http://www.w3.org/1999/xlink">
    <!-- Generator: Sketch 64 (93537) - https://sketch.com -->
    <title>nuage</title>
    <desc>Created with Sketch.</desc>
    <defs>
        <path d="M18.392,0.6144 C15.9568,4.7752 0.1992,24.5536 0.072,35.4096 L0.072,35.4096 C-0.2032,59.4736 17.5504,75.4096 19.936,76.4664 L19.936,76.4664 C22.3208,77.5264 47.3024,66.6264 40.0816,34.3864 L40.0816,34.3864 C36.332,19.6448 23.4568,4.7648 19.76,0.6496 L19.76,0.6496 C19.5595592,0.441858596 19.282253,0.326073104 18.9936,0.3296 L18.9936,0.3296 C18.757075,0.312873498 18.5289811,0.420854115 18.392,0.6144" id="path-1"></path>
        <linearGradient x1="66.1%" y1="98.2%" x2="31.6%" y2="1.6%" id="linearGradient-3">
            <stop stop-color="#177B48" offset="0%"></stop>
            <stop stop-color="#34AA69" offset="100%"></stop>
        </linearGradient>
        <path d="M18.3888,0.6144 C15.9568,4.7752 -0.0864,24.5536 0.0736,35.4096 L0.0736,35.4096 C0.308,51.3544 17.5512,75.4096 19.9376,76.4664 L19.9376,76.4664 C22.3224,77.5264 45.9376,69.6664 38.712,37.4264 L38.712,37.4264 C34.9608,22.6856 23.456,4.7648 19.7592,0.6496 L19.7592,0.6496 C19.5589507,0.442062192 19.2819761,0.326294346 18.9936,0.3296 L18.9936,0.3296 C18.7559718,0.311721093 18.5263872,0.419832353 18.3888,0.6144" id="path-4"></path>
        <path d="M18.3888,0.6144 C15.9568,4.7752 -0.0864,24.5536 0.0736,35.4096 L0.0736,35.4096 C0.308,51.3544 17.5512,75.4096 19.9376,76.4664 L19.9376,76.4664 C22.3224,77.5264 45.9376,69.6664 38.712,37.4264 L38.712,37.4264 C34.9608,22.6856 23.456,4.7648 19.7592,0.6496 L19.7592,0.6496 C19.5589507,0.442062192 19.2819761,0.326294346 18.9936,0.3296 L18.9936,0.3296 C18.7559718,0.311721093 18.5263872,0.419832353 18.3888,0.6144" id="path-6"></path>
        <path d="M18.3888,0.6144 C15.9568,4.7752 -0.0864,24.5536 0.0736,35.4096 L0.0736,35.4096 C0.308,51.3544 17.5512,75.4096 19.9376,76.4664 L19.9376,76.4664 C22.3224,77.5264 45.9376,69.6664 38.712,37.4264 L38.712,37.4264 C34.9608,22.6856 23.456,4.7648 19.7592,0.6496 L19.7592,0.6496 C19.5589507,0.442062192 19.2819761,0.326294346 18.9936,0.3296 L18.9936,0.3296 C18.7559718,0.311721093 18.5263872,0.419832353 18.3888,0.6144" id="path-8"></path>
        <path d="M5.2016,0.7544 C4.5136,5.7096 -2.7832,30.92 1.3896,41.3864 L1.3896,41.3864 C10.6432,64.5864 33.9808,72.8496 36.6888,72.9233991 L36.6888,72.9233991 C39.3976,72.9968 59.0552,52.6568 39.3752,24.5792 L39.3752,24.5792 C29.9496,11.9152 11.7056,2.7336 6.5312,0.248 L6.5312,0.248 C6.39934637,0.18601111 6.25529557,0.154303534 6.1096,0.1552 L6.1096,0.1552 C5.7040178,0.117887581 5.3267926,0.366822972 5.2016,0.7544" id="path-10"></path>
        <linearGradient x1="90.1%" y1="94.2%" x2="0.9%" y2="4.9%" id="linearGradient-12">
            <stop stop-color="#177B48" offset="0%"></stop>
            <stop stop-color="#34AA69" offset="100%"></stop>
        </linearGradient>
        <path d="M6,0.7544 C5.4696,4.584 0.8272,20.5832 0.8,32.432 L0.8,32.432 L0.8,32.6432 C0.692719671,35.6202874 1.16549755,38.5898215 2.192,41.3864 L2.192,41.3864 C8.724,56.5928 34.7832,72.8496 37.4912,72.9242397 L37.4912,72.9242397 C40.2,72.9976 59.7464,56.1168 40.0656,28.04 L40.0656,28.04 C30.6336,15.3776 12.5056,2.7336 7.332,0.248 L7.332,0.248 C7.19917086,0.185542954 7.05397387,0.153823836 6.9072,0.1552 L6.9072,0.1552 C6.50190327,0.118280217 6.12512748,0.367138304 6,0.7544" id="path-13"></path>
        <path d="M6,0.7544 C5.4696,4.584 0.8272,20.5832 0.8,32.432 L0.8,32.432 L0.8,32.6432 C0.692719671,35.6202874 1.16549755,38.5898215 2.192,41.3864 L2.192,41.3864 C8.724,56.5928 34.7832,72.8496 37.4912,72.9242397 L37.4912,72.9242397 C40.2,72.9976 59.7464,56.1168 40.0656,28.04 L40.0656,28.04 C30.6336,15.3776 12.5056,2.7336 7.332,0.248 L7.332,0.248 C7.19917086,0.185542954 7.05397387,0.153823836 6.9072,0.1552 L6.9072,0.1552 C6.50190327,0.118280217 6.12512748,0.367138304 6,0.7544" id="path-15"></path>
        <path d="M6,0.7544 C5.4696,4.584 0.8272,20.5832 0.8,32.432 L0.8,32.432 L0.8,32.6432 C0.692719671,35.6202874 1.16549755,38.5898215 2.192,41.3864 L2.192,41.3864 C8.724,56.5928 34.7832,72.8496 37.4912,72.9242397 L37.4912,72.9242397 C40.2,72.9976 59.7464,56.1168 40.0656,28.04 L40.0656,28.04 C30.6336,15.3776 12.5056,2.7336 7.332,0.248 L7.332,0.248 C7.19917086,0.185542954 7.05397387,0.153823836 6.9072,0.1552 L6.9072,0.1552 C6.50190327,0.118280217 6.12512748,0.367138304 6,0.7544" id="path-17"></path>
        <path d="M82.7872,0.5616 C75.696,3.2488 37.392,12.8816 25.5624,24.456 L25.5624,24.456 C8.1864,41.4528 -0.6976,78.9328 0.5784,81.724 L0.5784,81.724 C1.8584,84.5152 34.7544,92.7704 62.9632,53.6744 L62.9632,53.6744 C75.4016,35.48 83.3992,8.4984 84.1528,1.5624 L84.1528,1.5624 C84.1528,1.5376 84.1576,1.5136 84.1576,1.4896 L84.1576,1.4896 L84.1576,1.4432 C84.1164786,0.908003282 83.6687667,0.495563511 83.132,0.498385458 L83.132,0.498385458 C83.0141847,0.498385458 82.8973486,0.519794042 82.7872,0.5616" id="path-19"></path>
        <linearGradient x1="16.3%" y1="106.1%" x2="82.9%" y2="-9%" id="linearGradient-21">
            <stop stop-color="#177548" offset="0%"></stop>
            <stop stop-color="#34AA69" offset="100%"></stop>
        </linearGradient>
        <path d="M82.7872,0.5616 C75.696,3.2488 37.392,12.8816 25.5616,24.456 L25.5616,24.456 C8.1864,41.4528 -0.6976,78.9328 0.5784,81.724 L0.5784,81.724 C1.8584,84.5152 34.7544,92.7704 62.9632,53.6744 L62.9632,53.6744 C75.4016,35.48 83.3992,8.4984 84.1528,1.5624 L84.1528,1.5624 C84.1528,1.5376 84.1576,1.5136 84.1576,1.4896 L84.1576,1.4896 L84.1576,1.4432 C84.1164786,0.908003282 83.6687667,0.495563511 83.132,0.498385458 L83.132,0.498385458 C83.0141847,0.498385458 82.8973486,0.519794042 82.7872,0.5616" id="path-22"></path>
        <path d="M82.7872,0.5616 C75.696,3.2488 37.392,12.8816 25.5616,24.456 L25.5616,24.456 C8.1864,41.4528 -0.6976,78.9328 0.5784,81.724 L0.5784,81.724 C1.8584,84.5152 34.7544,92.7704 62.9632,53.6744 L62.9632,53.6744 C75.4016,35.48 83.3992,8.4984 84.1528,1.5624 L84.1528,1.5624 C84.1528,1.5376 84.1576,1.5136 84.1576,1.4896 L84.1576,1.4896 L84.1576,1.4432 C84.1164786,0.908003282 83.6687667,0.495563511 83.132,0.498385458 L83.132,0.498385458 C83.0141847,0.498385458 82.8973486,0.519794042 82.7872,0.5616" id="path-24"></path>
        <path d="M82.7872,0.5616 C75.696,3.2488 37.392,12.8816 25.5616,24.456 L25.5616,24.456 C8.1864,41.4528 -0.6976,78.9328 0.5784,81.724 L0.5784,81.724 C1.8584,84.5152 34.7544,92.7704 62.9632,53.6744 L62.9632,53.6744 C75.4016,35.48 83.3992,8.4984 84.1528,1.5624 L84.1528,1.5624 C84.1528,1.5376 84.1576,1.5136 84.1576,1.4896 L84.1576,1.4896 L84.1576,1.4432 C84.1164786,0.908003282 83.6687667,0.495563511 83.132,0.498385458 L83.132,0.498385458 C83.0141847,0.498385458 82.8973486,0.519794042 82.7872,0.5616" id="path-26"></path>
        <path d="M82.7872,0.5616 C75.696,3.2488 37.392,12.8816 25.5616,24.456 L25.5616,24.456 C8.1864,41.4528 -0.6976,78.9328 0.5784,81.724 L0.5784,81.724 C1.8584,84.5152 34.7544,92.7704 62.9632,53.6744 L62.9632,53.6744 C75.4016,35.48 83.3992,8.4984 84.1528,1.5624 L84.1528,1.5624 C84.1528,1.5376 84.1576,1.5136 84.1576,1.4896 L84.1576,1.4896 L84.1576,1.4432 C84.1164786,0.908003282 83.6687667,0.495563511 83.132,0.498385458 L83.132,0.498385458 C83.0141847,0.498385458 82.8973486,0.519794042 82.7872,0.5616" id="path-28"></path>
        <path d="M2.833,0.079 C2.45206394,0.0962417797 2.14564312,0.398346809 2.123,0.779 L2.123,0.779 C1.917,6.203 -2.413,34.142 1.917,45.169 L1.917,45.169 C8.278,61.363 30.508,77.671 32.7,77.6101706 L32.7,77.6101706 C34.9,77.547 49.511,58.159 31.6,28.66 L31.6,28.66 C23.083,15.386 7.524,2.588 3.163,0.158 L3.163,0.158 C3.07574828,0.109099317 2.97797577,0.0819974646 2.878,0.079 L2.833,0.079 Z" id="path-30"></path>
        <linearGradient x1="103%" y1="91.3%" x2="-16.1%" y2="9.1%" id="linearGradient-32">
            <stop stop-color="#177B48" offset="0%"></stop>
            <stop stop-color="#34AA69" offset="100%"></stop>
        </linearGradient>
        <path d="M2.833,0.079 C2.45206394,0.0962417797 2.14564312,0.398346809 2.123,0.779 L2.123,0.779 C1.917,6.203 -2.413,34.142 1.917,45.169 L1.917,45.169 C8.278,61.363 30.508,77.671 32.7,77.6101706 L32.7,77.6101706 C34.9,77.547 49.511,58.159 31.6,28.66 L31.6,28.66 C23.083,15.386 7.524,2.588 3.163,0.158 L3.163,0.158 C3.07574828,0.109099317 2.97797577,0.0819974646 2.878,0.079 L2.878,0.079" id="path-33"></path>
        <path d="M2.833,0.079 C2.45206394,0.0962417797 2.14564312,0.398346809 2.123,0.779 L2.123,0.779 C1.917,6.203 -2.413,34.142 1.917,45.169 L1.917,45.169 C8.278,61.363 30.508,77.671 32.7,77.6101706 L32.7,77.6101706 C34.9,77.547 49.511,58.159 31.6,28.66 L31.6,28.66 C23.083,15.386 7.524,2.588 3.163,0.158 L3.163,0.158 C3.07574828,0.109099317 2.97797577,0.0819974646 2.878,0.079 L2.878,0.079" id="path-35"></path>
        <path d="M2.833,0.079 C2.45206394,0.0962417797 2.14564312,0.398346809 2.123,0.779 L2.123,0.779 C1.917,6.203 -2.413,34.142 1.917,45.169 L1.917,45.169 C8.278,61.363 30.508,77.671 32.7,77.6101706 L32.7,77.6101706 C34.9,77.547 49.511,58.159 31.6,28.66 L31.6,28.66 C23.083,15.386 7.524,2.588 3.163,0.158 L3.163,0.158 C3.07574828,0.109099317 2.97797577,0.0819974646 2.878,0.079 L2.878,0.079" id="path-37"></path>
        <path d="M2.833,0.079 C2.45206394,0.0962417797 2.14564312,0.398346809 2.123,0.779 L2.123,0.779 C1.917,6.203 -2.413,34.142 1.917,45.169 L1.917,45.169 C8.278,61.363 30.508,77.671 32.7,77.6101706 L32.7,77.6101706 C34.9,77.547 49.511,58.159 31.6,28.66 L31.6,28.66 C23.083,15.386 7.524,2.588 3.163,0.158 L3.163,0.158 C3.07574828,0.109099317 2.97797577,0.0819974646 2.878,0.079 L2.878,0.079" id="path-39"></path>
    </defs>
    <g id="Page-1" stroke="none" stroke-width="1" fill="none" fill-rule="evenodd">
        <g id="Desktop" transform="translate(-217.000000, -891.000000)">
            <g id="nuage" transform="translate(691.892455, 1114.421013) rotate(-10.000000) translate(-691.892455, -1114.421013) translate(213.892455, 917.921013)">
                <path d="M657.536398,13.5618508 C612.0169,27.8379557 597.228565,45.1982701 566.262389,44.0665848 C529.297073,42.7161918 502.296323,38.3661379 466.349901,27.6737505 C409.306267,10.7077634 347.066053,-17.2595917 294.726573,15.4001668 C269.242146,31.3014747 251.576546,50.2173995 225.136766,63.5472868 C200.361858,76.0358532 173.07716,73.3797408 145.800783,70.7236285 C118.337571,68.0489036 90.884193,65.3751082 66.010951,78.1577653 C39.372989,91.8487494 0.051436,139.192508 -2.27373675e-13,177.583289 L-2.27373675e-13,177.751738 C0.022692,191.277996 4.791142,204.693503 12.847733,213.89776 C40.74891,245.772039 106.644886,229.850256 140.790281,226.604102 C186.9748,222.213235 235.399068,217.359827 279.245504,239.792529 C304.323735,252.623579 326.231068,273.662149 351.473441,285.996225 C389.982602,304.815163 431.901689,301.759796 473.943315,298.704429 C512.626452,295.894757 531.71782,289.610261 568.046989,303.838237 C623.252531,325.459402 651.630178,340.336185 704.829703,368.561332 C731.221829,382.563158 759.911949,388.901904 788.543827,391.987053 C826.221393,396.046172 887.88913,382.090128 916.9862,315.852048 C946.08327,249.613968 976.408363,161.169227 936.289239,104.806695 C896.170115,48.4441642 708.784618,-2.51093136 657.536398,13.5618508 Z" id="fond-illu" fill="#FCF1E3" fill-rule="nonzero"></path>
                <g id="plante-2" transform="translate(385.197905, 103.307887)">
                    <path d="M85.72,102.4688 C85.72,106.6744 66.8512,110.084 43.5744,110.084 C20.2976,110.084 1.428,106.6744 1.428,102.4688 C1.428,98.2632 20.2976,94.8536 43.5736,94.8536 C66.8496,94.8536 85.72,98.2624 85.72,102.4688" id="Fill_1" fill="#F4E9DC" fill-rule="nonzero"></path>
                    <g id="Group_5" transform="translate(24.800000, 0.469600)">
                        <path d="M18.392,0.6144 C15.9568,4.7752 0.1992,24.5536 0.072,35.4096 L0.072,35.4096 C-0.2032,59.4736 17.5504,75.4096 19.936,76.4664 L19.936,76.4664 C22.3208,77.5264 47.3024,66.6264 40.0816,34.3864 L40.0816,34.3864 C36.332,19.6448 23.4568,4.7648 19.76,0.6496 L19.76,0.6496 C19.5595592,0.441858596 19.282253,0.326073104 18.9936,0.3296 L18.9936,0.3296 C18.757075,0.312873498 18.5289811,0.420854115 18.392,0.6144" id="Clip_4-2"></path>
                        <g id="Group_5-2-Clipped">
                            <mask id="mask-2" fill="white">
                                <use xlink:href="#path-1"></use>
                            </mask>
                            <g id="Clip_4"></g>
                            <g id="Group_5-2" mask="url(#mask-2)" fill="url(#linearGradient-3)" fill-rule="nonzero">
                                <path d="M18.392,0.6144 C15.9568,4.7752 0.1992,24.5536 0.072,35.4096 L0.072,35.4096 C-0.2032,59.4736 17.5504,75.4096 19.936,76.4664 L19.936,76.4664 C22.3208,77.5264 47.3024,66.6264 40.0816,34.3864 L40.0816,34.3864 C36.332,19.6448 23.4568,4.7648 19.76,0.6496 L19.76,0.6496 C19.5595592,0.441858596 19.282253,0.326073104 18.9936,0.3296 L18.9936,0.3296 C18.757075,0.312873498 18.5289811,0.420854115 18.392,0.6144" id="Fill_3"></path>
                            </g>
                        </g>
                    </g>
                    <g id="Group_15" transform="translate(24.800000, 0.469600)">
                        <g id="Group_8">
                            <path d="M18.3888,0.6144 C15.9568,4.7752 -0.0864,24.5536 0.0736,35.4096 L0.0736,35.4096 C0.308,51.3544 17.5512,75.4096 19.9376,76.4664 L19.9376,76.4664 C22.3224,77.5264 45.9376,69.6664 38.712,37.4264 L38.712,37.4264 C34.9608,22.6856 23.456,4.7648 19.7592,0.6496 L19.7592,0.6496 C19.5589507,0.442062192 19.2819761,0.326294346 18.9936,0.3296 L18.9936,0.3296 C18.7559718,0.311721093 18.5263872,0.419832353 18.3888,0.6144" id="Clip_7-2"></path>
                            <g id="Group_8-2-Clipped">
                                <mask id="mask-5" fill="white">
                                    <use xlink:href="#path-4"></use>
                                </mask>
                                <g id="Clip_7"></g>
                                <g id="Group_8-2" mask="url(#mask-5)" stroke="#34AB6A" stroke-linecap="round" stroke-width="2.4">
                                    <g transform="translate(15.200000, 18.400000)" id="Stroke_6">
                                        <path d="M0.776,73.7664 C0.776,73.7664 10.1224,49.5672 5.1352,28.9224 C0.148,8.2776 4.0144,0.4824 4.0144,0.4824"></path>
                                    </g>
                                </g>
                            </g>
                        </g>
                        <g id="Group_11">
                            <path d="M18.3888,0.6144 C15.9568,4.7752 -0.0864,24.5536 0.0736,35.4096 L0.0736,35.4096 C0.308,51.3544 17.5512,75.4096 19.9376,76.4664 L19.9376,76.4664 C22.3224,77.5264 45.9376,69.6664 38.712,37.4264 L38.712,37.4264 C34.9608,22.6856 23.456,4.7648 19.7592,0.6496 L19.7592,0.6496 C19.5589507,0.442062192 19.2819761,0.326294346 18.9936,0.3296 L18.9936,0.3296 C18.7559718,0.311721093 18.5263872,0.419832353 18.3888,0.6144" id="Clip_10-2"></path>
                            <g id="Group_11-2-Clipped">
                                <mask id="mask-7" fill="white">
                                    <use xlink:href="#path-6"></use>
                                </mask>
                                <g id="Clip_7"></g>
                                <g id="Group_11-2" mask="url(#mask-7)" stroke="#34AB6A" stroke-linecap="round" stroke-width="2.4">
                                    <g transform="translate(10.400000, 41.600000)" id="Stroke_9">
                                        <path d="M0.1896,0.316 C0.1896,0.316 9.2808,7.1744 10.7632,11.4584"></path>
                                    </g>
                                </g>
                            </g>
                        </g>
                        <g id="Group_14">
                            <path d="M18.3888,0.6144 C15.9568,4.7752 -0.0864,24.5536 0.0736,35.4096 L0.0736,35.4096 C0.308,51.3544 17.5512,75.4096 19.9376,76.4664 L19.9376,76.4664 C22.3224,77.5264 45.9376,69.6664 38.712,37.4264 L38.712,37.4264 C34.9608,22.6856 23.456,4.7648 19.7592,0.6496 L19.7592,0.6496 C19.5589507,0.442062192 19.2819761,0.326294346 18.9936,0.3296 L18.9936,0.3296 C18.7559718,0.311721093 18.5263872,0.419832353 18.3888,0.6144" id="Clip_13-2"></path>
                            <g id="Group_14-2-Clipped">
                                <mask id="mask-9" fill="white">
                                    <use xlink:href="#path-8"></use>
                                </mask>
                                <g id="Clip_7"></g>
                                <g id="Group_14-2" mask="url(#mask-9)" stroke="#34AB6A" stroke-linecap="round" stroke-width="2.4">
                                    <g transform="translate(17.600000, 27.200000)" id="Stroke_12">
                                        <path d="M0.6824,8.5224 C2.91269778,5.40624906 5.5557729,2.60735065 8.5392,0.2024"></path>
                                    </g>
                                </g>
                            </g>
                        </g>
                    </g>
                    <g id="Group_18" transform="translate(0.800000, 25.069600)">
                        <path d="M5.2016,0.7544 C4.5136,5.7096 -2.7832,30.92 1.3896,41.3864 L1.3896,41.3864 C10.6432,64.5864 33.9808,72.8496 36.6888,72.9233991 L36.6888,72.9233991 C39.3976,72.9968 59.0552,52.6568 39.3752,24.5792 L39.3752,24.5792 C29.9496,11.9152 11.7056,2.7336 6.5312,0.248 L6.5312,0.248 C6.39934637,0.18601111 6.25529557,0.154303534 6.1096,0.1552 L6.1096,0.1552 C5.7040178,0.117887581 5.3267926,0.366822972 5.2016,0.7544" id="Clip_17-2"></path>
                        <g id="Group_18-2-Clipped">
                            <mask id="mask-11" fill="white">
                                <use xlink:href="#path-10"></use>
                            </mask>
                            <g id="Clip_17"></g>
                            <g id="Group_18-2" mask="url(#mask-11)" fill="url(#linearGradient-12)" fill-rule="nonzero">
                                <path d="M5.2016,0.7544 C4.5136,5.7096 -2.7832,30.92 1.3896,41.3864 L1.3896,41.3864 C10.6432,64.5864 33.9808,72.8496 36.6888,72.9233991 L36.6888,72.9233991 C39.3976,72.9968 59.0552,52.6568 39.3752,24.5792 L39.3752,24.5792 C29.9496,11.9152 11.7056,2.7336 6.5312,0.248 L6.5312,0.248 C6.39934637,0.18601111 6.25529557,0.154303534 6.1096,0.1552 L6.1096,0.1552 C5.7040178,0.117887581 5.3267926,0.366822972 5.2016,0.7544" id="Fill_16"></path>
                            </g>
                        </g>
                    </g>
                    <g id="Group_28" transform="translate(0.000000, 25.069600)">
                        <g id="Group_21">
                            <path d="M6,0.7544 C5.4696,4.584 0.8272,20.5832 0.8,32.432 L0.8,32.432 L0.8,32.6432 C0.692719671,35.6202874 1.16549755,38.5898215 2.192,41.3864 L2.192,41.3864 C8.724,56.5928 34.7832,72.8496 37.4912,72.9242397 L37.4912,72.9242397 C40.2,72.9976 59.7464,56.1168 40.0656,28.04 L40.0656,28.04 C30.6336,15.3776 12.5056,2.7336 7.332,0.248 L7.332,0.248 C7.19917086,0.185542954 7.05397387,0.153823836 6.9072,0.1552 L6.9072,0.1552 C6.50190327,0.118280217 6.12512748,0.367138304 6,0.7544" id="Clip_20-2"></path>
                            <g id="Group_21-2-Clipped">
                                <mask id="mask-14" fill="white">
                                    <use xlink:href="#path-13"></use>
                                </mask>
                                <g id="Clip_20"></g>
                                <g id="Group_21-2" mask="url(#mask-14)" stroke="#34AB6A" stroke-linecap="round" stroke-width="2.4">
                                    <g transform="translate(13.600000, 17.600000)" id="Stroke_19">
                                        <path d="M26.2984,71.9568 C26.2984,71.9568 25.6944,45.0392 12.7432,27.2024 C-0.208,9.3656 0.4192,0.3568 0.4192,0.3568"></path>
                                    </g>
                                </g>
                            </g>
                        </g>
                        <g id="Group_24">
                            <path d="M6,0.7544 C5.4696,4.584 0.8272,20.5832 0.8,32.432 L0.8,32.432 L0.8,32.6432 C0.692719671,35.6202874 1.16549755,38.5898215 2.192,41.3864 L2.192,41.3864 C8.724,56.5928 34.7832,72.8496 37.4912,72.9242397 L37.4912,72.9242397 C40.2,72.9976 59.7464,56.1168 40.0656,28.04 L40.0656,28.04 C30.6336,15.3776 12.5056,2.7336 7.332,0.248 L7.332,0.248 C7.19917086,0.185542954 7.05397387,0.153823836 6.9072,0.1552 L6.9072,0.1552 C6.50190327,0.118280217 6.12512748,0.367138304 6,0.7544" id="Clip_23-2"></path>
                            <g id="Group_24-2-Clipped">
                                <mask id="mask-16" fill="white">
                                    <use xlink:href="#path-15"></use>
                                </mask>
                                <g id="Clip_20"></g>
                                <g id="Group_24-2" mask="url(#mask-16)" stroke="#34AB6A" stroke-linecap="round" stroke-width="2.4">
                                    <g transform="translate(14.400000, 43.200000)" id="Stroke_22">
                                        <path d="M0.4544,0.2696 C0.4544,0.2696 11.8944,3.2544 15.0072,6.7792"></path>
                                    </g>
                                </g>
                            </g>
                        </g>
                        <g id="Group_27">
                            <path d="M6,0.7544 C5.4696,4.584 0.8272,20.5832 0.8,32.432 L0.8,32.432 L0.8,32.6432 C0.692719671,35.6202874 1.16549755,38.5898215 2.192,41.3864 L2.192,41.3864 C8.724,56.5928 34.7832,72.8496 37.4912,72.9242397 L37.4912,72.9242397 C40.2,72.9976 59.7464,56.1168 40.0656,28.04 L40.0656,28.04 C30.6336,15.3776 12.5056,2.7336 7.332,0.248 L7.332,0.248 C7.19917086,0.185542954 7.05397387,0.153823836 6.9072,0.1552 L6.9072,0.1552 C6.50190327,0.118280217 6.12512748,0.367138304 6,0.7544" id="Clip_26-2"></path>
                            <g id="Group_27-2-Clipped">
                                <mask id="mask-18" fill="white">
                                    <use xlink:href="#path-17"></use>
                                </mask>
                                <g id="Clip_20"></g>
                                <g id="Group_27-2" mask="url(#mask-18)" stroke="#34AB6A" stroke-linecap="round" stroke-width="2.4">
                                    <g transform="translate(19.200000, 23.200000)" id="Stroke_25">
                                        <path d="M0.5872,11.2856 C1.49419694,7.41288547 2.92270574,3.68121574 4.8336,0.1928"></path>
                                    </g>
                                </g>
                            </g>
                        </g>
                    </g>
                    <g id="Group_31" transform="translate(36.200000, 15.469600)">
                        <path d="M82.7872,0.5616 C75.696,3.2488 37.392,12.8816 25.5624,24.456 L25.5624,24.456 C8.1864,41.4528 -0.6976,78.9328 0.5784,81.724 L0.5784,81.724 C1.8584,84.5152 34.7544,92.7704 62.9632,53.6744 L62.9632,53.6744 C75.4016,35.48 83.3992,8.4984 84.1528,1.5624 L84.1528,1.5624 C84.1528,1.5376 84.1576,1.5136 84.1576,1.4896 L84.1576,1.4896 L84.1576,1.4432 C84.1164786,0.908003282 83.6687667,0.495563511 83.132,0.498385458 L83.132,0.498385458 C83.0141847,0.498385458 82.8973486,0.519794042 82.7872,0.5616" id="Clip_30-2"></path>
                        <g id="Group_31-2-Clipped">
                            <mask id="mask-20" fill="white">
                                <use xlink:href="#path-19"></use>
                            </mask>
                            <g id="Clip_30"></g>
                            <g id="Group_31-2" mask="url(#mask-20)" fill="url(#linearGradient-21)" fill-rule="nonzero">
                                <path d="M82.7872,0.5616 C75.696,3.2488 37.392,12.8816 25.5624,24.456 L25.5624,24.456 C8.1864,41.4528 -0.6976,78.9328 0.5784,81.724 L0.5784,81.724 C1.8584,84.5152 34.7544,92.7704 62.9632,53.6744 L62.9632,53.6744 C75.4016,35.48 83.3992,8.4984 84.1528,1.5624 L84.1528,1.5624 C84.1528,1.5376 84.1576,1.5136 84.1576,1.4896 L84.1576,1.4896 L84.1576,1.4432 C84.1164786,0.908003282 83.6687667,0.495563511 83.132,0.498385458 L83.132,0.498385458 C83.0141847,0.498385458 82.8973486,0.519794042 82.7872,0.5616" id="Fill_29"></path>
                            </g>
                        </g>
                    </g>
                    <g id="Group_44" transform="translate(36.200000, 15.469600)">
                        <g id="Group_34">
                            <path d="M82.7872,0.5616 C75.696,3.2488 37.392,12.8816 25.5616,24.456 L25.5616,24.456 C8.1864,41.4528 -0.6976,78.9328 0.5784,81.724 L0.5784,81.724 C1.8584,84.5152 34.7544,92.7704 62.9632,53.6744 L62.9632,53.6744 C75.4016,35.48 83.3992,8.4984 84.1528,1.5624 L84.1528,1.5624 C84.1528,1.5376 84.1576,1.5136 84.1576,1.4896 L84.1576,1.4896 L84.1576,1.4432 C84.1164786,0.908003282 83.6687667,0.495563511 83.132,0.498385458 L83.132,0.498385458 C83.0141847,0.498385458 82.8973486,0.519794042 82.7872,0.5616" id="Clip_33-2"></path>
                            <g id="Group_34-2-Clipped">
                                <mask id="mask-23" fill="white">
                                    <use xlink:href="#path-22"></use>
                                </mask>
                                <g id="Clip_33"></g>
                                <g id="Group_34-2" mask="url(#mask-23)" stroke="#34AB6A" stroke-linecap="round" stroke-width="2.4">
                                    <g transform="translate(-8.800000, 16.000000)" id="Stroke_32">
                                        <path d="M0.4192,83.6 C0.4192,83.6 15.4136,51.0672 42.68,31.4312 C69.9464,11.7952 73.8208,0.7776 73.8208,0.7776"></path>
                                    </g>
                                </g>
                            </g>
                        </g>
                        <g id="Group_37">
                            <path d="M82.7872,0.5616 C75.696,3.2488 37.392,12.8816 25.5616,24.456 L25.5616,24.456 C8.1864,41.4528 -0.6976,78.9328 0.5784,81.724 L0.5784,81.724 C1.8584,84.5152 34.7544,92.7704 62.9632,53.6744 L62.9632,53.6744 C75.4016,35.48 83.3992,8.4984 84.1528,1.5624 L84.1528,1.5624 C84.1528,1.5376 84.1576,1.5136 84.1576,1.4896 L84.1576,1.4896 L84.1576,1.4432 C84.1164786,0.908003282 83.6687667,0.495563511 83.132,0.498385458 L83.132,0.498385458 C83.0141847,0.498385458 82.8973486,0.519794042 82.7872,0.5616" id="Clip_36-2"></path>
                            <g id="Group_37-2-Clipped">
                                <mask id="mask-25" fill="white">
                                    <use xlink:href="#path-24"></use>
                                </mask>
                                <g id="Clip_33"></g>
                                <g id="Group_37-2" mask="url(#mask-25)" stroke="#34AB6A" stroke-linecap="round" stroke-width="2.4">
                                    <g transform="translate(32.000000, 28.800000)" id="Stroke_35">
                                        <path d="M3.2264,0.3224 C3.2264,0.3224 3.7928,14.2336 0.172,19.6824"></path>
                                    </g>
                                </g>
                            </g>
                        </g>
                        <g id="Group_40">
                            <path d="M82.7872,0.5616 C75.696,3.2488 37.392,12.8816 25.5616,24.456 L25.5616,24.456 C8.1864,41.4528 -0.6976,78.9328 0.5784,81.724 L0.5784,81.724 C1.8584,84.5152 34.7544,92.7704 62.9632,53.6744 L62.9632,53.6744 C75.4016,35.48 83.3992,8.4984 84.1528,1.5624 L84.1528,1.5624 C84.1528,1.5376 84.1576,1.5136 84.1576,1.4896 L84.1576,1.4896 L84.1576,1.4432 C84.1164786,0.908003282 83.6687667,0.495563511 83.132,0.498385458 L83.132,0.498385458 C83.0141847,0.498385458 82.8973486,0.519794042 82.7872,0.5616" id="Clip_39-2"></path>
                            <g id="Group_40-2-Clipped">
                                <mask id="mask-27" fill="white">
                                    <use xlink:href="#path-26"></use>
                                </mask>
                                <g id="Clip_33"></g>
                                <g id="Group_40-2" mask="url(#mask-27)" stroke="#34AB6A" stroke-linecap="round" stroke-width="2.4">
                                    <g transform="translate(49.600000, 30.400000)" id="Stroke_38">
                                        <path d="M0.5416,4.0152 C6.16033859,2.31474027 11.9436448,1.21525239 17.7944,0.7352"></path>
                                    </g>
                                </g>
                            </g>
                        </g>
                        <g id="Group_43">
                            <path d="M82.7872,0.5616 C75.696,3.2488 37.392,12.8816 25.5616,24.456 L25.5616,24.456 C8.1864,41.4528 -0.6976,78.9328 0.5784,81.724 L0.5784,81.724 C1.8584,84.5152 34.7544,92.7704 62.9632,53.6744 L62.9632,53.6744 C75.4016,35.48 83.3992,8.4984 84.1528,1.5624 L84.1528,1.5624 C84.1528,1.5376 84.1576,1.5136 84.1576,1.4896 L84.1576,1.4896 L84.1576,1.4432 C84.1164786,0.908003282 83.6687667,0.495563511 83.132,0.498385458 L83.132,0.498385458 C83.0141847,0.498385458 82.8973486,0.519794042 82.7872,0.5616" id="Clip_42-2"></path>
                            <g id="Group_43-2-Clipped">
                                <mask id="mask-29" fill="white">
                                    <use xlink:href="#path-28"></use>
                                </mask>
                                <g id="Clip_33"></g>
                                <g id="Group_43-2" mask="url(#mask-29)" stroke="#34AB6A" stroke-linecap="round" stroke-width="2.4">
                                    <g transform="translate(17.600000, 54.400000)" id="Stroke_41">
                                        <path d="M0.1304,7.6496 C0.1304,7.6496 17.4104,1.4696 27.9808,0.4672"></path>
                                    </g>
                                </g>
                            </g>
                        </g>
                    </g>
                </g>
                <g id="plante-1" transform="translate(133.657227, 149.923097) rotate(10.000000) translate(-133.657227, -149.923097) translate(106.157227, 107.923097)">
                    <path d="M54.057,78.53 C54.057,81.08 42.615,83.148 28.5,83.148 C14.385,83.148 2.943,81.08 2.943,78.53 C2.943,75.98 14.385,73.912 28.5,73.912 C42.615,73.912 54.057,75.98 54.057,78.53" id="Fill_1" fill="#F4E9DC" fill-rule="nonzero"></path>
                    <g id="Group_18" transform="translate(0.000000, 0.921000)">
                        <g id="Group_5">
                            <path d="M2.833,0.079 C2.45206394,0.0962417797 2.14564312,0.398346809 2.123,0.779 L2.123,0.779 C1.917,6.203 -2.413,34.142 1.917,45.169 L1.917,45.169 C8.278,61.363 30.508,77.671 32.7,77.6101706 L32.7,77.6101706 C34.9,77.547 49.511,58.159 31.6,28.66 L31.6,28.66 C23.083,15.386 7.524,2.588 3.163,0.158 L3.163,0.158 C3.07574828,0.109099317 2.97797577,0.0819974646 2.878,0.079 L2.833,0.079 Z" id="Clip_4-2"></path>
                            <g id="Group_5-2-Clipped">
                                <mask id="mask-31" fill="white">
                                    <use xlink:href="#path-30"></use>
                                </mask>
                                <g id="Clip_4"></g>
                                <g id="Group_5-2" mask="url(#mask-31)" fill="url(#linearGradient-32)" fill-rule="nonzero">
                                    <path d="M2.833,0.079 C2.45206394,0.0962417797 2.14564312,0.398346809 2.123,0.779 L2.123,0.779 C1.917,6.203 -2.413,34.142 1.917,45.169 L1.917,45.169 C8.278,61.363 30.508,77.671 32.7,77.6101706 L32.7,77.6101706 C34.9,77.547 49.511,58.159 31.6,28.66 L31.6,28.66 C23.083,15.386 7.524,2.588 3.163,0.158 L3.163,0.158 C3.07574828,0.109099317 2.97797577,0.0819974646 2.878,0.079 L2.833,0.079 Z" id="Fill_3"></path>
                                </g>
                            </g>
                        </g>
                        <g id="Group_8">
                            <path d="M2.833,0.079 C2.45206394,0.0962417797 2.14564312,0.398346809 2.123,0.779 L2.123,0.779 C1.917,6.203 -2.413,34.142 1.917,45.169 L1.917,45.169 C8.278,61.363 30.508,77.671 32.7,77.6101706 L32.7,77.6101706 C34.9,77.547 49.511,58.159 31.6,28.66 L31.6,28.66 C23.083,15.386 7.524,2.588 3.163,0.158 L3.163,0.158 C3.07574828,0.109099317 2.97797577,0.0819974646 2.878,0.079 L2.878,0.079" id="Clip_7-2"></path>
                            <g id="Group_8-2-Clipped">
                                <mask id="mask-34" fill="white">
                                    <use xlink:href="#path-33"></use>
                                </mask>
                                <g id="Clip_7"></g>
                                <g id="Group_8-2" mask="url(#mask-34)" stroke="#34AB6A" stroke-linecap="round" stroke-width="3">
                                    <g transform="translate(7.000000, 17.000000)" id="Stroke_6">
                                        <path d="M34.991,71.5 C34.991,71.5 17.725,52.544 12.383,29.091 C7.041,5.638 0.859,0.014 0.859,0.014"></path>
                                    </g>
                                </g>
                            </g>
                        </g>
                        <g id="Group_11">
                            <path d="M2.833,0.079 C2.45206394,0.0962417797 2.14564312,0.398346809 2.123,0.779 L2.123,0.779 C1.917,6.203 -2.413,34.142 1.917,45.169 L1.917,45.169 C8.278,61.363 30.508,77.671 32.7,77.6101706 L32.7,77.6101706 C34.9,77.547 49.511,58.159 31.6,28.66 L31.6,28.66 C23.083,15.386 7.524,2.588 3.163,0.158 L3.163,0.158 C3.07574828,0.109099317 2.97797577,0.0819974646 2.878,0.079 L2.878,0.079" id="Clip_10-2"></path>
                            <g id="Group_11-2-Clipped">
                                <mask id="mask-36" fill="white">
                                    <use xlink:href="#path-35"></use>
                                </mask>
                                <g id="Clip_7"></g>
                                <g id="Group_11-2" mask="url(#mask-36)" stroke="#34AB6A" stroke-linecap="round" stroke-width="3">
                                    <g transform="translate(7.000000, 40.000000)" id="Stroke_9">
                                        <path d="M0.688,0.099 C0.688,0.099 10.016,3.605 12.599,7.511"></path>
                                    </g>
                                </g>
                            </g>
                        </g>
                        <g id="Group_14">
                            <path d="M2.833,0.079 C2.45206394,0.0962417797 2.14564312,0.398346809 2.123,0.779 L2.123,0.779 C1.917,6.203 -2.413,34.142 1.917,45.169 L1.917,45.169 C8.278,61.363 30.508,77.671 32.7,77.6101706 L32.7,77.6101706 C34.9,77.547 49.511,58.159 31.6,28.66 L31.6,28.66 C23.083,15.386 7.524,2.588 3.163,0.158 L3.163,0.158 C3.07574828,0.109099317 2.97797577,0.0819974646 2.878,0.079 L2.878,0.079" id="Clip_13-2"></path>
                            <g id="Group_14-2-Clipped">
                                <mask id="mask-38" fill="white">
                                    <use xlink:href="#path-37"></use>
                                </mask>
                                <g id="Clip_7"></g>
                                <g id="Group_14-2" mask="url(#mask-38)" stroke="#34AB6A" stroke-linecap="round" stroke-width="3">
                                    <g transform="translate(15.000000, 19.000000)" id="Stroke_12">
                                        <path d="M0.336,12.741 C0.782271909,8.56280735 1.67057695,4.44375364 2.986,0.453"></path>
                                    </g>
                                </g>
                            </g>
                        </g>
                        <g id="Group_17">
                            <path d="M2.833,0.079 C2.45206394,0.0962417797 2.14564312,0.398346809 2.123,0.779 L2.123,0.779 C1.917,6.203 -2.413,34.142 1.917,45.169 L1.917,45.169 C8.278,61.363 30.508,77.671 32.7,77.6101706 L32.7,77.6101706 C34.9,77.547 49.511,58.159 31.6,28.66 L31.6,28.66 C23.083,15.386 7.524,2.588 3.163,0.158 L3.163,0.158 C3.07574828,0.109099317 2.97797577,0.0819974646 2.878,0.079 L2.878,0.079" id="Clip_16-2"></path>
                            <g id="Group_17-2-Clipped">
                                <mask id="mask-40" fill="white">
                                    <use xlink:href="#path-39"></use>
                                </mask>
                                <g id="Clip_7"></g>
                                <g id="Group_17-2" mask="url(#mask-40)" stroke="#34AB6A" stroke-linecap="round" stroke-width="3">
                                    <g transform="translate(24.000000, 40.000000)" id="Stroke_15">
                                        <path d="M0.517,20.814 C0.517,20.814 1.261,7.7 3.549,0.452"></path>
                                    </g>
                                </g>
                            </g>
                        </g>
                    </g>
                </g>
            </g>
        </g>
    </g>
</svg>