<?xml version="1.0" encoding="UTF-8"?>
<svg width="1920px" height="135px" viewBox="0 0 1920 135" version="1.1" xmlns="http://www.w3.org/2000/svg" xmlns:xlink="http://www.w3.org/1999/xlink">
    <!-- Generator: Sketch 60.1 (88133) - https://sketch.com -->
    <title>Group 4</title>
    <desc>Created with Sketch.</desc>
    <defs>
        <polygon id="path-1" points="0 0.31825 1976 0.31825 1976 134.31825 0 134.31825"></polygon>
    </defs>
    <g id="Yuka---Site-Web" stroke="none" stroke-width="1" fill="none" fill-rule="evenodd">
        <g id="2.0-Application-web" transform="translate(0.000000, -2746.000000)">
            <g id="Projet-indépendant" transform="translate(-28.000000, 2746.000000)">
                <g id="BG">
                    <g id="Group-4">
                        <mask id="mask-2" fill="white">
                            <use xlink:href="#path-1"></use>
                        </mask>
                        <g id="Clip-3"></g>
                        <path d="M1976,11.0702728 C1967.56344,42.9048375 1966.38685,75.8057469 1972.53673,107.931543 C1767.41994,106.362504 1562.20041,104.837112 1357.24077,111.020707 C1100.67354,118.762053 844.4065,138.580863 587.720402,133.494466 C507.01548,131.895326 426.439498,127.834637 345.890715,123.774701 C231.519119,118.011021 117.14853,112.246589 2.77794161,106.48291 C5.37388481,97.5171865 6.26236828,88.2805496 5.44943612,79.1281969 C4.95180479,73.5217977 -2.06439403,60.9085282 0.603071077,55.8672841 C6.45074289,44.8125184 35.9479911,43.0545924 50.5032039,40.8323512 C95.5267512,33.9579274 141.834671,33.6975497 187.496878,36.3713129 C280.600276,41.8219371 371.568089,59.4162477 464.629177,65.1641239 C687.353448,78.9212493 908.764133,20.0013797 1131.94977,28.6359871 C1220.67925,32.0683075 1309.66661,46.1603118 1397.66375,36.9929083 C1460.14972,30.4834649 1519.59047,12.4398898 1581.86692,4.89345067 C1710.30416,-10.6720207 1841.64357,19.1818671 1971.24631,10.5585478" id="Fill-2" fill="#FFF8EE" mask="url(#mask-2)"></path>
                    </g>
                </g>
            </g>
        </g>
    </g>
</svg>