<?xml version="1.0" encoding="UTF-8"?>
<svg width="1000px" height="134px" viewBox="0 0 1000 134" version="1.1" xmlns="http://www.w3.org/2000/svg" xmlns:xlink="http://www.w3.org/1999/xlink">
    <!-- Generator: Sketch 60.1 (88133) - https://sketch.com -->
    <title>Fill 2</title>
    <desc>Created with Sketch.</desc>
    <g id="Blomy---Site-Web" stroke="none" stroke-width="1" fill="none" fill-rule="evenodd">
        <g id="3.0-Equipe-web" transform="translate(-460.000000, -719.000000)" fill="#FFF8EE">
            <path d="M1460,729.715778 C1455.73048,761.443028 1455.13505,794.233028 1458.24733,826.250528 C1354.44329,824.686778 1250.58725,823.166528 1146.86274,829.329278 C1017.02102,837.044528 887.331225,856.796528 757.429353,851.727278 C716.586781,850.133528 675.809463,846.086528 635.045908,842.040278 C577.165546,836.296028 519.285693,830.551028 461.405841,824.806778 C462.719577,815.871278 463.169215,806.665778 462.757812,797.544278 C462.505974,791.956778 458.955266,779.386028 460.305198,774.361778 C463.264546,763.344278 478.192303,761.592278 485.558302,759.377528 C508.343498,752.526278 531.77868,752.266778 554.887084,754.931528 C602.004188,760.363778 648.040531,777.898778 695.136223,783.627278 C807.850935,797.338028 919.900877,738.616778 1032.84907,747.222278 C1077.75266,750.643028 1122.78675,764.687528 1167.31971,755.551028 C1198.94217,749.063528 1229.02352,731.080778 1260.53994,723.559778 C1325.53854,708.046778 1392.00586,737.800028 1457.59429,729.205778" id="Fill-2"></path>
        </g>
    </g>
</svg>