<?xml version="1.0" encoding="UTF-8"?>
<svg width="1000px" height="134px" viewBox="0 0 1000 134" version="1.1" xmlns="http://www.w3.org/2000/svg" xmlns:xlink="http://www.w3.org/1999/xlink">
    <!-- Generator: Sketch 60.1 (88133) - https://sketch.com -->
    <title>Fill 2</title>
    <desc>Created with Sketch.</desc>
    <g id="Yuka---Site-Web" stroke="none" stroke-width="1" fill="none" fill-rule="evenodd">
        <g id="3.0-Equipe-web" transform="translate(-650.000000, -564.000000)" fill="#FFF8EE">
            <path d="M1650,574.715778 C1645.73048,606.443028 1645.13505,639.233028 1648.24733,671.250528 C1544.44329,669.686778 1440.58725,668.166528 1336.86274,674.329278 C1207.02102,682.044528 1077.33122,701.796528 947.429353,696.727278 C906.586781,695.133528 865.809463,691.086528 825.045908,687.040278 C767.165546,681.296028 709.285693,675.551028 651.405841,669.806778 C652.719577,660.871278 653.169215,651.665778 652.757812,642.544278 C652.505974,636.956778 648.955266,624.386028 650.305198,619.361778 C653.264546,608.344278 668.192303,606.592278 675.558302,604.377528 C698.343498,597.526278 721.77868,597.266778 744.887084,599.931528 C792.004188,605.363778 838.040531,622.898778 885.136223,628.627278 C997.850935,642.338028 1109.90088,583.616778 1222.84907,592.222278 C1267.75266,595.643028 1312.78675,609.687528 1357.31971,600.551028 C1388.94217,594.063528 1419.02352,576.080778 1450.53994,568.559778 C1515.53854,553.046778 1582.00586,582.800028 1647.59429,574.205778" id="Fill-2" transform="translate(1150.000000, 630.774142) rotate(180.000000) translate(-1150.000000, -630.774142) "></path>
        </g>
    </g>
</svg>