<?xml version="1.0" encoding="UTF-8"?>
<svg width="360px" height="125px" viewBox="0 0 360 125" version="1.1" xmlns="http://www.w3.org/2000/svg" xmlns:xlink="http://www.w3.org/1999/xlink">
    <!-- Generator: Sketch 60.1 (88133) - https://sketch.com -->
    <title>illu-mob</title>
    <desc>Created with Sketch.</desc>
    <defs>
        <linearGradient x1="105.824399%" y1="49.992242%" x2="-5.79542162%" y2="49.992242%" id="linearGradient-1">
            <stop stop-color="#F17F30" offset="0%"></stop>
            <stop stop-color="#ED711D" offset="97%"></stop>
        </linearGradient>
        <linearGradient x1="-13644.1267%" y1="103.326127%" x2="-13644.1267%" y2="-3.32612673%" id="linearGradient-2">
            <stop stop-color="#F17F30" offset="0%"></stop>
            <stop stop-color="#ED711D" offset="97%"></stop>
        </linearGradient>
        <linearGradient x1="9.77636279%" y1="75.0147305%" x2="100.482786%" y2="42.0923096%" id="linearGradient-3">
            <stop stop-color="#17914E" offset="0%"></stop>
            <stop stop-color="#159658" offset="100%"></stop>
        </linearGradient>
        <linearGradient x1="45.3484841%" y1="91.1953936%" x2="56.755431%" y2="7.31577929%" id="linearGradient-4">
            <stop stop-color="#17914E" offset="0%"></stop>
            <stop stop-color="#159658" offset="100%"></stop>
        </linearGradient>
        <linearGradient x1="28.2824166%" y1="86.3094101%" x2="72.7700284%" y2="5.76959384%" id="linearGradient-5">
            <stop stop-color="#17914E" offset="0%"></stop>
            <stop stop-color="#169352" offset="64%"></stop>
            <stop stop-color="#159658" offset="100%"></stop>
        </linearGradient>
        <linearGradient x1="34.474787%" y1="89.4329956%" x2="59.4114425%" y2="5.13989626%" id="linearGradient-6">
            <stop stop-color="#F17F30" offset="0%"></stop>
            <stop stop-color="#F7A230" offset="87%"></stop>
            <stop stop-color="#F8A537" offset="89%"></stop>
            <stop stop-color="#FCAC48" offset="96%"></stop>
        </linearGradient>
        <path d="M26.0647727,0.531580239 C29.2393939,1.17551963 43.0454545,5.79900448 37.9229167,22.7796863 C32.8003788,39.7603681 23.2829545,73.5639666 13.0346591,75.6245727 C2.78636364,77.6851787 1.03162879,51.4768454 0.59375,46.3478681 C0.155871212,41.2188908 -3.36003788,-5.46993491 26.0647727,0.531580239 Z" id="path-7"></path>
    </defs>
    <g id="Symbols" stroke="none" stroke-width="1" fill="none" fill-rule="evenodd">
        <g id="Footer-Mobile" transform="translate(0.000000, -611.000000)">
            <g id="Footer">
                <g id="illu-mob" transform="translate(-181.000000, 611.000000)">
                    <line x1="354.601326" y1="97.0223485" x2="355.679924" y2="103.645265" id="Path" stroke="#302C2E" stroke-width="2"></line>
                    <path d="M358.535795,92.299053 C359.240909,96.6392045 357.32197,97.7886364 354.794508,98.2007576 C352.267045,98.6128788 350.084091,98.1267045 349.378977,93.786553 C348.673864,89.4464015 349.700947,82.9007576 352.241288,82.4886364 C354.781629,82.0765152 357.830682,87.9621212 358.535795,92.299053 Z" id="Path" fill="#97D383" fill-rule="nonzero"></path>
                    <line x1="352.75322" y1="85.6407197" x2="354.55625" y2="96.7390152" id="Path" stroke="#B9E09E" stroke-width="2" stroke-linecap="round" stroke-linejoin="round"></line>
                    <line x1="355.383712" y1="90.0420455" x2="354.063636" y2="93.7092803" id="Path" stroke="#B9E09E" stroke-width="2" stroke-linecap="round" stroke-linejoin="round"></line>
                    <line x1="354.095833" y1="87.3246212" x2="353.358523" y2="89.3691288" id="Path" stroke="#B9E09E" stroke-width="2" stroke-linecap="round" stroke-linejoin="round"></line>
                    <line x1="352.015909" y1="87.6626894" x2="353.358523" y2="89.3691288" id="Path" stroke="#B9E09E" stroke-width="2" stroke-linecap="round" stroke-linejoin="round"></line>
                    <line x1="351.655303" y1="90.6763258" x2="354.070076" y2="93.7382576" id="Path" stroke="#B9E09E" stroke-width="2" stroke-linecap="round" stroke-linejoin="round"></line>
                    <path d="M47.9090909,140.414205 C24.6371212,145.852273 34.7373106,141.344697 13.0558712,132.081629 C4.27897727,128.333902 -4.69109848,117.541477 2.79469697,111.742803 C5.80189394,109.414962 10.0776515,109.489015 13.9638258,109.282955 C39.0774621,107.879167 58.8785985,89.749053 78.6797348,75.1316288 C92.0542286,65.2612216 106.306433,56.6391984 121.257008,49.374053 C129.747348,45.2464015 138.839773,41.4632576 148.376515,41.5308712 C161.487121,41.6210227 173.029735,48.8492424 184.205303,55.1340909 C216.685606,73.4090909 256.587311,85.7662879 292.82178,74.375 C307.722538,69.6903409 321.035985,61.2708333 335.869129,56.4026515 C369.695265,45.3011364 406.918182,53.8429924 440.50928,64.9316288 C474.100379,76.0202652 507.907197,89.813447 543.661932,89.0793561 C622.447917,87.4984848 684.507576,17.1255682 763.110038,11.4460227 C770.367235,10.9212121 777.901326,11.0113636 784.556439,13.6998106 C794.85947,17.8403409 801.240909,27.3159091 807.004167,36.263447 C818.44697,54.007197 838.52822,92.405303 849.961364,110.145833 L47.9090909,140.414205 Z" id="Path" fill="#EBF7FA" fill-rule="nonzero"></path>
                    <polygon id="Path" fill="#ECE0C8" fill-rule="nonzero" points="384.087311 100.898864 384.087311 93.2617424 390.549242 80.2638258 396.756818 93.4839015 397.007955 101.25625"></polygon>
                    <path d="M409.722538,101.613636 C409.535795,101.346402 409.049621,94.1117424 409.049621,94.1117424 L396.756818,93.4839015 L397.007955,101.25625 L409.722538,101.613636 Z" id="Path" fill="#ECE0C8" fill-rule="nonzero"></path>
                    <path d="M388.817045,101.098485 L388.675379,95.3770833 C388.675379,95.3770833 388.675379,93.8895833 390.008333,93.8895833 C390.39904,93.8718663 390.779817,94.0157277 391.061202,94.2873675 C391.342587,94.5590074 391.499774,94.9344799 391.495833,95.3255682 L391.495833,101.323864 L388.817045,101.098485 Z" id="Path" fill="#513A2B" fill-rule="nonzero"></path>
                    <polygon id="Path" fill="#513A2B" fill-rule="nonzero" points="402.565152 81.49375 390.549242 80.2638258 396.756818 93.4839015 409.049621 94.1117424"></polygon>
                    <line x1="431.809659" y1="100.293561" x2="431.123864" y2="105.696212" id="Path" stroke="#302C2E"></line>
                    <path d="M435.94697,97.5246212 C435.496212,101.066288 433.741477,101.517045 431.677652,101.25303 C429.613826,100.989015 428.029735,100.113258 428.477273,96.5748106 C428.924811,93.0363636 431.242992,88.1778409 433.306818,88.4386364 C435.370644,88.6994318 436.407386,93.9829545 435.94697,97.5246212 Z" id="Path" fill="#97D383" fill-rule="nonzero"></path>
                    <line x1="432.988068" y1="91.0111742" x2="431.838636" y2="100.064962" id="Path" stroke="#B9E09E" stroke-linecap="round" stroke-linejoin="round"></line>
                    <line x1="434.024811" y1="95.0390152" x2="432.154167" y2="97.5922348" id="Path" stroke="#B9E09E" stroke-linecap="round" stroke-linejoin="round"></line>
                    <line x1="433.644886" y1="92.6306818" x2="432.601705" y2="94.0537879" id="Path" stroke="#B9E09E" stroke-linecap="round" stroke-linejoin="round"></line>
                    <line x1="431.948106" y1="92.4149621" x2="432.601705" y2="94.0537879" id="Path" stroke="#B9E09E" stroke-linecap="round" stroke-linejoin="round"></line>
                    <line x1="430.975758" y1="94.6784091" x2="432.150947" y2="97.6179924" id="Path" stroke="#B9E09E" stroke-linecap="round" stroke-linejoin="round"></line>
                    <path d="M536.375758,123.78447 C536.375758,123.78447 472.410038,100.209848 392.481061,100.112837 C325.991098,100.035985 282.367424,110.60303 239.848106,124.798674 C239.848106,124.798674 498.692424,192.457386 503.885795,190.036174 C509.079167,187.614962 556.824053,131.53428 550.735606,129.905114 C544.647159,128.275947 536.375758,123.78447 536.375758,123.78447 Z" id="Path" fill="#5CBA80" fill-rule="nonzero"></path>
                    <polygon id="Path" fill="#FFFFFF" fill-rule="nonzero" points="393.636932 99.1505682 395.204924 99.1505682 395.204924 94.1117424 393.456629 94.1117424"></polygon>
                    <polygon id="Path" fill="#FFFFFF" fill-rule="nonzero" points="398.701515 99.4532197 400.269508 99.4532197 400.269508 94.700947 398.521212 94.700947"></polygon>
                    <polygon id="Path" fill="#FFFFFF" fill-rule="nonzero" points="405.520833 95.0551136 407.162879 95.1356061 407.162879 99.524053 405.414583 99.524053"></polygon>
                    <polygon id="Path" fill="#FFFFFF" fill-rule="nonzero" points="401.917992 99.524053 403.762879 99.524053 403.666288 94.913447 401.917992 94.913447"></polygon>
                    <polygon id="Path" fill="#FFFFFF" fill-rule="nonzero" points="385.854924 99.2922348 387.426136 99.2922348 387.426136 94.2534091 385.677841 94.2534091"></polygon>
                    <path d="M349.308144,135.140341 C350.164583,133.733333 360.229356,121.617614 379.718182,119.53447 C399.207008,117.451326 406.982576,109.727273 392.136553,107.621591 C366.974621,104.034848 362.367235,100.860227 362.367235,100.860227 L368.784091,100.564015 C368.784091,100.564015 373.668371,103.435985 389.62197,104.401894 C396.267424,104.801136 411.068371,105.792803 409.625947,113.178788 C408.183523,120.564773 397.069129,126.456818 397.069129,126.456818 C397.069129,126.456818 386.576136,126.598485 386.147917,126.527652 C385.719697,126.456818 349.308144,135.140341 349.308144,135.140341 Z" id="Path" fill="#ECE0C8" fill-rule="nonzero"></path>
                    <line x1="268.168561" y1="72.9808712" x2="268.168561" y2="98.3392045" id="Path" stroke="#302C2E" stroke-width="2"></line>
                    <path d="M285.699811,57.7484848 C285.699811,74.3589015 277.850189,77.488447 268.168561,77.488447 C258.486932,77.488447 250.64053,74.3589015 250.64053,57.7484848 C250.64053,41.1380682 258.486932,17.3316288 268.168561,17.3316288 C277.850189,17.3316288 285.699811,41.1348485 285.699811,57.7484848 Z" id="Path" fill="#77BE60" fill-rule="nonzero"></path>
                    <line x1="268.168561" y1="29.2863636" x2="268.168561" y2="71.7895833" id="Path" stroke="#A3D88D" stroke-width="2" stroke-linecap="round" stroke-linejoin="round"></line>
                    <line x1="275.316288" y1="47.4100379" x2="268.168561" y2="60.3017045" id="Path" stroke="#A3D88D" stroke-width="2" stroke-linecap="round" stroke-linejoin="round"></line>
                    <line x1="272.154545" y1="36.5017045" x2="268.168561" y2="43.6848485" id="Path" stroke="#A3D88D" stroke-width="2" stroke-linecap="round" stroke-linejoin="round"></line>
                    <line x1="264.185795" y1="36.5017045" x2="268.168561" y2="43.6848485" id="Path" stroke="#A3D88D" stroke-width="2" stroke-linecap="round" stroke-linejoin="round"></line>
                    <line x1="261.020833" y1="47.4100379" x2="268.168561" y2="60.3017045" id="Path" stroke="#A3D88D" stroke-width="2" stroke-linecap="round" stroke-linejoin="round"></line>
                    <line x1="312.90625" y1="92.5083333" x2="312.90625" y2="104.302083" id="Path" stroke="#302C2E"></line>
                    <path d="M321.055303,85.425 C321.055303,93.1522727 317.407386,94.6075758 312.90625,94.6075758 C308.405114,94.6075758 304.753977,93.149053 304.753977,85.425 C304.753977,77.700947 308.401894,66.6477273 312.90625,66.6477273 C317.410606,66.6477273 321.055303,77.700947 321.055303,85.425 Z" id="Path" fill="#97D383" fill-rule="nonzero"></path>
                    <line x1="312.90625" y1="72.2435606" x2="312.90625" y2="92.0060606" id="Path" stroke="#B9E09E" stroke-linecap="round" stroke-linejoin="round"></line>
                    <line x1="316.228977" y1="80.6212121" x2="312.90625" y2="86.6130682" id="Path" stroke="#B9E09E" stroke-linecap="round" stroke-linejoin="round"></line>
                    <line x1="314.757576" y1="75.5469697" x2="312.90625" y2="78.8857955" id="Path" stroke="#B9E09E" stroke-linecap="round" stroke-linejoin="round"></line>
                    <line x1="311.051705" y1="75.5469697" x2="312.90625" y2="78.8857955" id="Path" stroke="#B9E09E" stroke-linecap="round" stroke-linejoin="round"></line>
                    <line x1="309.580303" y1="80.6727273" x2="312.90625" y2="86.6645833" id="Path" stroke="#B9E09E" stroke-linecap="round" stroke-linejoin="round"></line>
                    <path d="M151.177652,85.6439394 C151.177652,85.6439394 311.518561,79.9933712 414.758144,133.939394 C414.758144,133.939394 148.453788,159.635795 143.714394,156.422538 C138.975,153.20928 100.734659,90.2545455 107.009848,89.6138258 C113.285038,88.9731061 151.177652,85.6439394 151.177652,85.6439394 Z" id="Path" fill="#4A9B63" fill-rule="nonzero"></path>
                    <path d="M262.212121,126.936553 C263.419508,126.292614 285.938068,104.472727 331.210227,103.928598 C331.210227,103.928598 337.417803,105.432197 339.488068,105.973106 C341.558333,106.514015 347.292614,108.088447 347.292614,108.088447 C347.292614,108.088447 322.394697,109.321591 308.566098,128.45303 C297.081439,144.339015 262.212121,126.936553 262.212121,126.936553 Z" id="Path" fill="#ECE0C8" fill-rule="nonzero"></path>
                    <line x1="213.150379" y1="71.8217803" x2="213.150379" y2="93.9604167" id="Path" stroke="#302C2E" stroke-width="3" stroke-linecap="round" stroke-linejoin="round"></line>
                    <path d="M228.456818,58.5212121 C228.456818,73.025947 221.605303,75.7594697 213.150379,75.7594697 C204.695455,75.7594697 197.847159,73.025947 197.847159,58.5212121 C197.847159,44.0164773 204.698674,23.2397727 213.143939,23.2397727 C221.589205,23.2397727 228.456818,44.019697 228.456818,58.5212121 Z" id="Path" fill="#86CB75" fill-rule="nonzero"></path>
                    <line x1="213.150379" y1="33.6748106" x2="213.150379" y2="70.7818182" id="Path" stroke="#A3D88D" stroke-width="2" stroke-linecap="round" stroke-linejoin="round"></line>
                    <line x1="219.393371" y1="49.4996212" x2="213.150379" y2="60.7524621" id="Path" stroke="#A3D88D" stroke-width="2" stroke-linecap="round" stroke-linejoin="round"></line>
                    <line x1="216.630871" y1="39.9757576" x2="213.150379" y2="46.2445076" id="Path" stroke="#A3D88D" stroke-width="2" stroke-linecap="round" stroke-linejoin="round"></line>
                    <line x1="209.673106" y1="39.9757576" x2="213.150379" y2="46.2445076" id="Path" stroke="#A3D88D" stroke-width="2" stroke-linecap="round" stroke-linejoin="round"></line>
                    <line x1="206.910606" y1="49.4996212" x2="213.150379" y2="60.7524621" id="Path" stroke="#A3D88D" stroke-width="2" stroke-linecap="round" stroke-linejoin="round"></line>
                    <path d="M597.421212,91.1560606 C597.421212,91.1560606 436.980492,89.8681818 335.254167,146.634659 C335.254167,146.634659 602.167045,165.064205 606.813068,161.725379 C611.459091,158.386553 647.970455,94.4079545 641.685606,93.9378788 C635.400758,93.467803 597.421212,91.1560606 597.421212,91.1560606 Z" id="Path" fill="#54A86C" fill-rule="nonzero"></path>
                    <ellipse id="Oval" fill="#438955" fill-rule="nonzero" cx="474.216288" cy="113.362311" rx="17.988447" ry="2.16041667"></ellipse>
                    <path d="M476.453977,91.1850379 C476.453977,91.1850379 479.416098,102.602083 484.577273,111.935985 C484.577273,111.935985 486.029356,110.648106 487.565152,109.33125" id="Path" stroke="url(#linearGradient-1)" stroke-width="2" stroke-linecap="round" stroke-linejoin="round"></path>
                    <polyline id="Path" stroke="url(#linearGradient-2)" stroke-width="2" stroke-linecap="round" stroke-linejoin="round" points="464.595833 92.575947 464.595833 111.935985 460.429545 111.935985"></polyline>
                    <path d="M461.704545,69.2234848 C455.545265,69.6903409 447.215909,60.8941288 443.906061,46.0126894" id="Path" stroke="#E87B30" stroke-width="2" stroke-linecap="round" stroke-linejoin="round"></path>
                    <path d="M483.070455,25.0524621 C483.070455,25.0524621 493.515152,28.7325758 501.722159,20.6060606 C506.992803,15.1518939 503.457576,13.036553 498.824432,13.9251894 C494.191288,14.8138258 485.530303,20.9859848 483.112311,23.9287879 C482.82272,24.2415894 482.804938,24.7189833 483.070455,25.0524621 L483.070455,25.0524621 Z" id="Path" fill="url(#linearGradient-3)" fill-rule="nonzero"></path>
                    <path d="M483.521212,24.4278409 C478.633786,19.8084993 476.516445,12.9704902 477.938258,6.39753788 C479.644697,-0.98844697 483.0125,0.814583333 484.574053,5.18371212 C486.135606,9.55284091 485.514205,20.1649621 484.377652,23.7774621 C484.300113,24.181132 483.930879,24.4615276 483.521212,24.4278409 L483.521212,24.4278409 Z" id="Path" fill="url(#linearGradient-4)" fill-rule="nonzero"></path>
                    <path d="M482.082008,25.7221591 C482.082008,25.7221591 494.841667,21.494697 496.683333,7.58882576 C497.691098,-1.56477273 492.726326,-0.965909091 488.927083,3.33560606 C485.127841,7.63712121 481.405871,20.0007576 481.289962,24.6113636 C481.241728,25.1268809 481.578913,25.5997626 482.082008,25.7221591 Z" id="Path" fill="url(#linearGradient-5)" fill-rule="nonzero"></path>
                    <path d="M484.905682,73.0356061 C497.56875,73.7535985 506.055871,56.8630682 506.055871,56.8630682" id="Path" stroke="#F17F30" stroke-width="2" stroke-linecap="round" stroke-linejoin="round"></path>
                    <g id="Group" transform="translate(457.553030, 21.162879)">
                        <g id="Path-+-Path-+-Path-+-Path-+-Path-+-Path-+-Path-+-Path-+-Path-+-Path-Mask" transform="translate(0.302652, 0.254215)">
                            <mask id="mask-8" fill="white">
                                <use xlink:href="#path-7"></use>
                            </mask>
                            <use id="Mask" fill="url(#linearGradient-6)" fill-rule="nonzero" xlink:href="#path-7"></use>
                            <path d="M17.3104167,19.5149136 C17.3104167,19.5149136 17.2299242,18.9804439 16.457197,18.7357469 C16.030509,18.5833891 15.5555342,18.6599196 15.1982955,18.9385878" id="Path" stroke="#4C3628" stroke-linecap="round" stroke-linejoin="round" mask="url(#mask-8)"></path>
                            <path d="M11.2541667,17.7022242 C11.2541667,17.7022242 11.1736742,17.1677545 10.400947,16.9262772 C9.97379953,16.7724522 9.49765263,16.8477611 9.13882576,17.1258984" id="Path" stroke="#4C3628" stroke-linecap="round" stroke-linejoin="round" mask="url(#mask-8)"></path>
                            <path d="M14.0681818,24.6599893 C12.8984841,25.0000462 11.6471608,24.9249668 10.5265152,24.4474893 C8.63655303,23.6425651 8.44659091,22.6315802 8.44659091,22.6315802" id="Path" stroke="#4C3628" stroke-linecap="round" stroke-linejoin="round" mask="url(#mask-8)"></path>
                            <path d="M45.8498106,11.8874515 C44.0763382,12.8867136 42.1739417,13.6374886 40.1960227,14.1187015 C38.0888344,14.6233884 35.9211554,14.8293179 33.7566288,14.7304439" id="Path" stroke="#F9B75C" mask="url(#mask-8)"></path>
                            <path d="M37.99375,27.6639666 C37.99375,27.6639666 34.1912879,30.7709742 24.149053,30.9705954" id="Path" stroke="#F9B75C" mask="url(#mask-8)"></path>
                            <path d="M11.2541667,35.4073378 C10.9128788,35.4073378 3.55587121,36.1736257 -1,31.2217318" id="Path" stroke="#F9B75C" mask="url(#mask-8)"></path>
                            <path d="M7.85094697,56.1969211 C7.85094697,56.1969211 2.31628788,55.8298757 0.506818182,53.0995727" id="Path" stroke="#F9B75C" mask="url(#mask-8)"></path>
                            <path d="M31.4416667,45.7393454 C31.4416667,45.7393454 30.7204545,47.3846105 26.8471591,48.4986257 C25.3270921,48.9203684 23.7683994,49.187881 22.194697,49.2971105" id="Path" stroke="#F9B75C" mask="url(#mask-8)"></path>
                            <path d="M25.3145833,61.9440802 C25.3145833,61.9440802 23.1863636,64.7097999 19.644697,64.9931333" id="Path" stroke="#F9B75C" mask="url(#mask-8)"></path>
                            <path d="M8.82973485,68.331959 C8.82973485,68.331959 4.96609848,68.1097999 2.96022727,65.5501408" id="Path" stroke="#F9B75C" mask="url(#mask-8)"></path>
                        </g>
                    </g>
                </g>
            </g>
        </g>
    </g>
</svg>