<?xml version="1.0" encoding="UTF-8"?>
<svg width="135px" height="40px" viewBox="0 0 135 40" version="1.1" xmlns="http://www.w3.org/2000/svg" xmlns:xlink="http://www.w3.org/1999/xlink">
    <title>google_play_es</title>
    <defs>
        <linearGradient x1="61.0453132%" y1="4.94615078%" x2="26.512955%" y2="71.8787395%" id="linearGradient-1">
            <stop stop-color="#00A0FF" offset="0%"></stop>
            <stop stop-color="#00A1FF" offset="1%"></stop>
            <stop stop-color="#00BEFF" offset="26%"></stop>
            <stop stop-color="#00D2FF" offset="51%"></stop>
            <stop stop-color="#00DFFF" offset="76%"></stop>
            <stop stop-color="#00E3FF" offset="100%"></stop>
        </linearGradient>
        <linearGradient x1="107.684729%" y1="50%" x2="-130.640394%" y2="50%" id="linearGradient-2">
            <stop stop-color="#FFE000" offset="0%"></stop>
            <stop stop-color="#FFBD00" offset="41%"></stop>
            <stop stop-color="#FFA500" offset="78%"></stop>
            <stop stop-color="#FF9C00" offset="100%"></stop>
        </linearGradient>
        <linearGradient x1="86.2709832%" y1="30.8725537%" x2="-50.1798561%" y2="136.108936%" id="linearGradient-3">
            <stop stop-color="#FF3A44" offset="0%"></stop>
            <stop stop-color="#C31162" offset="100%"></stop>
        </linearGradient>
        <linearGradient x1="-18.82494%" y1="-11.9103989%" x2="42.0863309%" y2="35.0790955%" id="linearGradient-4">
            <stop stop-color="#32A071" offset="0%"></stop>
            <stop stop-color="#2DA771" offset="7%"></stop>
            <stop stop-color="#15CF74" offset="48%"></stop>
            <stop stop-color="#06E775" offset="80%"></stop>
            <stop stop-color="#00F076" offset="100%"></stop>
        </linearGradient>
    </defs>
    <g id="google_play_es" stroke="none" stroke-width="1" fill="none" fill-rule="evenodd">
        <g transform="translate(9.000000, 6.000000)" fill-rule="nonzero">
            <path d="M59.14,15.75 C56.7872765,15.7555293 54.8844985,17.6672686 54.8899996,20.0199921 C54.8955484,22.3727156 56.8072843,24.2754972 59.1600078,24.2700004 C61.5127313,24.2644558 63.4155163,22.3527235 63.41,20 C63.426473,18.8643738 62.9812316,17.7707097 62.1762551,16.9695037 C61.3712787,16.1682976 60.2755364,15.7281956 59.14,15.75 L59.14,15.75 Z M59.14,22.58 C58.0832273,22.6539053 57.088673,22.0743135 56.6320213,21.1184371 C56.1753697,20.1625607 56.3494358,19.0246828 57.0709659,18.249038 C57.7924959,17.4733932 58.9148379,17.2176324 59.9011878,17.6040831 C60.8875378,17.9905338 61.5374189,18.9406494 61.54,20 C61.5725428,20.6626719 61.3360327,21.3103928 60.8841403,21.7961771 C60.432248,22.2819613 59.8032921,22.5646164 59.14,22.58 L59.14,22.58 Z M49.82,15.75 C47.4672765,15.7555293 45.5644985,17.6672686 45.5699996,20.0199921 C45.5755484,22.3727156 47.4872843,24.2754972 49.8400078,24.2700004 C52.1927313,24.2644558 54.0955163,22.3527235 54.09,20 C54.106473,18.8643738 53.6612316,17.7707097 52.8562551,16.9695037 C52.0512787,16.1682976 50.9555364,15.7281956 49.82,15.75 L49.82,15.75 Z M49.82,22.58 C48.7632273,22.6539053 47.768673,22.0743135 47.3120213,21.1184371 C46.8553697,20.1625607 47.0294358,19.0246828 47.7509659,18.249038 C48.4724959,17.4733932 49.5948379,17.2176324 50.5811878,17.6040831 C51.5675378,17.9905338 52.2174189,18.9406494 52.22,20 C52.2525428,20.6626719 52.0160327,21.3103928 51.5641403,21.7961771 C51.112248,22.2819613 50.4832921,22.5646164 49.82,22.58 L49.82,22.58 Z M38.74,17.06 L38.74,18.86 L43.06,18.86 C42.9922634,19.7078038 42.6398446,20.5077945 42.06,21.13 C41.1836518,22.0228625 39.9699725,22.5025202 38.72,22.45 C36.0690332,22.45 33.92,20.3009668 33.92,17.65 C33.92,14.9990332 36.0690332,12.85 38.72,12.85 C39.9404476,12.8318498 41.1188954,13.2953247 42,14.14 L43.27,12.87 C42.0659807,11.6791542 40.4332385,11.0231739 38.74,11.05 C36.3189608,10.955779 34.0403936,12.1936718 32.801854,14.2760571 C31.5633145,16.3584423 31.5633145,18.9515577 32.801854,21.0339429 C34.0403936,23.1163282 36.3189608,24.354221 38.74,24.26 C40.4701987,24.3291046 42.1475475,23.655982 43.35,22.41 C44.4001185,21.2564101 44.9596631,19.7391832 44.91,18.18 C44.9135793,17.8047255 44.8834584,17.4298875 44.82,17.06 L38.74,17.06 Z M84.05,18.46 C83.5160796,16.8892101 82.0679278,15.811053 80.41,15.7499847 C79.3043635,15.7478383 78.2471451,16.2034076 77.4893794,17.0085336 C76.7316138,17.8136596 76.3408955,18.8965231 76.41,20 C76.3924407,21.8748194 77.611123,23.5374987 79.4042599,24.0851449 C81.1973968,24.632791 83.1370825,23.9347165 84.17,22.37 L82.72,21.37 C82.280167,22.103094 81.4848748,22.5483054 80.63,22.54 C79.742835,22.5766297 78.9244125,22.0641224 78.57,21.2499847 L84.26,18.9 L84.05,18.46 Z M78.25,19.88 C78.2090571,19.2525116 78.4223869,18.634951 78.8419025,18.1665232 C79.2614182,17.6980954 79.8518111,17.4182257 80.48,17.39 C81.1387659,17.3497893 81.7574492,17.7083892 82.05,18.3 L78.25,19.88 Z M73.63,24 L75.5,24 L75.5,11.5 L73.63,11.5 L73.63,24 Z M70.57,16.7 L70.5,16.7 C69.9347066,16.0562073 69.116706,15.6910285 68.26,15.7 C65.9901469,15.8100717 64.2063371,17.6824796 64.2063371,19.955 C64.2063371,22.2275204 65.9901469,24.0999283 68.26,24.21 C69.1183976,24.2272187 69.9397171,23.8605582 70.5,23.21 L70.57,23.21 L70.57,23.82 C70.57,25.45 69.7,26.32 68.3,26.32 C67.3435146,26.2989876 66.4943492,25.702597 66.15,24.81 L64.53,25.48 C65.1431493,27.0199895 66.6425851,28.0222649 68.3,28 C70.49,28 72.3,26.71 72.3,23.57 L72.3,16 L70.57,16 L70.57,16.7 Z M68.42,22.58 C67.0600866,22.4952122 66.0005459,21.367554 66.0005459,20.005 C66.0005459,18.642446 67.0600866,17.5147878 68.42,17.43 C69.0670204,17.4579218 69.6750106,17.747221 70.1047995,18.231676 C70.5345883,18.7161309 70.7493771,19.3542625 70.7,20 C70.7551348,20.6480494 70.5426575,21.2904311 70.1119703,21.7777877 C69.6812831,22.2651443 69.0699104,22.5550138 68.42,22.58 L68.42,22.58 Z M92.81,11.5 L88.33,11.5 L88.33,24 L90.2,24 L90.2,19.26 L92.81,19.26 C94.262684,19.3643638 95.651974,18.648509 96.41013,17.404973 C97.168286,16.161437 97.168286,14.598563 96.41013,13.355027 C95.651974,12.111491 94.262684,11.3956362 92.81,11.5 L92.81,11.5 Z M92.81,17.5 L90.2,17.5 L90.2,13.24 L92.85,13.24 C93.614548,13.24 94.32102,13.6478817 94.703294,14.31 C95.085569,14.9721183 95.085569,15.7878817 94.703294,16.45 C94.32102,17.1121183 93.614548,17.52 92.85,17.52 L92.81,17.5 Z M104.35,15.71 C102.958089,15.6241747 101.648702,16.3752042 101.02,17.62 L102.67,18.31 C103.010603,17.695923 103.680401,17.3394806 104.38,17.4 C104.859528,17.3439946 105.341454,17.4829701 105.717528,17.7857102 C106.093603,18.0884503 106.332299,18.5295749 106.38,19.01 L106.38,19.13 C105.778663,18.8139168 105.109348,18.6491623 104.43,18.65 C102.65,18.65 100.83,19.65 100.83,21.47 C100.865569,22.2515813 101.216509,22.9853449 101.802624,23.5036142 C102.38874,24.0218835 103.159942,24.280368 103.94,24.22 C104.895412,24.2728479 105.805111,23.8065317 106.32,23 L106.38,23 L106.38,24 L108.18,24 L108.18,19.19 C108.18,17 106.52,15.73 104.39,15.73 L104.35,15.71 Z M104.12,22.56 C103.51,22.56 102.66,22.25 102.66,21.5 C102.66,20.5 103.72,20.16 104.66,20.16 C105.254042,20.1453419 105.841131,20.2903874 106.36,20.58 C106.230157,21.7031043 105.29036,22.5574651 104.16,22.58 L104.12,22.56 Z M114.74,16 L112.6,21.42 L112.54,21.42 L110.32,16 L108.32,16 L111.65,23.58 L109.75,27.79 L111.7,27.79 L116.82,16 L114.74,16 Z M97.94,24 L99.8,24 L99.8,11.5 L97.94,11.5 L97.94,24 Z" id="Shape" fill="#FFFFFF"></path>
            <path d="M1.44,1.54 C1.1104694,1.92961949 0.94232908,2.43046284 0.97,2.94 L0.97,25.06 C0.93597397,25.5703792 1.1048935,26.0735438 1.44,26.46 L1.51,26.54 L13.9,14.15 L13.9,13.85 L1.51,1.47 L1.44,1.54 Z" id="Path" fill="url(#linearGradient-1)"></path>
            <path d="M18,18.28 L13.9,14.15 L13.9,13.85 L18,9.72 L18.09,9.78 L23,12.56 C24.4,13.35 24.4,14.65 23,15.45 L18.11,18.23 L18,18.28 Z" id="Path" fill="url(#linearGradient-2)"></path>
            <path d="M18.12,18.22 L13.9,14 L1.44,26.46 C2.0230326,26.9789708 2.89324,27.0083981 3.51,26.53 L18.12,18.22" id="Path" fill="url(#linearGradient-3)"></path>
            <path d="M18.12,9.78 L3.51,1.48 C2.8969646,0.9947215 2.0238977,1.02002779 1.44,1.54 L13.9,14 L18.12,9.78 Z" id="Path" fill="url(#linearGradient-4)"></path>
            <path d="M18,18.13 L3.51,26.38 C2.9181542,26.8266792 2.1018458,26.8266792 1.51,26.38 L1.51,26.38 L1.44,26.45 L1.44,26.45 L1.51,26.53 L1.51,26.53 C2.1018458,26.9766792 2.9181542,26.9766792 3.51,26.53 L18.12,18.22 L18,18.13 Z" id="Path" fill="#000000" opacity="0.2"></path>
            <path d="M1.44,26.32 C1.1187941,25.9233599 0.96138192,25.4189256 1,24.91 L1,25.06 C0.96597397,25.5703792 1.1348935,26.0735438 1.47,26.46 L1.54,26.39 L1.44,26.32 Z" id="Path" fill="#000000" opacity="0.12"></path>
            <path d="M23,15.3 L18,18.13 L18.09,18.22 L23,15.44 C23.5903954,15.1903582 23.9970603,14.6379078 24.06,14 L24.06,14 C23.9332082,14.5771002 23.5397617,15.059629 23,15.3 Z" id="Path" fill="#000000" opacity="0.12"></path>
            <path d="M3.51,1.62 L23,12.7 C23.5397617,12.940371 23.9332082,13.4228998 24.06,14 L24.06,14 C23.9970603,13.3620922 23.5903954,12.8096418 23,12.56 L3.51,1.48 C2.12,0.68 0.97,1.34 0.97,2.94 L0.97,3.09 C1,1.49 2.12,0.83 3.51,1.62 Z" id="Path" fill="#FFFFFF" opacity="0.25"></path>
            <path d="M32.28,7 L32.28,1 L34.12,1 C34.93914,0.96301656 35.7377196,1.26293561 36.33,1.83 C36.8868943,2.41249455 37.1860204,3.19454728 37.16,4 C37.1860204,4.8054527 36.8868943,5.5875055 36.33,6.17 C35.7377196,6.7370644 34.93914,7.0369834 34.12,7 L32.28,7 Z M33.05,6.26 L34.12,6.26 C34.7235631,6.2905152 35.3142055,6.0780281 35.76,5.67 C36.1860443,5.2219631 36.4069609,4.6171586 36.37,4 C36.4219394,3.38793776 36.2019959,2.78401656 35.7686112,2.34870567 C35.3352265,1.91339479 34.7322866,1.69077532 34.12,1.74 L33.05,1.74 L33.05,6.26 Z" id="Shape" stroke="#FFFFFF" stroke-width="0.2" fill="#FFFFFF"></path>
            <polygon id="Path" stroke="#FFFFFF" stroke-width="0.2" fill="#FFFFFF" points="38.24 7 38.24 1 39 1 39 7"></polygon>
            <path d="M42.08,7.13 C41.6204519,7.1240126 41.1737585,6.9774413 40.8,6.71 C40.3858545,6.4269838 40.0931783,5.9986772 39.98,5.51 L40.69,5.22 C40.7676759,5.5465661 40.9460938,5.8404309 41.2,6.06 C41.4419337,6.2770548 41.7549758,6.3980029 42.08,6.4 C42.3885932,6.4072695 42.6909377,6.3123474 42.94,6.13 C43.167856,5.9665835 43.2991475,5.7002492 43.29,5.42 C43.3068354,5.1186059 43.1763408,4.8277894 42.94,4.64 C42.5928531,4.4109863 42.2113924,4.2388226 41.81,4.13 C41.3610021,4.0119105 40.9463537,3.7891655 40.6,3.48 C40.3300441,3.21830335 40.1814519,2.85588332 40.19,2.48 C40.1904053,2.04769437 40.3760811,1.63629505 40.7,1.35 C41.0579631,1.03289797 41.5218567,0.86161417 42,0.87 C42.4453224,0.8455745 42.8848249,0.98026076 43.24,1.25 C43.5279885,1.45542176 43.7447223,1.74556539 43.86,2.08 L43.16,2.37 C43.0967724,2.16090708 42.9668182,1.97826881 42.79,1.85 C42.5721192,1.67609189 42.2984843,1.58724938 42.02,1.6 C41.7457673,1.59553621 41.4780301,1.68360765 41.26,1.85 C41.0629473,1.99476582 40.9475811,2.22549837 40.95,2.47 C40.9523451,2.69210463 41.0599613,2.89991528 41.24,3.03 C41.496121,3.21940312 41.7839576,3.36162825 42.09,3.45 C42.3417704,3.52534319 42.5888678,3.61550037 42.83,3.72 C43.0426335,3.81756409 43.2438512,3.93829475 43.43,4.08 C43.630106,4.2185185 43.7890454,4.4085548 43.89,4.63 C44.0024325,4.8707499 44.0572145,5.1343884 44.05,5.4 C44.0545267,5.6707906 43.99273,5.9385763 43.87,6.18 C43.7600019,6.3988963 43.5944903,6.5850968 43.39,6.72 C43.1946221,6.8569021 42.978542,6.9615659 42.75,7.03 C42.5326073,7.0952439 42.3069696,7.1289212 42.08,7.13 L42.08,7.13 Z" id="Path" stroke="#FFFFFF" stroke-width="0.2" fill="#FFFFFF"></path>
            <path d="M46,7 L45.23,7 L45.23,1 L47.23,1 C47.7196295,0.99159534 48.1932151,1.17457158 48.55,1.51 C48.9072856,1.83766744 49.1106947,2.30021245 49.1106947,2.785 C49.1106947,3.26978755 48.9072856,3.73233256 48.55,4.06 C48.1932151,4.3954284 47.7196295,4.5784047 47.23,4.57 L46,4.57 L46,7 Z M46,3.83 L47.29,3.83 C47.5844552,3.84350477 47.8698695,3.72641175 48.07,3.51 C48.4573028,3.10425468 48.4573028,2.46574532 48.07,2.06 C47.8698695,1.84358825 47.5844552,1.72649523 47.29,1.74 L46,1.74 L46,3.83 Z" id="Shape" stroke="#FFFFFF" stroke-width="0.2" fill="#FFFFFF"></path>
            <path d="M55,6.22 C54.4277833,6.8199689 53.6288406,7.1504406 52.8,7.13 C51.9704555,7.1542515 51.1700228,6.8231635 50.6,6.22 C49.4114074,4.9786406 49.4114074,3.02135942 50.6,1.78 C51.1816025,1.19681883 51.9713728,0.86905802 52.795,0.86905802 C53.6186272,0.86905802 54.4083975,1.19681883 54.99,1.78 C56.1684439,3.02541723 56.1684439,4.9745828 54.99,6.22 L55,6.22 Z M51.17,5.72 C51.5985801,6.155466 52.1840077,6.4006955 52.795,6.4006955 C53.4059923,6.4006955 53.9914199,6.155466 54.42,5.72 C55.3146528,4.7478399 55.3146528,3.25216008 54.42,2.28 C53.9914199,1.84453401 53.4059923,1.59930454 52.795,1.59930454 C52.1840077,1.59930454 51.5985801,1.84453401 51.17,2.28 C50.2753472,3.25216008 50.2753472,4.7478399 51.17,5.72 L51.17,5.72 Z" id="Shape" stroke="#FFFFFF" stroke-width="0.2" fill="#FFFFFF"></path>
            <polygon id="Path" stroke="#FFFFFF" stroke-width="0.2" fill="#FFFFFF" points="57 7 57 1 57.94 1 60.86 5.67 60.86 5.67 60.86 4.51 60.86 1 61.63 1 61.63 7 60.82 7 57.82 2.11 57.82 2.11 57.82 3.26 57.82 7"></polygon>
            <polygon id="Path" stroke="#FFFFFF" stroke-width="0.2" fill="#FFFFFF" points="63 7 63 1 63.77 1 63.77 7"></polygon>
            <path d="M65.1,7 L65.1,0.999888922 L67.27,0.999888922 C67.7196907,0.99645117 68.1545989,1.16043297 68.49,1.46 C68.8223186,1.75708709 69.0085519,2.18432834 69,2.63 C69.006751,2.89995315 68.929912,3.16539667 68.78,3.39 C68.6323852,3.60470984 68.4281632,3.77431794 68.19,3.88 L68.19,3.88 C68.4800671,3.97602197 68.7344622,4.1572349 68.92,4.4 C69.1079844,4.6428734 69.2068336,4.9429512 69.2,5.25 C69.2103361,5.7167258 69.0124315,6.1638434 68.66,6.47 C68.3140602,6.7948062 67.8544022,6.9707691 67.38,6.96 L65.1,7 Z M65.87,3.57 L67.27,3.57 C67.5348846,3.58244343 67.7915213,3.47612249 67.97,3.28 C68.1475291,3.1164058 68.250985,2.88771206 68.2566415,2.6463666 C68.262298,2.40502114 68.1696699,2.17173168 68,2 C67.8297783,1.8111661 67.5839686,1.70843964 67.33,1.72 L65.87,1.72 L65.87,3.57 Z M65.87,6.26 L67.42,6.26 C67.6942187,6.2691998 67.9582331,6.1555269 68.14,5.95 C68.3126652,5.7655769 68.4091275,5.5226349 68.41,5.27 C68.4039154,5.0194718 68.303988,4.7803596 68.13,4.6 C67.9350507,4.3953089 67.6625778,4.2826868 67.38,4.29 L65.87,4.29 L65.87,6.26 Z" id="Shape" stroke="#FFFFFF" stroke-width="0.2" fill="#FFFFFF"></path>
            <polygon id="Path" stroke="#FFFFFF" stroke-width="0.2" fill="#FFFFFF" points="70.24 7 70.24 1 71 1 71 6.26 73.6 6.26 73.6 7"></polygon>
            <polygon id="Path" stroke="#FFFFFF" stroke-width="0.2" fill="#FFFFFF" points="78.08 1.74 75.35 1.74 75.35 3.64 77.82 3.64 77.82 4.36 75.35 4.36 75.35 6.26 78.08 6.26 78.08 7 74.58 7 74.58 1 78.08 1"></polygon>
            <polygon id="Path" stroke="#FFFFFF" stroke-width="0.2" fill="#FFFFFF" points="84.81 1.74 82.07 1.74 82.07 3.64 84.54 3.64 84.54 4.36 82.07 4.36 82.07 6.26 84.81 6.26 84.81 7 81.3 7 81.3 1 84.81 1"></polygon>
            <polygon id="Path" stroke="#FFFFFF" stroke-width="0.2" fill="#FFFFFF" points="86 7 86 1 87 1 89.92 5.67 89.92 5.67 89.92 4.51 89.92 1 90.69 1 90.69 7 89.88 7 86.88 2.11 86.88 2.11 86.88 3.26 86.88 7"></polygon>
        </g>
    </g>
</svg>