<?xml version="1.0" encoding="utf-8"?>
<!-- Generator: Adobe Illustrator 22.0.1, SVG Export Plug-In . SVG Version: 6.00 Build 0)  -->
<svg version="1.1" id="Calque_1" xmlns="http://www.w3.org/2000/svg" xmlns:xlink="http://www.w3.org/1999/xlink" x="0px" y="0px"
	 viewBox="0 0 381 225" style="enable-background:new 0 0 381 225;" xml:space="preserve">
<style type="text/css">
	.st0{fill:#E6E6FC;}
</style>
<title>nuage-1</title>
<desc>Created with Sketch.</desc>
<g id="Page-1">
	<g id="Ebook---Product-page" transform="translate(0.000000, -827.000000)">
		<g id="Group-3" transform="translate(-1.000000, 827.000000)">
			<g id="nuage-1">
				<path id="path-2_1_" class="st0" d="M0.6,169.4l3.2,0.4c2.6,0.3,5.1,0.4,7.8,0.4c1.2,0,2.5,0,3.7-0.1
					c19.6,32.8,55.4,54.7,96.4,54.7c26.7,0,51.3-9.4,70.6-25c7.4,2.4,15.3,3.7,23.5,3.7c22.7,0,43-9.9,56.9-25.7
					c12.3,8.5,27.2,13.5,43.2,13.5c41.9,0,75.8-34,75.8-75.8c0-2.4-0.1-4.8-0.3-7.2c-3.6-38.5-36-68.7-75.5-68.7
					c-22.6,0-43,9.9-56.9,25.7c-12.2-8.5-26.9-13.5-42.8-13.5c-20-31-54.8-51.6-94.5-51.6c-26.4,0-50.8,9.1-69.9,24.4
					c-9.2-4-19.5-6.2-30.2-6.2c-3.7,0-7.4,0.3-11,0.8V169.4z"/>
			</g>
		</g>
	</g>
</g>
</svg>
