<?xml version="1.0" encoding="utf-8"?>
<!-- Generator: Adobe Illustrator 22.0.1, SVG Export Plug-In . SVG Version: 6.00 Build 0)  -->
<svg version="1.1" id="Calque_1" xmlns="http://www.w3.org/2000/svg" xmlns:xlink="http://www.w3.org/1999/xlink" x="0px" y="0px"
	 viewBox="0 0 1920 200" style="enable-background:new 0 0 1920 200;" xml:space="preserve">
<style type="text/css">
	.st0{fill:#779B64;}
	.st1{fill:#87B272;}
	.st2{fill:#526D45;}
	.st3{fill:#ED976B;}
	.st4{fill:#C16E49;}
	.st5{opacity:0.1;}
	.st6{fill:#F9E0D7;}
	.st7{fill:#B2A4D4;stroke:#AA9DD1;stroke-width:0.25;stroke-miterlimit:10;}
	.st8{fill:#B3CFEE;stroke:#8BAED9;stroke-width:0.25;stroke-miterlimit:10;}
	.st9{fill:#FCF9D8;}
</style>
<path class="st0" d="M651.1,155.2c0,0,370.8,34.1,588.5-17.1s-241.1,70.5-241.1,70.5L651.1,155.2z"/>
<path class="st1" d="M-13,101v116h1024C1011,217,559,73-13,101z"/>
<path class="st2" d="M1968,97.4V241H818.6C818.6,241,1627-2.2,1968,97.4z"/>
<g>
	<circle class="st1" cx="977.2" cy="130.5" r="17"/>
	<circle class="st1" cx="988" cy="139.2" r="10.8"/>
	<circle class="st1" cx="965.2" cy="139.2" r="10.8"/>
	<rect x="973.3" y="146.4" class="st3" width="7.1" height="29.2"/>
</g>
<g>
	<g>
		<path class="st1" d="M1495.5,53c0,7.2-2.9,13.7-7.6,18.5c-0.3,0.3-0.5,0.5-0.8,0.8c-4.1-4.6-6.6-10.7-6.6-17.4
			c0-7.1,2.8-13.5,7.4-18.2c0.3-0.4,0.7-0.7,1-1C1493,40.3,1495.5,46.4,1495.5,53z"/>
		<path class="st2" d="M1495.5,53c0,7.2-2.9,13.7-7.6,18.5V36.7c0.3-0.4,0.7-0.7,1-1C1493,40.3,1495.5,46.4,1495.5,53z"/>
	</g>
	<g>
		<path class="st1" d="M1485.7,52.9c2.9,6.6,2.8,13.7,0.4,20c-0.1,0.4-0.3,0.7-0.4,1c-5.6-2.6-10.3-7.2-13-13.3
			c-2.8-6.5-2.8-13.5-0.5-19.7c0.2-0.5,0.3-0.9,0.5-1.4C1478.3,42.2,1483,46.8,1485.7,52.9z"/>
		<path class="st2" d="M1485.7,52.9c2.9,6.6,2.8,13.7,0.4,20L1472.2,41c0.2-0.5,0.3-0.9,0.5-1.4C1478.3,42.2,1483,46.8,1485.7,52.9z
			"/>
	</g>
	<path class="st1" d="M1503,58c-1.7,7-6.1,12.7-11.7,16.2c-0.3,0.2-0.6,0.4-1,0.6c-2.9-5.5-3.9-11.9-2.3-18.4
		c1.7-6.9,5.9-12.5,11.5-16c0.4-0.3,0.8-0.5,1.3-0.8C1503.6,45.1,1504.5,51.6,1503,58z"/>
	<path class="st2" d="M1503,58c-1.7,7-6.1,12.7-11.7,16.2l8.2-33.8c0.4-0.3,0.8-0.5,1.3-0.8C1503.6,45.1,1504.5,51.6,1503,58z"/>
	<path class="st3" d="M1509.3,77c0,0.1,0,0.2,0,0.2l-0.4,2.4l-5.7,30c-0.2,1.3-1.4,2.3-2.7,2.3h-25.1c-1.3,0-2.5-1-2.7-2.3l-5.7-30
		l-0.4-2.4c0-0.1,0-0.2,0-0.2c-0.1-1.6,1.1-3.1,2.8-3.1h37.3C1508.2,73.9,1509.5,75.4,1509.3,77z"/>
	<path class="st3" d="M1514,70.8V75c0,1.1-0.9,2-2,2h-48.2c-1.1,0-2-0.9-2-2v-4.2c0-1.1,0.9-2,2-2h48.2
		C1513.1,68.8,1514,69.7,1514,70.8z"/>
	<path class="st4" d="M1509.3,77c0,0.1,0,0.2,0,0.2l-0.4,2.4H1467l-0.4-2.4c0-0.1,0-0.2,0-0.2H1509.3z"/>
	<path class="st5" d="M1514,70.8V75c0,1.1-0.9,2-2,2h-2.7c0,0.1,0,0.2,0,0.2l-0.4,2.4l-5.7,30c-0.2,1.3-1.4,2.3-2.7,2.3h-12.5v-43
		h24.1C1513.1,68.8,1514,69.7,1514,70.8z"/>
</g>
<rect x="114" y="19.6" class="st1" width="3.8" height="37.3"/>
<g>
	<path class="st1" d="M103.8,35.7c-2.7-3.3-3.2-7.9-1.7-12.8c0.1-0.3,0.2-0.6,0.3-0.8c4.6-0.3,8.7,1,11.2,4
		c2.7,3.2,3.2,7.8,1.8,12.6c-0.1,0.4-0.2,0.7-0.3,1.1C110.4,40,106.4,38.7,103.8,35.7z"/>
	<path class="st2" d="M103.8,35.7c-2.7-3.3-3.2-7.9-1.7-12.8l13.3,15.7c-0.1,0.4-0.2,0.7-0.3,1.1C110.4,40,106.4,38.7,103.8,35.7z"
		/>
</g>
<g>
	<path class="st1" d="M129.3,16.4c-3.6,3.6-8.8,5.1-14.2,4.4c-0.3,0-0.6-0.1-0.9-0.1c-0.3-5,1.1-9.7,4.4-13c3.6-3.6,8.6-5,13.9-4.5
		c0.4,0,0.8,0.1,1.2,0.2C134.1,8.4,132.7,13.1,129.3,16.4z"/>
	<path class="st2" d="M129.3,16.4c-3.6,3.6-8.8,5.1-14.2,4.4l17.5-17.6c0.4,0,0.8,0.1,1.2,0.2C134.1,8.4,132.7,13.1,129.3,16.4z"/>
</g>
<path class="st3" d="M149.9,81.1c0,13.3-7.4,24.8-18.2,30.5H100c-10.8-5.8-18.2-17.3-18.2-30.5c0-2.3,0.2-4.5,0.6-6.6
	c0.1-0.4,0.1-0.7,0.2-1c0.4-1.9,1-3.8,1.7-5.5c0.1-0.3,0.3-0.6,0.4-0.9c2.3-5.1,5.7-9.6,10-13h42.1c4.3,3.4,7.7,7.9,10,13
	c0.1,0.3,0.3,0.6,0.4,0.9c0.7,1.8,1.3,3.6,1.7,5.5c0.1,0.3,0.1,0.7,0.2,1C149.6,76.6,149.9,78.8,149.9,81.1z"/>
<path class="st6" d="M149.2,73.4H82.5c0.4-2.2,1.1-4.4,2-6.4h62.8C148.1,69,148.8,71.2,149.2,73.4z"/>
<path class="st5" d="M149.9,81.1c0,13.3-4.3,24.8-15.6,30.5h-20.1V54h24.6c4.5,3.4,6.4,8.4,8.4,13l0,0c0.9,2.1,1.6,4.2,2.1,6.4H149
	c0.1,0.3,0.2,0.7,0.2,1C149.6,76.6,149.9,78.8,149.9,81.1z"/>
<g>
	<g>
		<path class="st1" d="M516.6,83.4l-1.2-2c0,0,1.1,55.5,38.5,62.7l-0.7-1.1C522.4,135.6,517.4,94.4,516.6,83.4z"/>
		<path class="st7" d="M518.8,81.4c-0.2,1.6-1.1,3-2.2,3.9c-0.1,0.1-0.1,0.1-0.2,0.2c-0.8-1.2-1.1-2.6-0.9-4.1
			c0.2-1.6,1-2.9,2.2-3.8c0.1-0.1,0.2-0.1,0.3-0.2C518.7,78.5,519,79.9,518.8,81.4z"/>
		<path class="st7" d="M515.5,83.6c0.8,1.4,1,3,0.6,4.4c0,0.1,0,0.2-0.1,0.2c-1.3-0.4-2.5-1.3-3.2-2.6c-0.8-1.4-1-2.9-0.7-4.4
			c0-0.1,0.1-0.2,0.1-0.3C513.5,81.5,514.7,82.3,515.5,83.6z"/>
		<path class="st7" d="M520.3,86.5c-1,1.3-2.4,2-3.9,2.2c-0.1,0-0.2,0-0.3,0c-0.1-1.4,0.3-2.8,1.3-4c1-1.2,2.4-2,3.8-2.2
			c0.1,0,0.2,0,0.3,0C521.7,83.9,521.3,85.3,520.3,86.5z"/>
		<path class="st7" d="M515.5,88.7c1.2,1.1,1.9,2.5,2,4c0,0.1,0,0.2,0,0.3c-1.4,0-2.8-0.5-3.9-1.5c-1.2-1.1-1.9-2.5-2-3.9
			c0-0.1,0-0.2,0-0.3C513,87.3,514.4,87.7,515.5,88.7z"/>
		<path class="st7" d="M521,89.9c-0.6,1.5-1.7,2.7-3,3.3c-0.1,0-0.2,0.1-0.2,0.1c-0.5-1.3-0.5-2.8,0-4.2c0.6-1.5,1.6-2.6,3-3.3
			c0.1,0,0.2-0.1,0.3-0.1C521.5,87.1,521.6,88.5,521,89.9z"/>
		<path class="st7" d="M516.9,92.2c0.8,1.4,1,3,0.6,4.4c0,0.1,0,0.2-0.1,0.2c-1.3-0.4-2.5-1.3-3.2-2.6c-0.8-1.4-1-2.9-0.7-4.4
			c0-0.1,0.1-0.2,0.1-0.3C514.9,90,516.1,90.9,516.9,92.2z"/>
		<path class="st7" d="M521.8,95.1c-1,1.3-2.4,2-3.9,2.2c-0.1,0-0.2,0-0.3,0c-0.1-1.4,0.3-2.8,1.3-4c1-1.2,2.4-2,3.8-2.2
			c0.1,0,0.2,0,0.3,0C523.1,92.5,522.7,93.9,521.8,95.1z"/>
		<path class="st7" d="M517.5,97.1c1.1,1.2,1.6,2.7,1.5,4.2c0,0.1,0,0.2,0,0.3c-1.4-0.2-2.7-0.8-3.7-1.9c-1.1-1.2-1.5-2.7-1.5-4.2
			c0-0.1,0-0.2,0-0.3C515.2,95.3,516.5,96,517.5,97.1z"/>
		<path class="st7" d="M522.9,99c-0.7,1.4-2,2.4-3.4,2.9c-0.1,0-0.2,0.1-0.2,0.1c-0.3-1.3-0.2-2.8,0.5-4.1c0.7-1.4,2-2.4,3.4-2.9
			c0.1,0,0.2-0.1,0.3-0.1C523.7,96.2,523.6,97.7,522.9,99z"/>
		<path class="st7" d="M519,100.3c0.8,1.4,1,3,0.6,4.4c0,0.1,0,0.2-0.1,0.2c-1.3-0.4-2.5-1.3-3.2-2.6c-0.8-1.4-1-2.9-0.7-4.4
			c0-0.1,0.1-0.2,0.1-0.3C517,98.2,518.2,99.1,519,100.3z"/>
		<path class="st7" d="M523.9,103.2c-1,1.3-2.4,2-3.9,2.2c-0.1,0-0.2,0-0.3,0c-0.1-1.4,0.3-2.8,1.3-4c1-1.2,2.4-2,3.8-2.2
			c0.1,0,0.2,0,0.3,0C525.2,100.6,524.8,102.1,523.9,103.2z"/>
		<path class="st7" d="M517.5,104c1.5,0.7,2.5,1.9,3,3.3c0,0.1,0.1,0.2,0.1,0.2c-1.3,0.4-2.8,0.3-4.2-0.4c-1.4-0.7-2.5-1.9-3-3.3
			c0-0.1-0.1-0.2-0.1-0.3C514.7,103.3,516.1,103.4,517.5,104z"/>
		<path class="st7" d="M523.1,103.7c-0.1,1.6-0.9,3-2,4c-0.1,0.1-0.1,0.1-0.2,0.2c-0.8-1.1-1.3-2.5-1.1-4c0.1-1.6,0.9-3,2-3.9
			c0.1-0.1,0.2-0.1,0.3-0.2C522.8,100.8,523.3,102.2,523.1,103.7z"/>
		<path class="st7" d="M519.9,106.9c1.2,1,2,2.5,2.1,4c0,0.1,0,0.2,0,0.3c-1.4,0-2.8-0.4-3.9-1.4c-1.2-1-1.9-2.4-2.1-3.9
			c0-0.1,0-0.2,0-0.3C517.3,105.5,518.7,106,519.9,106.9z"/>
		<path class="st7" d="M525.6,108.8c-1,1.3-2.4,2-3.9,2.2c-0.1,0-0.2,0-0.3,0c-0.1-1.4,0.3-2.8,1.3-4c1-1.2,2.4-2,3.8-2.2
			c0.1,0,0.2,0,0.3,0C527,106.2,526.6,107.6,525.6,108.8z"/>
		<path class="st7" d="M520.2,109.2c1.3,1,2.1,2.4,2.3,3.9c0,0.1,0,0.2,0,0.3c-1.4,0.1-2.8-0.3-4-1.2c-1.3-1-2-2.3-2.3-3.8
			c0-0.1,0-0.2,0-0.3C517.6,107.9,519,108.3,520.2,109.2z"/>
		<path class="st7" d="M525.8,110c-0.5,1.6-1.5,2.8-2.8,3.5c-0.1,0-0.1,0.1-0.2,0.1c-0.6-1.3-0.7-2.7-0.3-4.2
			c0.4-1.5,1.5-2.7,2.7-3.5c0.1-0.1,0.2-0.1,0.3-0.2C526.1,107.1,526.3,108.6,525.8,110z"/>
		<path class="st7" d="M522.9,111.5c0.8,1.4,1,3,0.6,4.4c0,0.1,0,0.2-0.1,0.2c-1.3-0.4-2.5-1.3-3.2-2.6c-0.8-1.4-1-2.9-0.7-4.4
			c0-0.1,0.1-0.2,0.1-0.3C520.9,109.3,522.1,110.2,522.9,111.5z"/>
		<path class="st7" d="M527.7,114.4c-1,1.3-2.4,2-3.9,2.2c-0.1,0-0.2,0-0.3,0c-0.1-1.4,0.3-2.8,1.3-4c1-1.2,2.4-2,3.8-2.2
			c0.1,0,0.2,0,0.3,0C529.1,111.8,528.7,113.2,527.7,114.4z"/>
		<path class="st7" d="M521.2,114.6c1.5,0.7,2.5,1.9,3,3.3c0,0.1,0.1,0.2,0.1,0.2c-1.3,0.4-2.8,0.3-4.1-0.4c-1.4-0.7-2.5-1.9-3-3.3
			c0-0.1-0.1-0.2-0.1-0.3C518.4,113.8,519.9,113.9,521.2,114.6z"/>
		<path class="st7" d="M526.9,114.3c-0.1,1.6-0.9,3-2.1,4c-0.1,0.1-0.1,0.1-0.2,0.2c-0.8-1.1-1.3-2.5-1.1-4c0.1-1.6,0.9-3,2-3.9
			c0.1-0.1,0.2-0.1,0.3-0.2C526.6,111.4,527,112.8,526.9,114.3z"/>
		<path class="st7" d="M524.7,114.9c0.8,1.4,1,3,0.6,4.4c0,0.1,0,0.2-0.1,0.2c-1.3-0.4-2.5-1.3-3.2-2.6c-0.8-1.4-1-2.9-0.7-4.4
			c0-0.1,0.1-0.2,0.1-0.3C522.8,112.7,524,113.6,524.7,114.9z"/>
		<path class="st7" d="M529.6,117.8c-1,1.3-2.4,2-3.9,2.2c-0.1,0-0.2,0-0.3,0c-0.1-1.4,0.3-2.8,1.3-4c1-1.2,2.4-2,3.8-2.2
			c0.1,0,0.2,0,0.3,0C531,115.2,530.6,116.6,529.6,117.8z"/>
		<path class="st7" d="M523.4,118c1.3,0.9,2.2,2.3,2.5,3.7c0,0.1,0,0.2,0,0.2c-1.4,0.2-2.8-0.1-4-1c-1.3-0.9-2.2-2.2-2.4-3.7
			c0-0.1,0-0.2-0.1-0.3C520.7,116.9,522.2,117.2,523.4,118z"/>
		<path class="st7" d="M529.1,118.6c-0.4,1.6-1.3,2.8-2.6,3.6c-0.1,0-0.1,0.1-0.2,0.1c-0.7-1.2-0.9-2.7-0.5-4.1
			c0.4-1.5,1.3-2.8,2.6-3.6c0.1-0.1,0.2-0.1,0.3-0.2C529.2,115.7,529.4,117.1,529.1,118.6z"/>
	</g>
	<g>
		<path class="st1" d="M567.4,81l1.2-2c0,0-1.1,55.5-38.5,62.7l0.7-1.1C561.6,133.2,566.6,92.1,567.4,81z"/>
		<path class="st7" d="M565.1,79c0.2,1.6,1.1,3,2.2,3.9c0.1,0.1,0.1,0.1,0.2,0.2c0.8-1.2,1.1-2.6,0.9-4.1c-0.2-1.6-1-2.9-2.2-3.8
			c-0.1-0.1-0.2-0.1-0.3-0.2C565.3,76.1,564.9,77.6,565.1,79z"/>
		<path class="st7" d="M568.5,81.3c-0.8,1.4-1,3-0.6,4.4c0,0.1,0,0.2,0.1,0.2c1.3-0.4,2.5-1.3,3.2-2.6c0.8-1.4,1-2.9,0.7-4.4
			c0-0.1-0.1-0.2-0.1-0.3C570.4,79.1,569.3,80,568.5,81.3z"/>
		<path class="st7" d="M563.6,84.2c1,1.3,2.4,2,3.9,2.2c0.1,0,0.2,0,0.3,0c0.1-1.4-0.3-2.8-1.3-4c-1-1.2-2.4-2-3.8-2.2
			c-0.1,0-0.2,0-0.3,0C562.3,81.6,562.7,83,563.6,84.2z"/>
		<path class="st7" d="M568.5,86.4c-1.2,1.1-1.9,2.5-2,4c0,0.1,0,0.2,0,0.3c1.4,0,2.8-0.5,3.9-1.5c1.2-1.1,1.9-2.5,2-3.9
			c0-0.1,0-0.2,0-0.3C571,84.9,569.6,85.4,568.5,86.4z"/>
		<path class="st7" d="M562.9,87.6c0.6,1.5,1.7,2.7,3,3.3c0.1,0,0.2,0.1,0.2,0.1c0.5-1.3,0.5-2.8,0-4.2c-0.6-1.5-1.6-2.6-3-3.3
			c-0.1,0-0.2-0.1-0.3-0.1C562.5,84.7,562.4,86.2,562.9,87.6z"/>
		<path class="st7" d="M567.1,89.9c-0.8,1.4-1,3-0.6,4.4c0,0.1,0,0.2,0.1,0.2c1.3-0.4,2.5-1.3,3.2-2.6c0.8-1.4,1-2.9,0.7-4.4
			c0-0.1-0.1-0.2-0.1-0.3C569,87.7,567.9,88.6,567.1,89.9z"/>
		<path class="st7" d="M562.2,92.7c1,1.3,2.4,2,3.9,2.2c0.1,0,0.2,0,0.3,0c0.1-1.4-0.3-2.8-1.3-4c-1-1.2-2.4-2-3.8-2.2
			c-0.1,0-0.2,0-0.3,0C560.9,90.2,561.3,91.6,562.2,92.7z"/>
		<path class="st7" d="M566.5,94.7c-1.1,1.2-1.6,2.7-1.5,4.2c0,0.1,0,0.2,0,0.3c1.4-0.2,2.7-0.8,3.7-1.9c1.1-1.2,1.5-2.7,1.5-4.2
			c0-0.1,0-0.2,0-0.3C568.8,93,567.4,93.6,566.5,94.7z"/>
		<path class="st7" d="M561.1,96.6c0.7,1.4,2,2.4,3.4,2.9c0.1,0,0.2,0.1,0.2,0.1c0.3-1.3,0.2-2.8-0.5-4.1c-0.7-1.4-2-2.4-3.4-2.9
			c-0.1,0-0.2-0.1-0.3-0.1C560.3,93.8,560.4,95.3,561.1,96.6z"/>
		<path class="st7" d="M565,98c-0.8,1.4-1,3-0.6,4.4c0,0.1,0,0.2,0.1,0.2c1.3-0.4,2.5-1.3,3.2-2.6c0.8-1.4,1-2.9,0.7-4.4
			c0-0.1-0.1-0.2-0.1-0.3C566.9,95.8,565.8,96.7,565,98z"/>
		<path class="st7" d="M560.1,100.9c1,1.3,2.4,2,3.9,2.2c0.1,0,0.2,0,0.3,0c0.1-1.4-0.3-2.8-1.3-4c-1-1.2-2.4-2-3.8-2.2
			c-0.1,0-0.2,0-0.3,0C558.8,98.3,559.2,99.7,560.1,100.9z"/>
		<path class="st7" d="M566.5,101.7c-1.5,0.7-2.5,1.9-3,3.3c0,0.1-0.1,0.2-0.1,0.2c1.3,0.4,2.8,0.3,4.2-0.4c1.4-0.7,2.5-1.9,3-3.3
			c0-0.1,0.1-0.2,0.1-0.3C569.3,100.9,567.8,101,566.5,101.7z"/>
		<path class="st7" d="M560.8,101.4c0.1,1.6,0.9,3,2,4c0.1,0.1,0.1,0.1,0.2,0.2c0.8-1.1,1.3-2.5,1.1-4c-0.1-1.6-0.9-3-2-3.9
			c-0.1-0.1-0.2-0.1-0.3-0.2C561.1,98.5,560.7,99.9,560.8,101.4z"/>
		<path class="st7" d="M564.1,104.6c-1.2,1-2,2.5-2.1,4c0,0.1,0,0.2,0,0.3c1.4,0,2.8-0.4,3.9-1.4c1.2-1,1.9-2.4,2.1-3.9
			c0-0.1,0-0.2,0-0.3C566.7,103.2,565.3,103.6,564.1,104.6z"/>
		<path class="st7" d="M558.3,106.4c1,1.3,2.4,2,3.9,2.2c0.1,0,0.2,0,0.3,0c0.1-1.4-0.3-2.8-1.3-4c-1-1.2-2.4-2-3.8-2.2
			c-0.1,0-0.2,0-0.3,0C557,103.8,557.4,105.2,558.3,106.4z"/>
		<path class="st7" d="M563.7,106.9c-1.3,1-2.1,2.4-2.3,3.9c0,0.1,0,0.2,0,0.3c1.4,0.1,2.8-0.3,4-1.2c1.3-1,2-2.3,2.3-3.8
			c0-0.1,0-0.2,0-0.3C566.4,105.6,564.9,106,563.7,106.9z"/>
		<path class="st7" d="M558.1,107.7c0.5,1.6,1.5,2.8,2.8,3.5c0.1,0,0.1,0.1,0.2,0.1c0.6-1.3,0.7-2.7,0.3-4.2
			c-0.4-1.5-1.5-2.7-2.7-3.5c-0.1-0.1-0.2-0.1-0.3-0.2C557.9,104.8,557.7,106.2,558.1,107.7z"/>
		<path class="st7" d="M561.1,109.1c-0.8,1.4-1,3-0.6,4.4c0,0.1,0,0.2,0.1,0.2c1.3-0.4,2.5-1.3,3.2-2.6c0.8-1.4,1-2.9,0.7-4.4
			c0-0.1-0.1-0.2-0.1-0.3C563.1,107,561.9,107.8,561.1,109.1z"/>
		<path class="st7" d="M556.2,112c1,1.3,2.4,2,3.9,2.2c0.1,0,0.2,0,0.3,0c0.1-1.4-0.3-2.8-1.3-4c-1-1.2-2.4-2-3.8-2.2
			c-0.1,0-0.2,0-0.3,0C554.9,109.4,555.3,110.8,556.2,112z"/>
		<path class="st7" d="M562.8,112.2c-1.5,0.7-2.5,1.9-3,3.3c0,0.1-0.1,0.2-0.1,0.2c1.3,0.4,2.8,0.3,4.1-0.4c1.4-0.7,2.5-1.9,3-3.3
			c0-0.1,0.1-0.2,0.1-0.3C565.6,111.5,564.1,111.6,562.8,112.2z"/>
		<path class="st7" d="M557.1,111.9c0.1,1.6,0.9,3,2.1,4c0.1,0.1,0.1,0.1,0.2,0.2c0.8-1.1,1.3-2.5,1.1-4c-0.1-1.6-0.9-3-2-3.9
			c-0.1-0.1-0.2-0.1-0.3-0.2C557.4,109,557,110.5,557.1,111.9z"/>
		<path class="st7" d="M559.2,112.6c-0.8,1.4-1,3-0.6,4.4c0,0.1,0,0.2,0.1,0.2c1.3-0.4,2.5-1.3,3.2-2.6c0.8-1.4,1-2.9,0.7-4.4
			c0-0.1-0.1-0.2-0.1-0.3C561.2,110.4,560,111.3,559.2,112.6z"/>
		<path class="st7" d="M554.4,115.5c1,1.3,2.4,2,3.9,2.2c0.1,0,0.2,0,0.3,0c0.1-1.4-0.3-2.8-1.3-4c-1-1.2-2.4-2-3.8-2.2
			c-0.1,0-0.2,0-0.3,0C553,112.9,553.4,114.3,554.4,115.5z"/>
		<path class="st7" d="M560.6,115.7c-1.3,0.9-2.2,2.3-2.5,3.7c0,0.1,0,0.2,0,0.2c1.4,0.2,2.8-0.1,4-1c1.3-0.9,2.2-2.2,2.4-3.7
			c0-0.1,0-0.2,0.1-0.3C563.2,114.5,561.8,114.8,560.6,115.7z"/>
		<path class="st7" d="M554.9,116.2c0.4,1.6,1.3,2.8,2.6,3.6c0.1,0,0.1,0.1,0.2,0.1c0.7-1.2,0.9-2.7,0.5-4.1
			c-0.4-1.5-1.3-2.8-2.6-3.6c-0.1-0.1-0.2-0.1-0.3-0.2C554.8,113.3,554.6,114.8,554.9,116.2z"/>
	</g>
	<g>
		<path class="st1" d="M553.5,70.6l0.5-2.3c0,0,17.6,52.6-15.3,72l0.3-1.2C565.5,121.7,556.4,81.3,553.5,70.6z"/>
		<path class="st7" d="M550.7,69.5c0.7,1.4,2,2.4,3.4,2.9c0.1,0,0.2,0.1,0.2,0.1c0.3-1.3,0.2-2.8-0.5-4.1c-0.7-1.4-1.9-2.4-3.3-2.9
			c-0.1,0-0.2-0.1-0.3-0.1C549.9,66.7,550,68.1,550.7,69.5z"/>
		<path class="st7" d="M554.6,70.5c-0.3,1.6,0.1,3.1,0.9,4.4c0,0.1,0.1,0.1,0.1,0.2c1.1-0.8,1.9-2.1,2.2-3.5c0.3-1.6,0-3.1-0.8-4.3
			c-0.1-0.1-0.1-0.2-0.2-0.3C555.7,67.7,554.9,69,554.6,70.5z"/>
		<path class="st7" d="M551,74.8c1.4,0.9,3,1.1,4.4,0.7c0.1,0,0.2,0,0.2-0.1c-0.4-1.3-1.3-2.5-2.5-3.3c-1.4-0.8-2.9-1.1-4.4-0.8
			c-0.1,0-0.2,0-0.3,0.1C548.9,72.8,549.7,74,551,74.8z"/>
		<path class="st7" d="M556.3,75.3c-0.8,1.4-0.9,3-0.5,4.5c0,0.1,0,0.2,0.1,0.2c1.3-0.5,2.5-1.4,3.2-2.7c0.8-1.4,0.9-3,0.5-4.4
			c0-0.1-0.1-0.2-0.1-0.3C558.2,73,557,74,556.3,75.3z"/>
		<path class="st7" d="M551.5,78.3c1,1.2,2.5,1.9,4,2.1c0.1,0,0.2,0,0.3,0c0-1.4-0.4-2.8-1.4-3.9c-1-1.2-2.4-1.9-3.9-2.1
			c-0.1,0-0.2,0-0.3,0C550.1,75.7,550.5,77.1,551.5,78.3z"/>
		<path class="st7" d="M556.2,79c-0.3,1.6,0.1,3.1,0.9,4.4c0,0.1,0.1,0.1,0.1,0.2c1.1-0.8,1.9-2.1,2.2-3.5c0.3-1.6,0-3.1-0.8-4.3
			c-0.1-0.1-0.1-0.2-0.2-0.3C557.3,76.3,556.5,77.5,556.2,79z"/>
		<path class="st7" d="M552.5,83.4c1.4,0.9,3,1.1,4.4,0.7c0.1,0,0.2,0,0.2-0.1c-0.4-1.3-1.3-2.5-2.5-3.3c-1.4-0.8-2.9-1.1-4.4-0.8
			c-0.1,0-0.2,0-0.3,0.1C550.4,81.4,551.3,82.6,552.5,83.4z"/>
		<path class="st7" d="M557.2,83.8c-0.6,1.5-0.6,3.1,0,4.5c0,0.1,0.1,0.2,0.1,0.2c1.2-0.6,2.3-1.7,2.8-3.1c0.6-1.5,0.6-3,0-4.4
			c0-0.1-0.1-0.2-0.1-0.3C558.8,81.4,557.8,82.4,557.2,83.8z"/>
		<path class="st7" d="M552.8,87.4c1.2,1.1,2.7,1.6,4.2,1.6c0.1,0,0.2,0,0.3,0c-0.1-1.4-0.8-2.7-1.9-3.7c-1.2-1.1-2.6-1.6-4.1-1.6
			c-0.1,0-0.2,0-0.3,0C551.1,85,551.7,86.4,552.8,87.4z"/>
		<path class="st7" d="M556.9,87.4c-0.3,1.6,0.1,3.1,0.9,4.4c0,0.1,0.1,0.1,0.1,0.2c1.1-0.8,1.9-2.1,2.2-3.5c0.3-1.6,0-3.1-0.8-4.3
			c-0.1-0.1-0.1-0.2-0.2-0.3C558,84.7,557.2,85.9,556.9,87.4z"/>
		<path class="st7" d="M553.3,91.7c1.4,0.9,3,1.1,4.4,0.7c0.1,0,0.2,0,0.2-0.1c-0.4-1.3-1.3-2.5-2.5-3.3c-1.4-0.8-2.9-1.1-4.4-0.8
			c-0.1,0-0.2,0-0.3,0.1C551.2,89.7,552,90.9,553.3,91.7z"/>
		<path class="st7" d="M559.6,90.3c-1.1,1.1-1.7,2.6-1.7,4.1c0,0.1,0,0.2,0,0.3c1.4-0.1,2.7-0.7,3.8-1.7c1.1-1.1,1.7-2.6,1.7-4.1
			c0-0.1,0-0.2,0-0.3C562,88.7,560.6,89.3,559.6,90.3z"/>
		<path class="st7" d="M554.1,91.9c0.7,1.5,1.9,2.5,3.3,3.1c0.1,0,0.2,0.1,0.2,0.1c0.4-1.3,0.3-2.8-0.3-4.2c-0.7-1.4-1.8-2.5-3.2-3
			c-0.1,0-0.2-0.1-0.3-0.1C553.4,89.1,553.5,90.6,554.1,91.9z"/>
		<path class="st7" d="M558.3,93.9c-0.8,1.4-1,3-0.7,4.4c0,0.1,0,0.2,0.1,0.2c1.3-0.4,2.5-1.3,3.3-2.6c0.8-1.4,1-2.9,0.7-4.4
			c0-0.1-0.1-0.2-0.1-0.3C560.2,91.7,559,92.6,558.3,93.9z"/>
		<path class="st7" d="M553.5,97.5c1.4,0.9,3,1.1,4.4,0.7c0.1,0,0.2,0,0.2-0.1c-0.4-1.3-1.3-2.5-2.5-3.3c-1.4-0.8-2.9-1.1-4.4-0.8
			c-0.1,0-0.2,0-0.3,0.1C551.3,95.5,552.2,96.7,553.5,97.5z"/>
		<path class="st7" d="M558.7,96.2c-0.9,1.4-1.1,2.9-0.8,4.4c0,0.1,0,0.2,0.1,0.2c1.3-0.4,2.5-1.2,3.4-2.5c0.9-1.3,1.1-2.9,0.9-4.3
			c0-0.1,0-0.2-0.1-0.3C560.7,94.1,559.5,94.9,558.7,96.2z"/>
		<path class="st7" d="M553.7,98.8c0.9,1.3,2.3,2.1,3.8,2.4c0.1,0,0.2,0,0.3,0c0.1-1.4-0.2-2.8-1.1-4c-0.9-1.3-2.3-2.1-3.7-2.3
			c-0.1,0-0.2,0-0.3-0.1C552.5,96.2,552.8,97.6,553.7,98.8z"/>
		<path class="st7" d="M557,99.2c-0.3,1.6,0.1,3.1,0.9,4.4c0,0.1,0.1,0.1,0.1,0.2c1.1-0.8,1.9-2.1,2.2-3.5c0.3-1.6,0-3.1-0.8-4.3
			c-0.1-0.1-0.1-0.2-0.2-0.3C558.1,96.5,557.3,97.7,557,99.2z"/>
		<path class="st7" d="M553.4,103.5c1.4,0.9,3,1.1,4.4,0.7c0.1,0,0.2,0,0.2-0.1c-0.4-1.3-1.3-2.5-2.5-3.3c-1.4-0.8-2.9-1.1-4.4-0.8
			c-0.1,0-0.2,0-0.3,0.1C551.2,101.5,552.1,102.7,553.4,103.5z"/>
		<path class="st7" d="M559.6,101.5c-1.1,1.2-1.7,2.7-1.7,4.2c0,0.1,0,0.2,0,0.3c1.4-0.1,2.7-0.7,3.8-1.8c1.1-1.1,1.7-2.6,1.7-4.1
			c0-0.1,0-0.2,0-0.3C562,99.9,560.6,100.5,559.6,101.5z"/>
		<path class="st7" d="M554.1,103.2c0.7,1.5,1.9,2.5,3.3,3.1c0.1,0,0.2,0.1,0.2,0.1c0.4-1.3,0.3-2.8-0.3-4.2c-0.7-1.4-1.8-2.5-3.2-3
			c-0.1,0-0.2-0.1-0.3-0.1C553.5,100.3,553.5,101.8,554.1,103.2z"/>
		<path class="st7" d="M556.4,103c-0.3,1.6,0.1,3.1,0.9,4.4c0,0.1,0.1,0.1,0.1,0.2c1.1-0.8,1.9-2.1,2.2-3.5c0.3-1.6,0-3.1-0.8-4.3
			c-0.1-0.1-0.1-0.2-0.2-0.3C557.5,100.3,556.7,101.6,556.4,103z"/>
		<path class="st7" d="M552.7,107.4c1.4,0.9,3,1.1,4.4,0.7c0.1,0,0.2,0,0.2-0.1c-0.4-1.3-1.3-2.5-2.5-3.3c-1.4-0.8-2.9-1.1-4.4-0.8
			c-0.1,0-0.2,0-0.3,0.1C550.6,105.4,551.5,106.6,552.7,107.4z"/>
		<path class="st7" d="M558.7,105.5c-1,1.3-1.3,2.9-1.1,4.4c0,0.1,0,0.2,0,0.2c1.4-0.3,2.6-1.1,3.5-2.3c0.9-1.3,1.3-2.8,1.1-4.3
			c0-0.1,0-0.2-0.1-0.3C560.8,103.5,559.6,104.3,558.7,105.5z"/>
		<path class="st7" d="M553.5,107.9c0.9,1.4,2.2,2.2,3.7,2.5c0.1,0,0.2,0,0.2,0c0.2-1.4-0.1-2.8-0.9-4.1c-0.9-1.3-2.2-2.2-3.6-2.5
			c-0.1,0-0.2,0-0.3-0.1C552.4,105.2,552.7,106.7,553.5,107.9z"/>
	</g>
	<g>
		<path class="st1" d="M527.9,65.3l-0.6-2.5c0,0-14.1,59.4,20,78.3l-0.3-1.4C519.2,122.5,525.7,77.2,527.9,65.3z"/>
		<path class="st7" d="M530.6,63.8c-0.6,1.6-1.8,2.8-3.2,3.5c-0.1,0-0.2,0.1-0.2,0.1c-0.4-1.5-0.4-3.1,0.2-4.6
			c0.6-1.6,1.8-2.8,3.2-3.4c0.1,0,0.2-0.1,0.3-0.1C531.2,60.7,531.2,62.3,530.6,63.8z"/>
		<path class="st7" d="M526.7,65.2c0.4,1.7,0.2,3.5-0.6,4.9c0,0.1-0.1,0.2-0.1,0.2c-1.2-0.9-2-2.2-2.4-3.8c-0.4-1.7-0.2-3.4,0.6-4.8
			c0.1-0.1,0.1-0.2,0.2-0.3C525.5,62.3,526.4,63.6,526.7,65.2z"/>
		<path class="st7" d="M530.7,69.7c-1.3,1-2.9,1.4-4.4,1.1c-0.1,0-0.2,0-0.2-0.1c0.3-1.5,1.1-2.9,2.3-3.8c1.3-1,2.8-1.4,4.3-1.1
			c0.1,0,0.2,0,0.3,0.1C532.7,67.4,531.9,68.8,530.7,69.7z"/>
		<path class="st7" d="M525.4,70.6c0.9,1.5,1.1,3.3,0.8,4.9c0,0.1,0,0.2-0.1,0.3c-1.3-0.4-2.5-1.3-3.4-2.7c-0.9-1.5-1.1-3.2-0.8-4.8
			c0-0.1,0-0.2,0.1-0.4C523.4,68.3,524.6,69.2,525.4,70.6z"/>
		<path class="st7" d="M530.4,73.6c-1,1.4-2.3,2.3-3.8,2.6c-0.1,0-0.2,0-0.3,0c-0.1-1.5,0.2-3.1,1.1-4.4c0.9-1.4,2.3-2.3,3.8-2.6
			c0.1,0,0.2,0,0.3-0.1C531.6,70.7,531.3,72.2,530.4,73.6z"/>
		<path class="st7" d="M525.8,74.7c0.4,1.7,0.2,3.5-0.6,4.9c0,0.1-0.1,0.2-0.1,0.2c-1.2-0.9-2-2.2-2.4-3.8c-0.4-1.7-0.2-3.4,0.6-4.8
			c0.1-0.1,0.1-0.2,0.2-0.3C524.5,71.8,525.4,73.1,525.8,74.7z"/>
		<path class="st7" d="M529.7,79.3c-1.3,1-2.9,1.4-4.4,1.1c-0.1,0-0.2,0-0.2-0.1c0.3-1.5,1.1-2.9,2.3-3.8c1.3-1,2.8-1.4,4.3-1.1
			c0.1,0,0.2,0,0.3,0.1C531.7,76.9,530.9,78.3,529.7,79.3z"/>
		<path class="st7" d="M525.1,80.1c0.7,1.6,0.8,3.4,0.3,5c0,0.1-0.1,0.2-0.1,0.3c-1.3-0.6-2.4-1.7-3-3.2c-0.7-1.6-0.8-3.3-0.3-4.9
			c0-0.1,0.1-0.2,0.1-0.3C523.3,77.5,524.4,78.6,525.1,80.1z"/>
		<path class="st7" d="M529.7,83.8c-1.1,1.3-2.6,2-4.1,2c-0.1,0-0.2,0-0.3,0c0-1.5,0.6-3,1.6-4.3c1.1-1.3,2.5-2,4-2
			c0.1,0,0.2,0,0.3,0C531.2,81,530.7,82.6,529.7,83.8z"/>
		<path class="st7" d="M525.6,84c0.4,1.7,0.2,3.5-0.6,4.9c0,0.1-0.1,0.2-0.1,0.2c-1.2-0.9-2-2.2-2.4-3.8c-0.4-1.7-0.2-3.4,0.6-4.8
			c0.1-0.1,0.1-0.2,0.2-0.3C524.3,81.1,525.2,82.4,525.6,84z"/>
		<path class="st7" d="M529.5,88.6c-1.3,1-2.9,1.4-4.4,1.1c-0.1,0-0.2,0-0.2-0.1c0.3-1.5,1.1-2.9,2.3-3.8c1.3-1,2.8-1.4,4.3-1.1
			c0.1,0,0.2,0,0.3,0.1C531.5,86.2,530.7,87.6,529.5,88.6z"/>
		<path class="st7" d="M523.1,87.5c1.2,1.2,1.9,2.8,2,4.5c0,0.1,0,0.2,0,0.3c-1.4,0-2.8-0.5-3.9-1.6c-1.2-1.2-1.9-2.7-2-4.4
			c0-0.1,0-0.2,0-0.4C520.6,85.9,522,86.4,523.1,87.5z"/>
		<path class="st7" d="M528.7,88.9c-0.6,1.7-1.7,2.9-3.1,3.6c-0.1,0-0.2,0.1-0.2,0.1c-0.5-1.4-0.5-3.1,0-4.6c0.6-1.6,1.7-2.9,3-3.6
			c0.1-0.1,0.2-0.1,0.3-0.1C529.1,85.7,529.2,87.3,528.7,88.9z"/>
		<path class="st7" d="M524.6,91.3c0.9,1.5,1.2,3.2,0.9,4.8c0,0.1,0,0.2,0,0.3c-1.3-0.4-2.6-1.3-3.4-2.6c-0.9-1.5-1.2-3.2-1-4.8
			c0-0.1,0-0.2,0.1-0.4C522.5,89,523.8,89.9,524.6,91.3z"/>
		<path class="st7" d="M529.7,95c-1.3,1-2.9,1.4-4.4,1.1c-0.1,0-0.2,0-0.2-0.1c0.3-1.5,1.1-2.9,2.3-3.8c1.3-1,2.8-1.4,4.3-1.1
			c0.1,0,0.2,0,0.3,0.1C531.7,92.6,530.9,94,529.7,95z"/>
		<path class="st7" d="M524.3,93.8c1,1.4,1.3,3.2,1.1,4.8c0,0.1,0,0.2,0,0.3c-1.4-0.3-2.6-1.1-3.5-2.5c-1-1.4-1.3-3.1-1.1-4.7
			c0-0.1,0-0.2,0-0.4C522.2,91.7,523.4,92.5,524.3,93.8z"/>
		<path class="st7" d="M529.5,96.4c-0.9,1.5-2.2,2.5-3.6,2.9c-0.1,0-0.2,0-0.2,0.1c-0.2-1.5,0-3.1,0.8-4.5c0.8-1.5,2.1-2.5,3.6-2.9
			c0.1,0,0.2-0.1,0.3-0.1C530.6,93.4,530.3,95,529.5,96.4z"/>
		<path class="st7" d="M526.3,97c0.4,1.7,0.2,3.5-0.6,4.9c0,0.1-0.1,0.2-0.1,0.2c-1.2-0.9-2-2.2-2.4-3.8c-0.4-1.7-0.2-3.4,0.6-4.8
			c0.1-0.1,0.1-0.2,0.2-0.3C525,94.1,525.9,95.4,526.3,97z"/>
		<path class="st7" d="M530.2,101.6c-1.3,1-2.9,1.4-4.4,1.1c-0.1,0-0.2,0-0.2-0.1c0.3-1.5,1.1-2.9,2.3-3.8c1.3-1,2.8-1.4,4.3-1.1
			c0.1,0,0.2,0,0.3,0.1C532.2,99.2,531.4,100.6,530.2,101.6z"/>
		<path class="st7" d="M523.8,99.9c1.2,1.2,1.9,2.8,2,4.5c0,0.1,0,0.2,0,0.3c-1.4,0-2.8-0.6-3.9-1.7c-1.2-1.2-1.8-2.8-1.9-4.4
			c0-0.1,0-0.2,0-0.4C521.3,98.2,522.7,98.7,523.8,99.9z"/>
		<path class="st7" d="M529.4,101.2c-0.6,1.7-1.7,2.9-3.1,3.6c-0.1,0-0.2,0.1-0.2,0.1c-0.5-1.4-0.5-3.1,0-4.6c0.6-1.6,1.7-2.9,3-3.6
			c0.1-0.1,0.2-0.1,0.3-0.1C529.9,98.1,529.9,99.7,529.4,101.2z"/>
		<path class="st7" d="M527.1,101.3c0.4,1.7,0.2,3.5-0.6,4.9c0,0.1-0.1,0.2-0.1,0.2c-1.2-0.9-2-2.2-2.4-3.8
			c-0.4-1.7-0.2-3.4,0.6-4.8c0.1-0.1,0.1-0.2,0.2-0.3C525.9,98.4,526.8,99.7,527.1,101.3z"/>
		<path class="st7" d="M531,105.8c-1.3,1-2.9,1.4-4.4,1.1c-0.1,0-0.2,0-0.2-0.1c0.3-1.5,1.1-2.9,2.3-3.8c1.3-1,2.8-1.4,4.3-1.1
			c0.1,0,0.2,0,0.3,0.1C533,103.5,532.3,104.9,531,105.8z"/>
		<path class="st7" d="M525,104.2c1,1.4,1.5,3.1,1.3,4.7c0,0.1,0,0.2,0,0.3c-1.4-0.2-2.7-1-3.6-2.3c-1-1.4-1.5-3-1.4-4.6
			c0-0.1,0-0.2,0-0.4C522.7,102.1,524,102.9,525,104.2z"/>
		<path class="st7" d="M530.3,106.5c-0.8,1.6-2.1,2.6-3.5,3.1c-0.1,0-0.2,0.1-0.2,0.1c-0.3-1.5-0.1-3.1,0.6-4.6
			c0.8-1.5,2-2.6,3.4-3.1c0.1,0,0.2-0.1,0.3-0.1C531.2,103.4,531,105,530.3,106.5z"/>
	</g>
	<g>
		<path class="st1" d="M546.3,63.4l-0.2-3c0,0-23.8,62.5,6.5,91.4l-0.1-1.6C528.1,124.8,542.1,76.1,546.3,63.4z"/>
		<path class="st7" d="M549.2,62.4c-0.9,1.7-2.3,2.7-3.7,3.1c-0.1,0-0.2,0-0.2,0.1c-0.2-1.7,0.1-3.5,1-5c0.9-1.6,2.2-2.7,3.7-3.1
			c0.1,0,0.2-0.1,0.3-0.1C550.3,59.1,550,60.9,549.2,62.4z"/>
		<path class="st7" d="M545.1,63c0.1,2-0.4,3.9-1.4,5.3c-0.1,0.1-0.1,0.2-0.2,0.2c-1-1.2-1.6-2.9-1.7-4.7c-0.1-2,0.4-3.8,1.4-5.2
			c0.1-0.1,0.1-0.2,0.2-0.3C544.4,59.5,545,61.2,545.1,63z"/>
		<path class="st7" d="M548.2,69c-1.5,0.8-3.1,0.9-4.5,0.2c-0.1,0-0.2-0.1-0.2-0.1c0.6-1.6,1.6-2.9,2.9-3.7c1.4-0.8,3-0.9,4.4-0.3
			c0.1,0,0.2,0.1,0.3,0.1C550.6,66.8,549.6,68.2,548.2,69z"/>
		<path class="st7" d="M542.9,68.7c0.6,1.9,0.6,3.9,0,5.6c0,0.1-0.1,0.2-0.1,0.3c-1.2-0.8-2.3-2.1-2.8-3.8c-0.6-1.8-0.6-3.8,0-5.5
			c0-0.1,0.1-0.3,0.1-0.4C541.3,65.7,542.3,67,542.9,68.7z"/>
		<path class="st7" d="M547.3,73.2c-1.2,1.4-2.7,2-4.2,2c-0.1,0-0.2,0-0.3,0c0.1-1.7,0.7-3.4,1.8-4.7c1.2-1.4,2.6-2,4.1-2
			c0.1,0,0.2,0,0.3,0C549,70.2,548.4,71.9,547.3,73.2z"/>
		<path class="st7" d="M542.6,73.4c0.1,2-0.4,3.9-1.4,5.3c-0.1,0.1-0.1,0.2-0.2,0.2c-1-1.2-1.6-2.9-1.7-4.7c-0.1-2,0.4-3.8,1.4-5.2
			c0.1-0.1,0.1-0.2,0.2-0.3C541.8,69.9,542.5,71.5,542.6,73.4z"/>
		<path class="st7" d="M545.6,79.3c-1.5,0.8-3.1,0.9-4.5,0.2c-0.1,0-0.2-0.1-0.2-0.1c0.6-1.6,1.6-2.9,2.9-3.7c1.4-0.8,3-0.9,4.4-0.3
			c0.1,0,0.2,0.1,0.3,0.1C548,77.2,547,78.5,545.6,79.3z"/>
		<path class="st7" d="M541,79.2c0.4,1.9,0.2,3.9-0.6,5.5c0,0.1-0.1,0.2-0.1,0.3c-1.2-1-2-2.4-2.4-4.2c-0.4-1.9-0.2-3.9,0.5-5.5
			c0.1-0.1,0.1-0.2,0.2-0.4C539.7,75.9,540.6,77.4,541,79.2z"/>
		<path class="st7" d="M544.9,84.3c-1.3,1.2-2.9,1.6-4.4,1.3c-0.1,0-0.2,0-0.2-0.1c0.3-1.7,1.1-3.2,2.3-4.3c1.3-1.2,2.8-1.6,4.3-1.3
			c0.1,0,0.2,0,0.3,0.1C546.9,81.6,546.1,83.2,544.9,84.3z"/>
		<path class="st7" d="M540.8,83.6c0.1,2-0.4,3.9-1.4,5.3c-0.1,0.1-0.1,0.2-0.2,0.2c-1-1.2-1.6-2.9-1.7-4.7c-0.1-2,0.4-3.8,1.4-5.2
			c0.1-0.1,0.1-0.2,0.2-0.3C540.1,80.1,540.7,81.8,540.8,83.6z"/>
		<path class="st7" d="M543.9,89.6c-1.5,0.8-3.1,0.9-4.5,0.2c-0.1,0-0.2-0.1-0.2-0.1c0.6-1.6,1.6-2.9,2.9-3.7c1.4-0.8,3-0.9,4.4-0.3
			c0.1,0,0.2,0.1,0.3,0.1C546.3,87.4,545.3,88.8,543.9,89.6z"/>
		<path class="st7" d="M537.8,86.9c1,1.6,1.4,3.5,1.2,5.4c0,0.1,0,0.2,0,0.3c-1.4-0.3-2.6-1.2-3.6-2.7c-1-1.6-1.4-3.5-1.2-5.3
			c0-0.1,0-0.3,0-0.4C535.7,84.5,536.9,85.4,537.8,86.9z"/>
		<path class="st7" d="M543,89.7c-0.8,1.7-2.2,2.9-3.6,3.3c-0.1,0-0.2,0-0.2,0.1c-0.2-1.7,0-3.5,0.8-5.1c0.8-1.7,2.1-2.8,3.5-3.3
			c0.1,0,0.2-0.1,0.3-0.1C544.1,86.3,543.8,88.1,543,89.7z"/>
		<path class="st7" d="M538.7,91.5c0.7,1.8,0.7,3.8,0.1,5.6c0,0.1-0.1,0.2-0.1,0.3c-1.3-0.7-2.3-2-2.9-3.7c-0.6-1.8-0.7-3.8-0.1-5.5
			c0-0.1,0.1-0.3,0.1-0.4C537,88.5,538.1,89.7,538.7,91.5z"/>
		<path class="st7" d="M543,96.7c-1.5,0.8-3.1,0.9-4.5,0.2c-0.1,0-0.2-0.1-0.2-0.1c0.6-1.6,1.6-2.9,2.9-3.7c1.4-0.8,3-0.9,4.4-0.3
			c0.1,0,0.2,0.1,0.3,0.1C545.4,94.6,544.4,95.9,543,96.7z"/>
		<path class="st7" d="M538,94.2c0.7,1.8,0.8,3.8,0.3,5.6c0,0.1-0.1,0.2-0.1,0.3c-1.3-0.7-2.4-1.9-3-3.5c-0.7-1.8-0.8-3.7-0.3-5.5
			c0-0.1,0.1-0.3,0.1-0.4C536.2,91.3,537.3,92.6,538,94.2z"/>
		<path class="st7" d="M542.6,98.2c-1.1,1.5-2.6,2.3-4.1,2.4c-0.1,0-0.2,0-0.3,0c0-1.7,0.6-3.4,1.6-4.8c1.1-1.5,2.5-2.2,4-2.3
			c0.1,0,0.2,0,0.3,0C544.2,95.2,543.7,96.9,542.6,98.2z"/>
		<path class="st7" d="M539.3,98.2c0.1,2-0.4,3.9-1.4,5.3c-0.1,0.1-0.1,0.2-0.2,0.2c-1-1.2-1.6-2.9-1.7-4.7c-0.1-2,0.4-3.8,1.4-5.2
			c0.1-0.1,0.1-0.2,0.2-0.3C538.6,94.7,539.2,96.3,539.3,98.2z"/>
		<path class="st7" d="M542.4,104.1c-1.5,0.8-3.1,0.9-4.5,0.2c-0.1,0-0.2-0.1-0.2-0.1c0.6-1.6,1.6-2.9,2.9-3.7
			c1.4-0.8,3-0.9,4.4-0.3c0.1,0,0.2,0.1,0.3,0.1C544.8,102,543.8,103.4,542.4,104.1z"/>
		<path class="st7" d="M536.5,100.8c1,1.6,1.4,3.5,1.2,5.4c0,0.1,0,0.2,0,0.3c-1.4-0.3-2.6-1.3-3.5-2.7c-1-1.6-1.3-3.5-1.2-5.3
			c0-0.1,0-0.3,0-0.4C534.3,98.4,535.6,99.3,536.5,100.8z"/>
		<path class="st7" d="M541.7,103.6c-0.8,1.7-2.2,2.8-3.6,3.3c-0.1,0-0.2,0-0.2,0.1c-0.2-1.7,0-3.5,0.8-5.1c0.8-1.7,2.1-2.8,3.6-3.3
			c0.1,0,0.2-0.1,0.3-0.1C542.7,100.2,542.5,102,541.7,103.6z"/>
		<path class="st7" d="M539.5,103.1c0.1,2-0.4,3.9-1.4,5.3c-0.1,0.1-0.1,0.2-0.2,0.2c-1-1.2-1.6-2.9-1.7-4.7c-0.1-2,0.4-3.8,1.4-5.2
			c0.1-0.1,0.1-0.2,0.2-0.3C538.7,99.6,539.4,101.2,539.5,103.1z"/>
		<path class="st7" d="M542.5,109c-1.5,0.8-3.1,0.9-4.5,0.2c-0.1,0-0.2-0.1-0.2-0.1c0.6-1.6,1.6-2.9,2.9-3.7c1.4-0.8,3-0.9,4.4-0.3
			c0.1,0,0.2,0.1,0.3,0.1C544.9,106.9,543.9,108.2,542.5,109z"/>
		<path class="st7" d="M536.9,105.8c0.8,1.8,0.9,3.7,0.5,5.5c0,0.1,0,0.2-0.1,0.3c-1.3-0.6-2.5-1.7-3.2-3.3
			c-0.8-1.7-0.9-3.7-0.5-5.5c0-0.1,0.1-0.3,0.1-0.4C535,103,536.2,104.2,536.9,105.8z"/>
		<path class="st7" d="M541.7,109.6c-1,1.5-2.5,2.4-4,2.6c-0.1,0-0.2,0-0.3,0c0-1.7,0.4-3.5,1.4-4.9c1-1.5,2.4-2.4,3.9-2.6
			c0.1,0,0.2,0,0.3,0C543.1,106.4,542.7,108.1,541.7,109.6z"/>
	</g>
	<path class="st3" d="M565.4,136.6c0,0.1,0,0.2,0,0.3l-0.5,2.6l-6.2,33c-0.3,1.5-1.5,2.5-3,2.5h-27.6c-1.5,0-2.7-1-3-2.5l-6.2-33
		l-0.5-2.6c0-0.1,0-0.2,0-0.3c-0.2-1.8,1.2-3.4,3-3.4h41.1C564.2,133.2,565.6,134.8,565.4,136.6z"/>
	<path class="st3" d="M570.6,129.8v4.6c0,1.2-1,2.2-2.2,2.2h-53.1c-1.2,0-2.2-1-2.2-2.2v-4.6c0-1.2,1-2.2,2.2-2.2h53.1
		C569.6,127.6,570.6,128.6,570.6,129.8z"/>
	<path class="st4" d="M565.4,136.6c0,0.1,0,0.2,0,0.3l-0.5,2.6h-46.1l-0.5-2.6c0-0.1,0-0.2,0-0.3H565.4z"/>
	<path class="st5" d="M570.6,129.8v4.6c0,1.2-1,2.2-2.2,2.2h-3c0,0.1,0,0.2,0,0.3l-0.5,2.6l-6.2,33c-0.3,1.5-1.5,2.5-3,2.5h-13.8
		v-47.3h26.6C569.6,127.6,570.6,128.6,570.6,129.8z"/>
</g>
<g>
	<path class="st1" d="M1835.4,82l-1.4-2.2c0,0,1.2,60.6,42.1,68.4l-0.7-1.2C1841.7,139,1836.2,94.1,1835.4,82z"/>
	<path class="st7" d="M1837.8,79.8c-0.2,1.7-1.2,3.2-2.5,4.2c-0.1,0.1-0.1,0.1-0.2,0.2c-0.8-1.3-1.2-2.8-1-4.4
		c0.2-1.7,1.1-3.2,2.4-4.2c0.1-0.1,0.2-0.1,0.3-0.2C1837.6,76.7,1838,78.2,1837.8,79.8z"/>
	<path class="st7" d="M1834.1,82.3c0.9,1.5,1.1,3.3,0.7,4.8c0,0.1,0,0.2-0.1,0.3c-1.4-0.5-2.7-1.4-3.5-2.8c-0.9-1.5-1.1-3.2-0.7-4.8
		c0-0.1,0.1-0.2,0.1-0.3C1832,79.9,1833.3,80.9,1834.1,82.3z"/>
	<path class="st7" d="M1839.5,85.4c-1.1,1.4-2.7,2.2-4.3,2.4c-0.1,0-0.2,0-0.3,0c-0.1-1.5,0.4-3.1,1.4-4.3c1.1-1.4,2.6-2.2,4.2-2.4
		c0.1,0,0.2,0,0.4,0C1840.9,82.6,1840.5,84.2,1839.5,85.4z"/>
	<path class="st7" d="M1834.2,87.8c1.3,1.2,2.1,2.8,2.2,4.4c0,0.1,0,0.2,0,0.3c-1.5,0-3-0.5-4.3-1.6c-1.3-1.1-2-2.7-2.2-4.3
		c0-0.1,0-0.2,0-0.4C1831.4,86.2,1832.9,86.8,1834.2,87.8z"/>
	<path class="st7" d="M1840.2,89.2c-0.6,1.7-1.8,2.9-3.3,3.6c-0.1,0-0.2,0.1-0.3,0.1c-0.5-1.4-0.6-3,0-4.5c0.6-1.6,1.8-2.9,3.3-3.6
		c0.1-0.1,0.2-0.1,0.3-0.1C1840.7,86,1840.8,87.6,1840.2,89.2z"/>
	<path class="st7" d="M1835.7,91.7c0.9,1.5,1.1,3.3,0.7,4.8c0,0.1,0,0.2-0.1,0.3c-1.4-0.5-2.7-1.4-3.5-2.8c-0.9-1.5-1.1-3.2-0.7-4.8
		c0-0.1,0.1-0.2,0.1-0.3C1833.6,89.3,1834.8,90.2,1835.7,91.7z"/>
	<path class="st7" d="M1841,94.8c-1.1,1.4-2.7,2.2-4.3,2.4c-0.1,0-0.2,0-0.3,0c-0.1-1.5,0.4-3.1,1.4-4.3c1.1-1.4,2.6-2.2,4.2-2.4
		c0.1,0,0.2,0,0.4,0C1842.5,92,1842,93.5,1841,94.8z"/>
	<path class="st7" d="M1836.4,97c1.2,1.3,1.7,3,1.6,4.6c0,0.1,0,0.2,0,0.3c-1.5-0.2-2.9-0.9-4-2.1c-1.2-1.3-1.7-2.9-1.6-4.5
		c0-0.1,0-0.2,0-0.4C1833.8,95,1835.3,95.8,1836.4,97z"/>
	<path class="st7" d="M1842.2,99c-0.8,1.6-2.2,2.7-3.7,3.2c-0.1,0-0.2,0.1-0.3,0.1c-0.4-1.5-0.2-3.1,0.5-4.5
		c0.8-1.5,2.1-2.6,3.7-3.1c0.1,0,0.2-0.1,0.3-0.1C1843.1,96,1843,97.6,1842.2,99z"/>
	<path class="st7" d="M1837.9,100.5c0.9,1.5,1.1,3.3,0.7,4.8c0,0.1,0,0.2-0.1,0.3c-1.4-0.5-2.7-1.4-3.5-2.8
		c-0.9-1.5-1.1-3.2-0.7-4.8c0-0.1,0.1-0.2,0.1-0.3C1835.8,98.1,1837.1,99.1,1837.9,100.5z"/>
	<path class="st7" d="M1843.3,103.7c-1.1,1.4-2.7,2.2-4.3,2.4c-0.1,0-0.2,0-0.3,0c-0.1-1.5,0.4-3.1,1.4-4.3c1.1-1.4,2.6-2.2,4.2-2.4
		c0.1,0,0.2,0,0.4,0C1844.8,100.9,1844.3,102.4,1843.3,103.7z"/>
	<path class="st7" d="M1836.3,104.6c1.6,0.8,2.7,2.1,3.3,3.6c0,0.1,0.1,0.2,0.1,0.3c-1.5,0.4-3.1,0.3-4.5-0.4
		c-1.6-0.8-2.7-2.1-3.2-3.6c0-0.1-0.1-0.2-0.1-0.3C1833.3,103.7,1834.9,103.8,1836.3,104.6z"/>
	<path class="st7" d="M1842.5,104.2c-0.1,1.8-1,3.3-2.2,4.4c-0.1,0.1-0.1,0.1-0.2,0.2c-0.9-1.2-1.4-2.7-1.2-4.4
		c0.1-1.7,1-3.2,2.2-4.3c0.1-0.1,0.2-0.2,0.3-0.2C1842.2,101,1842.6,102.6,1842.5,104.2z"/>
	<path class="st7" d="M1838.9,107.7c1.4,1.1,2.1,2.7,2.3,4.3c0,0.1,0,0.2,0,0.3c-1.5,0-3-0.4-4.3-1.5c-1.3-1.1-2.1-2.6-2.3-4.2
		c0-0.1,0-0.2,0-0.4C1836.1,106.2,1837.7,106.7,1838.9,107.7z"/>
	<path class="st7" d="M1845.2,109.7c-1.1,1.4-2.7,2.2-4.3,2.4c-0.1,0-0.2,0-0.3,0c-0.1-1.5,0.4-3.1,1.4-4.3c1.1-1.4,2.6-2.2,4.2-2.4
		c0.1,0,0.2,0,0.4,0C1846.7,106.9,1846.2,108.4,1845.2,109.7z"/>
	<path class="st7" d="M1839.3,110.2c1.4,1.1,2.3,2.6,2.5,4.2c0,0.1,0,0.2,0,0.3c-1.5,0.1-3.1-0.3-4.4-1.3c-1.4-1-2.2-2.5-2.5-4.1
		c0-0.1,0-0.2,0-0.4C1836.5,108.8,1838,109.2,1839.3,110.2z"/>
	<path class="st7" d="M1845.5,111.1c-0.5,1.7-1.6,3-3.1,3.8c-0.1,0-0.2,0.1-0.2,0.1c-0.6-1.4-0.8-3-0.4-4.5c0.5-1.7,1.6-3,3-3.8
		c0.1-0.1,0.2-0.1,0.3-0.2C1845.7,107.9,1845.9,109.5,1845.5,111.1z"/>
	<path class="st7" d="M1842.2,112.7c0.9,1.5,1.1,3.3,0.7,4.8c0,0.1,0,0.2-0.1,0.3c-1.4-0.5-2.7-1.4-3.5-2.8
		c-0.9-1.5-1.1-3.2-0.7-4.8c0-0.1,0.1-0.2,0.1-0.3C1840.1,110.3,1841.4,111.3,1842.2,112.7z"/>
	<path class="st7" d="M1847.5,115.8c-1.1,1.4-2.7,2.2-4.3,2.4c-0.1,0-0.2,0-0.3,0c-0.1-1.5,0.4-3.1,1.4-4.3c1.1-1.4,2.6-2.2,4.2-2.4
		c0.1,0,0.2,0,0.4,0C1849,113,1848.5,114.6,1847.5,115.8z"/>
	<path class="st7" d="M1840.4,116.1c1.6,0.8,2.7,2.1,3.3,3.7c0,0.1,0.1,0.2,0.1,0.3c-1.5,0.4-3.1,0.3-4.5-0.4
		c-1.6-0.8-2.7-2.1-3.2-3.6c0-0.1-0.1-0.2-0.1-0.3C1837.3,115.2,1838.9,115.4,1840.4,116.1z"/>
	<path class="st7" d="M1846.6,115.7c-0.2,1.8-1,3.3-2.3,4.3c-0.1,0.1-0.1,0.1-0.2,0.2c-0.9-1.2-1.4-2.8-1.2-4.4
		c0.2-1.7,1-3.2,2.2-4.3c0.1-0.1,0.2-0.2,0.3-0.2C1846.3,112.6,1846.7,114.1,1846.6,115.7z"/>
	<path class="st7" d="M1844.3,116.4c0.9,1.5,1.1,3.3,0.7,4.8c0,0.1,0,0.2-0.1,0.3c-1.4-0.5-2.7-1.4-3.5-2.8
		c-0.9-1.5-1.1-3.2-0.7-4.8c0-0.1,0.1-0.2,0.1-0.3C1842.1,114.1,1843.4,115,1844.3,116.4z"/>
	<path class="st7" d="M1849.6,119.6c-1.1,1.4-2.7,2.2-4.3,2.4c-0.1,0-0.2,0-0.3,0c-0.1-1.5,0.4-3.1,1.4-4.3c1.1-1.4,2.6-2.2,4.2-2.4
		c0.1,0,0.2,0,0.4,0C1851.1,116.8,1850.6,118.3,1849.6,119.6z"/>
	<path class="st7" d="M1842.8,119.8c1.5,1,2.4,2.5,2.7,4.1c0,0.1,0,0.2,0,0.3c-1.5,0.2-3.1-0.2-4.4-1.1c-1.4-1-2.3-2.4-2.7-4
		c0-0.1,0-0.2-0.1-0.4C1839.9,118.6,1841.4,118.9,1842.8,119.8z"/>
	<path class="st7" d="M1849,120.4c-0.4,1.7-1.5,3.1-2.9,4c-0.1,0-0.2,0.1-0.2,0.1c-0.7-1.3-1-2.9-0.6-4.5c0.4-1.7,1.4-3.1,2.8-3.9
		c0.1-0.1,0.2-0.1,0.3-0.2C1849.1,117.2,1849.3,118.8,1849,120.4z"/>
</g>
<g>
	<path class="st1" d="M1890.8,79.5l1.4-2.2c0,0-1.2,60.6-42.1,68.4l0.7-1.2C1884.5,136.4,1889.9,91.5,1890.8,79.5z"/>
	<path class="st7" d="M1888.3,77.3c0.2,1.7,1.2,3.2,2.5,4.2c0.1,0.1,0.1,0.1,0.2,0.2c0.8-1.3,1.2-2.8,1-4.4
		c-0.2-1.7-1.1-3.2-2.4-4.2c-0.1-0.1-0.2-0.1-0.3-0.2C1888.5,74.1,1888.1,75.7,1888.3,77.3z"/>
	<path class="st7" d="M1892,79.7c-0.9,1.5-1.1,3.3-0.7,4.8c0,0.1,0,0.2,0.1,0.3c1.4-0.5,2.7-1.4,3.5-2.8c0.9-1.5,1.1-3.2,0.7-4.8
		c0-0.1-0.1-0.2-0.1-0.3C1894.1,77.3,1892.9,78.3,1892,79.7z"/>
	<path class="st7" d="M1886.7,82.9c1.1,1.4,2.7,2.2,4.3,2.4c0.1,0,0.2,0,0.3,0c0.1-1.5-0.4-3.1-1.4-4.3c-1.1-1.4-2.6-2.2-4.2-2.4
		c-0.1,0-0.2,0-0.4,0C1885.2,80.1,1885.7,81.6,1886.7,82.9z"/>
	<path class="st7" d="M1892,85.3c-1.3,1.2-2.1,2.8-2.2,4.4c0,0.1,0,0.2,0,0.3c1.5,0,3-0.5,4.3-1.6c1.3-1.1,2-2.7,2.2-4.3
		c0-0.1,0-0.2,0-0.4C1894.7,83.7,1893.2,84.2,1892,85.3z"/>
	<path class="st7" d="M1885.9,86.6c0.6,1.7,1.8,2.9,3.3,3.6c0.1,0,0.2,0.1,0.3,0.1c0.5-1.4,0.6-3,0-4.5c-0.6-1.6-1.8-2.9-3.2-3.6
		c-0.1-0.1-0.2-0.1-0.3-0.1C1885.4,83.5,1885.4,85.1,1885.9,86.6z"/>
	<path class="st7" d="M1890.5,89.1c-0.9,1.5-1.1,3.3-0.7,4.8c0,0.1,0,0.2,0.1,0.3c1.4-0.5,2.7-1.4,3.5-2.8c0.9-1.5,1.1-3.2,0.7-4.8
		c0-0.1-0.1-0.2-0.1-0.3C1892.6,86.7,1891.3,87.7,1890.5,89.1z"/>
	<path class="st7" d="M1885.2,92.2c1.1,1.4,2.7,2.2,4.3,2.4c0.1,0,0.2,0,0.3,0c0.1-1.5-0.4-3.1-1.4-4.3c-1.1-1.4-2.6-2.2-4.2-2.4
		c-0.1,0-0.2,0-0.4,0C1883.7,89.4,1884.1,91,1885.2,92.2z"/>
	<path class="st7" d="M1889.8,94.4c-1.2,1.3-1.7,3-1.6,4.6c0,0.1,0,0.2,0,0.3c1.5-0.2,2.9-0.9,4-2.1c1.2-1.3,1.7-2.9,1.6-4.5
		c0-0.1,0-0.2,0-0.4C1892.3,92.5,1890.9,93.2,1889.8,94.4z"/>
	<path class="st7" d="M1883.9,96.5c0.8,1.6,2.2,2.7,3.7,3.2c0.1,0,0.2,0.1,0.3,0.1c0.4-1.5,0.2-3.1-0.5-4.5
		c-0.8-1.5-2.1-2.6-3.7-3.1c-0.1,0-0.2-0.1-0.3-0.1C1883,93.4,1883.2,95,1883.9,96.5z"/>
	<path class="st7" d="M1888.2,98c-0.9,1.5-1.1,3.3-0.7,4.8c0,0.1,0,0.2,0.1,0.3c1.4-0.5,2.7-1.4,3.5-2.8c0.9-1.5,1.1-3.2,0.7-4.8
		c0-0.1-0.1-0.2-0.1-0.3C1890.3,95.6,1889,96.6,1888.2,98z"/>
	<path class="st7" d="M1882.9,101.1c1.1,1.4,2.7,2.2,4.3,2.4c0.1,0,0.2,0,0.3,0c0.1-1.5-0.4-3.1-1.4-4.3c-1.1-1.4-2.6-2.2-4.2-2.4
		c-0.1,0-0.2,0-0.4,0C1881.4,98.3,1881.9,99.8,1882.9,101.1z"/>
	<path class="st7" d="M1889.8,102c-1.6,0.8-2.7,2.1-3.3,3.6c0,0.1-0.1,0.2-0.1,0.3c1.5,0.4,3.1,0.3,4.5-0.4c1.6-0.8,2.7-2.1,3.2-3.6
		c0-0.1,0.1-0.2,0.1-0.3C1892.9,101.2,1891.3,101.3,1889.8,102z"/>
	<path class="st7" d="M1883.6,101.6c0.1,1.8,1,3.3,2.2,4.4c0.1,0.1,0.1,0.1,0.2,0.2c0.9-1.2,1.4-2.7,1.2-4.4c-0.1-1.7-1-3.2-2.2-4.3
		c-0.1-0.1-0.2-0.2-0.3-0.2C1884,98.5,1883.5,100,1883.6,101.6z"/>
	<path class="st7" d="M1887.2,105.1c-1.4,1.1-2.1,2.7-2.3,4.3c0,0.1,0,0.2,0,0.3c1.5,0,3-0.4,4.3-1.5c1.3-1.1,2.1-2.6,2.3-4.2
		c0-0.1,0-0.2,0-0.4C1890,103.6,1888.5,104.1,1887.2,105.1z"/>
	<path class="st7" d="M1880.9,107.1c1.1,1.4,2.7,2.2,4.3,2.4c0.1,0,0.2,0,0.3,0c0.1-1.5-0.4-3.1-1.4-4.3c-1.1-1.4-2.6-2.2-4.2-2.4
		c-0.1,0-0.2,0-0.4,0C1879.4,104.3,1879.9,105.9,1880.9,107.1z"/>
	<path class="st7" d="M1886.8,107.7c-1.4,1.1-2.3,2.6-2.5,4.2c0,0.1,0,0.2,0,0.3c1.5,0.1,3.1-0.3,4.4-1.3c1.4-1,2.2-2.5,2.5-4.1
		c0-0.1,0-0.2,0-0.4C1889.7,106.3,1888.1,106.7,1886.8,107.7z"/>
	<path class="st7" d="M1880.7,108.5c0.5,1.7,1.6,3,3.1,3.8c0.1,0,0.2,0.1,0.2,0.1c0.6-1.4,0.8-3,0.4-4.5c-0.5-1.7-1.6-3-3-3.8
		c-0.1-0.1-0.2-0.1-0.3-0.2C1880.4,105.4,1880.2,107,1880.7,108.5z"/>
	<path class="st7" d="M1884,110.1c-0.9,1.5-1.1,3.3-0.7,4.8c0,0.1,0,0.2,0.1,0.3c1.4-0.5,2.7-1.4,3.5-2.8c0.9-1.5,1.1-3.2,0.7-4.8
		c0-0.1-0.1-0.2-0.1-0.3C1886.1,107.7,1884.8,108.7,1884,110.1z"/>
	<path class="st7" d="M1878.6,113.3c1.1,1.4,2.7,2.2,4.3,2.4c0.1,0,0.2,0,0.3,0c0.1-1.5-0.4-3.1-1.4-4.3c-1.1-1.4-2.6-2.2-4.2-2.4
		c-0.1,0-0.2,0-0.4,0C1877.2,110.5,1877.6,112,1878.6,113.3z"/>
	<path class="st7" d="M1885.7,113.5c-1.6,0.8-2.7,2.1-3.3,3.7c0,0.1-0.1,0.2-0.1,0.3c1.5,0.4,3.1,0.3,4.5-0.4
		c1.6-0.8,2.7-2.1,3.2-3.6c0-0.1,0.1-0.2,0.1-0.3C1888.8,112.7,1887.2,112.8,1885.7,113.5z"/>
	<path class="st7" d="M1879.6,113.2c0.2,1.8,1,3.3,2.3,4.3c0.1,0.1,0.1,0.1,0.2,0.2c0.9-1.2,1.4-2.8,1.2-4.4c-0.2-1.7-1-3.2-2.2-4.3
		c-0.1-0.1-0.2-0.2-0.3-0.2C1879.9,110,1879.4,111.6,1879.6,113.2z"/>
	<path class="st7" d="M1881.9,113.9c-0.9,1.5-1.1,3.3-0.7,4.8c0,0.1,0,0.2,0.1,0.3c1.4-0.5,2.7-1.4,3.5-2.8c0.9-1.5,1.1-3.2,0.7-4.8
		c0-0.1-0.1-0.2-0.1-0.3C1884,111.5,1882.7,112.5,1881.9,113.9z"/>
	<path class="st7" d="M1876.6,117c1.1,1.4,2.7,2.2,4.3,2.4c0.1,0,0.2,0,0.3,0c0.1-1.5-0.4-3.1-1.4-4.3c-1.1-1.4-2.6-2.2-4.2-2.4
		c-0.1,0-0.2,0-0.4,0C1875.1,114.2,1875.6,115.8,1876.6,117z"/>
	<path class="st7" d="M1883.4,117.3c-1.5,1-2.4,2.5-2.7,4.1c0,0.1,0,0.2,0,0.3c1.5,0.2,3.1-0.2,4.4-1.1c1.4-1,2.3-2.4,2.7-4
		c0-0.1,0-0.2,0.1-0.4C1886.3,116,1884.7,116.4,1883.4,117.3z"/>
	<path class="st7" d="M1877.2,117.9c0.4,1.7,1.5,3.1,2.9,4c0.1,0,0.2,0.1,0.2,0.1c0.7-1.3,1-2.9,0.6-4.5c-0.4-1.7-1.4-3.1-2.8-3.9
		c-0.1-0.1-0.2-0.1-0.3-0.2C1877.1,114.7,1876.8,116.3,1877.2,117.9z"/>
</g>
<g>
	<path class="st1" d="M1875.6,68.1l0.5-2.5c0,0,19.2,57.5-16.7,78.6l0.3-1.4C1888.7,123.8,1878.8,79.7,1875.6,68.1z"/>
	<path class="st7" d="M1872.6,66.8c0.8,1.6,2.2,2.7,3.7,3.2c0.1,0,0.2,0.1,0.3,0.1c0.4-1.5,0.2-3.1-0.5-4.5
		c-0.8-1.5-2.1-2.6-3.7-3.1c-0.1,0-0.2-0.1-0.3-0.1C1871.7,63.8,1871.8,65.4,1872.6,66.8z"/>
	<path class="st7" d="M1876.9,67.9c-0.3,1.7,0.1,3.4,1,4.8c0.1,0.1,0.1,0.2,0.2,0.2c1.2-0.9,2.1-2.3,2.4-3.9c0.3-1.7,0-3.4-0.9-4.7
		c-0.1-0.1-0.1-0.2-0.2-0.3C1878,65,1877.2,66.3,1876.9,67.9z"/>
	<path class="st7" d="M1872.9,72.7c1.5,0.9,3.2,1.2,4.8,0.8c0.1,0,0.2,0,0.3-0.1c-0.4-1.4-1.4-2.7-2.8-3.6c-1.5-0.9-3.2-1.2-4.7-0.8
		c-0.1,0-0.2,0.1-0.3,0.1C1870.6,70.5,1871.5,71.8,1872.9,72.7z"/>
	<path class="st7" d="M1878.7,73.1c-0.9,1.5-1,3.3-0.6,4.9c0,0.1,0.1,0.2,0.1,0.3c1.4-0.5,2.7-1.5,3.5-2.9c0.8-1.5,1-3.2,0.6-4.8
		c0-0.1-0.1-0.2-0.1-0.3C1880.7,70.7,1879.5,71.7,1878.7,73.1z"/>
	<path class="st7" d="M1873.4,76.4c1.1,1.4,2.7,2.1,4.3,2.3c0.1,0,0.2,0,0.3,0c0-1.5-0.5-3-1.5-4.3c-1.1-1.3-2.7-2.1-4.3-2.3
		c-0.1,0-0.2,0-0.4,0C1871.9,73.6,1872.4,75.2,1873.4,76.4z"/>
	<path class="st7" d="M1878.6,77.2c-0.3,1.7,0.1,3.4,1,4.8c0.1,0.1,0.1,0.2,0.2,0.2c1.2-0.9,2.1-2.3,2.4-3.9c0.3-1.7,0-3.4-0.9-4.7
		c-0.1-0.1-0.1-0.2-0.2-0.3C1879.7,74.3,1878.9,75.6,1878.6,77.2z"/>
	<path class="st7" d="M1874.6,82c1.5,0.9,3.2,1.2,4.8,0.8c0.1,0,0.2,0,0.3-0.1c-0.4-1.4-1.4-2.7-2.8-3.6c-1.5-0.9-3.2-1.2-4.7-0.8
		c-0.1,0-0.2,0.1-0.3,0.1C1872.3,79.8,1873.2,81.1,1874.6,82z"/>
	<path class="st7" d="M1879.7,82.5c-0.7,1.6-0.6,3.4,0,4.9c0,0.1,0.1,0.2,0.1,0.3c1.4-0.7,2.5-1.8,3.1-3.3c0.7-1.6,0.6-3.3,0-4.8
		c0-0.1-0.1-0.2-0.1-0.3C1881.4,79.8,1880.3,81,1879.7,82.5z"/>
	<path class="st7" d="M1874.9,86.4c1.3,1.2,2.9,1.8,4.6,1.7c0.1,0,0.2,0,0.3,0c-0.1-1.5-0.8-3-2-4.1c-1.3-1.2-2.9-1.8-4.5-1.7
		c-0.1,0-0.2,0-0.4,0C1873,83.8,1873.7,85.3,1874.9,86.4z"/>
	<path class="st7" d="M1879.4,86.4c-0.3,1.7,0.1,3.4,1,4.8c0.1,0.1,0.1,0.2,0.2,0.2c1.2-0.9,2.1-2.3,2.4-3.9c0.3-1.7,0-3.4-0.9-4.7
		c-0.1-0.1-0.1-0.2-0.2-0.3C1880.6,83.4,1879.7,84.8,1879.4,86.4z"/>
	<path class="st7" d="M1875.4,91.1c1.5,0.9,3.2,1.2,4.8,0.8c0.1,0,0.2,0,0.3-0.1c-0.4-1.4-1.4-2.7-2.8-3.6c-1.5-0.9-3.2-1.2-4.7-0.8
		c-0.1,0-0.2,0.1-0.3,0.1C1873.1,89,1874,90.3,1875.4,91.1z"/>
	<path class="st7" d="M1882.2,89.6c-1.2,1.3-1.9,2.9-1.9,4.5c0,0.1,0,0.2,0,0.3c1.5-0.1,3-0.7,4.1-1.9c1.2-1.2,1.8-2.8,1.9-4.4
		c0-0.1,0-0.2,0-0.4C1884.9,87.8,1883.4,88.5,1882.2,89.6z"/>
	<path class="st7" d="M1876.3,91.4c0.7,1.6,2,2.8,3.6,3.4c0.1,0,0.2,0.1,0.3,0.1c0.4-1.4,0.4-3.1-0.3-4.5c-0.7-1.6-2-2.7-3.5-3.3
		c-0.1,0-0.2-0.1-0.3-0.1C1875.6,88.3,1875.6,89.9,1876.3,91.4z"/>
	<path class="st7" d="M1880.9,93.5c-0.9,1.5-1.1,3.3-0.7,4.8c0,0.1,0,0.2,0.1,0.3c1.4-0.5,2.7-1.4,3.6-2.8c0.9-1.5,1.1-3.2,0.7-4.8
		c0-0.1-0.1-0.2-0.1-0.3C1883,91.1,1881.7,92.1,1880.9,93.5z"/>
	<path class="st7" d="M1875.6,97.5c1.5,0.9,3.2,1.2,4.8,0.8c0.1,0,0.2,0,0.3-0.1c-0.4-1.4-1.4-2.7-2.8-3.6c-1.5-0.9-3.2-1.2-4.7-0.8
		c-0.1,0-0.2,0.1-0.3,0.1C1873.3,95.3,1874.2,96.6,1875.6,97.5z"/>
	<path class="st7" d="M1881.3,96c-1,1.5-1.3,3.2-0.9,4.8c0,0.1,0,0.2,0.1,0.3c1.5-0.4,2.8-1.3,3.7-2.7c1-1.5,1.2-3.1,0.9-4.7
		c0-0.1,0-0.2-0.1-0.3C1883.5,93.7,1882.2,94.6,1881.3,96z"/>
	<path class="st7" d="M1875.8,98.8c1,1.4,2.5,2.3,4.2,2.6c0.1,0,0.2,0,0.3,0c0.1-1.5-0.2-3.1-1.2-4.4c-1-1.4-2.5-2.3-4.1-2.6
		c-0.1,0-0.2,0-0.4-0.1C1874.5,96,1874.9,97.5,1875.8,98.8z"/>
	<path class="st7" d="M1879.5,99.2c-0.3,1.7,0.1,3.4,1,4.8c0.1,0.1,0.1,0.2,0.2,0.2c1.2-0.9,2.1-2.3,2.4-3.9c0.3-1.7,0-3.4-0.9-4.7
		c-0.1-0.1-0.1-0.2-0.2-0.3C1880.6,96.3,1879.8,97.6,1879.5,99.2z"/>
	<path class="st7" d="M1875.5,104c1.5,0.9,3.2,1.2,4.8,0.8c0.1,0,0.2,0,0.3-0.1c-0.4-1.4-1.4-2.7-2.8-3.6c-1.5-0.9-3.2-1.2-4.7-0.8
		c-0.1,0-0.2,0.1-0.3,0.1C1873.2,101.8,1874.1,103.1,1875.5,104z"/>
	<path class="st7" d="M1882.3,101.8c-1.2,1.3-1.8,2.9-1.8,4.5c0,0.1,0,0.2,0,0.3c1.5-0.1,3-0.7,4.1-1.9c1.2-1.2,1.8-2.8,1.8-4.5
		c0-0.1,0-0.2,0-0.4C1884.9,100,1883.4,100.7,1882.3,101.8z"/>
	<path class="st7" d="M1876.3,103.6c0.7,1.6,2,2.8,3.6,3.3c0.1,0,0.2,0.1,0.3,0.1c0.4-1.4,0.4-3.1-0.3-4.5c-0.7-1.6-2-2.7-3.5-3.3
		c-0.1,0-0.2-0.1-0.3-0.1C1875.6,100.5,1875.7,102.1,1876.3,103.6z"/>
	<path class="st7" d="M1878.8,103.5c-0.3,1.7,0.1,3.4,1,4.8c0.1,0.1,0.1,0.2,0.2,0.2c1.2-0.9,2.1-2.3,2.4-3.9c0.3-1.7,0-3.4-0.9-4.7
		c-0.1-0.1-0.1-0.2-0.2-0.3C1880,100.5,1879.1,101.9,1878.8,103.5z"/>
	<path class="st7" d="M1874.8,108.2c1.5,0.9,3.2,1.2,4.8,0.8c0.1,0,0.2,0,0.3-0.1c-0.4-1.4-1.4-2.7-2.8-3.6
		c-1.5-0.9-3.2-1.2-4.7-0.8c-0.1,0-0.2,0.1-0.3,0.1C1872.5,106.1,1873.4,107.4,1874.8,108.2z"/>
	<path class="st7" d="M1881.3,106.2c-1,1.4-1.4,3.1-1.2,4.8c0,0.1,0,0.2,0,0.3c1.5-0.3,2.8-1.2,3.8-2.5c1-1.4,1.4-3.1,1.2-4.7
		c0-0.1,0-0.2-0.1-0.4C1883.6,104,1882.2,104.9,1881.3,106.2z"/>
	<path class="st7" d="M1875.7,108.8c1,1.5,2.4,2.4,4,2.8c0.1,0,0.2,0,0.3,0.1c0.2-1.5-0.1-3.1-1-4.4c-0.9-1.5-2.4-2.4-3.9-2.8
		c-0.1,0-0.2-0.1-0.4-0.1C1874.5,105.9,1874.8,107.4,1875.7,108.8z"/>
</g>
<g>
	<path class="st1" d="M1847.7,62.3l-0.7-2.8c0,0-15.4,64.8,21.8,85.5l-0.4-1.5C1838.2,124.7,1845.3,75.3,1847.7,62.3z"/>
	<path class="st7" d="M1850.7,60.7c-0.7,1.8-2,3.1-3.5,3.8c-0.1,0-0.2,0.1-0.3,0.1c-0.5-1.6-0.4-3.4,0.2-5c0.7-1.8,2-3.1,3.4-3.7
		c0.1-0.1,0.2-0.1,0.3-0.1C1851.4,57.2,1851.3,59,1850.7,60.7z"/>
	<path class="st7" d="M1846.4,62.2c0.4,1.9,0.2,3.8-0.7,5.4c0,0.1-0.1,0.2-0.1,0.3c-1.3-0.9-2.2-2.4-2.6-4.1
		c-0.4-1.9-0.2-3.7,0.6-5.3c0.1-0.1,0.1-0.2,0.2-0.3C1845.1,59,1846,60.4,1846.4,62.2z"/>
	<path class="st7" d="M1850.7,67.1c-1.4,1.1-3.1,1.5-4.8,1.2c-0.1,0-0.2,0-0.3-0.1c0.3-1.6,1.2-3.1,2.5-4.2c1.4-1.1,3.1-1.5,4.7-1.2
		c0.1,0,0.2,0,0.4,0.1C1852.9,64.6,1852,66.1,1850.7,67.1z"/>
	<path class="st7" d="M1845,68.1c1,1.6,1.2,3.6,0.9,5.3c0,0.1,0,0.2-0.1,0.3c-1.5-0.5-2.8-1.5-3.7-3c-0.9-1.6-1.2-3.5-0.9-5.2
		c0-0.1,0-0.3,0.1-0.4C1842.8,65.5,1844.1,66.6,1845,68.1z"/>
	<path class="st7" d="M1850.4,71.3c-1,1.6-2.6,2.5-4.2,2.8c-0.1,0-0.2,0-0.3,0c-0.1-1.7,0.3-3.4,1.2-4.8c1-1.5,2.5-2.5,4.1-2.8
		c0.1,0,0.2,0,0.4-0.1C1851.8,68.1,1851.4,69.9,1850.4,71.3z"/>
	<path class="st7" d="M1845.4,72.6c0.4,1.9,0.2,3.8-0.7,5.4c0,0.1-0.1,0.2-0.1,0.3c-1.3-0.9-2.2-2.4-2.6-4.1
		c-0.4-1.9-0.2-3.7,0.6-5.3c0.1-0.1,0.1-0.2,0.2-0.3C1844,69.4,1844.9,70.8,1845.4,72.6z"/>
	<path class="st7" d="M1849.6,77.5c-1.4,1.1-3.1,1.5-4.8,1.2c-0.1,0-0.2,0-0.3-0.1c0.3-1.6,1.2-3.1,2.5-4.2c1.4-1.1,3.1-1.5,4.7-1.2
		c0.1,0,0.2,0,0.4,0.1C1851.8,75,1851,76.5,1849.6,77.5z"/>
	<path class="st7" d="M1844.6,78.5c0.8,1.8,0.8,3.7,0.3,5.4c0,0.1-0.1,0.2-0.1,0.3c-1.4-0.6-2.6-1.8-3.3-3.5
		c-0.8-1.7-0.8-3.6-0.3-5.3c0-0.1,0.1-0.3,0.1-0.4C1842.7,75.6,1843.9,76.8,1844.6,78.5z"/>
	<path class="st7" d="M1849.6,82.4c-1.2,1.4-2.8,2.2-4.5,2.2c-0.1,0-0.2,0-0.3,0c0-1.7,0.6-3.3,1.8-4.6c1.2-1.4,2.8-2.1,4.4-2.2
		c0.1,0,0.2,0,0.4,0C1851.3,79.5,1850.8,81.1,1849.6,82.4z"/>
	<path class="st7" d="M1845.1,82.7c0.4,1.9,0.2,3.8-0.7,5.4c0,0.1-0.1,0.2-0.1,0.3c-1.3-0.9-2.2-2.4-2.6-4.1
		c-0.4-1.9-0.2-3.7,0.6-5.3c0.1-0.1,0.1-0.2,0.2-0.3C1843.8,79.5,1844.7,81,1845.1,82.7z"/>
	<path class="st7" d="M1849.4,87.7c-1.4,1.1-3.1,1.5-4.8,1.2c-0.1,0-0.2,0-0.3-0.1c0.3-1.6,1.2-3.1,2.5-4.2c1.4-1.1,3.1-1.5,4.7-1.2
		c0.1,0,0.2,0,0.4,0.1C1851.6,85.1,1850.7,86.6,1849.4,87.7z"/>
	<path class="st7" d="M1842.5,86.5c1.3,1.3,2,3.1,2.2,4.9c0,0.1,0,0.2,0,0.3c-1.5,0-3-0.6-4.2-1.8c-1.3-1.3-2-3-2.1-4.8
		c0-0.1,0-0.3,0-0.4C1839.7,84.7,1841.3,85.3,1842.5,86.5z"/>
	<path class="st7" d="M1848.5,88c-0.6,1.8-1.9,3.2-3.3,4c-0.1,0-0.2,0.1-0.3,0.1c-0.5-1.6-0.6-3.3,0-5c0.6-1.8,1.8-3.2,3.3-3.9
		c0.1-0.1,0.2-0.1,0.3-0.2C1849.1,84.5,1849.1,86.3,1848.5,88z"/>
	<path class="st7" d="M1844.1,90.6c1,1.6,1.3,3.5,1,5.3c0,0.1,0,0.2-0.1,0.3c-1.5-0.4-2.8-1.4-3.7-2.9c-1-1.6-1.3-3.4-1-5.2
		c0-0.1,0-0.3,0.1-0.4C1841.9,88.2,1843.2,89.2,1844.1,90.6z"/>
	<path class="st7" d="M1849.6,94.7c-1.4,1.1-3.1,1.5-4.8,1.2c-0.1,0-0.2,0-0.3-0.1c0.3-1.6,1.2-3.1,2.5-4.2c1.4-1.1,3.1-1.5,4.7-1.2
		c0.1,0,0.2,0,0.4,0.1C1851.8,92.1,1851,93.6,1849.6,94.7z"/>
	<path class="st7" d="M1843.8,93.4c1.1,1.6,1.5,3.4,1.2,5.2c0,0.1,0,0.2,0,0.3c-1.5-0.3-2.9-1.2-3.8-2.7c-1-1.5-1.4-3.4-1.2-5.1
		c0-0.1,0-0.3,0.1-0.4C1841.5,91.1,1842.8,92,1843.8,93.4z"/>
	<path class="st7" d="M1849.5,96.2c-0.9,1.7-2.4,2.7-4,3.1c-0.1,0-0.2,0-0.3,0.1c-0.2-1.6,0-3.4,0.9-4.9c0.9-1.6,2.3-2.7,3.9-3.1
		c0.1,0,0.2-0.1,0.3-0.1C1850.6,92.9,1850.3,94.7,1849.5,96.2z"/>
	<path class="st7" d="M1845.9,96.9c0.4,1.9,0.2,3.8-0.7,5.4c0,0.1-0.1,0.2-0.1,0.3c-1.3-0.9-2.2-2.4-2.6-4.1
		c-0.4-1.9-0.2-3.7,0.6-5.3c0.1-0.1,0.1-0.2,0.2-0.3C1844.5,93.8,1845.5,95.2,1845.9,96.9z"/>
	<path class="st7" d="M1850.2,101.9c-1.4,1.1-3.1,1.5-4.8,1.2c-0.1,0-0.2,0-0.3-0.1c0.3-1.6,1.2-3.1,2.5-4.2
		c1.4-1.1,3.1-1.5,4.7-1.2c0.1,0,0.2,0,0.4,0.1C1852.4,99.3,1851.5,100.8,1850.2,101.9z"/>
	<path class="st7" d="M1843.3,100c1.3,1.3,2,3.1,2.1,4.9c0,0.1,0,0.2,0,0.3c-1.5,0-3-0.6-4.2-1.8c-1.3-1.3-2-3-2.1-4.8
		c0-0.1,0-0.3,0-0.4C1840.5,98.2,1842,98.8,1843.3,100z"/>
	<path class="st7" d="M1849.3,101.5c-0.6,1.8-1.9,3.2-3.4,3.9c-0.1,0-0.2,0.1-0.3,0.1c-0.5-1.6-0.6-3.3,0-5c0.6-1.8,1.8-3.1,3.3-3.9
		c0.1-0.1,0.2-0.1,0.3-0.2C1849.8,98.1,1849.9,99.8,1849.3,101.5z"/>
	<path class="st7" d="M1846.9,101.6c0.4,1.9,0.2,3.8-0.7,5.4c0,0.1-0.1,0.2-0.1,0.3c-1.3-0.9-2.2-2.4-2.6-4.1
		c-0.4-1.9-0.2-3.7,0.6-5.3c0.1-0.1,0.1-0.2,0.2-0.3C1845.5,98.4,1846.4,99.8,1846.9,101.6z"/>
	<path class="st7" d="M1851.1,106.5c-1.4,1.1-3.1,1.5-4.8,1.2c-0.1,0-0.2,0-0.3-0.1c0.3-1.6,1.2-3.1,2.5-4.2
		c1.4-1.1,3.1-1.5,4.7-1.2c0.1,0,0.2,0,0.4,0.1C1853.3,104,1852.5,105.5,1851.1,106.5z"/>
	<path class="st7" d="M1844.5,104.7c1.1,1.5,1.6,3.4,1.5,5.2c0,0.1,0,0.2,0,0.3c-1.5-0.3-2.9-1.1-4-2.5c-1.1-1.5-1.6-3.3-1.5-5.1
		c0-0.1,0-0.3,0-0.4C1842.1,102.5,1843.5,103.3,1844.5,104.7z"/>
	<path class="st7" d="M1850.3,107.2c-0.9,1.7-2.3,2.9-3.8,3.4c-0.1,0-0.2,0.1-0.3,0.1c-0.3-1.6-0.1-3.4,0.7-5
		c0.8-1.7,2.2-2.8,3.8-3.3c0.1,0,0.2-0.1,0.3-0.1C1851.3,103.9,1851.1,105.6,1850.3,107.2z"/>
</g>
<g>
	<path class="st1" d="M1867.8,60.2l-0.2-3.2c0,0-26,68.2,7.1,99.7l-0.1-1.7C1848,127.2,1863.2,74.1,1867.8,60.2z"/>
	<path class="st7" d="M1870.9,59.1c-1,1.8-2.5,3-4.1,3.4c-0.1,0-0.2,0-0.3,0.1c-0.2-1.9,0.1-3.8,1.1-5.5c1-1.8,2.4-2.9,4-3.3
		c0.1,0,0.2-0.1,0.4-0.1C1872.2,55.5,1871.8,57.5,1870.9,59.1z"/>
	<path class="st7" d="M1866.5,59.8c0.1,2.2-0.5,4.2-1.5,5.8c-0.1,0.1-0.1,0.2-0.2,0.3c-1.1-1.3-1.8-3.1-1.9-5.1
		c-0.1-2.2,0.5-4.2,1.5-5.7c0.1-0.1,0.2-0.2,0.2-0.3C1865.7,56,1866.4,57.8,1866.5,59.8z"/>
	<path class="st7" d="M1869.9,66.3c-1.6,0.9-3.3,1-4.9,0.3c-0.1,0-0.2-0.1-0.3-0.1c0.6-1.7,1.7-3.2,3.2-4c1.6-0.9,3.3-1,4.8-0.3
		c0.1,0,0.2,0.1,0.3,0.2C1872.5,64,1871.4,65.4,1869.9,66.3z"/>
	<path class="st7" d="M1864.1,66c0.7,2,0.6,4.2,0,6.1c0,0.1-0.1,0.2-0.1,0.3c-1.4-0.8-2.5-2.3-3.1-4.2c-0.7-2-0.6-4.1,0-6
		c0-0.1,0.1-0.3,0.1-0.4C1862.3,62.7,1863.4,64.1,1864.1,66z"/>
	<path class="st7" d="M1868.9,70.9c-1.3,1.5-2.9,2.2-4.6,2.2c-0.1,0-0.2,0-0.3,0c0.1-1.9,0.8-3.7,2-5.1c1.3-1.5,2.9-2.2,4.5-2.2
		c0.1,0,0.2,0,0.4,0C1870.7,67.7,1870.1,69.5,1868.9,70.9z"/>
	<path class="st7" d="M1863.7,71.1c0.1,2.2-0.5,4.2-1.5,5.8c-0.1,0.1-0.1,0.2-0.2,0.3c-1.1-1.3-1.8-3.1-1.9-5.1
		c-0.1-2.2,0.5-4.2,1.5-5.7c0.1-0.1,0.2-0.2,0.2-0.3C1862.9,67.3,1863.6,69.1,1863.7,71.1z"/>
	<path class="st7" d="M1867.1,77.6c-1.6,0.9-3.3,1-4.9,0.3c-0.1,0-0.2-0.1-0.3-0.1c0.6-1.7,1.7-3.2,3.2-4c1.6-0.9,3.3-1,4.8-0.3
		c0.1,0,0.2,0.1,0.3,0.2C1869.6,75.3,1868.5,76.7,1867.1,77.6z"/>
	<path class="st7" d="M1862,77.4c0.5,2.1,0.2,4.3-0.6,6c0,0.1-0.1,0.2-0.1,0.3c-1.3-1-2.2-2.6-2.7-4.6c-0.5-2.1-0.2-4.2,0.6-6
		c0.1-0.1,0.1-0.3,0.2-0.4C1860.6,73.9,1861.5,75.5,1862,77.4z"/>
	<path class="st7" d="M1866.3,83c-1.4,1.3-3.1,1.7-4.8,1.4c-0.1,0-0.2,0-0.3-0.1c0.3-1.8,1.2-3.5,2.5-4.7c1.4-1.3,3.1-1.7,4.7-1.4
		c0.1,0,0.2,0,0.4,0.1C1868.4,80.1,1867.6,81.8,1866.3,83z"/>
	<path class="st7" d="M1861.8,82.3c0.1,2.2-0.5,4.2-1.5,5.8c-0.1,0.1-0.1,0.2-0.2,0.3c-1.1-1.3-1.8-3.1-1.9-5.1
		c-0.1-2.2,0.5-4.2,1.5-5.7c0.1-0.1,0.2-0.2,0.2-0.3C1861,78.5,1861.7,80.3,1861.8,82.3z"/>
	<path class="st7" d="M1865.2,88.8c-1.6,0.9-3.3,1-4.9,0.3c-0.1,0-0.2-0.1-0.3-0.1c0.6-1.7,1.7-3.2,3.2-4c1.6-0.9,3.3-1,4.8-0.3
		c0.1,0,0.2,0.1,0.3,0.2C1867.7,86.4,1866.6,87.9,1865.2,88.8z"/>
	<path class="st7" d="M1858.5,85.9c1.1,1.7,1.5,3.9,1.3,5.9c0,0.1,0,0.2,0,0.3c-1.5-0.4-2.9-1.4-3.9-3c-1.1-1.7-1.5-3.8-1.3-5.8
		c0-0.1,0-0.3,0-0.4C1856.2,83.3,1857.5,84.3,1858.5,85.9z"/>
	<path class="st7" d="M1864.2,88.9c-0.9,1.9-2.4,3.1-3.9,3.6c-0.1,0-0.2,0.1-0.3,0.1c-0.3-1.9,0-3.8,0.8-5.6
		c0.9-1.8,2.3-3.1,3.9-3.6c0.1,0,0.2-0.1,0.3-0.1C1865.3,85.2,1865.1,87.2,1864.2,88.9z"/>
	<path class="st7" d="M1859.5,90.8c0.7,2,0.7,4.2,0.1,6.1c0,0.1-0.1,0.2-0.1,0.3c-1.4-0.8-2.5-2.2-3.2-4c-0.7-2-0.7-4.1-0.2-6
		c0-0.1,0.1-0.3,0.1-0.4C1857.6,87.6,1858.8,89,1859.5,90.8z"/>
	<path class="st7" d="M1864.2,96.6c-1.6,0.9-3.3,1-4.9,0.3c-0.1,0-0.2-0.1-0.3-0.1c0.6-1.7,1.7-3.2,3.2-4c1.6-0.9,3.3-1,4.8-0.3
		c0.1,0,0.2,0.1,0.3,0.2C1866.8,94.2,1865.7,95.7,1864.2,96.6z"/>
	<path class="st7" d="M1858.7,93.8c0.8,2,0.9,4.1,0.3,6.1c0,0.1-0.1,0.2-0.1,0.3c-1.4-0.7-2.6-2-3.3-3.9c-0.8-1.9-0.9-4.1-0.4-6
		c0-0.1,0.1-0.3,0.1-0.4C1856.8,90.7,1858,92,1858.7,93.8z"/>
	<path class="st7" d="M1863.8,98.2c-1.2,1.6-2.8,2.5-4.4,2.6c-0.1,0-0.2,0-0.3,0c0-1.9,0.6-3.8,1.7-5.3c1.2-1.6,2.8-2.4,4.4-2.6
		c0.1,0,0.2,0,0.4,0C1865.5,94.9,1864.9,96.7,1863.8,98.2z"/>
	<path class="st7" d="M1860.2,98.2c0.1,2.2-0.5,4.2-1.5,5.8c-0.1,0.1-0.1,0.2-0.2,0.3c-1.1-1.3-1.8-3.1-1.9-5.1
		c-0.1-2.2,0.5-4.2,1.5-5.7c0.1-0.1,0.2-0.2,0.2-0.3C1859.3,94.4,1860,96.2,1860.2,98.2z"/>
	<path class="st7" d="M1863.5,104.7c-1.6,0.9-3.3,1-4.9,0.3c-0.1,0-0.2-0.1-0.3-0.1c0.6-1.7,1.7-3.2,3.2-4c1.6-0.9,3.3-1,4.8-0.3
		c0.1,0,0.2,0.1,0.3,0.2C1866.1,102.3,1865,103.8,1863.5,104.7z"/>
	<path class="st7" d="M1857.1,101c1.1,1.7,1.5,3.9,1.3,5.9c0,0.1,0,0.2,0,0.3c-1.5-0.4-2.9-1.4-3.9-3c-1.1-1.7-1.5-3.8-1.3-5.8
		c0-0.1,0-0.3,0-0.4C1854.7,98.4,1856.1,99.4,1857.1,101z"/>
	<path class="st7" d="M1862.7,104.1c-0.9,1.9-2.4,3.1-4,3.6c-0.1,0-0.2,0.1-0.3,0.1c-0.3-1.9,0-3.8,0.9-5.6c0.9-1.8,2.3-3.1,3.9-3.6
		c0.1,0,0.2-0.1,0.3-0.1C1863.8,100.4,1863.6,102.3,1862.7,104.1z"/>
	<path class="st7" d="M1860.3,103.5c0.1,2.2-0.5,4.2-1.5,5.8c-0.1,0.1-0.1,0.2-0.2,0.3c-1.1-1.3-1.8-3.1-1.9-5.1
		c-0.1-2.2,0.5-4.2,1.5-5.7c0.1-0.1,0.2-0.2,0.2-0.3C1859.5,99.7,1860.2,101.5,1860.3,103.5z"/>
	<path class="st7" d="M1863.7,110c-1.6,0.9-3.3,1-4.9,0.3c-0.1,0-0.2-0.1-0.3-0.1c0.6-1.7,1.7-3.2,3.2-4c1.6-0.9,3.3-1,4.8-0.3
		c0.1,0,0.2,0.1,0.3,0.2C1866.3,107.7,1865.2,109.2,1863.7,110z"/>
	<path class="st7" d="M1857.5,106.5c0.9,1.9,1,4.1,0.6,6.1c0,0.1-0.1,0.2-0.1,0.3c-1.4-0.6-2.7-1.9-3.5-3.7c-0.8-1.9-1-4-0.6-6
		c0-0.1,0.1-0.3,0.1-0.4C1855.5,103.5,1856.7,104.7,1857.5,106.5z"/>
	<path class="st7" d="M1862.8,110.6c-1.1,1.7-2.7,2.6-4.3,2.8c-0.1,0-0.2,0-0.3,0c0-1.9,0.5-3.8,1.5-5.3c1.1-1.7,2.7-2.6,4.3-2.8
		c0.1,0,0.2,0,0.4,0C1864.3,107.1,1863.8,109,1862.8,110.6z"/>
</g>
<path class="st3" d="M1888.6,140.1c0,0.1,0,0.2,0,0.3l-0.5,2.8l-6.8,36c-0.3,1.6-1.7,2.7-3.3,2.7h-30.1c-1.6,0-3-1.1-3.3-2.7
	l-6.8-36l-0.5-2.8c0-0.1,0-0.2,0-0.3c-0.2-1.9,1.3-3.7,3.3-3.7h44.8C1887.3,136.4,1888.8,138.1,1888.6,140.1z"/>
<path class="st3" d="M1894.3,132.7v5c0,1.3-1.1,2.4-2.4,2.4h-58c-1.3,0-2.4-1.1-2.4-2.4v-5c0-1.3,1.1-2.4,2.4-2.4h58
	C1893.2,130.3,1894.3,131.3,1894.3,132.7z"/>
<path class="st4" d="M1888.6,137.7c0,0.1,0,0.2,0,0.3l-0.5,2.8h-50.3l-0.5-2.8c0-0.1,0-0.2,0-0.3H1888.6z"/>
<path class="st5" d="M1894.3,132.7v5c0,1.3-1.1,2.4-2.4,2.4h-3.3c0,0.1,0,0.2,0,0.3l-0.5,2.8l-6.8,36c-0.3,1.6-1.7,2.7-3.3,2.7
	h-15.1v-51.7h29C1893.2,130.3,1894.3,131.3,1894.3,132.7z"/>
<g>
	<path class="st1" d="M1158.3,159.2c-5.7-6.1-8.7-13.8-10.2-21.6c0,0,0,0,0,0c-0.1-0.4-0.2-0.8-0.2-1.2v0c0-0.3-0.1-0.6-0.2-1
		c0-0.3-0.1-0.6-0.1-0.9c0,0,0,0,0,0c-1.2-8.5-0.8-16.8,0-22.9c0.1-1.1,0.3-2.2,0.4-3.1c0,0,0,0,0,0c0.2-1,0.3-2,0.5-2.8
		c0-0.1,0-0.2,0-0.2v0c0,0,0-0.1,0-0.1c0.1-0.4,0-0.7-0.1-1.1l-0.1-0.4c0,0,0,0,0,0l0-0.2l0,0l0-0.1l0-0.1l-0.1-0.4l-0.1-0.3
		c0,0,0,0,0,0l0,0l0,0c0,0,0,0,0,0.1c0,0,0,0,0,0c0,0,0,0.1,0,0.1c0,0,0,0,0,0c0,0,0,0,0,0c0,0.1-0.1,0.2-0.1,0.4c0,0,0,0,0,0
		c0,0,0,0,0,0.1c0,0,0,0,0,0.1c0,0,0,0.1,0,0.1c0,0,0,0.1,0,0.2c-0.1,0.3-0.1,0.7-0.2,1.1v0c0,0.2-0.1,0.5-0.1,0.8
		c-0.2,1-0.4,2.2-0.6,3.5c0,0,0,0,0,0c-0.1,0.5-0.1,0.9-0.2,1.4c-0.7,5.6-1.3,13.4-0.4,21.7c0.3,2.5,0.7,5.1,1.3,7.6
		c1.6,6.9,4.5,13.7,9.5,19.1c2.8,3,6.1,5.6,10.3,7.6L1158.3,159.2z"/>
	<path class="st8" d="M1147.7,96.2c1,2.3,1,4.9,0.1,7.1c0,0.1-0.1,0.2-0.2,0.4c-2-0.9-3.6-2.5-4.6-4.7c-1-2.3-1-4.8-0.2-7
		c0.1-0.2,0.1-0.3,0.2-0.5C1145.1,92.5,1146.7,94.1,1147.7,96.2z"/>
	<path class="st8" d="M1152.3,97.8c-0.5,2.5-2,4.6-3.9,5.9c-0.1,0.1-0.2,0.1-0.3,0.2c-1.1-1.9-1.5-4.2-1.1-6.5
		c0.5-2.5,1.9-4.5,3.8-5.8c0.1-0.1,0.3-0.2,0.4-0.3C1152.3,93.2,1152.8,95.5,1152.3,97.8z"/>
	<path class="st8" d="M1154.8,102.3c-2.1,1.4-4.6,1.8-7,1.3c-0.1,0-0.3-0.1-0.4-0.1c0.6-2.1,1.9-4,3.9-5.3c2.1-1.4,4.6-1.8,6.8-1.3
		c0.2,0,0.3,0.1,0.5,0.1C1158.1,99.1,1156.8,101,1154.8,102.3z"/>
	<path class="st8" d="M1154.5,106.3c-2.5-0.1-4.8-1.3-6.4-3.1c-0.1-0.1-0.2-0.2-0.3-0.3c1.7-1.4,3.9-2.1,6.3-2
		c2.5,0.1,4.7,1.3,6.3,3c0.1,0.1,0.2,0.3,0.3,0.4C1159.1,105.7,1156.9,106.5,1154.5,106.3z"/>
	<path class="st8" d="M1150.6,108.4c-1.9-1.7-2.9-4-3-6.4c0-0.1,0-0.3,0-0.4c2.2,0,4.4,0.9,6.1,2.5c1.8,1.7,2.8,4,3,6.3
		c0,0.2,0,0.3,0,0.5C1154.5,110.8,1152.3,110,1150.6,108.4z"/>
	<path class="st8" d="M1146.7,108.5c-0.3-2.5,0.5-4.9,2-6.8c0.1-0.1,0.2-0.2,0.3-0.3c1.6,1.5,2.7,3.5,3,5.9c0.3,2.5-0.5,4.9-1.9,6.7
		c-0.1,0.1-0.2,0.3-0.3,0.4C1148,112.9,1146.9,110.9,1146.7,108.5z"/>
	<path class="st8" d="M1142.4,107.6c1.5-2.1,3.6-3.4,6-3.8c0.1,0,0.3,0,0.4-0.1c0.3,2.2-0.3,4.4-1.6,6.4c-1.4,2.1-3.6,3.4-5.8,3.8
		c-0.2,0-0.3,0.1-0.5,0.1C1140.5,111.8,1141,109.5,1142.4,107.6z"/>
	<path class="st8" d="M1141.3,102.8c2.4-0.9,4.9-0.7,7.1,0.3c0.1,0.1,0.2,0.1,0.4,0.2c-1,1.9-2.7,3.5-5,4.3c-2.4,0.9-4.8,0.7-7-0.2
		c-0.2-0.1-0.3-0.1-0.5-0.2C1137.4,105.2,1139.1,103.6,1141.3,102.8z"/>
	<path class="st8" d="M1142.9,98.4c2.4,0.9,4.2,2.6,5.3,4.7c0.1,0.1,0.1,0.2,0.2,0.4c-2,0.8-4.3,0.9-6.6,0.1
		c-2.4-0.8-4.2-2.5-5.2-4.6c-0.1-0.2-0.2-0.3-0.2-0.5C1138.3,97.7,1140.7,97.6,1142.9,98.4z"/>
	<circle class="st9" cx="1148" cy="102.8" r="3"/>
	<g>
		<path class="st1" d="M1146.7,133.2c1.3,2,1.7,4.4,1.2,6.6c0,0.1-0.1,0.2-0.1,0.4c-2-0.6-3.8-1.8-5-3.7c-1.3-2-1.7-4.4-1.2-6.5
			c0-0.2,0.1-0.3,0.1-0.5C1143.7,130,1145.5,131.3,1146.7,133.2z"/>
	</g>
	<g>
		<path class="st1" d="M1149,129.3c-1.3,2-1.7,4.4-1.2,6.6c0,0.1,0.1,0.2,0.1,0.4c2-0.6,3.8-1.8,5-3.7c1.3-2,1.7-4.4,1.2-6.5
			c0-0.2-0.1-0.3-0.1-0.5C1152,126.2,1150.2,127.4,1149,129.3z"/>
	</g>
</g>
<g>
	<path class="st1" d="M1177.5,118.1c0.1-0.4,0-0.7-0.1-1.1l-0.5-1.5c0,0-12,49,19.2,64l0,0c-0.2-0.7-0.7-1.3-1.3-1.7
		C1171,164,1175.5,128.6,1177.5,118.1z"/>
	<path class="st8" d="M1176.7,108.9c1,2.3,1,4.9,0.1,7.1c0,0.1-0.1,0.2-0.2,0.4c-2-0.9-3.6-2.5-4.6-4.7c-1-2.3-1-4.8-0.2-7
		c0.1-0.2,0.1-0.3,0.2-0.5C1174,105.1,1175.7,106.8,1176.7,108.9z"/>
	<path class="st8" d="M1181.3,110.5c-0.5,2.5-2,4.6-3.9,5.9c-0.1,0.1-0.2,0.1-0.3,0.2c-1.1-1.9-1.5-4.2-1.1-6.5
		c0.5-2.5,1.9-4.5,3.8-5.8c0.1-0.1,0.3-0.2,0.4-0.3C1181.3,105.9,1181.7,108.2,1181.3,110.5z"/>
	<path class="st8" d="M1183.8,115c-2.1,1.4-4.6,1.8-7,1.3c-0.1,0-0.3-0.1-0.4-0.1c0.6-2.1,1.9-4,3.9-5.3c2.1-1.4,4.6-1.8,6.8-1.3
		c0.2,0,0.3,0.1,0.5,0.1C1187.1,111.8,1185.8,113.7,1183.8,115z"/>
	<path class="st8" d="M1183.5,119c-2.5-0.1-4.8-1.3-6.4-3.1c-0.1-0.1-0.2-0.2-0.3-0.3c1.7-1.4,3.9-2.1,6.3-2c2.5,0.1,4.7,1.3,6.3,3
		c0.1,0.1,0.2,0.3,0.3,0.4C1188.1,118.4,1185.9,119.2,1183.5,119z"/>
	<path class="st8" d="M1179.6,121.1c-1.9-1.7-2.9-4-3-6.4c0-0.1,0-0.3,0-0.4c2.2,0,4.4,0.9,6.1,2.5c1.8,1.7,2.9,4,3,6.3
		c0,0.2,0,0.3,0,0.5C1183.5,123.5,1181.3,122.7,1179.6,121.1z"/>
	<path class="st8" d="M1175.6,121.2c-0.3-2.5,0.5-4.9,2-6.8c0.1-0.1,0.2-0.2,0.3-0.3c1.6,1.5,2.7,3.5,3,5.9c0.3,2.5-0.5,4.9-1.9,6.7
		c-0.1,0.1-0.2,0.3-0.3,0.4C1177,125.6,1175.9,123.6,1175.6,121.2z"/>
	<path class="st8" d="M1171.4,120.2c1.5-2.1,3.6-3.4,6-3.8c0.1,0,0.3,0,0.4-0.1c0.3,2.2-0.3,4.4-1.6,6.4c-1.4,2.1-3.6,3.4-5.8,3.8
		c-0.2,0-0.3,0.1-0.5,0.1C1169.5,124.4,1170,122.2,1171.4,120.2z"/>
	<path class="st8" d="M1170.3,115.5c2.4-0.9,4.9-0.7,7.1,0.3c0.1,0.1,0.2,0.1,0.4,0.2c-1,1.9-2.7,3.5-5,4.3c-2.4,0.9-4.8,0.7-7-0.2
		c-0.2-0.1-0.3-0.1-0.5-0.2C1166.3,117.9,1168.1,116.3,1170.3,115.5z"/>
	<path class="st8" d="M1171.9,111.1c2.4,0.9,4.2,2.6,5.3,4.7c0.1,0.1,0.1,0.2,0.2,0.4c-2,0.8-4.3,0.9-6.6,0.1
		c-2.4-0.8-4.2-2.5-5.2-4.6c-0.1-0.2-0.2-0.3-0.2-0.5C1167.3,110.4,1169.7,110.3,1171.9,111.1z"/>
	<circle class="st9" cx="1176.9" cy="115.5" r="3"/>
	<g>
		<path class="st1" d="M1176.4,153.2c1.6,1.8,2.3,4.1,2.2,6.4c0,0.1,0,0.3,0,0.4c-2.1-0.3-4-1.3-5.5-3c-1.6-1.8-2.3-4.1-2.2-6.3
			c0-0.2,0-0.3,0-0.5C1172.9,150.5,1174.9,151.5,1176.4,153.2z"/>
	</g>
	<g>
		<path class="st1" d="M1180.1,153.4c-1.3,2-1.7,4.4-1.2,6.6c0,0.1,0.1,0.2,0.1,0.4c2-0.6,3.8-1.8,5-3.7c1.3-2,1.7-4.4,1.2-6.5
			c0-0.2-0.1-0.3-0.1-0.5C1183.2,150.3,1181.4,151.5,1180.1,153.4z"/>
	</g>
</g>
<g>
	<path class="st1" d="M1195.9,115.5c0.1-0.3,0.1-0.5,0-0.8l-0.2-1.2c0,0-12.1,35,9.7,48.1l0,0c-0.1-0.5-0.4-1-0.9-1.3
		C1188.1,148.6,1193.8,123.1,1195.9,115.5z"/>
	<path class="st8" d="M1196,108.8c0.6,1.8,0.4,3.6-0.4,5.2c0,0.1-0.1,0.2-0.1,0.3c-1.4-0.8-2.5-2.1-3-3.8c-0.6-1.8-0.4-3.6,0.3-5.1
		c0.1-0.1,0.1-0.2,0.2-0.3C1194.3,105.8,1195.4,107.1,1196,108.8z"/>
	<path class="st8" d="M1199.2,110.2c-0.5,1.8-1.7,3.2-3.3,4c-0.1,0-0.2,0.1-0.3,0.1c-0.7-1.5-0.8-3.2-0.3-4.8c0.5-1.8,1.7-3.2,3.2-4
		c0.1-0.1,0.2-0.1,0.3-0.2C1199.6,106.9,1199.7,108.6,1199.2,110.2z"/>
	<path class="st8" d="M1200.8,113.7c-1.7,0.9-3.5,1-5.2,0.5c-0.1,0-0.2-0.1-0.3-0.1c0.6-1.5,1.7-2.8,3.2-3.6c1.6-0.9,3.5-1,5.1-0.5
		c0.1,0,0.2,0.1,0.4,0.1C1203.4,111.6,1202.3,112.9,1200.8,113.7z"/>
	<path class="st8" d="M1200.3,116.6c-1.9-0.3-3.4-1.3-4.5-2.7c-0.1-0.1-0.1-0.2-0.2-0.2c1.3-0.9,3-1.3,4.7-1
		c1.8,0.3,3.4,1.3,4.4,2.6c0.1,0.1,0.2,0.2,0.2,0.3C1203.7,116.5,1202,116.9,1200.3,116.6z"/>
	<path class="st8" d="M1197.3,117.9c-1.3-1.4-1.8-3.2-1.7-4.9c0-0.1,0-0.2,0-0.3c1.6,0.2,3.1,0.9,4.3,2.2c1.2,1.4,1.8,3.1,1.8,4.8
		c0,0.1,0,0.3,0,0.4C1200,119.9,1198.4,119.2,1197.3,117.9z"/>
	<path class="st8" d="M1194.4,117.7c0-1.9,0.7-3.6,1.9-4.8c0.1-0.1,0.1-0.1,0.2-0.2c1.1,1.2,1.8,2.8,1.8,4.5c0,1.8-0.7,3.5-1.8,4.8
		c-0.1,0.1-0.2,0.2-0.3,0.3C1195.1,121,1194.4,119.4,1194.4,117.7z"/>
	<path class="st8" d="M1191.3,116.7c1.2-1.4,2.9-2.2,4.6-2.4c0.1,0,0.2,0,0.3,0c0,1.6-0.5,3.2-1.6,4.5c-1.2,1.4-2.8,2.2-4.5,2.4
		c-0.1,0-0.3,0-0.4,0C1189.7,119.6,1190.2,118,1191.3,116.7z"/>
	<path class="st8" d="M1190.9,113.1c1.8-0.5,3.6-0.2,5.2,0.7c0.1,0,0.2,0.1,0.3,0.2c-0.9,1.3-2.2,2.4-3.9,2.8
		c-1.8,0.5-3.6,0.2-5.1-0.6c-0.1-0.1-0.2-0.1-0.3-0.2C1187.8,114.6,1189.2,113.6,1190.9,113.1z"/>
	<path class="st8" d="M1192.3,110c1.7,0.8,2.9,2.2,3.5,3.8c0,0.1,0.1,0.2,0.1,0.3c-1.5,0.5-3.2,0.4-4.8-0.4
		c-1.7-0.8-2.9-2.1-3.5-3.7c0-0.1-0.1-0.2-0.1-0.4C1189.1,109.2,1190.8,109.3,1192.3,110z"/>
	<circle class="st9" cx="1195.7" cy="113.6" r="2.2"/>
	<g>
		<path class="st1" d="M1192.7,135.7c0.8,1.6,0.9,3.4,0.4,4.9c0,0.1-0.1,0.2-0.1,0.3c-1.4-0.6-2.7-1.6-3.4-3.1
			c-0.8-1.6-0.9-3.3-0.5-4.9c0-0.1,0.1-0.2,0.1-0.3C1190.7,133.2,1192,134.2,1192.7,135.7z"/>
	</g>
	<g>
		<path class="st1" d="M1194.7,133c-1.1,1.4-1.5,3.1-1.3,4.8c0,0.1,0,0.2,0,0.3c1.5-0.3,2.9-1.1,3.9-2.4c1.1-1.4,1.5-3.1,1.4-4.7
			c0-0.1,0-0.2,0-0.4C1197.1,130.9,1195.7,131.7,1194.7,133z"/>
	</g>
</g>
<g>
	<path class="st1" d="M1218.3,126.9c0.1-0.4,0.1-0.8-0.1-1.2l-0.5-1.7c0,0-13.2,53.9,21.1,70.5l0,0c-0.2-0.8-0.8-1.4-1.5-1.8
		C1211.3,177.3,1216.2,138.4,1218.3,126.9z"/>
	<path class="st8" d="M1217.4,116.7c1.1,2.6,1.1,5.4,0.2,7.8c-0.1,0.1-0.1,0.3-0.2,0.4c-2.2-1-4-2.8-5-5.2c-1.1-2.5-1.1-5.3-0.2-7.7
		c0.1-0.2,0.1-0.4,0.2-0.5C1214.6,112.6,1216.4,114.4,1217.4,116.7z"/>
	<path class="st8" d="M1222.5,118.5c-0.5,2.8-2.2,5-4.3,6.5c-0.1,0.1-0.2,0.2-0.4,0.2c-1.2-2.1-1.7-4.6-1.2-7.1
		c0.5-2.7,2.1-5,4.2-6.4c0.2-0.1,0.3-0.2,0.5-0.3C1222.6,113.4,1223,115.9,1222.5,118.5z"/>
	<path class="st8" d="M1225.3,123.4c-2.4,1.5-5.1,2-7.7,1.4c-0.1,0-0.3-0.1-0.4-0.1c0.6-2.3,2.1-4.4,4.3-5.8c2.3-1.5,5-2,7.5-1.5
		c0.2,0,0.4,0.1,0.6,0.1C1229,119.9,1227.5,122,1225.3,123.4z"/>
	<path class="st8" d="M1225,127.9c-2.8-0.2-5.3-1.4-7-3.4c-0.1-0.1-0.2-0.2-0.3-0.3c1.9-1.5,4.3-2.3,6.9-2.2
		c2.8,0.2,5.2,1.4,6.9,3.3c0.1,0.1,0.3,0.3,0.4,0.4C1230,127.2,1227.6,128,1225,127.9z"/>
	<path class="st8" d="M1220.7,130.1c-2.1-1.9-3.2-4.5-3.3-7.1c0-0.1,0-0.3,0-0.4c2.4,0,4.8,0.9,6.7,2.7c2,1.9,3.1,4.4,3.3,6.9
		c0,0.2,0,0.4,0,0.6C1225,132.8,1222.6,131.9,1220.7,130.1z"/>
	<path class="st8" d="M1216.3,130.3c-0.3-2.8,0.5-5.4,2.2-7.5c0.1-0.1,0.2-0.2,0.3-0.3c1.8,1.6,3,3.9,3.3,6.4
		c0.3,2.7-0.5,5.4-2.1,7.4c-0.1,0.2-0.2,0.3-0.4,0.4C1217.8,135.1,1216.6,132.9,1216.3,130.3z"/>
	<path class="st8" d="M1211.6,129.2c1.6-2.3,4-3.7,6.5-4.2c0.1,0,0.3-0.1,0.4-0.1c0.3,2.4-0.3,4.9-1.8,7c-1.6,2.3-3.9,3.7-6.4,4.2
		c-0.2,0-0.4,0.1-0.6,0.1C1209.6,133.8,1210.1,131.3,1211.6,129.2z"/>
	<path class="st8" d="M1210.4,124c2.6-1,5.4-0.8,7.8,0.3c0.1,0.1,0.3,0.1,0.4,0.2c-1.1,2.1-3,3.8-5.5,4.7c-2.6,1-5.3,0.8-7.7-0.2
		c-0.2-0.1-0.3-0.2-0.5-0.2C1206.1,126.6,1208,124.9,1210.4,124z"/>
	<path class="st8" d="M1212.2,119.1c2.6,0.9,4.7,2.9,5.8,5.2c0.1,0.1,0.1,0.3,0.2,0.4c-2.2,0.9-4.8,1-7.2,0.1
		c-2.6-0.9-4.6-2.8-5.7-5.1c-0.1-0.2-0.2-0.3-0.2-0.5C1207.2,118.4,1209.7,118.3,1212.2,119.1z"/>
	<circle class="st9" cx="1217.8" cy="124" r="3.3"/>
	<g>
		<path class="st1" d="M1216.4,157.4c1.4,2.3,1.9,4.9,1.3,7.3c0,0.1-0.1,0.3-0.1,0.4c-2.2-0.6-4.2-2-5.5-4.1
			c-1.4-2.2-1.8-4.8-1.4-7.2c0-0.2,0.1-0.4,0.1-0.5C1213.1,153.9,1215,155.3,1216.4,157.4z"/>
	</g>
	<g>
		<path class="st1" d="M1218.9,153.2c-1.4,2.3-1.9,4.9-1.3,7.3c0,0.1,0.1,0.3,0.1,0.4c2.2-0.6,4.2-2,5.5-4.1
			c1.4-2.2,1.8-4.8,1.4-7.2c0-0.2-0.1-0.4-0.1-0.5C1222.2,149.7,1220.2,151.1,1218.9,153.2z"/>
	</g>
</g>
<path class="st1" d="M1240.8,93.6c0.1-0.4,0-0.7-0.1-1.1l-0.5-1.5c0,0-12,49,19.2,64l0,0c-0.2-0.7-0.7-1.3-1.3-1.7
	C1234.3,139.5,1238.8,104.1,1240.8,93.6z"/>
<path class="st8" d="M1239.9,84.5c1,2.3,1,4.9,0.1,7.1c0,0.1-0.1,0.2-0.2,0.4c-2-0.9-3.6-2.5-4.6-4.7c-1-2.3-1-4.8-0.2-7
	c0.1-0.2,0.1-0.3,0.2-0.5C1237.3,80.7,1239,82.3,1239.9,84.5z"/>
<path class="st8" d="M1244.6,86c-0.5,2.5-2,4.6-3.9,5.9c-0.1,0.1-0.2,0.1-0.3,0.2c-1.1-1.9-1.5-4.2-1.1-6.5c0.5-2.5,1.9-4.5,3.8-5.8
	c0.1-0.1,0.3-0.2,0.4-0.3C1244.6,81.4,1245,83.7,1244.6,86z"/>
<path class="st8" d="M1247.1,90.5c-2.1,1.4-4.6,1.8-7,1.3c-0.1,0-0.3-0.1-0.4-0.1c0.6-2.1,1.9-4,3.9-5.3c2.1-1.4,4.6-1.8,6.8-1.3
	c0.2,0,0.3,0.1,0.5,0.1C1250.4,87.3,1249.1,89.3,1247.1,90.5z"/>
<path class="st8" d="M1246.8,94.5c-2.5-0.1-4.8-1.3-6.4-3.1c-0.1-0.1-0.2-0.2-0.3-0.3c1.7-1.4,3.9-2.1,6.3-2c2.5,0.1,4.7,1.3,6.3,3
	c0.1,0.1,0.2,0.3,0.3,0.4C1251.4,93.9,1249.2,94.7,1246.8,94.5z"/>
<path class="st8" d="M1242.9,96.6c-1.9-1.7-2.9-4-3-6.4c0-0.1,0-0.3,0-0.4c2.2,0,4.4,0.9,6.1,2.5c1.8,1.7,2.9,4,3,6.3
	c0,0.2,0,0.3,0,0.5C1246.8,99,1244.6,98.2,1242.9,96.6z"/>
<path class="st8" d="M1238.9,96.8c-0.3-2.5,0.5-4.9,2-6.8c0.1-0.1,0.2-0.2,0.3-0.3c1.6,1.5,2.7,3.5,3,5.9c0.3,2.5-0.5,4.9-1.9,6.7
	c-0.1,0.1-0.2,0.3-0.3,0.4C1240.3,101.1,1239.2,99.1,1238.9,96.8z"/>
<path class="st8" d="M1234.7,95.8c1.5-2.1,3.6-3.4,6-3.8c0.1,0,0.3,0,0.4-0.1c0.3,2.2-0.3,4.4-1.6,6.4c-1.4,2.1-3.6,3.4-5.8,3.8
	c-0.2,0-0.3,0.1-0.5,0.1C1232.8,100,1233.3,97.7,1234.7,95.8z"/>
<path class="st8" d="M1233.6,91c2.4-0.9,4.9-0.7,7.1,0.3c0.1,0.1,0.2,0.1,0.4,0.2c-1,1.9-2.7,3.5-5,4.3c-2.4,0.9-4.8,0.7-7-0.2
	c-0.2-0.1-0.3-0.1-0.5-0.2C1229.6,93.4,1231.3,91.8,1233.6,91z"/>
<path class="st8" d="M1235.2,86.6c2.4,0.9,4.2,2.6,5.3,4.7c0.1,0.1,0.1,0.2,0.2,0.4c-2,0.8-4.3,0.9-6.6,0.1
	c-2.4-0.8-4.2-2.5-5.2-4.6c-0.1-0.2-0.2-0.3-0.2-0.5C1230.6,85.9,1232.9,85.8,1235.2,86.6z"/>
<circle class="st9" cx="1240.2" cy="91" r="3"/>
<g>
	<path class="st1" d="M1239,121.4c1.3,2,1.7,4.4,1.2,6.6c0,0.1-0.1,0.2-0.1,0.4c-2-0.6-3.8-1.8-5-3.7c-1.3-2-1.7-4.4-1.2-6.5
		c0-0.2,0.1-0.3,0.1-0.5C1236,118.2,1237.8,119.5,1239,121.4z"/>
</g>
<g>
	<path class="st1" d="M1241.3,117.5c-1.3,2-1.7,4.4-1.2,6.6c0,0.1,0.1,0.2,0.1,0.4c2-0.6,3.8-1.8,5-3.7c1.3-2,1.7-4.4,1.2-6.5
		c0-0.2-0.1-0.3-0.1-0.5C1244.3,114.4,1242.5,115.7,1241.3,117.5z"/>
</g>
<path class="st2" d="M1169,161.7v7.6c-4.2-2-7.5-4.6-10.3-7.6H1169z"/>
<polygon class="st2" points="1172.4,161.7 1186.9,159.2 1201.6,177 1187.7,184.8 "/>
<polygon class="st2" points="1185.3,148.7 1197.5,145.9 1210.7,159.8 1199.3,166.8 "/>
<polygon class="st2" points="1214.5,170 1230.7,166.8 1247.1,189.9 1231.6,200 "/>
<polygon class="st2" points="1236.1,139.9 1250.6,137.4 1265.2,155.2 1251.4,163 "/>
<g id="YygWpB_1_">
	
		<image style="overflow:visible;" width="352" height="424" id="YygWpB" xlink:href="AF6207506B014A3A.png"  transform="matrix(0.1473 0 0 0.1473 766.7839 112.841)">
	</image>
</g>
<g>
	<g>
		<path class="st1" d="M320.6,82.2c0,7.2-2.9,13.7-7.6,18.5c-0.3,0.3-0.5,0.5-0.8,0.8c-4.1-4.6-6.6-10.7-6.6-17.4
			c0-7.1,2.8-13.5,7.4-18.2c0.3-0.4,0.7-0.7,1-1C318.1,69.4,320.6,75.5,320.6,82.2z"/>
		<path class="st2" d="M320.6,82.2c0,7.2-2.9,13.7-7.6,18.5V65.9c0.3-0.4,0.7-0.7,1-1C318.1,69.4,320.6,75.5,320.6,82.2z"/>
	</g>
	<g>
		<path class="st1" d="M310.8,82.1c2.9,6.6,2.8,13.7,0.4,20c-0.1,0.4-0.3,0.7-0.4,1c-5.6-2.6-10.3-7.2-13-13.3
			c-2.8-6.5-2.8-13.5-0.5-19.7c0.2-0.5,0.3-0.9,0.5-1.4C303.4,71.4,308.1,76,310.8,82.1z"/>
		<path class="st2" d="M310.8,82.1c2.9,6.6,2.8,13.7,0.4,20l-13.9-31.9c0.2-0.5,0.3-0.9,0.5-1.4C303.4,71.4,308.1,76,310.8,82.1z"/>
	</g>
	<path class="st1" d="M328.1,87.2c-1.7,7-6.1,12.7-11.7,16.2c-0.3,0.2-0.6,0.4-1,0.6c-2.9-5.5-3.9-11.9-2.3-18.4
		c1.7-6.9,5.9-12.5,11.5-16c0.4-0.3,0.8-0.5,1.3-0.8C328.7,74.2,329.6,80.7,328.1,87.2z"/>
	<path class="st2" d="M328.1,87.2c-1.7,7-6.1,12.7-11.7,16.2l8.2-33.8c0.4-0.3,0.8-0.5,1.3-0.8C328.7,74.2,329.6,80.7,328.1,87.2z"
		/>
	<path class="st3" d="M334.4,106.1c0,0.1,0,0.2,0,0.2l-0.5,2.4l-5.7,30c-0.2,1.3-1.4,2.3-2.7,2.3h-25c-1.3,0-2.5-1-2.7-2.3l-5.7-30
		l-0.4-2.4c0-0.1,0-0.2,0-0.2c-0.1-1.6,1.1-3.1,2.8-3.1h37.3C333.3,103.1,334.6,104.5,334.4,106.1z"/>
	<path class="st3" d="M339.1,100v4.2c0,1.1-0.9,2-2,2h-48.2c-1.1,0-2-0.9-2-2V100c0-1.1,0.9-2,2-2h48.2
		C338.2,98,339.1,98.9,339.1,100z"/>
	<path class="st4" d="M334.4,106.1c0,0.1,0,0.2,0,0.2l-0.5,2.4h-41.9l-0.4-2.4c0-0.1,0-0.2,0-0.2H334.4z"/>
	<path class="st5" d="M339.1,100v4.2c0,1.1-0.9,2-2,2h-2.7c0,0.1,0,0.2,0,0.2l-0.5,2.4l-5.7,30c-0.2,1.3-1.4,2.3-2.7,2.3H313V98
		h24.1C338.2,98,339.1,98.9,339.1,100z"/>
</g>
</svg>
