<?xml version="1.0" encoding="UTF-8"?>
<svg width="2193px" height="26px" viewBox="0 0 2193 26" version="1.1" xmlns="http://www.w3.org/2000/svg" xmlns:xlink="http://www.w3.org/1999/xlink">
    <!-- Generator: Sketch 63.1 (92452) - https://sketch.com -->
    <title>wavy-border-bottom</title>
    <desc>Created with Sketch.</desc>
    <g id="Page-1" stroke="none" stroke-width="1" fill="none" fill-rule="evenodd">
        <g id="wavy-border-bottom" fill="#EDF8FB" fill-rule="nonzero">
            <path d="M1737.14015,-1.54543045e-13 L2192.25031,0.0465412533 L2192.25031,8.17170527 L2192.25031,8.17170527 C2168.45733,6.20261722 2138.99971,2.86476286 2126.80943,3 C1964.51159,4.80050797 1834.81474,23.4806742 1737.14015,21.8839061 C1737.13311,21.5580749 1737.12632,21.2347276 1737.11977,20.913864 L1737.11639,21.0657727 L1737.11639,21.0657727 L1737.09912,21.8839061 C1639.42454,23.4806742 1509.72768,4.80050797 1347.42984,3 C1204.75816,1.41722169 1056.6951,23.7609585 904.84459,25 C745.62779,26.2991476 583.042408,6.56582211 453.391837,7.88575089 C200.08908,10.4645409 216.921438,23.1776422 128,23.1776422 C68.7190415,23.1776422 26.0523748,12.8443089 0,8.1776422 L0,8.1776422 L0,0.1776422 L1737.09912,-7.81597009e-14 C1737.10617,0.183674823 1737.11296,0.369836708 1737.11952,0.558485654 C1737.12631,0.369836708 1737.13311,0.183674823 1737.14015,-1.54543045e-13 Z" id="Combined-Shape"></path>
        </g>
    </g>
</svg>