<?xml version="1.0" encoding="UTF-8"?>
<svg width="51px" height="49px" viewBox="0 0 51 49" version="1.1" xmlns="http://www.w3.org/2000/svg" xmlns:xlink="http://www.w3.org/1999/xlink">
    <!-- Generator: Sketch 64 (93537) - https://sketch.com -->
    <title>controls</title>
    <desc>Created with Sketch.</desc>
    <defs>
        <path d="M11.6552734,22.546875 C12.2353516,22.546875 12.6757812,22.1064453 12.6757812,21.5263672 C12.6757812,21.2470703 12.5576172,20.9892578 12.375,20.7958984 L5.0703125,13.6630859 L12.375,6.51953125 C12.5576172,6.32617188 12.6757812,6.06835938 12.6757812,5.7890625 C12.6757812,5.21972656 12.2353516,4.76855469 11.6552734,4.76855469 C11.3652344,4.76855469 11.1289062,4.87597656 10.9355469,5.06933594 L2.93261719,12.8896484 C2.70703125,13.09375 2.58886719,13.3730469 2.58886719,13.6630859 C2.58886719,13.953125 2.70703125,14.2109375 2.93261719,14.4257812 L10.9355469,22.2460938 C11.1289062,22.4394531 11.3652344,22.546875 11.6552734,22.546875 Z" id="path-1"></path>
        <path d="M11.6552734,22.546875 C12.2353516,22.546875 12.6757812,22.1064453 12.6757812,21.5263672 C12.6757812,21.2470703 12.5576172,20.9892578 12.375,20.7958984 L5.0703125,13.6630859 L12.375,6.51953125 C12.5576172,6.32617188 12.6757812,6.06835938 12.6757812,5.7890625 C12.6757812,5.21972656 12.2353516,4.76855469 11.6552734,4.76855469 C11.3652344,4.76855469 11.1289062,4.87597656 10.9355469,5.06933594 L2.93261719,12.8896484 C2.70703125,13.09375 2.58886719,13.3730469 2.58886719,13.6630859 C2.58886719,13.953125 2.70703125,14.2109375 2.93261719,14.4257812 L10.9355469,22.2460938 C11.1289062,22.4394531 11.3652344,22.546875 11.6552734,22.546875 Z" id="path-2"></path>
        <path d="M11.6552734,22.546875 C12.2353516,22.546875 12.6757812,22.1064453 12.6757812,21.5263672 C12.6757812,21.2470703 12.5576172,20.9892578 12.375,20.7958984 L5.0703125,13.6630859 L12.375,6.51953125 C12.5576172,6.32617188 12.6757812,6.06835938 12.6757812,5.7890625 C12.6757812,5.21972656 12.2353516,4.76855469 11.6552734,4.76855469 C11.3652344,4.76855469 11.1289062,4.87597656 10.9355469,5.06933594 L2.93261719,12.8896484 C2.70703125,13.09375 2.58886719,13.3730469 2.58886719,13.6630859 C2.58886719,13.953125 2.70703125,14.2109375 2.93261719,14.4257812 L10.9355469,22.2460938 C11.1289062,22.4394531 11.3652344,22.546875 11.6552734,22.546875 Z" id="path-3"></path>
        <path d="M11.6552734,22.546875 C12.2353516,22.546875 12.6757812,22.1064453 12.6757812,21.5263672 C12.6757812,21.2470703 12.5576172,20.9892578 12.375,20.7958984 L5.0703125,13.6630859 L12.375,6.51953125 C12.5576172,6.32617188 12.6757812,6.06835938 12.6757812,5.7890625 C12.6757812,5.21972656 12.2353516,4.76855469 11.6552734,4.76855469 C11.3652344,4.76855469 11.1289062,4.87597656 10.9355469,5.06933594 L2.93261719,12.8896484 C2.70703125,13.09375 2.58886719,13.3730469 2.58886719,13.6630859 C2.58886719,13.953125 2.70703125,14.2109375 2.93261719,14.4257812 L10.9355469,22.2460938 C11.1289062,22.4394531 11.3652344,22.546875 11.6552734,22.546875 Z" id="path-4"></path>
    </defs>
    <g id="Page-1" stroke="none" stroke-width="1" fill="none" fill-rule="evenodd">
        <g id="controls" transform="translate(-3.000000, -4.000000)" fill-rule="nonzero">
            <g id="right" transform="translate(43.000000, 13.000000) scale(-1, 1) translate(-43.000000, -13.000000) translate(35.000000, 0.000000)">
                <g>
                    <use fill="#000000" xlink:href="#path-1"></use>
                    <use fill="#3E3E3E" xlink:href="#path-1"></use>
                </g>
            </g>
            <g id="left" transform="translate(11.000000, 17.000000) scale(-1, 1) rotate(-180.000000) translate(-11.000000, -17.000000) translate(3.000000, 4.000000)">
                <g>
                    <use fill="#000000" xlink:href="#path-2"></use>
                    <use fill="#3E3E3E" xlink:href="#path-2"></use>
                </g>
            </g>
            <g id="up" transform="translate(13.000000, 47.000000) rotate(90.000000) translate(-13.000000, -47.000000) translate(5.000000, 34.000000)">
                <g>
                    <use fill="#000000" xlink:href="#path-3"></use>
                    <use fill="#3E3E3E" xlink:href="#path-3"></use>
                </g>
            </g>
            <g id="down" transform="translate(45.000000, 47.000000) scale(-1, 1) rotate(-90.000000) translate(-45.000000, -47.000000) translate(37.000000, 34.000000)">
                <g>
                    <use fill="#000000" xlink:href="#path-4"></use>
                    <use fill="#3E3E3E" xlink:href="#path-4"></use>
                </g>
            </g>
        </g>
    </g>
</svg>