<?xml version="1.0" encoding="UTF-8"?>
<svg width="11px" height="9px" viewBox="0 0 11 9" version="1.1" xmlns="http://www.w3.org/2000/svg" xmlns:xlink="http://www.w3.org/1999/xlink">
    <!-- Generator: Sketch 49.3 (51167) - http://www.bohemiancoding.com/sketch -->
    <title>chevron</title>
    <desc>Created with Sketch.</desc>
    <defs></defs>
    <g id="Page-1" stroke="none" stroke-width="1" fill="none" fill-rule="evenodd">
        <g id="chevron" fill="#5E5E5E">
            <path d="M6.15407692,7.01715385 C5.99355601,7.17482064 5.90313245,7.39038288 5.90313245,7.61538462 C5.90313245,7.84038635 5.99355601,8.05594859 6.15407692,8.21361538 C6.48830769,8.54361538 7.03153846,8.54361538 7.36576923,8.21361538 L10.6234615,5.12769231 C10.8671538,4.88738462 11,4.57007692 11,4.23076923 C11,3.89146154 10.8663077,3.57246154 10.6243077,3.33384615 L7.36576923,0.247923077 C7.02928316,-0.0828958398 6.48971684,-0.0828958398 6.15323077,0.247923077 C5.99270985,0.40558987 5.9022863,0.621152107 5.9022863,0.846153846 C5.9022863,1.07115559 5.99270985,1.28671782 6.15323077,1.44438462 L8.25169231,3.38376923 L0.846153846,3.38376923 C0.378835981,3.38376923 0,3.76260521 0,4.22992308 C-1.52655666e-16,4.69724094 0.378835981,5.07607692 0.846153846,5.07607692 L8.25169231,5.07607692 L6.15407692,7.01715385 Z" id="Shape"></path>
        </g>
    </g>
</svg>