<?xml version="1.0" encoding="UTF-8"?>
<svg width="15px" height="11px" viewBox="0 0 15 11" version="1.1" xmlns="http://www.w3.org/2000/svg" xmlns:xlink="http://www.w3.org/1999/xlink">
    <!-- Generator: Sketch 57.1 (83088) - https://sketch.com -->
    <title>to-right-arrow</title>
    <desc>Created with Sketch.</desc>
    <g id="Page-1" stroke="none" stroke-width="1" fill="none" fill-rule="evenodd">
        <g id="Maquette-PE" transform="translate(-189.000000, -1147.000000)" fill="#000000" fill-rule="nonzero">
            <g id="Group-3" transform="translate(189.000000, 975.000000)">
                <g id="Group-2" transform="translate(0.000000, 16.000000)">
                    <g id="to-right-arrow" transform="translate(7.500000, 161.500000) scale(-1, 1) translate(-7.500000, -161.500000) translate(0.000000, 156.000000)">
                        <path d="M13.9285714,4.4 L3.64285714,4.4 L6.11785714,1.859 C6.32892857,1.6423 6.42857143,1.3838 6.42857143,1.1 C6.42857143,0.5588 5.99303571,0 5.35714286,0 C5.07267857,0 4.82464286,0.10615 4.61785714,0.319 L0.354642857,4.6959 C0.178928571,4.8763 0,5.09905 0,5.5 C0,5.90095 0.149464286,6.094 0.346071429,6.29585 L4.61785714,10.681 C4.82464286,10.89385 5.07267857,11 5.35714286,11 C5.99357143,11 6.42857143,10.4412 6.42857143,9.9 C6.42857143,9.6162 6.32892857,9.3577 6.11785714,9.141 L3.64285714,6.6 L13.9285714,6.6 C14.52,6.6 15,6.1072 15,5.5 C15,4.8928 14.52,4.4 13.9285714,4.4 Z" id="Path"></path>
                    </g>
                </g>
            </g>
        </g>
    </g>
</svg>