<?xml version="1.0" encoding="utf-8"?>
<!-- Generator: Adobe Illustrator 22.0.1, SVG Export Plug-In . SVG Version: 6.00 Build 0)  -->
<svg version="1.1" id="picto" xmlns="http://www.w3.org/2000/svg" xmlns:xlink="http://www.w3.org/1999/xlink" x="0px" y="0px"
	 viewBox="0 0 100 76" style="enable-background:new 0 0 100 76;" xml:space="preserve">
<style type="text/css">
	.st0{fill:none;}
	.st1{fill:#AAAAAA;}
</style>
<rect id="Rectangle" x="-5" class="st0" width="100" height="76"/>
<g>
	<path class="st1" d="M48.4,3.3c0.3,0,0.6,0.1,0.8,0.1c1.6,0.2,3.1,0.9,4.4,1.7c2.3,1.5,3.9,3.5,4.9,6c0.9,2.2,1.3,4.5,1.2,6.9
		c-0.1,2.1-0.7,4.1-1.7,5.9c-1.8,3.5-3.7,7.1-5.6,10.6c-1.1,2.1-2.3,4.2-3.4,6.3c-1.6,3-3.1,5.9-4.7,8.9c-0.9,1.8-1.8,3.6-2.9,5.3
		c-0.6,0.9-1.4,1.7-2.2,2.4c-1.4,1.3-3.1,2.2-4.9,2.6c-2.6,0.6-5.1,0.4-7.5-0.6c-1.7-0.7-3.1-1.8-4.3-3.3c-2.7-3.2-3.7-6.9-3.3-11
		c0.2-2.1,0.9-4,1.8-5.8c1.7-3.1,3.3-6.3,5-9.4c1.1-2.1,2.2-4.2,3.3-6.3c1.5-2.9,3-5.9,4.6-8.8c1-1.9,2-3.8,3.1-5.7
		c0.8-1.4,1.9-2.6,3.3-3.5c1.8-1.3,3.7-2.1,5.9-2.3c0.1,0,0.1,0,0.2-0.1C47.2,3.3,47.8,3.3,48.4,3.3z M30.3,27.6
		c-0.5,0.9-0.9,1.6-1.3,2.4c-1.7,3.1-3.3,6.3-4.9,9.4c-0.8,1.5-1.6,3-2,4.7c-1,4.6,0.6,9.7,4.9,12.3c1.8,1.1,3.8,1.7,6,1.2
		c1.5-0.3,2.9-0.7,4.1-1.6c0.9-0.7,1.8-1.4,2.4-2.4c0.8-1.4,1.6-2.8,2.3-4.3c1.8-3.4,3.6-6.9,5.5-10.3c0.2-0.4,0.1-0.6-0.3-0.8
		c-1.4-0.9-2.9-1.8-4.3-2.7c-1.5-1-3-1.9-4.5-2.9c-1.2-0.7-2.4-1.5-3.6-2.2c-0.1-0.1-0.2-0.1-0.3-0.2C33.1,29.3,31.8,28.5,30.3,27.6
		z M48.8,36.2c0.3-0.6,0.7-1.2,0.9-1.7c1.7-3.1,3.3-6.3,5-9.4c0.5-1,1.1-2,1.6-3.1c1.4-3.2,1.5-6.4,0.2-9.6
		c-1.1-2.8-3.1-4.8-5.9-5.8c-2.4-0.9-4.7-0.8-7.1,0.4c-2.3,1.1-3.9,2.9-5,5.1c-1.6,3.1-3.3,6.2-4.9,9.3c-0.7,1.3-1.3,2.5-2,3.8
		c0.6,0.3,1.1,0.7,1.6,1c0.8-1.5,1.6-3.1,2.4-4.6c0.5-0.8,1-1.7,1.5-2.4c0.3-0.4,0.8-0.4,1.2,0c0.7,0.7,0.8,1.2,0.3,2
		c-1.1,2-2.1,4-3.1,5.9c-0.2,0.3-0.1,0.5,0.2,0.7c0.6,0.3,1.2,0.8,1.8,1.1c1.5,0.9,3,1.9,4.5,2.8c1.2,0.7,2.4,1.5,3.6,2.2
		c0.1,0.1,0.2,0.1,0.3,0.2C46.8,34.8,47.8,35.5,48.8,36.2z"/>
	<path class="st1" d="M62.4,73c-0.2-0.1-0.4-0.2-0.6-0.2c-2.5-0.1-5.1-0.4-7.5-1.1c-1.3-0.4-2.7-0.9-3.9-1.5
		c-1.6-0.9-2.6-2.2-2.5-4.2c0.1-3.7,0-7.3,0-11c0-1.6,0.7-2.7,1.9-3.6c1.2-0.8,2.6-1.3,4-1.7c5.6-1.6,11.3-1.5,17-1
		c2.3,0.2,4.6,0.9,6.8,1.7c1.1,0.4,2.1,1,2.9,2c0.5,0.6,0.8,1.3,0.8,2.1c0,4,0,8,0,12c0,1.2-0.6,2.1-1.5,2.9c-1,0.8-2.2,1.2-3.4,1.7
		c-2.9,1.1-5.8,1.3-8.8,1.5c-0.2,0-0.5,0.1-0.7,0.2C65.3,73,63.9,73,62.4,73z M78.8,58.4c-9.5,3.4-18.9,3.4-28.4,0
		c0,2.6,0,5.2,0,7.9c0,0.7,0.3,1.1,0.8,1.4c0.9,0.5,1.8,1,2.7,1.2c2.4,0.5,4.8,1,7.3,1.3c3.5,0.4,7,0.1,10.5-0.5
		c2.1-0.3,4.2-0.8,6.1-1.9c0.4-0.2,0.8-0.7,0.9-1.1c0.2-0.6,0-1.3,0-2c-0.2,0.1-0.3,0.2-0.5,0.2c-1.8,0.6-3.6,1.1-5.3,1.7
		c-0.5,0.2-1.1,0.1-1.4-0.5c-0.5-1-0.2-1.8,1-2.2c1.4-0.4,2.7-0.8,4.1-1.3c0.4-0.1,0.8-0.2,1.1-0.5c0.3-0.3,1-0.2,1-0.9
		C78.8,60.2,78.8,59.3,78.8,58.4z M64.6,58.3c2.8-0.1,5.5-0.3,8.3-0.9c1.7-0.4,3.4-0.7,4.9-1.7c0.2-0.2,0.5-0.3,0.7-0.5
		c0.3-0.3,0.4-0.6,0-0.9c-0.5-0.3-1-0.8-1.5-1c-1.3-0.5-2.7-1.1-4-1.3c-2.7-0.4-5.4-0.7-8.1-0.7c-3.9-0.1-7.8,0.2-11.6,1.6
		c-0.9,0.3-1.7,0.8-2.5,1.3c-0.5,0.3-0.5,0.7,0,1c0.8,0.5,1.5,1.1,2.4,1.3c1.8,0.5,3.6,1,5.4,1.3C60.6,58.1,62.6,58.1,64.6,58.3z"/>
	<path class="st1" d="M67.6,65.8c0,0.7,0.5,1.3,1.2,1.3c0.7,0,1.2-0.6,1.2-1.3c0-0.7-0.6-1.4-1.2-1.4C68.1,64.4,67.6,65,67.6,65.8z"
		/>
	<path class="st1" d="M40.8,16.8c0,0.8-0.6,1.4-1.3,1.4c-0.7,0-1.2-0.6-1.2-1.4c0-0.8,0.5-1.3,1.2-1.3C40.3,15.4,40.8,16,40.8,16.8z
		"/>
	<path class="st1" d="M67.6,65.8c0-0.8,0.6-1.4,1.2-1.4c0.6,0,1.2,0.7,1.2,1.4c0,0.8-0.5,1.3-1.2,1.3C68.1,67.1,67.6,66.5,67.6,65.8
		z"/>
</g>
</svg>
