<svg id="picto" xmlns="http://www.w3.org/2000/svg" width="100" height="76" viewBox="0 0 100 76">
  <rect id="Rectangle" width="100" height="76" fill="none"/>
  <g id="picto-2" data-name="picto" transform="translate(23 3)">
    <path id="Stroke_1" data-name="Stroke 1" d="M0,0V18.785c0,3.845,2.826,6.961,6.312,6.961h7.9c3.487,0,6.312-3.116,6.312-6.961V0" transform="translate(0.437 0.445)" fill="none" stroke="#aaa" stroke-linecap="round" stroke-linejoin="round" stroke-miterlimit="10" stroke-width="3"/>
    <path id="Stroke_3" data-name="Stroke 3" d="M.438,42.968V0" transform="translate(10.225 26.191)" fill="none" stroke="#aaa" stroke-linecap="round" stroke-linejoin="round" stroke-miterlimit="10" stroke-width="3"/>
    <path id="Stroke_5" data-name="Stroke 5" d="M.438,20.324V0" transform="translate(7.443 0.445)" fill="none" stroke="#aaa" stroke-linecap="round" stroke-linejoin="round" stroke-miterlimit="10" stroke-width="3"/>
    <path id="Stroke_7" data-name="Stroke 7" d="M.438,20.324V0" transform="translate(13.572 0.445)" fill="none" stroke="#aaa" stroke-linecap="round" stroke-linejoin="round" stroke-miterlimit="10" stroke-width="3"/>
    <path id="Stroke_9" data-name="Stroke 9" d="M0,68.721V2.292A2.3,2.3,0,0,1,4.1.876C13.364,12.4,15.808,28.067,16.444,36.293a5.182,5.182,0,0,1-5.176,5.569H6.121" transform="translate(37.486 0.438)" fill="none" stroke="#aaa" stroke-linecap="round" stroke-linejoin="round" stroke-miterlimit="10" stroke-width="3"/>
  </g>
</svg>
