<?xml version="1.0" encoding="UTF-8"?>
<svg width="1920px" height="648px" viewBox="0 0 1920 648" version="1.1" xmlns="http://www.w3.org/2000/svg" xmlns:xlink="http://www.w3.org/1999/xlink">
    <!-- Generator: Sketch 61.1 (89650) - https://sketch.com -->
    <title>BG</title>
    <desc>Created with Sketch.</desc>
    <defs>
        <path d="M2001.33962,347.010478 L1995.3448,180.548827 C1994.19746,148.71776 2014.18315,49.5163094 1970.69517,28.9357388 C1928.46151,8.94841347 1824.27449,25.9807172 1776.45136,27.2636958 C1696.5096,29.408841 1616.56883,31.5533637 1536.62707,33.6978865 C1466.64135,35.5759779 1396.59969,37.4540694 1326.58158,36.2924788 C1071.89195,32.0675512 818.679422,-12.3032153 564.9477,3.31849663 C480.251701,8.53258149 396.817874,20.1789895 312.467353,27.2263456 C226.348222,34.4212349 147.913024,23.6046233 63.832407,24.2924891 C22.3741107,24.6311307 21.7165255,58.5058747 11.0518668,88.9182572 C2.17839182,114.22238 -0.245840369,140.37622 0,166.319031 C0.532465754,216.375117 12.5554796,265.989226 19.9596933,315.683638 C32.0671136,396.932726 29.4220505,566.702357 21.4809726,648 L2009,648 C2006.44621,577.11621 2003.89341,417.894268 2001.33962,347.010478" id="path-1"></path>
    </defs>
    <g id="Yuka---Site-Web" stroke="none" stroke-width="1" fill="none" fill-rule="evenodd">
        <g id="2.0-Application-web" transform="translate(0.000000, -771.000000)">
            <g id="Base-de-données" transform="translate(-35.000000, 771.000000)">
                <g id="BG">
                    <mask id="mask-2" fill="white">
                        <use xlink:href="#path-1"></use>
                    </mask>
                    <use id="Fill-1" fill="#EBF7FA" xlink:href="#path-1"></use>
                    <path d="M2195.44448,555.219311 C2015.08953,574.942303 1832.77507,586.604237 1650.20734,594.062349 C1560.16927,597.73976 1462.58966,606.986798 1372.60754,602.178164 C1296.55991,598.114345 1214.83304,592.490583 1138.30044,597.965631 C1042.01178,604.854398 957.219018,640.659061 863.82348,657.028205 C800.058089,668.204173 733.281776,670.143058 667.157322,671.482731 C512.388835,674.617552 357.473089,674.824134 202.684967,672.104344 C163.987691,671.42424 125.298269,670.5612 86.6216093,669.515223 C54.6255258,668.649693 13.9068969,676.475546 14,651.886052 C14.127783,618.434061 60.4441557,581.973562 101.807772,564.06563 C170.555371,534.302872 263.265672,547.873202 345.162372,538.381624 C519.860674,518.13471 639.523002,393.437514 817.103622,392.063619 C860.360968,391.728856 903.401355,399.116033 946.496718,396.735984 C990.089811,394.327933 1032.06405,381.550331 1062.28029,361.489466 C1123.96444,320.536428 1136.22214,252.69847 1212.25309,222.977402 C1257.3649,205.342631 1314.6706,206.01589 1366.5965,212.752209 C1418.52239,219.488528 1468.72931,231.675629 1521.41211,235.357395 C1575.44869,239.134363 1631.02559,233.649359 1680.69158,219.637865 C1720.11533,208.516653 1755.999,192.125731 1797.43232,184.484682 C1836.56646,177.267375 1878.26975,178.320819 1918.78124,181.149501 C2000.09971,186.82802 2074.99481,204.59906 2154.26051,214.587803 C2291.80872,231.921412 2401.98179,314.057714 2406.8403,402.891757 C2409.64408,454.166434 2375.52062,508.954873 2305.19344,534.357629 C2271.83473,546.407837 2233.28079,551.081447 2195.44448,555.219311" id="Fill-4" fill="#E4F0F2" mask="url(#mask-2)"></path>
                    <path d="M179.729483,701.864063 C171.961577,665.322168 227.540139,634.44985 284.073618,625.591021 C340.608079,616.732813 400.252647,622.237738 458.010934,617.504496 C579.349266,607.559594 680.701065,554.015184 798.544575,533.18283 C890.402156,516.943921 987.803755,521.298777 1082.65858,515.019061 C1212.61178,506.415596 1339.05249,477.294788 1447.36155,431.022969 C1513.90743,402.593073 1578.35014,366.597943 1658.11276,360.830819 C1726.94534,355.85464 1793.95053,374.581328 1862.43373,381.210227 C1964.39793,391.07995 2071.25154,374.129004 2170.39908,392.136821 C2292.88861,414.383928 2382.87464,493.935072 2376.70055,574.515129 C2373.13605,621.024294 2335.71466,668.948833 2269.00978,688.565878 C2237.36796,697.870817 2201.90155,700.257321 2167.14667,702.192743 C1578.7378,734.955749 987.260051,674.563112 396.677349,681.333052 C323.472558,682.171838 248.664134,684.249544 180.500876,701.171287" id="Fill-6" fill="#DAE8EA" mask="url(#mask-2)"></path>
                </g>
            </g>
        </g>
    </g>
</svg>