<?xml version="1.0" encoding="utf-8"?>
<!-- Generator: Adobe Illustrator 22.0.1, SVG Export Plug-In . SVG Version: 6.00 Build 0)  -->
<svg version="1.1" id="picto" xmlns="http://www.w3.org/2000/svg" xmlns:xlink="http://www.w3.org/1999/xlink" x="0px" y="0px"
	 viewBox="0 0 100 76" style="enable-background:new 0 0 100 76;" xml:space="preserve">
<style type="text/css">
	.st0{fill:none;}
	.st1{fill:#B2A4D4;}
</style>
<rect id="Rectangle" class="st0" width="100" height="76"/>
<g>
	<path class="st1" d="M48.7,66.9c-0.6,0-1.1,0.5-1.1,1.1s0.5,1.1,1.1,1.1h1.8c0.6,0,1.1-0.5,1.1-1.1s-0.5-1.1-1.1-1.1H48.7z"/>
	<path class="st1" d="M64.8,36.2H52.2c-0.6,0-1.1,0.5-1.1,1.1s0.5,1.1,1.1,1.1h12.7c0.6,0,1.1-0.5,1.1-1.1S65.4,36.2,64.8,36.2
		L64.8,36.2z"/>
	<path class="st1" d="M64.8,40.5H52.2c-0.6,0-1.1,0.5-1.1,1.1s0.5,1.1,1.1,1.1h12.7c0.6,0,1.1-0.5,1.1-1.1S65.4,40.5,64.8,40.5
		L64.8,40.5z"/>
	<path class="st1" d="M64.8,44.8H52.2c-0.6,0-1.1,0.5-1.1,1.1s0.5,1.1,1.1,1.1h12.7c0.6,0,1.1-0.5,1.1-1.1
		C65.9,45.3,65.4,44.8,64.8,44.8L64.8,44.8z"/>
	<path class="st1" d="M64.8,49.1H52.2c-0.6,0-1.1,0.5-1.1,1.1s0.5,1.1,1.1,1.1h12.7c0.6,0,1.1-0.5,1.1-1.1
		C65.9,49.6,65.4,49.1,64.8,49.1L64.8,49.1z"/>
	<path class="st1" d="M64.8,53.4H52.2c-0.6,0-1.1,0.5-1.1,1.1s0.5,1.1,1.1,1.1h12.7c0.6,0,1.1-0.5,1.1-1.1S65.4,53.4,64.8,53.4
		L64.8,53.4z"/>
	<path class="st1" d="M64.8,57.8H52.2c-0.6,0-1.1,0.5-1.1,1.1s0.5,1.1,1.1,1.1h12.7c0.6,0,1.1-0.5,1.1-1.1S65.4,57.8,64.8,57.8
		L64.8,57.8z"/>
	<path class="st1" d="M47.1,36.2H34.4c-0.6,0-1.1,0.5-1.1,1.1s0.5,1.1,1.1,1.1h12.7c0.6,0,1.1-0.5,1.1-1.1S47.7,36.2,47.1,36.2
		L47.1,36.2z"/>
	<path class="st1" d="M47.1,40.5H34.4c-0.6,0-1.1,0.5-1.1,1.1s0.5,1.1,1.1,1.1h12.7c0.6,0,1.1-0.5,1.1-1.1S47.7,40.5,47.1,40.5z"/>
	<path class="st1" d="M47.1,44.8H34.4c-0.6,0-1.1,0.5-1.1,1.1s0.5,1.1,1.1,1.1h12.7c0.6,0,1.1-0.5,1.1-1.1
		C48.1,45.3,47.7,44.8,47.1,44.8z"/>
	<path class="st1" d="M64.8,23.2H52.2c-0.6,0-1.1,0.5-1.1,1.1s0.5,1.1,1.1,1.1h12.7c0.6,0,1.1-0.5,1.1-1.1
		C65.9,23.7,65.4,23.2,64.8,23.2L64.8,23.2z"/>
	<path class="st1" d="M64.8,27.5H52.2c-0.6,0-1.1,0.5-1.1,1.1s0.5,1.1,1.1,1.1h12.7c0.6,0,1.1-0.5,1.1-1.1S65.4,27.5,64.8,27.5
		L64.8,27.5z"/>
	<path class="st1" d="M64.8,31.8H52.2c-0.6,0-1.1,0.5-1.1,1.1s0.5,1.1,1.1,1.1h12.7c0.6,0,1.1-0.5,1.1-1.1
		C65.9,32.3,65.4,31.8,64.8,31.8L64.8,31.8z"/>
	<path class="st1" d="M51.1,19.9c0,0.6,0.5,1.1,1.1,1.1h12.7c0.6,0,1.1-0.5,1.1-1.1s-0.5-1.1-1.1-1.1H52.2
		C51.6,18.9,51.1,19.3,51.1,19.9z"/>
	<path class="st1" d="M47.1,31.8H34.4c-0.6,0-1.1,0.5-1.1,1.1s0.5,1.1,1.1,1.1h12.7c0.6,0,1.1-0.5,1.1-1.1
		C48.1,32.3,47.7,31.8,47.1,31.8z"/>
	<path class="st1" d="M47.1,49.1H34.4c-0.6,0-1.1,0.5-1.1,1.1s0.5,1.1,1.1,1.1h12.7c0.6,0,1.1-0.5,1.1-1.1
		C48.1,49.6,47.7,49.1,47.1,49.1z"/>
	<path class="st1" d="M47.1,53.4H34.4c-0.6,0-1.1,0.5-1.1,1.1s0.5,1.1,1.1,1.1h12.7c0.6,0,1.1-0.5,1.1-1.1S47.7,53.4,47.1,53.4z"/>
	<path class="st1" d="M47.1,57.8H34.4c-0.6,0-1.1,0.5-1.1,1.1s0.5,1.1,1.1,1.1h12.7c0.6,0,1.1-0.5,1.1-1.1S47.7,57.8,47.1,57.8z"/>
	<path class="st1" d="M36.8,26.6c0.5,0.3,1.2,0.1,1.4-0.5l1-1.9h3.1l1,1.9c0.3,0.5,0.9,0.7,1.4,0.5c0.5-0.3,0.7-0.9,0.5-1.4
		l-3.5-6.9c-0.2-0.3-0.5-0.6-0.9-0.6s-0.8,0.2-0.9,0.6l-3.5,6.9C36.1,25.7,36.3,26.3,36.8,26.6z M40.8,21.1l0.5,1h-1L40.8,21.1z"/>
	<path class="st1" d="M34.4,12.7h3.2c0.6,0,1.1-0.5,1.1-1.1s-0.5-1.1-1.1-1.1h-3.2c-0.6,0-1.1,0.5-1.1,1.1S33.8,12.7,34.4,12.7z"/>
	<path class="st1" d="M46.3,14.8h-3.1c-0.6,0-1.1,0.5-1.1,1.1c0,0.6,0.5,1.1,1.1,1.1H46v10.6H35.5V16.9h2.8c0.6,0,1.1-0.5,1.1-1.1
		s-0.5-1.1-1.1-1.1h-3.1c-1,0-1.8,0.8-1.8,1.8v11.1c0,1,0.8,1.8,1.8,1.8h11.1c1,0,1.8-0.8,1.8-1.8v-11
		C48.1,15.6,47.3,14.8,46.3,14.8z"/>
	<path class="st1" d="M69.8,2c-1.4,0-38.5,0-40.3,0c-3.2,0-5.7,2.6-5.7,5.7V68c0,3.2,2.6,5.7,5.7,5.7h40.3c3.2,0,5.7-2.6,5.7-5.7
		V40.3c0-0.6-0.5-1.1-1.1-1.1s-1.1,0.5-1.1,1.1V68c0,2-1.6,3.6-3.6,3.6H29.5c-2,0-3.6-1.6-3.6-3.6V7.7c0-2,1.6-3.6,3.6-3.6h23.1v2.5
		H29.5c-0.6,0-1.2,0.5-1.2,1.2V64c0,0.6,0.5,1.2,1.2,1.2h40.3c0.6,0,1.2-0.5,1.2-1.2V7.7c0-0.6-0.5-1.2-1.2-1.2h-5.3V4.1h5.3
		c2,0,3.6,1.6,3.6,3.6v27.7c0,0.6,0.5,1.1,1.1,1.1s1.1-0.5,1.1-1.1V7.7C75.5,4.6,73,2,69.8,2L69.8,2z M54.6,4.1h7.8v9.7l-2.8-2
		c-0.6-0.4-1.4-0.4-2.1,0l-2.8,2C54.6,12.8,54.6,5.1,54.6,4.1L54.6,4.1z M68.9,8.6V63H30.4V8.6h22.1v5.8c0,0.7,0.4,1.3,1,1.6
		s1.3,0.3,1.9-0.1l3.2-2.2l3.2,2.2c1.2,0.8,2.8,0,2.8-1.5V8.6H68.9z"/>
</g>
</svg>
