<?xml version="1.0" encoding="utf-8"?>
<!-- Generator: Adobe Illustrator 22.0.1, SVG Export Plug-In . SVG Version: 6.00 Build 0)  -->
<svg version="1.1" id="Calque_1" xmlns="http://www.w3.org/2000/svg" xmlns:xlink="http://www.w3.org/1999/xlink" x="0px" y="0px"
	 viewBox="0 0 514 666" style="enable-background:new 0 0 514 666;" xml:space="preserve">
<style type="text/css">
	.st0{fill:#87B272;}
	.st1{fill:#B2A4D4;stroke:#AA9DD1;stroke-miterlimit:10;}
	.st2{fill:#ED976B;}
	.st3{fill:#C16E49;}
	.st4{opacity:0.1;}
	.st5{fill:#B2A4D4;stroke:#AA9DD1;stroke-width:2;stroke-miterlimit:10;}
	.st6{fill:#B2A4D4;stroke:#AA9DD1;stroke-width:3;stroke-miterlimit:10;}
</style>
<title>carotte</title>
<desc>Created with Sketch.</desc>
<g>
	<g>
		<path class="st0" d="M123.3,159.6l-6.5-10.6c0,0,5.8,290.8,201.9,328.5l-3.5-5.7C153.5,432.9,127.4,217.4,123.3,159.6z"/>
		<path class="st1" d="M135,149.1c-1.1,8.4-5.5,15.5-11.8,20.3c-0.4,0.3-0.7,0.5-1.1,0.8c-4-6-6-13.5-4.9-21.3
			c1.1-8.3,5.4-15.3,11.5-20.1c0.4-0.4,0.9-0.7,1.4-1C134.1,133.8,136,141.3,135,149.1z"/>
		<path class="st1" d="M117.3,160.9c4.3,7.3,5.3,15.6,3.3,23.3c-0.1,0.4-0.2,0.9-0.4,1.3c-6.9-2.2-13-6.9-17-13.7
			c-4.2-7.2-5.2-15.4-3.4-22.9c0.1-0.6,0.3-1.1,0.4-1.7C107.2,149.4,113.3,154.1,117.3,160.9z"/>
		<path class="st1" d="M142.8,176c-5.3,6.6-12.7,10.5-20.5,11.4c-0.4,0-0.9,0.1-1.3,0.1c-0.4-7.3,1.8-14.6,6.7-20.8
			c5.2-6.5,12.5-10.4,20.2-11.4c0.6-0.1,1.1-0.1,1.7-0.2C149.9,162.4,147.7,169.8,142.8,176z"/>
		<path class="st1" d="M117.4,187.5c6.4,5.6,9.9,13.2,10.4,21.1c0,0.4,0.1,0.9,0.1,1.3c-7.3,0-14.5-2.5-20.4-7.7
			c-6.3-5.5-9.8-13-10.4-20.7c-0.1-0.6-0.1-1.1-0.1-1.7C104.3,179.8,111.6,182.3,117.4,187.5z"/>
		<path class="st1" d="M146.5,193.9c-3,7.9-8.8,13.9-16,17.3c-0.4,0.2-0.8,0.4-1.2,0.5c-2.6-6.8-2.8-14.5-0.1-21.8
			c2.9-7.8,8.6-13.7,15.6-17.1c0.5-0.3,1-0.5,1.6-0.7C149,178.8,149.2,186.5,146.5,193.9z"/>
		<path class="st1" d="M124.6,205.8c4.3,7.3,5.3,15.6,3.3,23.3c-0.1,0.4-0.2,0.9-0.4,1.3c-6.9-2.2-13-6.9-17-13.7
			c-4.2-7.2-5.2-15.4-3.4-22.9c0.1-0.6,0.3-1.1,0.4-1.7C114.5,194.4,120.6,199.1,124.6,205.8z"/>
		<path class="st1" d="M150.2,220.9c-5.3,6.6-12.7,10.5-20.5,11.4c-0.4,0-0.9,0.1-1.3,0.1c-0.4-7.3,1.8-14.6,6.7-20.8
			c5.2-6.5,12.5-10.4,20.2-11.4c0.6-0.1,1.1-0.1,1.7-0.2C157.3,207.4,155.1,214.8,150.2,220.9z"/>
		<path class="st1" d="M128.1,231.4c5.6,6.3,8.2,14.3,7.7,22.2c0,0.4-0.1,0.9-0.1,1.3c-7.2-0.9-14.1-4.3-19.3-10.2
			c-5.5-6.2-8.1-14.1-7.8-21.8c0-0.6,0.1-1.1,0.1-1.7C115.9,222.1,122.9,225.5,128.1,231.4z"/>
		<path class="st1" d="M156.1,241.3c-3.9,7.5-10.5,12.7-18,15.1c-0.4,0.1-0.8,0.3-1.3,0.4c-1.8-7-1-14.7,2.6-21.7
			c3.9-7.4,10.3-12.6,17.6-15c0.5-0.2,1.1-0.4,1.6-0.5C160.4,226.6,159.7,234.3,156.1,241.3z"/>
		<path class="st1" d="M135.6,248.4c4.3,7.3,5.3,15.6,3.3,23.3c-0.1,0.4-0.2,0.9-0.4,1.3c-6.9-2.2-13-6.9-17-13.7
			c-4.2-7.2-5.2-15.4-3.4-22.9c0.1-0.6,0.3-1.1,0.4-1.7C125.5,237,131.6,241.7,135.6,248.4z"/>
		<path class="st1" d="M161.2,263.5c-5.3,6.6-12.7,10.5-20.5,11.4c-0.4,0-0.9,0.1-1.3,0.1c-0.4-7.3,1.8-14.6,6.7-20.8
			c5.2-6.5,12.5-10.4,20.2-11.4c0.6-0.1,1.1-0.1,1.7-0.2C168.3,250,166.1,257.4,161.2,263.5z"/>
		<path class="st1" d="M127.9,267.7c7.6,3.7,13.1,10.1,15.7,17.5c0.1,0.4,0.3,0.8,0.4,1.3c-7,2-14.7,1.5-21.7-1.9
			c-7.5-3.6-12.9-9.9-15.6-17.1c-0.2-0.5-0.4-1.1-0.6-1.6C113.1,263.9,120.8,264.3,127.9,267.7z"/>
		<path class="st1" d="M157.5,266.1c-0.7,8.4-4.8,15.8-10.7,20.9c-0.3,0.3-0.7,0.6-1,0.8c-4.3-5.8-6.6-13.2-6-21
			c0.7-8.3,4.6-15.6,10.4-20.6c0.4-0.4,0.9-0.7,1.3-1.1C155.9,250.9,158.2,258.3,157.5,266.1z"/>
		<path class="st1" d="M140.3,282.8c6.5,5.4,10.3,12.9,11,20.7c0,0.4,0.1,0.9,0.1,1.3c-7.3,0.2-14.6-2.1-20.6-7.1
			c-6.4-5.3-10.1-12.7-11-20.4c-0.1-0.6-0.1-1.1-0.2-1.7C126.9,275.5,134.3,277.9,140.3,282.8z"/>
		<path class="st1" d="M170.6,292.5c-5.3,6.6-12.7,10.5-20.5,11.4c-0.4,0-0.9,0.1-1.3,0.1c-0.4-7.3,1.8-14.6,6.7-20.8
			c5.2-6.5,12.5-10.4,20.2-11.4c0.6-0.1,1.1-0.1,1.7-0.2C177.6,278.9,175.5,286.3,170.6,292.5z"/>
		<path class="st1" d="M142.2,294.9c6.8,5.1,10.8,12.5,11.9,20.2c0.1,0.4,0.1,0.9,0.2,1.3c-7.2,0.6-14.7-1.4-20.9-6.2
			c-6.6-5-10.7-12.2-11.9-19.9c-0.1-0.6-0.2-1.1-0.2-1.7C128.5,288.2,136,290.2,142.2,294.9z"/>
		<path class="st1" d="M171.6,299.1c-2.4,8.1-7.8,14.5-14.7,18.4c-0.4,0.2-0.8,0.4-1.2,0.6c-3.1-6.6-3.9-14.2-1.7-21.8
			c2.3-8,7.6-14.3,14.3-18.2c0.5-0.3,1-0.6,1.5-0.8C173,283.9,173.8,291.6,171.6,299.1z"/>
		<path class="st1" d="M156,306.8c4.3,7.3,5.3,15.6,3.3,23.3c-0.1,0.4-0.2,0.9-0.4,1.3c-6.9-2.2-13-6.9-17-13.7
			c-4.2-7.2-5.2-15.4-3.4-22.9c0.1-0.6,0.3-1.1,0.4-1.7C145.9,295.3,152,300,156,306.8z"/>
		<path class="st1" d="M181.6,321.9c-5.3,6.6-12.7,10.5-20.5,11.4c-0.4,0-0.9,0.1-1.3,0.1c-0.4-7.3,1.8-14.6,6.7-20.8
			c5.2-6.5,12.5-10.4,20.2-11.4c0.6-0.1,1.1-0.1,1.7-0.2C188.6,308.3,186.4,315.7,181.6,321.9z"/>
		<path class="st1" d="M147.4,323c7.6,3.7,13,10.1,15.6,17.5c0.1,0.4,0.3,0.8,0.4,1.3c-7,1.9-14.7,1.4-21.7-2
			c-7.5-3.7-12.8-9.9-15.5-17.2c-0.2-0.5-0.4-1.1-0.6-1.6C132.7,319.1,140.4,319.6,147.4,323z"/>
		<path class="st1" d="M177.1,321.5c-0.7,8.4-4.8,15.8-10.8,20.9c-0.3,0.3-0.7,0.6-1,0.8c-4.3-5.8-6.6-13.2-5.9-21
			c0.7-8.3,4.7-15.5,10.5-20.6c0.4-0.4,0.9-0.7,1.3-1.1C175.5,306.3,177.8,313.7,177.1,321.5z"/>
		<path class="st1" d="M165.9,324.8c4.3,7.3,5.3,15.6,3.3,23.3c-0.1,0.4-0.2,0.9-0.4,1.3c-6.9-2.2-13-6.9-17-13.7
			c-4.2-7.2-5.2-15.4-3.4-22.9c0.1-0.6,0.3-1.1,0.4-1.7C155.8,313.4,161.9,318.1,165.9,324.8z"/>
		<path class="st1" d="M191.5,339.9c-5.3,6.6-12.7,10.5-20.5,11.4c-0.4,0-0.9,0.1-1.3,0.1c-0.4-7.3,1.8-14.6,6.7-20.8
			c5.2-6.5,12.5-10.4,20.2-11.4c0.6-0.1,1.1-0.1,1.7-0.2C198.5,326.4,196.3,333.8,191.5,339.9z"/>
		<path class="st1" d="M158.9,341.1c7,4.8,11.4,11.9,12.9,19.6c0.1,0.4,0.2,0.9,0.2,1.3c-7.2,0.9-14.7-0.7-21.2-5.1
			c-6.9-4.7-11.3-11.7-12.8-19.3c-0.1-0.6-0.2-1.1-0.3-1.7C144.9,335.1,152.4,336.7,158.9,341.1z"/>
		<path class="st1" d="M188.4,343.9c-2,8.2-7.1,14.9-13.7,19.1c-0.4,0.2-0.8,0.5-1.1,0.7c-3.4-6.4-4.6-14-2.8-21.7
			c1.9-8.1,6.9-14.7,13.4-18.8c0.5-0.3,1-0.6,1.5-0.9C189.1,328.7,190.3,336.3,188.4,343.9z"/>
	</g>
	<g>
		<path class="st0" d="M389.2,147.3l6.5-10.6c0,0-5.8,290.8-201.9,328.5l3.5-5.7C359,420.6,385.1,205,389.2,147.3z"/>
		<path class="st1" d="M377.5,136.8c1.1,8.4,5.5,15.5,11.8,20.3c0.4,0.3,0.7,0.5,1.1,0.8c4-6,6-13.5,4.9-21.3
			c-1.1-8.3-5.4-15.3-11.5-20.1c-0.4-0.4-0.9-0.7-1.4-1C378.4,121.5,376.5,129,377.5,136.8z"/>
		<path class="st1" d="M395.2,148.6c-4.3,7.3-5.3,15.6-3.3,23.3c0.1,0.4,0.2,0.9,0.4,1.3c6.9-2.2,13-6.9,17-13.7
			c4.2-7.2,5.2-15.4,3.4-22.9c-0.1-0.6-0.3-1.1-0.4-1.7C405.3,137.1,399.2,141.8,395.2,148.6z"/>
		<path class="st1" d="M369.6,163.6c5.3,6.6,12.7,10.5,20.5,11.4c0.4,0,0.9,0.1,1.3,0.1c0.4-7.3-1.8-14.6-6.7-20.8
			c-5.2-6.5-12.5-10.4-20.2-11.4c-0.6-0.1-1.1-0.1-1.7-0.2C362.6,150.1,364.8,157.5,369.6,163.6z"/>
		<path class="st1" d="M395.1,175.2c-6.4,5.6-9.9,13.2-10.4,21.1c0,0.4-0.1,0.9-0.1,1.3c7.3,0,14.5-2.5,20.4-7.7
			c6.3-5.5,9.8-13,10.4-20.7c0.1-0.6,0.1-1.1,0.1-1.7C408.2,167.5,400.9,170,395.1,175.2z"/>
		<path class="st1" d="M366,181.6c3,7.9,8.8,13.9,16,17.3c0.4,0.2,0.8,0.4,1.2,0.5c2.6-6.8,2.8-14.5,0.1-21.8
			c-2.9-7.8-8.6-13.7-15.6-17.1c-0.5-0.3-1-0.5-1.6-0.7C363.5,166.5,363.3,174.2,366,181.6z"/>
		<path class="st1" d="M387.9,193.5c-4.3,7.3-5.3,15.6-3.3,23.3c0.1,0.4,0.2,0.9,0.4,1.3c6.9-2.2,13-6.9,17-13.7
			c4.2-7.2,5.2-15.4,3.4-22.9c-0.1-0.6-0.3-1.1-0.4-1.7C398,182.1,391.8,186.7,387.9,193.5z"/>
		<path class="st1" d="M362.3,208.6c5.3,6.6,12.7,10.5,20.5,11.4c0.4,0,0.9,0.1,1.3,0.1c0.4-7.3-1.8-14.6-6.7-20.8
			c-5.2-6.5-12.5-10.4-20.2-11.4c-0.6-0.1-1.1-0.1-1.7-0.2C355.2,195.1,357.4,202.5,362.3,208.6z"/>
		<path class="st1" d="M384.4,219.1c-5.6,6.3-8.2,14.3-7.7,22.2c0,0.4,0.1,0.9,0.1,1.3c7.2-0.9,14.1-4.3,19.3-10.2
			c5.5-6.2,8.1-14.1,7.8-21.8c0-0.6-0.1-1.1-0.1-1.7C396.6,209.8,389.6,213.2,384.4,219.1z"/>
		<path class="st1" d="M356.4,229c3.9,7.5,10.5,12.7,18,15.1c0.4,0.1,0.8,0.3,1.3,0.4c1.8-7,1-14.7-2.6-21.7
			c-3.9-7.4-10.3-12.6-17.6-15c-0.5-0.2-1.1-0.4-1.6-0.5C352.1,214.3,352.8,222,356.4,229z"/>
		<path class="st1" d="M376.9,236.1c-4.3,7.3-5.3,15.6-3.3,23.3c0.1,0.4,0.2,0.9,0.4,1.3c6.9-2.2,13-6.9,17-13.7
			c4.2-7.2,5.2-15.4,3.4-22.9c-0.1-0.6-0.3-1.1-0.4-1.7C387,224.7,380.8,229.4,376.9,236.1z"/>
		<path class="st1" d="M351.3,251.2c5.3,6.6,12.7,10.5,20.5,11.4c0.4,0,0.9,0.1,1.3,0.1c0.4-7.3-1.8-14.6-6.7-20.8
			c-5.2-6.5-12.5-10.4-20.2-11.4c-0.6-0.1-1.1-0.1-1.7-0.2C344.2,237.7,346.4,245.1,351.3,251.2z"/>
		<path class="st1" d="M384.6,255.4c-7.6,3.7-13.1,10.1-15.7,17.5c-0.1,0.4-0.3,0.8-0.4,1.3c7,2,14.7,1.5,21.7-1.9
			c7.5-3.6,12.9-9.9,15.6-17.1c0.2-0.5,0.4-1.1,0.6-1.6C399.4,251.6,391.7,252,384.6,255.4z"/>
		<path class="st1" d="M355,253.8c0.7,8.4,4.8,15.8,10.7,20.9c0.3,0.3,0.7,0.6,1,0.8c4.3-5.8,6.6-13.2,6-21
			c-0.7-8.3-4.6-15.6-10.4-20.6c-0.4-0.4-0.9-0.7-1.3-1.1C356.6,238.6,354.3,246,355,253.8z"/>
		<path class="st1" d="M372.2,270.5c-6.5,5.4-10.3,12.9-11,20.7c0,0.4-0.1,0.9-0.1,1.3c7.3,0.2,14.6-2.1,20.6-7.1
			c6.4-5.3,10.1-12.7,11-20.4c0.1-0.6,0.1-1.1,0.2-1.7C385.6,263.2,378.2,265.5,372.2,270.5z"/>
		<path class="st1" d="M341.9,280.2c5.3,6.6,12.7,10.5,20.5,11.4c0.4,0,0.9,0.1,1.3,0.1c0.4-7.3-1.8-14.6-6.7-20.8
			c-5.2-6.5-12.5-10.4-20.2-11.4c-0.6-0.1-1.1-0.1-1.7-0.2C334.9,266.6,337,274,341.9,280.2z"/>
		<path class="st1" d="M370.3,282.6c-6.8,5.1-10.8,12.5-11.9,20.2c-0.1,0.4-0.1,0.9-0.2,1.3c7.2,0.6,14.7-1.4,20.9-6.2
			c6.6-5,10.7-12.2,11.9-19.9c0.1-0.6,0.2-1.1,0.2-1.7C383.9,275.9,376.5,277.9,370.3,282.6z"/>
		<path class="st1" d="M340.9,286.8c2.4,8.1,7.8,14.5,14.7,18.4c0.4,0.2,0.8,0.4,1.2,0.6c3.1-6.6,3.9-14.2,1.7-21.8
			c-2.3-8-7.6-14.3-14.3-18.2c-0.5-0.3-1-0.6-1.5-0.8C339.4,271.6,338.7,279.3,340.9,286.8z"/>
		<path class="st1" d="M356.5,294.5c-4.3,7.3-5.3,15.6-3.3,23.3c0.1,0.4,0.2,0.9,0.4,1.3c6.9-2.2,13-6.9,17-13.7
			c4.2-7.2,5.2-15.4,3.4-22.9c-0.1-0.6-0.3-1.1-0.4-1.7C366.6,283,360.5,287.7,356.5,294.5z"/>
		<path class="st1" d="M330.9,309.6c5.3,6.6,12.7,10.5,20.5,11.4c0.4,0,0.9,0.1,1.3,0.1c0.4-7.3-1.8-14.6-6.7-20.8
			c-5.2-6.5-12.5-10.4-20.2-11.4c-0.6-0.1-1.1-0.1-1.7-0.2C323.9,296,326,303.4,330.9,309.6z"/>
		<path class="st1" d="M365,310.7c-7.6,3.7-13,10.1-15.6,17.5c-0.1,0.4-0.3,0.8-0.4,1.3c7,1.9,14.7,1.4,21.7-2
			c7.5-3.7,12.8-9.9,15.5-17.2c0.2-0.5,0.4-1.1,0.6-1.6C379.8,306.8,372.1,307.3,365,310.7z"/>
		<path class="st1" d="M335.4,309.2c0.7,8.4,4.8,15.8,10.8,20.9c0.3,0.3,0.7,0.6,1,0.8c4.3-5.8,6.6-13.2,5.9-21
			c-0.7-8.3-4.7-15.5-10.5-20.6c-0.4-0.4-0.9-0.7-1.3-1.1C337,294,334.7,301.4,335.4,309.2z"/>
		<path class="st1" d="M346.6,312.5c-4.3,7.3-5.3,15.6-3.3,23.3c0.1,0.4,0.2,0.9,0.4,1.3c6.9-2.2,13-6.9,17-13.7
			c4.2-7.2,5.2-15.4,3.4-22.9c-0.1-0.6-0.3-1.1-0.4-1.7C356.7,301.1,350.6,305.8,346.6,312.5z"/>
		<path class="st1" d="M321,327.6c5.3,6.6,12.7,10.5,20.5,11.4c0.4,0,0.9,0.1,1.3,0.1c0.4-7.3-1.8-14.6-6.7-20.8
			C331,311.9,323.7,308,316,307c-0.6-0.1-1.1-0.1-1.7-0.2C314,314.1,316.1,321.5,321,327.6z"/>
		<path class="st1" d="M353.6,328.8c-7,4.8-11.4,11.9-12.9,19.6c-0.1,0.4-0.2,0.9-0.2,1.3c7.2,0.9,14.7-0.7,21.2-5.1
			c6.9-4.7,11.3-11.7,12.8-19.3c0.1-0.6,0.2-1.1,0.3-1.7C367.6,322.8,360.1,324.4,353.6,328.8z"/>
		<path class="st1" d="M324,331.6c2,8.2,7.1,14.9,13.7,19.1c0.4,0.2,0.8,0.5,1.1,0.7c3.4-6.4,4.6-14,2.8-21.7
			c-1.9-8.1-6.9-14.7-13.4-18.8c-0.5-0.3-1-0.6-1.5-0.9C323.4,316.4,322.2,324,324,331.6z"/>
	</g>
	<g>
		<path class="st0" d="M316.3,92.6l2.6-12.2c0,0,92.1,275.9-80.1,377.2l1.4-6.5C379.5,360.3,331.8,148.4,316.3,92.6z"/>
		<path class="st1" d="M301.8,86.6c3.9,7.5,10.4,12.8,17.9,15.2c0.4,0.1,0.8,0.3,1.3,0.4c1.8-7,1.1-14.7-2.5-21.7
			c-3.8-7.4-10.2-12.6-17.5-15.1c-0.5-0.2-1.1-0.4-1.6-0.5C297.5,72,298.2,79.6,301.8,86.6z"/>
		<path class="st1" d="M322.4,91.8c-1.6,8.3,0.3,16.5,4.7,23c0.2,0.4,0.5,0.7,0.8,1.1c5.8-4.4,10-10.9,11.4-18.6
			c1.6-8.2-0.2-16.2-4.4-22.7c-0.3-0.5-0.6-1-1-1.4C328.1,77.6,323.9,84.1,322.4,91.8z"/>
		<path class="st1" d="M303.4,114.6c7.2,4.5,15.5,5.6,23.2,3.9c0.4-0.1,0.9-0.2,1.3-0.3c-2.1-7-6.6-13.2-13.3-17.3
			c-7.1-4.4-15.2-5.6-22.8-3.9c-0.6,0.1-1.1,0.3-1.7,0.4C292.2,104.2,296.7,110.4,303.4,114.6z"/>
		<path class="st1" d="M331.2,117c-4.1,7.4-4.9,15.8-2.8,23.3c0.1,0.4,0.2,0.9,0.4,1.3c6.8-2.4,12.9-7.2,16.7-14.1
			c4.1-7.3,4.9-15.5,2.9-23c-0.1-0.6-0.3-1.1-0.5-1.6C341,105.3,335,110.1,331.2,117z"/>
		<path class="st1" d="M306,132.7c5.4,6.5,13,10.2,20.8,10.9c0.4,0,0.9,0.1,1.3,0.1c0.2-7.3-2.2-14.6-7.2-20.6
			c-5.4-6.4-12.7-10.1-20.4-10.9c-0.6-0.1-1.1-0.1-1.7-0.1C298.6,119.3,301,126.7,306,132.7z"/>
		<path class="st1" d="M330.6,136.6c-1.6,8.3,0.3,16.5,4.7,23c0.2,0.4,0.5,0.7,0.8,1.1c5.8-4.4,10-10.9,11.4-18.6
			c1.6-8.2-0.2-16.2-4.4-22.7c-0.3-0.5-0.6-1-1-1.4C336.3,122.4,332.1,128.9,330.6,136.6z"/>
		<path class="st1" d="M311.5,159.4c7.2,4.5,15.5,5.6,23.2,3.9c0.4-0.1,0.9-0.2,1.3-0.3c-2.1-7-6.6-13.2-13.3-17.3
			c-7.1-4.4-15.2-5.6-22.8-3.9c-0.6,0.1-1.1,0.3-1.7,0.4C300.3,149,304.9,155.3,311.5,159.4z"/>
		<path class="st1" d="M335.9,161.8c-3.2,7.9-2.9,16.2,0.1,23.5c0.2,0.4,0.3,0.8,0.5,1.2c6.5-3.2,11.9-8.8,14.8-16
			c3.1-7.7,2.9-16,0-23.1c-0.2-0.5-0.4-1.1-0.7-1.6C344.2,149,338.9,154.6,335.9,161.8z"/>
		<path class="st1" d="M312.9,180.6c6.2,5.8,14.2,8.5,22,8.2c0.4,0,0.9,0,1.3-0.1c-0.7-7.2-4-14.2-9.7-19.6
			c-6.1-5.7-13.9-8.4-21.6-8.2c-0.6,0-1.1,0-1.7,0.1C303.9,168.2,307.1,175.2,312.9,180.6z"/>
		<path class="st1" d="M334.5,180.4c-1.6,8.3,0.3,16.5,4.7,23c0.2,0.4,0.5,0.7,0.8,1.1c5.8-4.4,10-10.9,11.4-18.6
			c1.6-8.2-0.2-16.2-4.4-22.7c-0.3-0.5-0.6-1-1-1.4C340.2,166.3,336,172.7,334.5,180.4z"/>
		<path class="st1" d="M315.5,203.2c7.2,4.5,15.5,5.6,23.2,3.9c0.4-0.1,0.9-0.2,1.3-0.3c-2.1-7-6.6-13.2-13.3-17.3
			c-7.1-4.4-15.2-5.6-22.8-3.9c-0.6,0.1-1.1,0.3-1.7,0.4C304.3,192.8,308.8,199.1,315.5,203.2z"/>
		<path class="st1" d="M348.3,196c-6,6-8.9,13.9-8.9,21.7c0,0.4,0,0.9,0,1.3c7.2-0.5,14.3-3.5,19.8-9.1c5.9-5.9,8.8-13.6,8.9-21.3
			c0-0.6,0-1.1,0-1.7C360.9,187.4,353.8,190.5,348.3,196z"/>
		<path class="st1" d="M319.8,204.4c3.5,7.7,9.8,13.3,17.1,16.1c0.4,0.2,0.8,0.3,1.2,0.4c2.1-6.9,1.8-14.6-1.4-21.8
			c-3.4-7.6-9.6-13.1-16.8-15.9c-0.5-0.2-1.1-0.4-1.6-0.6C316.2,189.6,316.5,197.3,319.8,204.4z"/>
		<path class="st1" d="M341.6,214.4c-4.3,7.3-5.3,15.6-3.4,23.2c0.1,0.4,0.2,0.9,0.3,1.3c6.9-2.2,13.1-6.9,17.1-13.6
			c4.3-7.2,5.3-15.3,3.5-22.9c-0.1-0.6-0.3-1.1-0.4-1.7C351.8,203.1,345.6,207.7,341.6,214.4z"/>
		<path class="st1" d="M316.3,233.6c7.2,4.5,15.5,5.6,23.2,3.9c0.4-0.1,0.9-0.2,1.3-0.3c-2.1-7-6.6-13.2-13.3-17.3
			c-7.1-4.4-15.2-5.6-22.8-3.9c-0.6,0.1-1.1,0.3-1.7,0.4C305.1,223.3,309.7,229.5,316.3,233.6z"/>
		<path class="st1" d="M343.8,226.4c-4.6,7.1-6,15.4-4.4,23.1c0.1,0.4,0.2,0.9,0.3,1.3c7-1.9,13.4-6.3,17.7-12.8
			c4.6-7,6-15.1,4.5-22.7c-0.1-0.6-0.2-1.1-0.4-1.7C354.5,215.5,348.1,219.9,343.8,226.4z"/>
		<path class="st1" d="M317.6,240.3c5,6.9,12.2,11.1,20,12.4c0.4,0.1,0.9,0.1,1.3,0.2c0.7-7.2-1.1-14.7-5.7-21.1
			c-4.9-6.8-12-11-19.6-12.3c-0.6-0.1-1.1-0.2-1.7-0.3C311.2,226.4,313,233.9,317.6,240.3z"/>
		<path class="st1" d="M334.9,242.2c-1.6,8.3,0.3,16.5,4.7,23c0.2,0.4,0.5,0.7,0.8,1.1c5.8-4.4,10-10.9,11.4-18.6
			c1.6-8.2-0.2-16.2-4.4-22.7c-0.3-0.5-0.6-1-1-1.4C340.6,228.1,336.4,234.5,334.9,242.2z"/>
		<path class="st1" d="M315.8,265c7.2,4.5,15.5,5.6,23.2,3.9c0.4-0.1,0.9-0.2,1.3-0.3c-2.1-7-6.6-13.2-13.3-17.3
			c-7.1-4.4-15.2-5.6-22.8-3.9c-0.6,0.1-1.1,0.3-1.7,0.4C304.6,254.7,309.2,260.9,315.8,265z"/>
		<path class="st1" d="M348.4,254.7c-5.9,6-8.9,13.9-8.8,21.8c0,0.4,0,0.9,0,1.3c7.2-0.5,14.3-3.6,19.8-9.2c5.8-6,8.8-13.7,8.8-21.4
			c0-0.6,0-1.1,0-1.7C360.9,246,353.9,249.1,348.4,254.7z"/>
		<path class="st1" d="M319.9,263.2c3.5,7.7,9.8,13.3,17.2,16c0.4,0.2,0.8,0.3,1.3,0.4c2.1-6.9,1.8-14.7-1.5-21.8
			c-3.5-7.6-9.6-13.1-16.8-15.9c-0.5-0.2-1.1-0.4-1.6-0.6C316.3,248.3,316.6,256,319.9,263.2z"/>
		<path class="st1" d="M331.6,262.6c-1.6,8.3,0.3,16.5,4.7,23c0.2,0.4,0.5,0.7,0.8,1.1c5.8-4.4,10-10.9,11.4-18.6
			c1.6-8.2-0.2-16.2-4.4-22.7c-0.3-0.5-0.6-1-1-1.4C337.3,248.4,333.1,254.9,331.6,262.6z"/>
		<path class="st1" d="M312.6,285.4c7.2,4.5,15.5,5.6,23.2,3.9c0.4-0.1,0.9-0.2,1.3-0.3c-2.1-7-6.6-13.2-13.3-17.3
			c-7.1-4.4-15.2-5.6-22.8-3.9c-0.6,0.1-1.1,0.3-1.7,0.4C301.4,275,305.9,281.2,312.6,285.4z"/>
		<path class="st1" d="M343.7,275.6c-5,6.9-6.7,15.1-5.6,22.8c0.1,0.4,0.1,0.9,0.2,1.3c7.1-1.6,13.6-5.6,18.3-12
			c4.9-6.7,6.7-14.8,5.6-22.4c-0.1-0.6-0.2-1.1-0.3-1.7C354.8,265.2,348.3,269.2,343.7,275.6z"/>
		<path class="st1" d="M316.7,288.1c4.6,7.1,11.7,11.7,19.3,13.3c0.4,0.1,0.9,0.2,1.3,0.3c1.1-7.2-0.4-14.8-4.7-21.3
			c-4.5-7-11.4-11.5-19-13.3c-0.6-0.1-1.1-0.2-1.7-0.3C311,274,312.5,281.5,316.7,288.1z"/>
	</g>
	<g>
		<path class="st0" d="M182.6,64.7l-3.4-13.3c0,0-73.8,311,104.6,410.4l-1.8-7.1C137,364.6,170.7,127.4,182.6,64.7z"/>
		<path class="st1" d="M196.6,57c-3.4,8.6-9.6,14.9-16.9,18.1c-0.4,0.2-0.8,0.4-1.2,0.5c-2.2-7.6-2-16.2,1.1-24.1
			c3.3-8.5,9.4-14.7,16.5-17.9c0.5-0.3,1.1-0.5,1.6-0.7C200,40.5,199.8,49.1,196.6,57z"/>
		<path class="st1" d="M176.4,64.2c2.1,9.1,0.8,18.2-3.1,25.7c-0.2,0.4-0.4,0.8-0.7,1.3c-6-4.5-10.7-11.3-12.6-19.7
			c-2.1-8.9-0.8-17.9,3-25.4c0.3-0.6,0.6-1.1,0.9-1.6C169.8,49,174.4,55.8,176.4,64.2z"/>
		<path class="st1" d="M196.9,88c-6.9,5.5-15.1,7.3-22.9,5.9c-0.4-0.1-0.9-0.2-1.3-0.3c1.6-7.8,5.8-15,12.1-20.1
			c6.8-5.4,14.8-7.3,22.5-6c0.6,0.1,1.1,0.2,1.7,0.3C207.4,75.7,203.2,83,196.9,88z"/>
		<path class="st1" d="M169.3,92.6c4.6,7.9,5.9,17,4.3,25.5c-0.1,0.5-0.2,1-0.3,1.4c-7-2.2-13.3-7.1-17.6-14.3
			c-4.5-7.7-5.9-16.7-4.4-25.1c0.1-0.6,0.2-1.2,0.4-1.9C158.7,80.5,165,85.4,169.3,92.6z"/>
		<path class="st1" d="M195.4,108.2c-5,7.6-12.3,12.2-20.1,13.5c-0.4,0.1-0.9,0.1-1.3,0.2c-0.7-8,1.2-16.3,5.9-23.3
			c4.9-7.4,12.1-12,19.7-13.5c0.6-0.1,1.1-0.2,1.7-0.3C202,92.9,200.1,101.2,195.4,108.2z"/>
		<path class="st1" d="M171.2,114.3c2.1,9.1,0.8,18.2-3.1,25.7c-0.2,0.4-0.4,0.8-0.7,1.3c-6-4.5-10.7-11.3-12.6-19.7
			c-2.1-8.9-0.8-17.9,3-25.4c0.3-0.6,0.6-1.1,0.9-1.6C164.6,99,169.2,105.9,171.2,114.3z"/>
		<path class="st1" d="M191.7,138c-6.9,5.5-15.1,7.3-22.9,5.9c-0.4-0.1-0.9-0.2-1.3-0.3c1.6-7.8,5.8-15,12.1-20.1
			c6.8-5.4,14.8-7.3,22.5-6c0.6,0.1,1.1,0.2,1.7,0.3C202.2,125.8,198,133,191.7,138z"/>
		<path class="st1" d="M167.5,142.5c3.7,8.4,3.9,17.7,1.4,25.9c-0.1,0.5-0.3,0.9-0.5,1.4c-6.7-3.1-12.4-8.8-15.8-16.6
			c-3.6-8.3-3.9-17.4-1.5-25.5c0.2-0.6,0.4-1.2,0.6-1.8C158.4,129,164.1,134.7,167.5,142.5z"/>
		<path class="st1" d="M191.7,161.5c-5.8,6.8-13.6,10.4-21.4,10.7c-0.4,0-0.9,0-1.3,0c0.2-8,3-16,8.4-22.3
			c5.7-6.7,13.3-10.3,21-10.7c0.6,0,1.1,0,1.7,0C199.9,147.2,197.1,155.2,191.7,161.5z"/>
		<path class="st1" d="M170.1,162.9c2.1,9.1,0.8,18.2-3.1,25.7c-0.2,0.4-0.4,0.8-0.7,1.3c-6-4.5-10.7-11.3-12.6-19.7
			c-2.1-8.9-0.8-17.9,3-25.4c0.3-0.6,0.6-1.1,0.9-1.6C163.5,147.7,168.2,154.5,170.1,162.9z"/>
		<path class="st1" d="M190.6,186.7c-6.9,5.5-15.1,7.3-22.9,5.9c-0.4-0.1-0.9-0.2-1.3-0.3c1.6-7.8,5.8-15,12.1-20.1
			c6.8-5.4,14.8-7.3,22.5-6c0.6,0.1,1.1,0.2,1.7,0.3C201.1,174.4,197,181.6,190.6,186.7z"/>
		<path class="st1" d="M157.4,181.1c6.3,6.2,9.8,14.7,10.3,23.3c0,0.5,0.1,1,0.1,1.5c-7.3,0-14.5-2.8-20.4-8.6
			c-6.2-6.1-9.7-14.4-10.3-22.9c-0.1-0.6-0.1-1.3-0.1-1.9C144.3,172.5,151.5,175.4,157.4,181.1z"/>
		<path class="st1" d="M186.4,188.3c-3,8.8-8.9,15.4-16,19c-0.4,0.2-0.8,0.4-1.2,0.6c-2.6-7.5-2.8-16,0-24.1
			c2.9-8.6,8.7-15.2,15.7-18.8c0.5-0.3,1-0.5,1.6-0.8C189,171.7,189.2,180.2,186.4,188.3z"/>
		<path class="st1" d="M165.3,201c4.8,7.7,6.3,16.8,5,25.4c-0.1,0.5-0.2,1-0.3,1.4c-7-1.9-13.5-6.6-17.9-13.8
			c-4.7-7.6-6.3-16.5-5-25c0.1-0.6,0.2-1.3,0.3-1.9C154.4,189.1,160.8,193.8,165.3,201z"/>
		<path class="st1" d="M191.7,220.3c-6.9,5.5-15.1,7.3-22.9,5.9c-0.4-0.1-0.9-0.2-1.3-0.3c1.6-7.8,5.8-15,12.1-20.1
			c6.8-5.4,14.8-7.3,22.5-6c0.6,0.1,1.1,0.2,1.7,0.3C202.2,208.1,198.1,215.3,191.7,220.3z"/>
		<path class="st1" d="M163.8,214.4c5.1,7.5,7,16.5,5.9,25.1c-0.1,0.5-0.1,1-0.2,1.4c-7.1-1.6-13.7-6-18.5-12.9
			c-5-7.4-6.9-16.2-6-24.7c0.1-0.6,0.1-1.3,0.2-1.9C152.5,203.1,159.1,207.4,163.8,214.4z"/>
		<path class="st1" d="M190.9,227.7c-4.5,7.9-11.5,13.1-19.1,15.1c-0.4,0.1-0.9,0.2-1.3,0.3c-1.2-7.9,0.1-16.3,4.3-23.7
			c4.4-7.8,11.2-13,18.7-15c0.5-0.2,1.1-0.3,1.7-0.4C196.4,212,195.1,220.4,190.9,227.7z"/>
		<path class="st1" d="M173.8,231.1c2.1,9.1,0.8,18.2-3.1,25.7c-0.2,0.4-0.4,0.8-0.7,1.3c-6-4.5-10.7-11.3-12.6-19.7
			c-2.1-8.9-0.8-17.9,3-25.4c0.3-0.6,0.6-1.1,0.9-1.6C167.2,215.9,171.8,222.7,173.8,231.1z"/>
		<path class="st1" d="M194.3,254.9c-6.9,5.5-15.1,7.3-22.9,5.9c-0.4-0.1-0.9-0.2-1.3-0.3c1.6-7.8,5.8-15,12.1-20.1
			c6.8-5.4,14.8-7.3,22.5-6c0.6,0.1,1.1,0.2,1.7,0.3C204.8,242.6,200.7,249.9,194.3,254.9z"/>
		<path class="st1" d="M161.1,245.8c6.3,6.2,9.8,14.7,10.2,23.4c0,0.5,0,1,0.1,1.5c-7.3,0-14.5-2.9-20.4-8.7
			c-6.2-6.1-9.7-14.4-10.2-23c-0.1-0.6-0.1-1.3-0.1-1.9C148,237.2,155.3,240.1,161.1,245.8z"/>
		<path class="st1" d="M190.1,253.1c-3,8.8-8.9,15.3-16.1,18.9c-0.4,0.2-0.8,0.4-1.2,0.6c-2.6-7.5-2.7-16,0.1-24.1
			c3-8.6,8.7-15.1,15.8-18.7c0.5-0.3,1-0.5,1.6-0.8C192.7,236.5,192.9,245,190.1,253.1z"/>
		<path class="st1" d="M178.4,253.3c2.1,9.1,0.8,18.2-3.1,25.7c-0.2,0.4-0.4,0.8-0.7,1.3c-6-4.5-10.7-11.3-12.6-19.7
			c-2.1-8.9-0.8-17.9,3-25.4c0.3-0.6,0.6-1.1,0.9-1.6C171.8,238.1,176.4,244.9,178.4,253.3z"/>
		<path class="st1" d="M198.9,277.1c-6.9,5.5-15.1,7.3-22.9,5.9c-0.4-0.1-0.9-0.2-1.3-0.3c1.6-7.8,5.8-15,12.1-20.1
			c6.8-5.4,14.8-7.3,22.5-6c0.6,0.1,1.1,0.2,1.7,0.3C209.4,264.8,205.2,272.1,198.9,277.1z"/>
		<path class="st1" d="M167.2,268.5c5.4,7.2,7.7,16.1,7.1,24.8c0,0.5-0.1,1-0.1,1.5c-7.2-1.2-14-5.2-19-11.9
			c-5.3-7.1-7.6-15.8-7.1-24.4c0-0.6,0.1-1.3,0.2-1.9C155.4,257.9,162.2,261.9,167.2,268.5z"/>
		<path class="st1" d="M194.9,280.4c-4.1,8.2-10.9,13.7-18.4,16.1c-0.4,0.1-0.9,0.3-1.3,0.4c-1.5-7.8-0.6-16.3,3.3-23.9
			c4.1-8,10.6-13.5,18.1-16c0.5-0.2,1.1-0.4,1.7-0.5C199.7,264.4,198.7,272.9,194.9,280.4z"/>
	</g>
	<g>
		<path class="st0" d="M278.7,54.9l-1.1-15.5c0,0-124.7,327.4,33.9,478.6l-0.6-8.3C183.7,376.5,256.6,121.6,278.7,54.9z"/>
		<path class="st1" d="M293.9,49.7c-4.8,8.7-11.9,14.2-19.6,16.1c-0.4,0.1-0.9,0.2-1.3,0.3c-0.9-9,0.7-18.4,5.1-26.4
			c4.7-8.6,11.7-14.1,19.2-16c0.6-0.2,1.1-0.3,1.7-0.4C299.9,32.2,298.3,41.6,293.9,49.7z"/>
		<path class="st1" d="M272.7,53c0.6,10.5-2.3,20.4-7.4,27.8c-0.3,0.4-0.6,0.8-0.9,1.2c-5.2-6.3-8.6-15-9.1-24.7
			c-0.6-10.4,2.2-20,7.2-27.4c0.4-0.6,0.7-1.1,1.1-1.6C268.8,34.6,272.2,43.2,272.7,53z"/>
		<path class="st1" d="M288.9,84c-7.7,4.4-16.1,4.6-23.5,1.3c-0.4-0.2-0.8-0.4-1.2-0.6c2.9-8.3,8.2-15.3,15.3-19.4
			c7.6-4.4,15.8-4.6,23.1-1.4c0.5,0.2,1.1,0.5,1.6,0.7C301.3,72.9,296,79.9,288.9,84z"/>
		<path class="st1" d="M261,82.8c3.2,9.8,2.9,20.2-0.1,29.3c-0.2,0.5-0.3,1-0.5,1.5c-6.5-4-11.9-10.9-14.9-19.9
			c-3.1-9.6-3-19.9-0.1-28.8c0.2-0.7,0.4-1.3,0.7-2C252.6,66.9,258,73.8,261,82.8z"/>
		<path class="st1" d="M284.1,106c-6.2,7.2-14.1,10.6-22,10.4c-0.4,0-0.9,0-1.3-0.1c0.7-9,3.9-17.7,9.6-24.4
			c6.1-7.1,13.9-10.5,21.6-10.4c0.6,0,1.1,0,1.7,0.1C293.1,90.6,289.8,99.4,284.1,106z"/>
		<path class="st1" d="M259.3,107.2c0.6,10.5-2.3,20.4-7.4,27.8c-0.3,0.4-0.6,0.8-0.9,1.2c-5.2-6.3-8.6-15-9.1-24.7
			c-0.6-10.4,2.2-20,7.2-27.4c0.4-0.6,0.7-1.1,1.1-1.6C255.3,88.8,258.7,97.4,259.3,107.2z"/>
		<path class="st1" d="M275.4,138.2c-7.7,4.4-16.1,4.6-23.5,1.3c-0.4-0.2-0.8-0.4-1.2-0.6c2.9-8.3,8.2-15.3,15.3-19.4
			c7.6-4.4,15.8-4.6,23.1-1.4c0.5,0.2,1.1,0.5,1.6,0.7C287.8,127.1,282.5,134.1,275.4,138.2z"/>
		<path class="st1" d="M250.9,137.6c2.2,10.2,0.9,20.5-3,29c-0.2,0.5-0.4,1-0.7,1.4c-6.1-5-10.7-12.6-12.8-22.1
			c-2.2-10-1-20.2,2.8-28.6c0.3-0.6,0.6-1.2,0.9-1.8C244.2,120.5,248.9,128.2,250.9,137.6z"/>
		<path class="st1" d="M271.5,164.2c-6.9,6.2-15.1,8.4-22.8,6.9c-0.4-0.1-0.9-0.2-1.3-0.3c1.6-8.8,5.7-17,12-22.7
			c6.8-6.1,14.8-8.3,22.5-6.9c0.6,0.1,1.1,0.2,1.7,0.3C282,150.3,277.9,158.5,271.5,164.2z"/>
		<path class="st1" d="M250.1,160.8c0.6,10.5-2.3,20.4-7.4,27.8c-0.3,0.4-0.6,0.8-0.9,1.2c-5.2-6.3-8.6-15-9.1-24.7
			c-0.6-10.4,2.2-20,7.2-27.4c0.4-0.6,0.7-1.1,1.1-1.6C246.1,142.4,249.5,151.1,250.1,160.8z"/>
		<path class="st1" d="M266.2,191.9c-7.7,4.4-16.1,4.6-23.5,1.3c-0.4-0.2-0.8-0.4-1.2-0.6c2.9-8.3,8.2-15.3,15.3-19.4
			c7.6-4.4,15.8-4.6,23.1-1.4c0.5,0.2,1.1,0.5,1.6,0.7C278.6,180.7,273.3,187.8,266.2,191.9z"/>
		<path class="st1" d="M234.5,178c5.2,8.3,7.2,18.5,6.2,28.2c-0.1,0.5-0.1,1.1-0.2,1.6c-7.1-1.7-13.8-6.5-18.6-14.2
			c-5.1-8.2-7.1-18.2-6.3-27.7c0.1-0.7,0.1-1.4,0.2-2.1C223,165.5,229.7,170.3,234.5,178z"/>
		<path class="st1" d="M261.8,192.7c-4.4,9-11.3,15-18.9,17.3c-0.4,0.1-0.9,0.3-1.3,0.4c-1.3-8.9,0-18.4,4-26.7
			c4.3-8.9,11.1-14.8,18.6-17.2c0.5-0.2,1.1-0.4,1.7-0.5C267.1,174.9,265.9,184.3,261.8,192.7z"/>
		<path class="st1" d="M238.9,201.8c3.4,9.7,3.4,20.1,0.6,29.3c-0.2,0.5-0.3,1-0.5,1.5c-6.6-3.8-12.1-10.5-15.3-19.4
			c-3.4-9.5-3.4-19.8-0.7-28.8c0.2-0.7,0.4-1.3,0.6-2C230.2,186.2,235.7,192.9,238.9,201.8z"/>
		<path class="st1" d="M261.7,229.4c-7.7,4.4-16.1,4.6-23.5,1.3c-0.4-0.2-0.8-0.4-1.2-0.6c2.9-8.3,8.2-15.3,15.3-19.4
			c7.6-4.4,15.8-4.6,23.1-1.4c0.5,0.2,1.1,0.5,1.6,0.7C274,218.2,268.8,225.3,261.7,229.4z"/>
		<path class="st1" d="M235.2,216.3c3.8,9.5,4.1,19.9,1.6,29.2c-0.1,0.5-0.3,1-0.4,1.6c-6.7-3.4-12.5-9.8-16-18.5
			c-3.7-9.3-4.1-19.6-1.7-28.7c0.2-0.7,0.4-1.4,0.6-2C226,201.2,231.8,207.6,235.2,216.3z"/>
		<path class="st1" d="M259.6,237.4c-5.8,7.8-13.5,11.9-21.3,12.3c-0.4,0-0.9,0-1.3,0c0.2-9,2.9-18,8.2-25.2
			c5.7-7.6,13.2-11.8,20.9-12.3c0.6-0.1,1.1-0.1,1.7-0.1C267.7,221.3,265,230.3,259.6,237.4z"/>
		<path class="st1" d="M242.2,237.2c0.6,10.5-2.3,20.4-7.4,27.8c-0.3,0.4-0.6,0.8-0.9,1.2c-5.2-6.3-8.6-15-9.1-24.7
			c-0.6-10.4,2.2-20,7.2-27.4c0.4-0.6,0.7-1.1,1.1-1.6C238.3,218.8,241.7,227.5,242.2,237.2z"/>
		<path class="st1" d="M258.4,268.3c-7.7,4.4-16.1,4.6-23.5,1.3c-0.4-0.2-0.8-0.4-1.2-0.6c2.9-8.3,8.2-15.3,15.3-19.4
			c7.6-4.4,15.8-4.6,23.1-1.4c0.5,0.2,1.1,0.5,1.6,0.7C270.7,257.1,265.5,264.2,258.4,268.3z"/>
		<path class="st1" d="M227.3,250.6c5.2,8.4,7.1,18.5,6.1,28.3c-0.1,0.5-0.1,1.1-0.2,1.6c-7.1-1.7-13.8-6.6-18.6-14.3
			c-5.1-8.2-7.1-18.2-6.2-27.8c0.1-0.7,0.1-1.4,0.2-2.1C215.9,238,222.6,242.8,227.3,250.6z"/>
		<path class="st1" d="M254.6,265.4c-4.4,9-11.4,14.9-19,17.2c-0.4,0.1-0.9,0.3-1.3,0.4c-1.3-8.9,0-18.4,4.1-26.7
			c4.4-8.9,11.1-14.7,18.6-17.1c0.5-0.2,1.1-0.3,1.7-0.5C259.9,247.6,258.7,257,254.6,265.4z"/>
		<path class="st1" d="M243,262.8c0.6,10.5-2.3,20.4-7.4,27.8c-0.3,0.4-0.6,0.8-0.9,1.2c-5.2-6.3-8.6-15-9.1-24.7
			c-0.6-10.4,2.2-20,7.2-27.4c0.4-0.6,0.7-1.1,1.1-1.6C239.1,244.5,242.5,253.1,243,262.8z"/>
		<path class="st1" d="M259.2,293.9c-7.7,4.4-16.1,4.6-23.5,1.3c-0.4-0.2-0.8-0.4-1.2-0.6c2.9-8.3,8.2-15.3,15.3-19.4
			c7.6-4.4,15.8-4.6,23.1-1.4c0.5,0.2,1.1,0.5,1.6,0.7C271.5,282.8,266.3,289.8,259.2,293.9z"/>
		<path class="st1" d="M229.5,277.1c4.1,9.2,4.9,19.6,2.8,29.1c-0.1,0.5-0.2,1.1-0.4,1.6c-6.8-3-12.9-9-16.7-17.5
			c-4.1-9.1-4.9-19.3-2.9-28.6c0.1-0.7,0.3-1.4,0.5-2.1C219.7,262.6,225.7,268.6,229.5,277.1z"/>
		<path class="st1" d="M254.7,296.7c-5.4,8.1-13,12.7-20.8,13.6c-0.4,0-0.9,0.1-1.3,0.1c-0.2-9,2.2-18.2,7.2-25.7
			c5.4-8,12.7-12.5,20.4-13.5c0.6-0.1,1.1-0.1,1.7-0.2C262.1,280,259.7,289.2,254.7,296.7z"/>
	</g>
	<path class="st2" d="M379,438.2c-0.1,0.5-0.2,1-0.2,1.4l-2.6,13.7l-32.6,172.8c-1.4,7.6-8.1,13.1-15.8,13.1H183.2
		c-7.7,0-14.4-5.5-15.7-13.1l-32.7-172.8l-2.6-13.7c-0.1-0.5-0.2-1-0.2-1.4c-0.9-9.3,6.5-17.6,16-17.6H363
		C372.6,420.6,379.9,428.9,379,438.2z"/>
	<path class="st2" d="M406.2,402.7v23.9c0,6.4-5.2,11.5-11.5,11.5H116.3c-6.3,0-11.5-5.1-11.5-11.5v-23.9c0-6.4,5.2-11.5,11.5-11.5
		h278.3C401,391.2,406.2,396.3,406.2,402.7z"/>
	<path class="st3" d="M379,438.2c-0.1,0.5-0.2,1-0.2,1.4l-2.6,13.7H134.8l-2.6-13.7c-0.1-0.5-0.2-1-0.2-1.4H379z"/>
	<path class="st4" d="M406.2,402.7v23.9c0,6.4-5.2,11.5-11.5,11.5H379c-0.1,0.5-0.2,1-0.2,1.4l-2.6,13.7l-32.6,172.8
		c-1.4,7.6-8.1,13.1-15.8,13.1h-72.3v-248h139.2C401,391.2,406.2,396.3,406.2,402.7z"/>
</g>
<g>
	<g>
		<path class="st0" d="M113.5,147.4l-7-11.5c0,0,6.2,314.4,218.3,355.2l-3.8-6.1C146.1,443,117.9,209.9,113.5,147.4z"/>
		<path class="st5" d="M126.1,136c-1.2,9.1-6,16.8-12.7,22c-0.4,0.3-0.8,0.6-1.2,0.9c-4.4-6.5-6.4-14.6-5.3-23
			c1.2-8.9,5.8-16.6,12.4-21.7c0.5-0.4,1-0.8,1.5-1.1C125.1,119.6,127.2,127.6,126.1,136z"/>
		<path class="st5" d="M106.9,148.8c4.7,7.9,5.7,16.9,3.6,25.1c-0.1,0.5-0.2,0.9-0.4,1.4c-7.5-2.4-14.1-7.5-18.4-14.8
			c-4.6-7.8-5.7-16.6-3.7-24.7c0.1-0.6,0.3-1.2,0.5-1.8C96,136.4,102.6,141.5,106.9,148.8z"/>
		<path class="st5" d="M134.6,165.1c-5.7,7.2-13.8,11.3-22.2,12.3c-0.5,0.1-1,0.1-1.4,0.1c-0.4-7.8,2-15.8,7.3-22.5
			c5.6-7,13.5-11.2,21.8-12.3c0.6-0.1,1.2-0.1,1.8-0.2C142.2,150.5,139.8,158.5,134.6,165.1z"/>
		<path class="st5" d="M107.1,177.6c6.9,6,10.7,14.3,11.3,22.8c0,0.5,0.1,1,0.1,1.4c-7.8,0-15.7-2.7-22.1-8.3
			c-6.8-6-10.6-14-11.2-22.3c-0.1-0.6-0.1-1.2-0.1-1.9C92.8,169.3,100.7,172,107.1,177.6z"/>
		<path class="st5" d="M138.5,184.5c-3.2,8.6-9.5,15.1-17.2,18.7c-0.4,0.2-0.9,0.4-1.3,0.6c-2.8-7.3-3.1-15.7-0.1-23.6
			c3.1-8.5,9.3-14.9,16.9-18.5c0.5-0.3,1.1-0.5,1.7-0.8C141.2,168.2,141.4,176.6,138.5,184.5z"/>
		<path class="st5" d="M114.9,197.4c4.7,7.9,5.7,16.9,3.6,25.1c-0.1,0.5-0.2,0.9-0.4,1.4c-7.5-2.4-14.1-7.5-18.4-14.8
			c-4.6-7.8-5.7-16.6-3.7-24.7c0.1-0.6,0.3-1.2,0.5-1.8C103.9,185,110.6,190.1,114.9,197.4z"/>
		<path class="st5" d="M142.5,213.7c-5.7,7.2-13.8,11.3-22.2,12.3c-0.5,0.1-1,0.1-1.4,0.1c-0.4-7.8,2-15.8,7.3-22.5
			c5.6-7,13.5-11.2,21.8-12.3c0.6-0.1,1.2-0.1,1.8-0.2C150.2,199.1,147.8,207.1,142.5,213.7z"/>
		<path class="st5" d="M118.6,225c6.1,6.9,8.8,15.5,8.4,24c0,0.5-0.1,1-0.1,1.4c-7.8-0.9-15.3-4.6-20.9-11c-6-6.7-8.7-15.2-8.4-23.6
			c0-0.6,0.1-1.2,0.1-1.9C105.5,215,112.9,218.7,118.6,225z"/>
		<path class="st5" d="M148.8,235.8c-4.2,8.1-11.3,13.8-19.4,16.4c-0.5,0.1-0.9,0.3-1.4,0.4c-1.9-7.6-1.1-15.9,2.8-23.4
			c4.2-8,11.1-13.6,19-16.2c0.6-0.2,1.2-0.4,1.8-0.5C153.5,219.9,152.8,228.2,148.8,235.8z"/>
		<path class="st5" d="M126.7,243.5c4.7,7.9,5.7,16.9,3.6,25.1c-0.1,0.5-0.2,0.9-0.4,1.4c-7.5-2.4-14.1-7.5-18.4-14.8
			c-4.6-7.8-5.7-16.6-3.7-24.7c0.1-0.6,0.3-1.2,0.5-1.8C115.8,231.1,122.4,236.2,126.7,243.5z"/>
		<path class="st5" d="M154.4,259.8c-5.7,7.2-13.8,11.3-22.2,12.3c-0.5,0.1-1,0.1-1.4,0.1c-0.4-7.8,2-15.8,7.3-22.5
			c5.6-7,13.5-11.2,21.8-12.3c0.6-0.1,1.2-0.1,1.8-0.2C162.1,245.2,159.7,253.2,154.4,259.8z"/>
		<path class="st5" d="M118.4,264.4c8.3,4,14.1,10.9,17,18.9c0.2,0.5,0.3,0.9,0.5,1.4c-7.6,2.1-15.9,1.6-23.5-2.1
			c-8.1-3.9-13.9-10.7-16.8-18.5c-0.2-0.6-0.4-1.2-0.6-1.8C102.4,260.2,110.7,260.7,118.4,264.4z"/>
		<path class="st5" d="M150.4,262.6c-0.8,9.1-5.1,17.1-11.6,22.6c-0.4,0.3-0.7,0.6-1.1,0.9c-4.7-6.3-7.2-14.3-6.5-22.7
			c0.8-9,5-16.8,11.3-22.3c0.5-0.4,0.9-0.8,1.4-1.2C148.7,246.1,151.1,254.1,150.4,262.6z"/>
		<path class="st5" d="M131.8,280.7c7.1,5.8,11.1,14,11.9,22.4c0,0.5,0.1,1,0.1,1.4c-7.8,0.3-15.8-2.3-22.3-7.7
			c-6.9-5.8-11-13.7-11.9-22c-0.1-0.6-0.1-1.2-0.2-1.8C117.4,272.8,125.3,275.3,131.8,280.7z"/>
		<path class="st5" d="M164.5,291.1c-5.7,7.2-13.8,11.3-22.2,12.3c-0.5,0.1-1,0.1-1.4,0.1c-0.4-7.8,2-15.8,7.3-22.5
			c5.6-7,13.5-11.2,21.8-12.3c0.6-0.1,1.2-0.1,1.8-0.2C172.2,276.5,169.8,284.5,164.5,291.1z"/>
		<path class="st5" d="M133.9,293.7c7.3,5.5,11.7,13.5,12.9,21.9c0.1,0.5,0.1,0.9,0.2,1.4c-7.8,0.6-15.9-1.6-22.6-6.7
			c-7.2-5.4-11.5-13.2-12.8-21.5c-0.1-0.6-0.2-1.2-0.2-1.8C119.1,286.5,127.2,288.6,133.9,293.7z"/>
		<path class="st5" d="M165.7,298.3c-2.6,8.8-8.4,15.7-15.8,19.9c-0.4,0.2-0.8,0.5-1.3,0.7c-3.3-7.1-4.2-15.4-1.8-23.5
			c2.5-8.7,8.2-15.5,15.5-19.6c0.5-0.3,1.1-0.6,1.6-0.9C167.2,281.9,168.1,290.2,165.7,298.3z"/>
		<path class="st5" d="M148.8,306.6c4.7,7.9,5.7,16.9,3.6,25.1c-0.1,0.5-0.2,0.9-0.4,1.4c-7.5-2.4-14.1-7.5-18.4-14.8
			c-4.6-7.8-5.7-16.6-3.7-24.7c0.1-0.6,0.3-1.2,0.5-1.8C137.8,294.2,144.5,299.3,148.8,306.6z"/>
		<path class="st5" d="M176.4,322.9c-5.7,7.2-13.8,11.3-22.2,12.3c-0.5,0.1-1,0.1-1.4,0.1c-0.4-7.8,2-15.8,7.3-22.5
			c5.6-7,13.5-11.2,21.8-12.3c0.6-0.1,1.2-0.1,1.8-0.2C184.1,308.3,181.7,316.3,176.4,322.9z"/>
		<path class="st5" d="M139.5,324.1c8.2,4,14.1,11,16.9,19c0.2,0.5,0.3,0.9,0.4,1.4c-7.6,2.1-15.9,1.5-23.5-2.2
			c-8.1-3.9-13.9-10.7-16.7-18.6c-0.2-0.6-0.4-1.2-0.6-1.8C123.6,319.9,131.9,320.4,139.5,324.1z"/>
		<path class="st5" d="M171.6,322.5c-0.8,9.1-5.2,17.1-11.7,22.5c-0.4,0.3-0.7,0.6-1.1,0.9c-4.7-6.3-7.1-14.3-6.4-22.7
			c0.8-9,5.1-16.8,11.4-22.3c0.5-0.4,0.9-0.8,1.4-1.2C169.9,306,172.3,314,171.6,322.5z"/>
		<path class="st5" d="M159.5,326.1c4.7,7.9,5.7,16.9,3.6,25.1c-0.1,0.5-0.2,0.9-0.4,1.4c-7.5-2.4-14.1-7.5-18.4-14.8
			c-4.6-7.8-5.7-16.6-3.7-24.7c0.1-0.6,0.3-1.2,0.5-1.8C148.5,313.7,155.2,318.8,159.5,326.1z"/>
		<path class="st5" d="M187.1,342.4c-5.7,7.2-13.8,11.3-22.2,12.3c-0.5,0.1-1,0.1-1.4,0.1c-0.4-7.8,2-15.8,7.3-22.5
			c5.6-7,13.5-11.2,21.8-12.3c0.6-0.1,1.2-0.1,1.8-0.2C194.8,327.8,192.4,335.8,187.1,342.4z"/>
		<path class="st5" d="M151.9,343.7c7.6,5.2,12.3,12.9,14,21.2c0.1,0.5,0.2,0.9,0.2,1.4c-7.8,1-15.9-0.8-22.9-5.6
			c-7.4-5.1-12.2-12.6-13.9-20.8c-0.1-0.6-0.2-1.2-0.3-1.8C136.7,337.1,144.9,338.9,151.9,343.7z"/>
		<path class="st5" d="M183.9,346.7c-2.1,8.9-7.6,16.1-14.9,20.6c-0.4,0.3-0.8,0.5-1.2,0.7c-3.7-6.9-4.9-15.2-3-23.4
			c2.1-8.8,7.5-15.9,14.5-20.4c0.5-0.3,1.1-0.7,1.6-1C184.6,330.2,185.8,338.5,183.9,346.7z"/>
	</g>
	<g>
		<path class="st0" d="M400.9,134.1l7-11.5c0,0-6.2,314.4-218.3,355.2l3.8-6.1C368.2,429.7,396.4,196.6,400.9,134.1z"/>
		<path class="st5" d="M388.3,122.7c1.2,9.1,6,16.8,12.7,22c0.4,0.3,0.8,0.6,1.2,0.9c4.4-6.5,6.4-14.6,5.3-23
			c-1.2-8.9-5.8-16.6-12.4-21.7c-0.5-0.4-1-0.8-1.5-1.1C389.2,106.3,387.1,114.3,388.3,122.7z"/>
		<path class="st5" d="M407.4,135.5c-4.7,7.9-5.7,16.9-3.6,25.1c0.1,0.5,0.2,0.9,0.4,1.4c7.5-2.4,14.1-7.5,18.4-14.8
			c4.6-7.8,5.7-16.6,3.7-24.7c-0.1-0.6-0.3-1.2-0.5-1.8C418.4,123.1,411.7,128.2,407.4,135.5z"/>
		<path class="st5" d="M379.8,151.8c5.7,7.2,13.8,11.3,22.2,12.3c0.5,0.1,1,0.1,1.4,0.1c0.4-7.8-2-15.8-7.3-22.5
			c-5.6-7-13.5-11.2-21.8-12.3c-0.6-0.1-1.2-0.1-1.8-0.2C372.1,137.2,374.5,145.2,379.8,151.8z"/>
		<path class="st5" d="M407.2,164.3c-6.9,6-10.7,14.3-11.3,22.8c0,0.5-0.1,1-0.1,1.4c7.8,0,15.7-2.7,22.1-8.3
			c6.8-6,10.6-14,11.2-22.3c0.1-0.6,0.1-1.2,0.1-1.9C421.5,156,413.6,158.7,407.2,164.3z"/>
		<path class="st5" d="M375.9,171.2c3.2,8.6,9.5,15.1,17.2,18.7c0.4,0.2,0.9,0.4,1.3,0.6c2.8-7.3,3.1-15.7,0.1-23.6
			c-3.1-8.5-9.3-14.9-16.9-18.5c-0.5-0.3-1.1-0.5-1.7-0.8C373.2,154.9,372.9,163.3,375.9,171.2z"/>
		<path class="st5" d="M399.5,184.1c-4.7,7.9-5.7,16.9-3.6,25.1c0.1,0.5,0.2,0.9,0.4,1.4c7.5-2.4,14.1-7.5,18.4-14.8
			c4.6-7.8,5.7-16.6,3.7-24.7c-0.1-0.6-0.3-1.2-0.5-1.8C410.4,171.7,403.8,176.8,399.5,184.1z"/>
		<path class="st5" d="M371.8,200.4c5.7,7.2,13.8,11.3,22.2,12.3c0.5,0.1,1,0.1,1.4,0.1c0.4-7.8-2-15.8-7.3-22.5
			c-5.6-7-13.5-11.2-21.8-12.3c-0.6-0.1-1.2-0.1-1.8-0.2C364.2,185.8,366.5,193.8,371.8,200.4z"/>
		<path class="st5" d="M395.8,211.7c-6.1,6.9-8.8,15.5-8.4,24c0,0.5,0.1,1,0.1,1.4c7.8-0.9,15.3-4.6,20.9-11
			c6-6.7,8.7-15.2,8.4-23.6c0-0.6-0.1-1.2-0.1-1.9C408.9,201.7,401.4,205.4,395.8,211.7z"/>
		<path class="st5" d="M365.5,222.5c4.2,8.1,11.3,13.8,19.4,16.4c0.5,0.1,0.9,0.3,1.4,0.4c1.9-7.6,1.1-15.9-2.8-23.4
			c-4.2-8-11.1-13.6-19-16.2c-0.6-0.2-1.2-0.4-1.8-0.5C360.8,206.6,361.6,214.9,365.5,222.5z"/>
		<path class="st5" d="M387.6,230.2c-4.7,7.9-5.7,16.9-3.6,25.1c0.1,0.5,0.2,0.9,0.4,1.4c7.5-2.4,14.1-7.5,18.4-14.8
			c4.6-7.8,5.7-16.6,3.7-24.7c-0.1-0.6-0.3-1.2-0.5-1.8C398.5,217.8,391.9,222.9,387.6,230.2z"/>
		<path class="st5" d="M359.9,246.5c5.7,7.2,13.8,11.3,22.2,12.3c0.5,0.1,1,0.1,1.4,0.1c0.4-7.8-2-15.8-7.3-22.5
			c-5.6-7-13.5-11.2-21.8-12.3c-0.6-0.1-1.2-0.1-1.8-0.2C352.3,231.9,354.6,239.9,359.9,246.5z"/>
		<path class="st5" d="M396,251.1c-8.3,4-14.1,10.9-17,18.9c-0.2,0.5-0.3,0.9-0.5,1.4c7.6,2.1,15.9,1.6,23.5-2.1
			c8.1-3.9,13.9-10.7,16.8-18.5c0.2-0.6,0.4-1.2,0.6-1.8C411.9,246.9,403.6,247.4,396,251.1z"/>
		<path class="st5" d="M363.9,249.3c0.8,9.1,5.1,17.1,11.6,22.6c0.4,0.3,0.7,0.6,1.1,0.9c4.7-6.3,7.2-14.3,6.5-22.7
			c-0.8-9-5-16.8-11.3-22.3c-0.5-0.4-0.9-0.8-1.4-1.2C365.7,232.8,363.2,240.8,363.9,249.3z"/>
		<path class="st5" d="M382.5,267.4c-7.1,5.8-11.1,14-11.9,22.4c0,0.5-0.1,1-0.1,1.4c7.8,0.3,15.8-2.3,22.3-7.7
			c6.9-5.8,11-13.7,11.9-22c0.1-0.6,0.1-1.2,0.2-1.8C397,259.5,389,262,382.5,267.4z"/>
		<path class="st5" d="M349.8,277.8c5.7,7.2,13.8,11.3,22.2,12.3c0.5,0.1,1,0.1,1.4,0.1c0.4-7.8-2-15.8-7.3-22.5
			c-5.6-7-13.5-11.2-21.8-12.3c-0.6-0.1-1.2-0.1-1.8-0.2C342.2,263.2,344.5,271.2,349.8,277.8z"/>
		<path class="st5" d="M380.4,280.4c-7.3,5.5-11.7,13.5-12.9,21.9c-0.1,0.5-0.1,0.9-0.2,1.4c7.8,0.6,15.9-1.6,22.6-6.7
			c7.2-5.4,11.5-13.2,12.8-21.5c0.1-0.6,0.2-1.2,0.2-1.8C395.2,273.2,387.2,275.3,380.4,280.4z"/>
		<path class="st5" d="M348.6,285c2.6,8.8,8.4,15.7,15.8,19.9c0.4,0.2,0.8,0.5,1.3,0.7c3.3-7.1,4.2-15.4,1.8-23.5
			c-2.5-8.7-8.2-15.5-15.5-19.6c-0.5-0.3-1.1-0.6-1.6-0.9C347.1,268.6,346.3,276.9,348.6,285z"/>
		<path class="st5" d="M365.6,293.3c-4.7,7.9-5.7,16.9-3.6,25.1c0.1,0.5,0.2,0.9,0.4,1.4c7.5-2.4,14.1-7.5,18.4-14.8
			c4.6-7.8,5.7-16.6,3.7-24.7c-0.1-0.6-0.3-1.2-0.5-1.8C376.5,280.9,369.9,286,365.6,293.3z"/>
		<path class="st5" d="M337.9,309.6c5.7,7.2,13.8,11.3,22.2,12.3c0.5,0.1,1,0.1,1.4,0.1c0.4-7.8-2-15.8-7.3-22.5
			c-5.6-7-13.5-11.2-21.8-12.3c-0.6-0.1-1.2-0.1-1.8-0.2C330.3,295,332.6,303,337.9,309.6z"/>
		<path class="st5" d="M374.8,310.8c-8.2,4-14.1,11-16.9,19c-0.2,0.5-0.3,0.9-0.4,1.4c7.6,2.1,15.9,1.5,23.5-2.2
			c8.1-3.9,13.9-10.7,16.7-18.6c0.2-0.6,0.4-1.2,0.6-1.8C390.7,306.6,382.4,307.1,374.8,310.8z"/>
		<path class="st5" d="M342.7,309.2c0.8,9.1,5.2,17.1,11.7,22.5c0.4,0.3,0.7,0.6,1.1,0.9c4.7-6.3,7.1-14.3,6.4-22.7
			c-0.8-9-5.1-16.8-11.4-22.3c-0.5-0.4-0.9-0.8-1.4-1.2C344.4,292.7,342,300.7,342.7,309.2z"/>
		<path class="st5" d="M354.9,312.8c-4.7,7.9-5.7,16.9-3.6,25.1c0.1,0.5,0.2,0.9,0.4,1.4c7.5-2.4,14.1-7.5,18.4-14.8
			c4.6-7.8,5.7-16.6,3.7-24.7c-0.1-0.6-0.3-1.2-0.5-1.8C365.8,300.4,359.2,305.5,354.9,312.8z"/>
		<path class="st5" d="M327.2,329.1c5.7,7.2,13.8,11.3,22.2,12.3c0.5,0.1,1,0.1,1.4,0.1c0.4-7.8-2-15.8-7.3-22.5
			c-5.6-7-13.5-11.2-21.8-12.3c-0.6-0.1-1.2-0.1-1.8-0.2C319.6,314.5,321.9,322.5,327.2,329.1z"/>
		<path class="st5" d="M362.4,330.4c-7.6,5.2-12.3,12.9-14,21.2c-0.1,0.5-0.2,0.9-0.2,1.4c7.8,1,15.9-0.8,22.9-5.6
			c7.4-5.1,12.2-12.6,13.9-20.8c0.1-0.6,0.2-1.2,0.3-1.8C377.6,323.8,369.4,325.6,362.4,330.4z"/>
		<path class="st5" d="M330.5,333.4c2.1,8.9,7.6,16.1,14.9,20.6c0.4,0.3,0.8,0.5,1.2,0.7c3.7-6.9,4.9-15.2,3-23.4
			c-2.1-8.8-7.5-15.9-14.5-20.4c-0.5-0.3-1.1-0.7-1.6-1C329.8,316.9,328.5,325.2,330.5,333.4z"/>
	</g>
	<g>
		<path class="st0" d="M322.1,75l2.8-13.2c0,0,99.5,298.2-86.6,407.8l1.5-7C390.4,364.4,338.8,135.4,322.1,75z"/>
		<path class="st5" d="M306.4,68.5c4.2,8.1,11.3,13.8,19.4,16.5c0.5,0.1,0.9,0.3,1.4,0.4c1.9-7.6,1.2-15.9-2.7-23.4
			c-4.1-8-11-13.6-19-16.3c-0.6-0.2-1.2-0.4-1.8-0.6C301.8,52.7,302.5,61,306.4,68.5z"/>
		<path class="st5" d="M328.7,74.1c-1.7,9,0.3,17.8,5,24.9c0.3,0.4,0.5,0.8,0.8,1.2c6.2-4.8,10.8-11.8,12.4-20.1
			c1.7-8.9-0.2-17.5-4.8-24.5c-0.3-0.5-0.7-1-1-1.5C334.9,58.8,330.3,65.8,328.7,74.1z"/>
		<path class="st5" d="M308.1,98.8c7.8,4.8,16.8,6.1,25.1,4.2c0.5-0.1,0.9-0.2,1.4-0.3c-2.3-7.5-7.2-14.3-14.4-18.7
			c-7.7-4.8-16.5-6-24.6-4.3c-0.6,0.1-1.2,0.3-1.8,0.4C296,87.6,300.9,94.3,308.1,98.8z"/>
		<path class="st5" d="M338.2,101.3c-4.5,8-5.3,17-3,25.2c0.1,0.5,0.3,0.9,0.4,1.4c7.4-2.6,13.9-7.8,18-15.2
			c4.4-7.9,5.3-16.7,3.1-24.8c-0.1-0.6-0.3-1.2-0.5-1.8C348.8,88.7,342.3,93.9,338.2,101.3z"/>
		<path class="st5" d="M311,118.3c5.9,7,14,11,22.5,11.8c0.5,0,1,0.1,1.4,0.1c0.2-7.8-2.4-15.8-7.8-22.3
			c-5.8-6.9-13.8-10.9-22.1-11.7c-0.6-0.1-1.2-0.1-1.8-0.2C303,103.9,305.5,111.8,311,118.3z"/>
		<path class="st5" d="M337.5,122.6c-1.7,9,0.3,17.8,5,24.9c0.3,0.4,0.5,0.8,0.8,1.2c6.2-4.8,10.8-11.8,12.4-20.1
			c1.7-8.9-0.2-17.5-4.8-24.5c-0.3-0.5-0.7-1-1-1.5C343.7,107.3,339.1,114.3,337.5,122.6z"/>
		<path class="st5" d="M316.9,147.2c7.8,4.8,16.8,6.1,25.1,4.2c0.5-0.1,0.9-0.2,1.4-0.3c-2.3-7.5-7.2-14.3-14.4-18.7
			c-7.7-4.8-16.5-6-24.6-4.3c-0.6,0.1-1.2,0.3-1.8,0.4C304.8,136,309.7,142.8,316.9,147.2z"/>
		<path class="st5" d="M343.3,149.9c-3.4,8.5-3.1,17.6,0.2,25.4c0.2,0.4,0.4,0.9,0.6,1.3c7-3.5,12.8-9.5,16-17.3
			c3.4-8.4,3.1-17.3,0-25c-0.2-0.6-0.5-1.1-0.7-1.7C352.3,136,346.5,142,343.3,149.9z"/>
		<path class="st5" d="M318.4,170.1c6.7,6.2,15.3,9.2,23.8,8.9c0.5,0,1,0,1.4-0.1c-0.8-7.8-4.3-15.4-10.5-21.1
			c-6.6-6.1-15-9.1-23.4-8.9c-0.6,0-1.2,0-1.9,0.1C308.6,156.8,312.2,164.3,318.4,170.1z"/>
		<path class="st5" d="M341.8,170c-1.7,9,0.3,17.8,5,24.9c0.3,0.4,0.5,0.8,0.8,1.2c6.2-4.8,10.8-11.8,12.4-20.1
			c1.7-8.9-0.2-17.5-4.8-24.5c-0.3-0.5-0.7-1-1-1.5C347.9,154.6,343.4,161.6,341.8,170z"/>
		<path class="st5" d="M321.2,194.6c7.8,4.8,16.8,6.1,25.1,4.2c0.5-0.1,0.9-0.2,1.4-0.3c-2.3-7.5-7.2-14.3-14.4-18.7
			c-7.7-4.8-16.5-6-24.6-4.3c-0.6,0.1-1.2,0.3-1.8,0.4C309.1,183.4,314,190.1,321.2,194.6z"/>
		<path class="st5" d="M356.7,186.8c-6.4,6.5-9.7,15-9.7,23.5c0,0.5,0,1,0,1.4c7.8-0.5,15.5-3.8,21.5-9.8c6.3-6.4,9.6-14.7,9.6-23.1
			c0-0.6,0-1.2,0-1.9C370.3,177.5,362.6,180.8,356.7,186.8z"/>
		<path class="st5" d="M325.9,195.9c3.8,8.3,10.6,14.4,18.5,17.4c0.4,0.2,0.9,0.3,1.4,0.5c2.3-7.5,2-15.8-1.5-23.6
			c-3.7-8.2-10.3-14.2-18.1-17.2c-0.6-0.2-1.2-0.4-1.7-0.6C322,179.8,322.4,188.2,325.9,195.9z"/>
		<path class="st5" d="M349.5,206.7c-4.7,7.9-5.8,16.9-3.7,25.1c0.1,0.5,0.2,0.9,0.4,1.4c7.5-2.4,14.1-7.4,18.5-14.7
			c4.6-7.7,5.7-16.6,3.8-24.7c-0.1-0.6-0.3-1.2-0.5-1.8C360.4,194.4,353.8,199.5,349.5,206.7z"/>
		<path class="st5" d="M322.1,227.5c7.8,4.8,16.8,6.1,25.1,4.2c0.5-0.1,0.9-0.2,1.4-0.3c-2.3-7.5-7.2-14.3-14.4-18.7
			c-7.7-4.8-16.5-6-24.6-4.3c-0.6,0.1-1.2,0.3-1.8,0.4C310,216.3,314.9,223,322.1,227.5z"/>
		<path class="st5" d="M351.9,219.7c-5,7.7-6.5,16.6-4.8,24.9c0.1,0.5,0.2,0.9,0.3,1.4c7.6-2.1,14.4-6.8,19.1-13.9
			c4.9-7.5,6.5-16.3,4.9-24.5c-0.1-0.6-0.2-1.2-0.4-1.8C363.4,207.9,356.5,212.6,351.9,219.7z"/>
		<path class="st5" d="M323.5,234.7c5.4,7.4,13.2,12,21.6,13.4c0.5,0.1,0.9,0.2,1.4,0.2c0.8-7.8-1.2-15.9-6.2-22.8
			c-5.3-7.3-12.9-11.8-21.2-13.3c-0.6-0.1-1.2-0.2-1.8-0.3C316.5,219.7,318.5,227.8,323.5,234.7z"/>
		<path class="st5" d="M342.2,236.8c-1.7,9,0.3,17.8,5,24.9c0.3,0.4,0.5,0.8,0.8,1.2c6.2-4.8,10.8-11.8,12.4-20.1
			c1.7-8.9-0.2-17.5-4.8-24.5c-0.3-0.5-0.7-1-1-1.5C348.3,221.5,343.8,228.5,342.2,236.8z"/>
		<path class="st5" d="M321.6,261.4c7.8,4.8,16.8,6.1,25.1,4.2c0.5-0.1,0.9-0.2,1.4-0.3c-2.3-7.5-7.2-14.3-14.4-18.7
			c-7.7-4.8-16.5-6-24.6-4.3c-0.6,0.1-1.2,0.3-1.8,0.4C309.5,250.2,314.4,257,321.6,261.4z"/>
		<path class="st5" d="M356.8,250.2c-6.4,6.5-9.6,15-9.6,23.5c0,0.5,0,1,0,1.4c7.8-0.6,15.5-3.9,21.4-9.9c6.3-6.4,9.5-14.8,9.5-23.1
			c0-0.6,0-1.2,0-1.9C370.4,240.9,362.7,244.2,356.8,250.2z"/>
		<path class="st5" d="M326,259.4c3.8,8.3,10.6,14.3,18.6,17.3c0.4,0.2,0.9,0.3,1.4,0.5c2.3-7.5,1.9-15.8-1.6-23.5
			c-3.8-8.2-10.4-14.1-18.2-17.2c-0.6-0.2-1.2-0.4-1.7-0.6C322.1,243.4,322.5,251.7,326,259.4z"/>
		<path class="st5" d="M338.6,258.8c-1.7,9,0.3,17.8,5,24.9c0.3,0.4,0.5,0.8,0.8,1.2c6.2-4.8,10.8-11.8,12.4-20.1
			c1.7-8.9-0.2-17.5-4.8-24.5c-0.3-0.5-0.7-1-1-1.5C344.8,243.4,340.2,250.4,338.6,258.8z"/>
		<path class="st5" d="M318.1,283.4c7.8,4.8,16.8,6.1,25.1,4.2c0.5-0.1,0.9-0.2,1.4-0.3c-2.3-7.5-7.2-14.3-14.4-18.7
			c-7.7-4.8-16.5-6-24.6-4.3c-0.6,0.1-1.2,0.3-1.8,0.4C306,272.2,310.9,278.9,318.1,283.4z"/>
		<path class="st5" d="M351.7,272.8c-5.4,7.4-7.3,16.3-6,24.7c0.1,0.5,0.1,0.9,0.2,1.4c7.7-1.7,14.8-6.1,19.7-12.9
			c5.3-7.3,7.2-16,6.1-24.3c-0.1-0.6-0.2-1.2-0.3-1.8C363.8,261.6,356.7,266,351.7,272.8z"/>
		<path class="st5" d="M322.6,286.4c5,7.7,12.6,12.6,20.9,14.4c0.5,0.1,0.9,0.2,1.4,0.3c1.2-7.8-0.4-16-5-23.1
			c-4.9-7.6-12.4-12.5-20.5-14.3c-0.6-0.1-1.2-0.3-1.8-0.4C316.4,271.1,318,279.3,322.6,286.4z"/>
	</g>
	<g>
		<path class="st0" d="M177.5,44.8l-3.7-14.3c0,0-79.8,336.3,113,443.7l-2-7.7C128.2,369.1,164.7,112.6,177.5,44.8z"/>
		<path class="st5" d="M192.7,36.5c-3.7,9.3-10.4,16.1-18.2,19.6c-0.4,0.2-0.9,0.4-1.3,0.6c-2.4-8.3-2.2-17.5,1.2-26.1
			c3.6-9.1,10.1-15.8,17.9-19.4c0.6-0.3,1.2-0.5,1.7-0.7C196.3,18.7,196.1,27.9,192.7,36.5z"/>
		<path class="st5" d="M170.8,44.3c2.3,9.8,0.9,19.7-3.4,27.8c-0.2,0.5-0.5,0.9-0.7,1.4c-6.5-4.8-11.5-12.2-13.7-21.3
			c-2.3-9.6-0.9-19.4,3.2-27.4c0.3-0.6,0.6-1.2,0.9-1.8C163.7,27.9,168.7,35.3,170.8,44.3z"/>
		<path class="st5" d="M193,70c-7.5,5.9-16.3,7.9-24.7,6.4c-0.5-0.1-0.9-0.2-1.4-0.3c1.8-8.5,6.2-16.3,13.1-21.7
			c7.3-5.8,16-7.9,24.3-6.5c0.6,0.1,1.2,0.2,1.8,0.3C204.3,56.8,199.9,64.6,193,70z"/>
		<path class="st5" d="M163.1,75c5,8.5,6.4,18.4,4.6,27.6c-0.1,0.5-0.2,1-0.3,1.5c-7.6-2.3-14.4-7.6-19-15.5
			c-4.9-8.4-6.3-18.1-4.7-27.2c0.1-0.7,0.2-1.3,0.4-2C151.7,61.9,158.5,67.2,163.1,75z"/>
		<path class="st5" d="M191.4,91.8c-5.4,8.2-13.3,13.2-21.7,14.6c-0.5,0.1-0.9,0.2-1.4,0.2c-0.7-8.6,1.3-17.6,6.3-25.1
			c5.3-8,13-13,21.3-14.6c0.6-0.1,1.2-0.2,1.8-0.3C198.5,75.3,196.4,84.3,191.4,91.8z"/>
		<path class="st5" d="M165.2,98.4c2.3,9.8,0.9,19.7-3.4,27.8c-0.2,0.5-0.5,0.9-0.7,1.4c-6.5-4.8-11.5-12.2-13.7-21.3
			c-2.3-9.6-0.9-19.4,3.2-27.4c0.3-0.6,0.6-1.2,0.9-1.8C158.1,82,163.1,89.4,165.2,98.4z"/>
		<path class="st5" d="M187.4,124.1c-7.5,5.9-16.3,7.9-24.7,6.4c-0.5-0.1-0.9-0.2-1.4-0.3c1.8-8.5,6.2-16.3,13.1-21.7
			c7.3-5.8,16-7.9,24.3-6.5c0.6,0.1,1.2,0.2,1.8,0.3C198.7,110.9,194.2,118.7,187.4,124.1z"/>
		<path class="st5" d="M161.2,128.9c4,9.1,4.3,19.2,1.5,28c-0.2,0.5-0.3,1-0.5,1.5c-7.2-3.4-13.4-9.5-17.1-18
			c-3.9-9-4.3-18.8-1.6-27.6c0.2-0.7,0.4-1.3,0.6-1.9C151.4,114.3,157.5,120.5,161.2,128.9z"/>
		<path class="st5" d="M187.4,149.5c-6.3,7.4-14.7,11.2-23.2,11.6c-0.5,0-1,0-1.4,0c0.3-8.7,3.3-17.3,9.1-24.1
			c6.2-7.2,14.4-11.1,22.7-11.5c0.6,0,1.2-0.1,1.9,0C196.3,134.1,193.2,142.7,187.4,149.5z"/>
		<path class="st5" d="M164.1,151c2.3,9.8,0.9,19.7-3.4,27.8c-0.2,0.5-0.5,0.9-0.7,1.4c-6.5-4.8-11.5-12.2-13.7-21.3
			c-2.3-9.6-0.9-19.4,3.2-27.4c0.3-0.6,0.6-1.2,0.9-1.8C156.9,134.6,161.9,141.9,164.1,151z"/>
		<path class="st5" d="M186.2,176.7c-7.5,5.9-16.3,7.9-24.7,6.4c-0.5-0.1-0.9-0.2-1.4-0.3c1.8-8.5,6.2-16.3,13.1-21.7
			c7.3-5.8,16-7.9,24.3-6.5c0.6,0.1,1.2,0.2,1.8,0.3C197.6,163.5,193.1,171.3,186.2,176.7z"/>
		<path class="st5" d="M150.3,170.7c6.9,6.7,10.6,15.9,11.2,25.2c0,0.5,0.1,1.1,0.1,1.6c-7.8,0-15.7-3.1-22.1-9.3
			c-6.7-6.6-10.5-15.5-11.1-24.8c-0.1-0.7-0.1-1.4-0.1-2C136.1,161.4,144,164.5,150.3,170.7z"/>
		<path class="st5" d="M181.6,178.5c-3.2,9.5-9.6,16.6-17.3,20.5c-0.4,0.2-0.9,0.4-1.3,0.6c-2.8-8.1-3-17.3,0-26.1
			c3.2-9.3,9.4-16.4,16.9-20.3c0.6-0.3,1.1-0.6,1.7-0.8C184.4,160.5,184.6,169.7,181.6,178.5z"/>
		<path class="st5" d="M158.8,192.2c5.2,8.3,6.9,18.2,5.4,27.5c-0.1,0.5-0.2,1-0.3,1.6c-7.6-2.1-14.6-7.2-19.4-14.9
			c-5.1-8.2-6.8-17.9-5.4-27c0.1-0.7,0.2-1.4,0.3-2C147,179.4,154,184.4,158.8,192.2z"/>
		<path class="st5" d="M187.4,213.1c-7.5,5.9-16.3,7.9-24.7,6.4c-0.5-0.1-0.9-0.2-1.4-0.3c1.8-8.5,6.2-16.3,13.1-21.7
			c7.3-5.8,16-7.9,24.3-6.5c0.6,0.1,1.2,0.2,1.8,0.3C198.8,199.8,194.3,207.6,187.4,213.1z"/>
		<path class="st5" d="M157.2,206.6c5.5,8.1,7.6,17.9,6.4,27.2c-0.1,0.5-0.1,1-0.2,1.6c-7.7-1.7-14.9-6.5-20-13.9
			c-5.4-8-7.5-17.5-6.5-26.7c0.1-0.7,0.2-1.4,0.3-2C145,194.4,152.1,199.2,157.2,206.6z"/>
		<path class="st5" d="M186.6,221.1c-4.9,8.6-12.4,14.2-20.7,16.3c-0.5,0.1-0.9,0.2-1.4,0.3c-1.3-8.6,0.2-17.6,4.7-25.6
			c4.8-8.4,12.1-14,20.3-16.2c0.6-0.2,1.2-0.3,1.8-0.4C192.5,204.1,191.1,213.2,186.6,221.1z"/>
		<path class="st5" d="M168,224.8c2.3,9.8,0.9,19.7-3.4,27.8c-0.2,0.5-0.5,0.9-0.7,1.4c-6.5-4.8-11.5-12.2-13.7-21.3
			c-2.3-9.6-0.9-19.4,3.2-27.4c0.3-0.6,0.6-1.2,0.9-1.8C160.9,208.3,165.9,215.7,168,224.8z"/>
		<path class="st5" d="M190.2,250.5c-7.5,5.9-16.3,7.9-24.7,6.4c-0.5-0.1-0.9-0.2-1.4-0.3c1.8-8.5,6.2-16.3,13.1-21.7
			c7.3-5.8,16-7.9,24.3-6.5c0.6,0.1,1.2,0.2,1.8,0.3C201.5,237.2,197.1,245,190.2,250.5z"/>
		<path class="st5" d="M154.3,240.7c6.8,6.8,10.6,15.9,11.1,25.3c0,0.5,0.1,1.1,0.1,1.6c-7.8,0-15.7-3.2-22-9.4
			c-6.7-6.6-10.4-15.6-11-24.8c-0.1-0.7-0.1-1.4-0.1-2C140.2,231.3,148,234.4,154.3,240.7z"/>
		<path class="st5" d="M185.7,248.6c-3.3,9.5-9.7,16.6-17.4,20.5c-0.4,0.2-0.9,0.4-1.3,0.6c-2.8-8.1-2.9-17.3,0.1-26.1
			c3.2-9.3,9.5-16.3,17-20.3c0.6-0.3,1.1-0.6,1.7-0.8C188.5,230.6,188.7,239.8,185.7,248.6z"/>
		<path class="st5" d="M173,248.8c2.3,9.8,0.9,19.7-3.4,27.8c-0.2,0.5-0.5,0.9-0.7,1.4c-6.5-4.8-11.5-12.2-13.7-21.3
			c-2.3-9.6-0.9-19.4,3.2-27.4c0.3-0.6,0.6-1.2,0.9-1.8C165.8,232.3,170.8,239.7,173,248.8z"/>
		<path class="st5" d="M195.1,274.5c-7.5,5.9-16.3,7.9-24.7,6.4c-0.5-0.1-0.9-0.2-1.4-0.3c1.8-8.5,6.2-16.3,13.1-21.7
			c7.3-5.8,16-7.9,24.3-6.5c0.6,0.1,1.2,0.2,1.8,0.3C206.5,261.2,202,269,195.1,274.5z"/>
		<path class="st5" d="M160.9,265.2c5.9,7.8,8.3,17.4,7.6,26.8c0,0.5-0.1,1.1-0.2,1.6c-7.8-1.3-15.1-5.6-20.5-12.8
			c-5.8-7.7-8.3-17.1-7.7-26.3c0-0.7,0.1-1.4,0.2-2C148.1,253.7,155.5,258,160.9,265.2z"/>
		<path class="st5" d="M190.8,278.1c-4.5,8.8-11.8,14.8-19.9,17.4c-0.5,0.1-0.9,0.3-1.4,0.4c-1.7-8.5-0.6-17.6,3.5-25.8
			c4.4-8.7,11.5-14.6,19.5-17.3c0.6-0.2,1.2-0.4,1.8-0.5C196,260.8,195,269.9,190.8,278.1z"/>
	</g>
	<g>
		<path class="st0" d="M281.5,34.3l-1.2-16.7c0,0-134.8,354,36.7,517.5l-0.6-8.9C178.7,382,257.6,106.4,281.5,34.3z"/>
		<path class="st6" d="M297.8,28.6C292.7,38,285,44,276.6,46c-0.5,0.1-0.9,0.2-1.4,0.3c-1-9.7,0.8-19.9,5.5-28.6
			c5.1-9.3,12.6-15.2,20.8-17.3c0.6-0.2,1.2-0.3,1.8-0.4C304.4,9.7,302.6,19.9,297.8,28.6z"/>
		<path class="st6" d="M275,32.2c0.6,11.4-2.5,22-8,30c-0.3,0.4-0.6,0.9-1,1.3c-5.6-6.9-9.3-16.2-9.9-26.7
			c-0.6-11.2,2.4-21.7,7.7-29.6c0.4-0.6,0.8-1.2,1.2-1.7C270.7,12.3,274.4,21.6,275,32.2z"/>
		<path class="st6" d="M292.5,65.7c-8.3,4.8-17.4,5-25.4,1.4c-0.4-0.2-0.9-0.4-1.3-0.6c3.1-9,8.8-16.6,16.5-21
			c8.2-4.7,17.1-5,25-1.6c0.6,0.2,1.2,0.5,1.7,0.8C305.8,53.7,300.1,61.3,292.5,65.7z"/>
		<path class="st6" d="M262.3,64.4c3.5,10.6,3.2,21.9-0.1,31.7c-0.2,0.5-0.4,1.1-0.6,1.6c-7-4.3-12.9-11.8-16.1-21.6
			c-3.4-10.4-3.2-21.5-0.1-31.2c0.2-0.7,0.5-1.4,0.7-2.1C253.3,47.2,259.1,54.6,262.3,64.4z"/>
		<path class="st6" d="M287.3,89.5c-6.7,7.8-15.3,11.5-23.8,11.2c-0.5,0-1,0-1.4-0.1c0.7-9.7,4.2-19.2,10.4-26.4
			c6.6-7.7,15-11.4,23.3-11.2c0.6,0,1.2,0,1.9,0.1C297,72.9,293.5,82.3,287.3,89.5z"/>
		<path class="st6" d="M260.4,90.8c0.6,11.4-2.5,22-8,30c-0.3,0.4-0.6,0.9-1,1.3c-5.6-6.9-9.3-16.2-9.9-26.7
			c-0.6-11.2,2.4-21.7,7.7-29.6c0.4-0.6,0.8-1.2,1.2-1.7C256.2,70.9,259.8,80.2,260.4,90.8z"/>
		<path class="st6" d="M277.9,124.4c-8.3,4.8-17.4,5-25.4,1.4c-0.4-0.2-0.9-0.4-1.3-0.6c3.1-9,8.8-16.6,16.5-21
			c8.2-4.7,17.1-5,25-1.6c0.6,0.2,1.2,0.5,1.7,0.8C291.3,112.3,285.6,119.9,277.9,124.4z"/>
		<path class="st6" d="M251.4,123.7c2.4,11,1,22.2-3.2,31.4c-0.2,0.5-0.5,1-0.7,1.5c-6.6-5.4-11.6-13.7-13.8-23.9
			c-2.3-10.9-1-21.8,3-30.9c0.3-0.7,0.6-1.3,0.9-2C244.1,105.2,249.2,113.5,251.4,123.7z"/>
		<path class="st6" d="M273.7,152.4c-7.4,6.7-16.3,9.1-24.7,7.4c-0.5-0.1-0.9-0.2-1.4-0.3c1.7-9.5,6.1-18.4,13-24.6
			c7.3-6.6,16-9,24.3-7.5c0.6,0.1,1.2,0.2,1.8,0.4C285,137.4,280.6,146.3,273.7,152.4z"/>
		<path class="st6" d="M250.5,148.7c0.6,11.4-2.5,22-8,30c-0.3,0.4-0.6,0.9-1,1.3c-5.6-6.9-9.3-16.2-9.9-26.7
			c-0.6-11.2,2.4-21.7,7.7-29.6c0.4-0.6,0.8-1.2,1.2-1.7C246.2,128.9,249.9,138.2,250.5,148.7z"/>
		<path class="st6" d="M267.9,182.3c-8.3,4.8-17.4,5-25.4,1.4c-0.4-0.2-0.9-0.4-1.3-0.6c3.1-9,8.8-16.6,16.5-21
			c8.2-4.7,17.1-5,25-1.6c0.6,0.2,1.2,0.5,1.7,0.8C281.3,170.3,275.6,177.9,267.9,182.3z"/>
		<path class="st6" d="M233.7,167.4c5.6,9,7.8,20,6.8,30.5c-0.1,0.6-0.1,1.2-0.2,1.8c-7.7-1.8-14.9-7-20.1-15.4
			c-5.5-8.9-7.7-19.6-6.8-30c0.1-0.8,0.1-1.5,0.2-2.3C221.3,153.8,228.5,159,233.7,167.4z"/>
		<path class="st6" d="M263.2,183.2c-4.8,9.8-12.2,16.2-20.5,18.7c-0.5,0.1-0.9,0.3-1.4,0.4c-1.4-9.6,0-19.9,4.4-28.9
			c4.7-9.6,12-16,20.1-18.6c0.6-0.2,1.2-0.4,1.8-0.5C268.9,163.9,267.6,174.2,263.2,183.2z"/>
		<path class="st6" d="M238.4,193.1c3.7,10.4,3.7,21.8,0.7,31.6c-0.2,0.6-0.3,1.1-0.5,1.7c-7.1-4.1-13.1-11.3-16.6-21
			c-3.6-10.3-3.7-21.4-0.8-31.2c0.2-0.7,0.4-1.4,0.7-2.2C229,176.2,235,183.4,238.4,193.1z"/>
		<path class="st6" d="M263,222.9c-8.3,4.8-17.4,5-25.4,1.4c-0.4-0.2-0.9-0.4-1.3-0.6c3.1-9,8.8-16.6,16.5-21c8.2-4.7,17.1-5,25-1.6
			c0.6,0.2,1.2,0.5,1.7,0.8C276.4,210.8,270.7,218.4,263,222.9z"/>
		<path class="st6" d="M234.4,208.8c4.1,10.2,4.4,21.5,1.8,31.6c-0.2,0.6-0.3,1.1-0.5,1.7c-7.3-3.7-13.5-10.6-17.3-20
			c-4-10.1-4.4-21.2-1.9-31.1c0.2-0.7,0.4-1.5,0.6-2.2C224.4,192.4,230.7,199.3,234.4,208.8z"/>
		<path class="st6" d="M260.8,231.6c-6.2,8.4-14.6,12.8-23,13.3c-0.5,0-1,0-1.4,0c0.2-9.8,3.1-19.5,8.9-27.3
			c6.1-8.2,14.3-12.7,22.6-13.3c0.6-0.1,1.2-0.1,1.9-0.1C269.5,214.1,266.6,223.8,260.8,231.6z"/>
		<path class="st6" d="M242,231.3c0.6,11.4-2.5,22-8,30c-0.3,0.4-0.6,0.9-1,1.3c-5.6-6.9-9.3-16.2-9.9-26.7
			c-0.6-11.2,2.4-21.7,7.7-29.6c0.4-0.6,0.8-1.2,1.2-1.7C237.8,211.5,241.4,220.8,242,231.3z"/>
		<path class="st6" d="M259.5,264.9c-8.3,4.8-17.4,5-25.4,1.4c-0.4-0.2-0.9-0.4-1.3-0.6c3.1-9,8.8-16.6,16.5-21
			c8.2-4.7,17.1-5,25-1.6c0.6,0.2,1.2,0.5,1.7,0.8C272.8,252.9,267.2,260.5,259.5,264.9z"/>
		<path class="st6" d="M225.9,245.8c5.6,9.1,7.7,20.1,6.6,30.6c-0.1,0.6-0.1,1.2-0.2,1.8c-7.7-1.9-14.9-7.1-20.1-15.5
			c-5.5-8.9-7.6-19.7-6.7-30c0.1-0.8,0.2-1.5,0.3-2.3C213.6,232.2,220.8,237.4,225.9,245.8z"/>
		<path class="st6" d="M255.3,261.8c-4.8,9.7-12.3,16.1-20.5,18.6c-0.5,0.1-0.9,0.3-1.4,0.4c-1.4-9.6,0-19.9,4.5-28.9
			c4.7-9.6,12-15.9,20.1-18.5c0.6-0.2,1.2-0.4,1.8-0.5C261.2,242.5,259.8,252.8,255.3,261.8z"/>
		<path class="st6" d="M242.9,259.1c0.6,11.4-2.5,22-8,30c-0.3,0.4-0.6,0.9-1,1.3c-5.6-6.9-9.3-16.2-9.9-26.7
			c-0.6-11.2,2.4-21.7,7.7-29.6c0.4-0.6,0.8-1.2,1.2-1.7C238.6,239.2,242.3,248.5,242.9,259.1z"/>
		<path class="st6" d="M260.3,292.7c-8.3,4.8-17.4,5-25.4,1.4c-0.4-0.2-0.9-0.4-1.3-0.6c3.1-9,8.8-16.6,16.5-21
			c8.2-4.7,17.1-5,25-1.6c0.6,0.2,1.2,0.5,1.7,0.8C273.7,280.6,268,288.2,260.3,292.7z"/>
		<path class="st6" d="M228.2,274.5c4.5,10,5.3,21.2,3,31.4c-0.1,0.6-0.3,1.1-0.4,1.7c-7.4-3.2-13.9-9.7-18-19
			c-4.4-9.8-5.3-20.9-3.1-30.9c0.1-0.7,0.3-1.5,0.5-2.2C217.6,258.8,224.1,265.3,228.2,274.5z"/>
		<path class="st6" d="M255.5,295.7c-5.9,8.8-14,13.7-22.5,14.7c-0.5,0.1-1,0.1-1.4,0.1c-0.2-9.8,2.3-19.7,7.8-27.8
			c5.8-8.6,13.8-13.6,22.1-14.6c0.6-0.1,1.2-0.1,1.8-0.2C263.5,277.7,260.9,287.6,255.5,295.7z"/>
	</g>
	<path class="st2" d="M389.9,448.7c-0.1,0.6-0.2,1.1-0.2,1.6l-2.8,14.8l-35.3,186.8c-1.6,8.2-8.7,14.2-17.1,14.2H178.2
		c-8.4,0-15.5-5.9-17-14.2L125.8,465l-2.8-14.8c-0.1-0.5-0.2-1.1-0.2-1.6c-0.9-10,7-19,17.3-19h232.6
		C383,429.6,390.9,438.6,389.9,448.7z"/>
	<path class="st2" d="M419.3,410.3v25.9c0,6.9-5.6,12.5-12.5,12.5H105.9c-6.9,0-12.5-5.6-12.5-12.5v-25.9c0-6.9,5.6-12.5,12.5-12.5
		h300.9C413.7,397.8,419.3,403.4,419.3,410.3z"/>
	<path class="st3" d="M389.9,448.7c-0.1,0.6-0.2,1.1-0.2,1.6l-2.8,14.8h-261l-2.8-14.8c-0.1-0.5-0.2-1.1-0.2-1.6H389.9z"/>
	<path class="st4" d="M419.3,410.3v25.9c0,6.9-5.6,12.5-12.5,12.5h-16.9c-0.1,0.6-0.2,1.1-0.2,1.6l-2.8,14.8l-35.3,186.8
		c-1.6,8.2-8.7,14.2-17.1,14.2h-78.1V397.8h150.5C413.7,397.8,419.3,403.4,419.3,410.3z"/>
</g>
</svg>
