<?xml version="1.0" encoding="utf-8"?>
<!-- Generator: Adobe Illustrator 22.0.1, SVG Export Plug-In . SVG Version: 6.00 Build 0)  -->
<svg version="1.1" id="picto" xmlns="http://www.w3.org/2000/svg" xmlns:xlink="http://www.w3.org/1999/xlink" x="0px" y="0px"
	 viewBox="0 0 100 76" style="enable-background:new 0 0 100 76;" xml:space="preserve">
<style type="text/css">
	.st0{fill:none;}
	.st1{fill:#AAAAAA;}
</style>
<rect id="Rectangle" class="st0" width="100" height="76"/>
<g>
	<path class="st1" d="M78.7,18.6H65.5c-0.6,0-1,0.5-1,1s0.5,1,1,1h13.2c1.7,0,3.1,1.4,3.1,3.1v34.8c0,1.7-1.4,3.1-3.1,3.1H52.8
		c0,0,0,0,0,0c0,0,0,0,0,0h-8c0,0,0,0,0,0s0,0,0,0H18.9c-1.7,0-3.1-1.4-3.1-3.1V23.7c0-1.7,1.4-3.1,3.1-3.1h16.9v1c0,0.3,0,0.7,0,1
		H19.3c-0.8,0-1.4,0.6-1.4,1.4v25.4c0,0.6,0.5,1,1,1s1-0.5,1-1V24.8h16.3c0.9,3.6,3.3,6.7,6.5,8.4v2.3c0,0.5-0.3,1-0.9,1.2L32,40
		c-3.2,1.1-5.4,4.1-5.4,7.5v10.1H20v-3.2c0-0.6-0.5-1-1-1s-1,0.5-1,1v3.8c0,0.8,0.6,1.4,1.4,1.4h58.9c0.8,0,1.4-0.6,1.4-1.4v-34
		c0-0.8-0.6-1.4-1.4-1.4H61.7c0-0.3,0-0.6,0-0.9V10.3c0-3.4-2.8-6.2-6.2-6.2H42.1c-3.4,0-6.2,2.8-6.2,6.2v8.3H18.9
		c-2.8,0-5.1,2.3-5.1,5.1v34.8c0,2.8,2.3,5.1,5.1,5.1h24.9v4.3h-1.3c-2.6,0-4.7,2.1-4.7,4.7c0,0.8,0.6,1.4,1.4,1.4h19.2
		c0.8,0,1.4-0.6,1.4-1.4c0-2.6-2.1-4.7-4.7-4.7h-1.3v-4.3h24.9c2.8,0,5.1-2.3,5.1-5.1V23.7C83.8,20.9,81.5,18.6,78.7,18.6L78.7,18.6
		z M69,57.5H28.6V47.5c0-2.5,1.6-4.7,4-5.5l2.3-0.8c-0.1,0.7-0.2,1.5-0.2,2.3c0,0.7,0.1,1.4,0.3,2.1c-2.2,0.6-3.9,2.6-3.9,5.1v3.4
		c0,1,0.8,1.7,1.7,1.7h1c0.6,0,1-0.5,1-1c0-0.6-0.5-1-1-1h-0.6v-3.1c0-1.8,1.4-3.2,3.2-3.2c0,0,0,0,0,0c0,0,0,0,0,0
		c1.8,0,3.2,1.4,3.2,3.2v3.1h-0.6c-0.6,0-1,0.5-1,1c0,0.6,0.5,1,1,1h1c1,0,1.7-0.8,1.7-1.7v-3.4c0-2.6-1.9-4.8-4.5-5.2
		c-0.2-0.7-0.3-1.3-0.3-2c0-1,0.1-2,0.4-3l4.6-1.5l5.8,5.8c0.7,0.7,1.9,0.7,2.6,0l5.7-5.7l5,1.7c0.4,1,0.6,2,0.5,3
		c0,0.9-0.2,1.8-0.5,2.7c-2.3,0.3-4,2.3-4,4.6c0,2.6,2.1,4.7,4.7,4.7c2.6,0,4.7-2.1,4.7-4.7c0-2.1-1.4-3.9-3.3-4.5
		c0.3-0.9,0.4-1.9,0.4-2.8c0-0.7-0.1-1.5-0.2-2.2L65,42c2.4,0.8,4,3,4,5.5V57.5z M54,38L48.9,43l-5.2-5.2c0.6-0.6,1-1.5,1-2.4v-1.4
		c1.3,0.4,2.6,0.7,4,0.7c0,0,0,0,0,0c1.4,0,2.8-0.2,4-0.6v1.4C52.9,36.5,53.3,37.4,54,38L54,38z M61.8,48.3L61.8,48.3L61.8,48.3
		c1.5,0,2.7,1.2,2.7,2.7c0,1.5-1.2,2.7-2.7,2.7c-1.5,0-2.7-1.2-2.7-2.7C59.1,49.5,60.3,48.3,61.8,48.3z M61.4,24.8h16.3v32.8H71
		V47.5c0-3.4-2.2-6.4-5.4-7.5l-9.9-3.3c-0.5-0.2-0.9-0.6-0.9-1.2v-2.3c1.1-0.6,2.1-1.3,3-2.3C59.7,29.2,60.9,27.1,61.4,24.8
		L61.4,24.8z M37.9,10.3c0-2.3,1.9-4.1,4.1-4.1h13.5c2.3,0,4.1,1.9,4.1,4.1v6.1c-1-0.1-2.3-0.4-3.6-1.2c-1.2-0.6-2.2-1.5-3-2.6
		c-0.5-0.7-1.5-0.8-2.2-0.4c-1.4,0.9-2.9,1.7-4.5,2.3c-2.7,1.1-5.5,1.7-8.5,1.8V10.3z M37.9,18.5c3.2-0.1,6.3-0.8,9.3-1.9
		c1.6-0.6,3.1-1.4,4.5-2.3c0.9,1.1,2.1,2.1,3.4,2.8c1.7,0.9,3.3,1.3,4.6,1.4v3.3c0,2.9-1.1,5.6-3.2,7.7c-0.9,0.9-1.9,1.6-3,2.1
		c0,0-0.1,0-0.1,0.1c-1.4,0.7-3,1-4.6,1h0c-6,0-10.9-5-10.9-11C37.9,21.7,37.9,18.5,37.9,18.5L37.9,18.5z M45.8,63.7h5.9v4.3h-5.9
		V63.7z M55.1,70c1.3,0,2.3,0.9,2.6,2.1H39.9c0.3-1.2,1.3-2.1,2.6-2.1H55.1z"/>
</g>
</svg>
