<?xml version="1.0" encoding="utf-8"?>
<!-- Generator: Adobe Illustrator 22.0.1, SVG Export Plug-In . SVG Version: 6.00 Build 0)  -->
<svg version="1.1" id="Calque_1" xmlns="http://www.w3.org/2000/svg" xmlns:xlink="http://www.w3.org/1999/xlink" x="0px" y="0px"
	 viewBox="0 0 37.2 47.2" style="enable-background:new 0 0 37.2 47.2;" xml:space="preserve">
<style type="text/css">
	.st0{fill:#B2A4D4;}
</style>
<g>
	<g>
		<path class="st0" d="M34.6,7.3H22c-0.4,0-0.7,0.3-0.7,0.7c0,0.4,0.3,0.7,0.7,0.7h12.7c0.6,0,1.1,0.5,1.1,1.1v2.8h-34V9.9
			c0-0.6,0.5-1.1,1.1-1.1h12.7c0.4,0,0.7-0.3,0.7-0.7c0-0.4-0.3-0.7-0.7-0.7H2.8c-1.4,0-2.5,1.1-2.5,2.5v30.3c0,1.4,1.1,2.5,2.5,2.5
			h31.9c1.4,0,2.5-1.1,2.5-2.5V9.9C37.2,8.5,36,7.3,34.6,7.3z M35.7,40.1c0,0.6-0.5,1.1-1.1,1.1H2.8c-0.6,0-1.1-0.5-1.1-1.1v-26h34
			V40.1z"/>
		<path class="st0" d="M18.3,8.7c0.3,0.2,0.6,0.2,0.8,0c0.2-0.2,0.3-0.5,0.3-0.8c-0.1-0.3-0.3-0.5-0.6-0.5c-0.3,0-0.6,0.2-0.7,0.4
			C17.9,8.1,18,8.5,18.3,8.7L18.3,8.7z"/>
		<path class="st0" d="M25.3,11.5c0.4,0,0.7-0.3,0.7-0.7S25.7,10,25.3,10h-0.6c-0.4,0-0.7,0.3-0.7,0.7s0.3,0.7,0.7,0.7H25.3z"/>
		<path class="st0" d="M28.9,11.5c0.4,0,0.7-0.3,0.7-0.7S29.3,10,28.9,10h-0.6c-0.4,0-0.7,0.3-0.7,0.7s0.3,0.7,0.7,0.7H28.9z"/>
		<path class="st0" d="M32.5,11.5c0.4,0,0.7-0.3,0.7-0.7S32.9,10,32.5,10h-0.6c-0.4,0-0.7,0.3-0.7,0.7s0.3,0.7,0.7,0.7H32.5z"/>
		<path class="st0" d="M9,30.9c1.3,0.8,2.9,1.3,4.4,1.3c1.5,0,3-0.4,4.2-1.2c0,0,0,0,0,0c1.2-0.7,2.2-1.7,2.9-3
			c0.7-1.2,1.1-2.7,1.1-4.1c0-0.8-0.1-1.6-0.4-2.4c-0.5-1.7-1.5-3.1-2.9-4.2c-1.4-1.1-3.2-1.7-5-1.7c-4.6,0-8.3,3.7-8.3,8.3
			C5.2,26.8,6.6,29.4,9,30.9L9,30.9z M16.6,30c-1,0.5-2.1,0.8-3.2,0.8c-1.1,0-2.2-0.3-3.2-0.8v-3.3c0-0.4,0.3-0.6,0.6-0.6h2.5
			c0,0,0,0,0,0c0,0,0,0,0,0h2.5c0.4,0,0.6,0.3,0.6,0.6L16.6,30L16.6,30z M11.1,22.3c0-1.3,1-2.3,2.3-2.3c1.3,0,2.3,1,2.3,2.3
			c0,1.3-1,2.3-2.3,2.3h0C12.1,24.6,11.1,23.6,11.1,22.3z M13.4,17.1c3,0,5.7,2,6.5,4.8c0.2,0.6,0.3,1.3,0.3,2c0,1.9-0.8,3.7-2.2,5
			v-2.2c0-1-0.7-1.9-1.7-2c0.5-0.6,0.8-1.5,0.8-2.3c0-2.1-1.7-3.7-3.7-3.7c-2.1,0-3.7,1.7-3.7,3.7c0,0.9,0.3,1.7,0.8,2.3
			c-1,0.2-1.7,1-1.7,2V29c-1.4-1.3-2.2-3.1-2.2-5C6.6,20.2,9.7,17.1,13.4,17.1L13.4,17.1z"/>
		<path class="st0" d="M25.7,29.9h5c0.9,0,1.6-0.7,1.6-1.6v-5c0-0.7-0.4-1.3-1-1.5V21c0-1.7-1.4-3-3-3c-1.7,0-3,1.4-3,3v0.8
			c-0.6,0.2-1,0.8-1,1.5v5C24.1,29.2,24.8,29.9,25.7,29.9z M30.8,28.3c0,0.1-0.1,0.1-0.1,0.1h-5c-0.1,0-0.1-0.1-0.1-0.1v-5
			c0-0.1,0.1-0.1,0.1-0.1h5c0.1,0,0.1,0.1,0.1,0.1V28.3z M28.2,19.4c0.9,0,1.6,0.7,1.6,1.6v0.7h-3.2V21
			C26.6,20.2,27.3,19.4,28.2,19.4z"/>
		<path class="st0" d="M28.8,24.7h-1.2c-0.4,0-0.7,0.3-0.7,0.7c0,0.4,0.3,0.6,0.6,0.7v0.1c0,0.4,0.3,0.7,0.7,0.7
			c0.4,0,0.7-0.3,0.7-0.7v-0.1c0.3-0.1,0.6-0.4,0.6-0.7C29.5,25.1,29.2,24.7,28.8,24.7z"/>
		<path class="st0" d="M5.2,38.6h27.1c0.4,0,0.7-0.3,0.7-0.7v-3.6c0-0.4-0.3-0.7-0.7-0.7H5.2c-0.4,0-0.7,0.3-0.7,0.7v3.6
			C4.4,38.3,4.8,38.6,5.2,38.6z M5.9,35h25.7v2.1H5.9V35z"/>
	</g>
</g>
</svg>
