<?xml version="1.0" encoding="utf-8"?>
<!-- Generator: Adobe Illustrator 22.0.1, SVG Export Plug-In . SVG Version: 6.00 Build 0)  -->
<svg version="1.1" id="Capa_1" xmlns="http://www.w3.org/2000/svg" xmlns:xlink="http://www.w3.org/1999/xlink" x="0px" y="0px"
	 viewBox="0 0 512 512" style="enable-background:new 0 0 512 512;" xml:space="preserve">
<style type="text/css">
	.st0{fill:#B2A4D4;}
</style>
<g>
	<path class="st0" d="M425.4,239.7l37.1-58.3c3.2,1,6.5,1.6,10,1.6c17.9,0,32.4-14.5,32.4-32.4s-14.5-32.4-32.4-32.4
		s-32.4,14.5-32.4,32.4c0,8.4,3.2,16.2,8.7,22.1l-37.4,58.8H306.9l-67.5-104.9l43.1-59.3c3.7,1.5,7.7,2.3,11.8,2.3
		c17.9,0,32.4-14.5,32.4-32.4S312.3,5,294.4,5C276.5,5,262,19.5,262,37.4c0,7.6,2.7,14.9,7.4,20.6l-43.9,60.4h-78
		c-3.6-13.9-16.2-24.3-31.2-24.3c-17.9,0-32.4,14.5-32.4,32.4c0,8.3,3.1,16.1,8.6,22L58,202.1c-4.6-1.8-9.5-2.8-14.6-2.8
		C21.2,199.3,3,217.4,3,239.7s18.2,40.5,40.5,40.5c5,0,10-1,14.6-2.8l48.5,75.4l-43.1,59.3c-3.7-1.5-7.7-2.3-11.8-2.3
		c-17.9,0-32.4,14.5-32.4,32.4c0,17.9,14.5,32.4,32.4,32.4s32.4-14.5,32.4-32.4c0-7.6-2.7-14.9-7.4-20.6l43.9-60.4h104.8l58.2,90.5
		c-3.2,4.2-5.2,9.3-5.2,14.7c0,13.4,10.9,24.3,24.3,24.3c10.5,0,19.4-6.8,22.8-16.2h50.9c3.8,18.4,20.1,32.4,39.7,32.4
		c22.3,0,40.5-18.2,40.5-40.5c0-11.1-4.5-21.4-12.3-28.9l54.3-84.4L425.4,239.7z M472.5,134.5c8.9,0,16.2,7.3,16.2,16.2
		c0,8.9-7.3,16.2-16.2,16.2c-3.1,0-6.1-0.9-8.7-2.5c-4.7-3-7.5-8.1-7.5-13.6C456.3,141.8,463.6,134.5,472.5,134.5z M294.4,21.2
		c8.9,0,16.2,7.3,16.2,16.2s-7.3,16.2-16.2,16.2c-3.5,0-6.7-1.1-9.6-3.2c-4.1-2.9-6.6-7.8-6.6-13C278.2,28.5,285.5,21.2,294.4,21.2z
		 M147.6,134.5h77.7l67.6,105.2L225.2,345H120.7l-49.1-76.3c7.8-7.5,12.3-17.8,12.3-28.9c0-11.1-4.5-21.4-12.3-28.9l34.5-53.7
		c3.3,1.1,6.7,1.7,10.1,1.7C131.4,158.8,143.9,148.4,147.6,134.5L147.6,134.5z M116.3,110.2c8.9,0,16.2,7.3,16.2,16.2
		c0,8.9-7.3,16.2-16.2,16.2c-3.1,0-6-0.9-8.8-2.6c-4.7-3-7.4-8-7.4-13.6C100.1,117.5,107.4,110.2,116.3,110.2z M19.2,239.7
		c0-13.4,10.9-24.3,24.3-24.3c4.7,0,9.2,1.3,13.1,3.9c7,4.5,11.2,12.1,11.2,20.4c0,8.3-4.2,15.9-11.2,20.4
		c-3.9,2.5-8.4,3.9-13.1,3.9C30.1,264,19.2,253.1,19.2,239.7z M51.6,458.3c-8.9,0-16.2-7.3-16.2-16.2c0-8.9,7.3-16.2,16.2-16.2
		c3.5,0,6.7,1.1,9.6,3.2c4.1,2.9,6.6,7.8,6.6,13C67.8,451,60.5,458.3,51.6,458.3z M302.5,474.5c-4.5,0-8.1-3.6-8.1-8.1
		c0-2.7,1.4-5.3,3.9-6.9c1.2-0.8,2.6-1.2,4.2-1.2c4.5,0,8.1,3.6,8.1,8.1C310.6,470.9,307,474.5,302.5,474.5z M376.2,458.3h-50.9
		c-3.4-9.4-12.3-16.2-22.8-16.2c-1.9,0-3.8,0.3-5.6,0.7l-57.7-89.7l67.6-105.2h104.5l67.6,105.2l-48.7,75.7
		c-4.6-1.8-9.5-2.8-14.6-2.8C396.3,425.9,379.9,439.9,376.2,458.3L376.2,458.3z M415.8,490.7c-13.4,0-24.3-10.9-24.3-24.3
		c0-13.4,10.9-24.3,24.3-24.3c4.7,0,9.2,1.3,13.1,3.9c7,4.5,11.2,12.1,11.2,20.4C440.1,479.8,429.2,490.7,415.8,490.7z"/>
	<path class="st0" d="M116.3,199.3h64.8v16.2h-64.8V199.3z"/>
	<path class="st0" d="M197.3,199.3h32.4v16.2h-32.4V199.3z"/>
	<path class="st0" d="M116.3,231.6h113.3v16.2H116.3V231.6z"/>
	<path class="st0" d="M213.5,264h16.2v16.2h-16.2V264z"/>
	<path class="st0" d="M181.1,264h16.2v16.2h-16.2V264z"/>
	<path class="st0" d="M116.3,264h48.6v16.2h-48.6V264z"/>
	<path class="st0" d="M302.5,312.6h64.8v16.2h-64.8V312.6z"/>
	<path class="st0" d="M383.4,312.6h32.4v16.2h-32.4V312.6z"/>
	<path class="st0" d="M302.5,345h113.3v16.2H302.5V345z"/>
	<path class="st0" d="M399.6,377.4h16.2v16.2h-16.2V377.4z"/>
	<path class="st0" d="M367.3,377.4h16.2v16.2h-16.2V377.4z"/>
	<path class="st0" d="M302.5,377.4h48.6v16.2h-48.6V377.4z"/>
</g>
</svg>
