<svg xmlns="http://www.w3.org/2000/svg" width="37.205" height="47.241" viewBox="0 0 37.205 47.241">
  <g id="picto" transform="translate(-14.132 -1.602)">
    <g id="picto-2" data-name="picto" transform="translate(15.132 2.632)">
      <path id="Stroke_4" data-name="Stroke 4" d="M0,0V12.358a4.382,4.382,0,0,0,4.153,4.579h5.2A4.381,4.381,0,0,0,13.5,12.358V0" transform="translate(0 0.005)" fill="none" stroke="#000" stroke-linecap="round" stroke-linejoin="round" stroke-miterlimit="10" stroke-width="2"/>
      <path id="Stroke_6" data-name="Stroke 6" d="M.329,28.268V0" transform="translate(6.398 16.943)" fill="none" stroke="#000" stroke-linecap="round" stroke-linejoin="round" stroke-miterlimit="10" stroke-width="2"/>
      <path id="Stroke_8" data-name="Stroke 8" d="M.329,13.371V0" transform="translate(4.568 0.005)" fill="none" stroke="#000" stroke-linecap="round" stroke-linejoin="round" stroke-miterlimit="10" stroke-width="2"/>
      <path id="Stroke_10" data-name="Stroke 10" d="M.329,13.371V0" transform="translate(8.6 0.005)" fill="none" stroke="#000" stroke-linecap="round" stroke-linejoin="round" stroke-miterlimit="10" stroke-width="2"/>
      <path id="Stroke_12" data-name="Stroke 12" d="M0,45.211V1.508A1.512,1.512,0,0,1,2.7.576c6.093,7.582,7.7,17.889,8.12,23.3A3.409,3.409,0,0,1,7.413,27.54H4.027" transform="translate(24.374 0)" fill="none" stroke="#000" stroke-linecap="round" stroke-linejoin="round" stroke-miterlimit="10" stroke-width="2"/>
    </g>
  </g>
</svg>
