<?xml version="1.0" encoding="UTF-8"?>
<svg width="47px" height="48px" viewBox="0 0 47 48" version="1.1" xmlns="http://www.w3.org/2000/svg" xmlns:xlink="http://www.w3.org/1999/xlink">
    <!-- Generator: Sketch 60.1 (88133) - https://sketch.com -->
    <title>picto</title>
    <desc>Created with Sketch.</desc>
    <g id="Blomy---Site-Mobile" stroke="none" stroke-width="1" fill="none" fill-rule="evenodd" stroke-linecap="round" stroke-linejoin="round">
        <g id="2.0-Application-mob" transform="translate(-39.000000, -3237.000000)" stroke="#302C2E" stroke-width="2">
            <g id="Notation" transform="translate(20.000000, 3020.000000)">
                <g id="cosmétique" transform="translate(0.000000, 206.000000)">
                    <g id="picto" transform="translate(10.000000, 10.000000)">
                        <g transform="translate(10.491803, 1.967213)">
                            <path d="M4.90153005,26.9834137 L39.7435744,26.9834137 L39.7435744,33.1400836 C39.7435744,37.9498554 35.8441851,41.8492446 31.0339634,41.8492446 L13.6111411,41.8492446 C8.80091932,41.8492446 4.90153005,37.9498554 4.90153005,33.1400836 L4.90153005,26.9834137 Z" id="Stroke-1"></path>
                            <path d="M42.6048666,27.0066345 L2.03996786,27.0066345 C1.03778206,27.0066345 0.225053038,26.1939055 0.225053038,25.1912697 C0.225053038,24.1890839 1.03778206,23.3763549 2.03996786,23.3763549 L42.6048666,23.3763549 C43.6075024,23.3763549 44.4197814,24.1890839 44.4197814,25.1912697 C44.4197814,26.1939055 43.6075024,27.0066345 42.6048666,27.0066345 Z" id="Stroke-3"></path>
                            <path d="M7.17006107,39.171784 L6.13457409,42.6864095 C5.77141112,44.0976599 6.8374992,45.472909 8.29465124,45.472909 C8.94537448,45.472909 9.56324654,45.1884989 9.98716168,44.6948312 L12.4298489,41.8493796" id="Stroke-5"></path>
                            <path d="M37.7922597,39.171784 L38.8043459,42.6864095 C39.1594086,44.0976599 38.1176213,45.472909 36.6928705,45.472909 C36.0569977,45.472909 35.4526262,45.1884989 35.0386114,44.6948312 L32.6508261,41.8493796" id="Stroke-7"></path>
                            <path d="M8.29289617,22.7094761 L8.29289617,4.98154291 C8.29289617,2.3547991 10.4223722,0.224873031 13.0495661,0.224873031 L14.0351013,0.224873031 C16.6622951,0.224873031 18.7917711,2.3547991 18.7917711,4.98154291 L18.7917711,6.16913533" id="Stroke-9"></path>
                            <path d="M23.2704661,11.4142977 L14.3137962,11.4142977 L14.3137962,10.8837287 C14.3137962,8.40999036 16.3186178,6.40516876 18.7919061,6.40516876 C21.2651945,6.40516876 23.2704661,8.40999036 23.2704661,10.8837287 L23.2704661,11.4142977 Z" id="Stroke-11"></path>
                        </g>
                    </g>
                </g>
            </g>
        </g>
    </g>
</svg>