<?xml version="1.0" encoding="UTF-8"?>
<svg width="47px" height="48px" viewBox="0 0 47 48" version="1.1" xmlns="http://www.w3.org/2000/svg" xmlns:xlink="http://www.w3.org/1999/xlink">
    <!-- Generator: Sketch 61.1 (89650) - https://sketch.com -->
    <title>notation-cosmetique</title>
    <desc>Created with Sketch.</desc>
    <g id="Page-1" stroke="none" stroke-width="1" fill="none" fill-rule="evenodd">
        <g id="notation-cosmetique" transform="translate(1.000000, 1.000000)" stroke="#00DB5F" stroke-width="2">
            <path d="M5.39333305,26.9506267 L40.2353774,26.9506267 L40.2353774,33.1072966 C40.2353774,37.9170684 36.3359881,41.8164576 31.5257664,41.8164576 L14.1029441,41.8164576 C9.29272232,41.8164576 5.39333305,37.9170684 5.39333305,33.1072966 L5.39333305,26.9506267 Z" id="Stroke-1"></path>
            <path d="M43.0966696,26.9738475 L2.53177086,26.9738475 C1.52958506,26.9738475 0.716856038,26.1611185 0.716856038,25.1584827 C0.716856038,24.1562969 1.52958506,23.3435679 2.53177086,23.3435679 L43.0966696,23.3435679 C44.0993054,23.3435679 44.9115844,24.1562969 44.9115844,25.1584827 C44.9115844,26.1611185 44.0993054,26.9738475 43.0966696,26.9738475 Z" id="Stroke-3"></path>
            <path d="M7.66186407,39.138997 L6.62637709,42.6536225 C6.26321412,44.0648729 7.3293022,45.440122 8.78645424,45.440122 C9.43717748,45.440122 10.0550495,45.1557119 10.4789647,44.6620442 L12.9216519,41.8165926" id="Stroke-5"></path>
            <path d="M38.2840627,39.138997 L39.2961489,42.6536225 C39.6512116,44.0648729 38.6094243,45.440122 37.1846735,45.440122 C36.5488007,45.440122 35.9444292,45.1557119 35.5304144,44.6620442 L33.1426291,41.8165926" id="Stroke-7"></path>
            <path d="M8.78469917,22.6766891 L8.78469917,4.94875591 C8.78469917,2.3220121 10.9141752,0.192086031 13.5413691,0.192086031 L14.5269043,0.192086031 C17.1540981,0.192086031 19.2835741,2.3220121 19.2835741,4.94875591 L19.2835741,6.13634833" id="Stroke-9"></path>
            <path d="M23.7622691,11.3815107 L14.8055992,11.3815107 L14.8055992,10.8509417 C14.8055992,8.37720336 16.8104208,6.37238176 19.2837091,6.37238176 C21.7569975,6.37238176 23.7622691,8.37720336 23.7622691,10.8509417 L23.7622691,11.3815107 Z" id="Stroke-11"></path>
        </g>
    </g>
</svg>