<?xml version="1.0" encoding="utf-8"?>
<!-- Generator: Adobe Illustrator 22.0.1, SVG Export Plug-In . SVG Version: 6.00 Build 0)  -->
<svg version="1.1" id="Calque_1" xmlns="http://www.w3.org/2000/svg" xmlns:xlink="http://www.w3.org/1999/xlink" x="0px" y="0px"
	 viewBox="0 0 401.8 459" style="enable-background:new 0 0 401.8 459;" xml:space="preserve">
<style type="text/css">
	.st0{fill:#E6E6FC;}
</style>
<g id="étoiles" transform="translate(0)">
	<path id="Fill_14" class="st0" d="M291.6,25.8l4.6-22.6c0.4-2.2,2.6-3.6,4.8-3.2c0.9,0.2,1.7,0.6,2.3,1.3l15.1,17.4
		c0.9,1,2.2,1.5,3.5,1.4l22.9-2.6c2.2-0.3,4.2,1.3,4.5,3.6c0.1,0.9-0.1,1.8-0.6,2.5l-11.9,19.7c-0.7,1.1-0.8,2.6-0.2,3.8l9.5,21
		c0.9,2,0,4.4-2,5.4c-0.8,0.4-1.7,0.5-2.6,0.3l-22.4-5.2c-1.3-0.3-2.7,0.1-3.7,1l-17,15.6c-1.7,1.5-4.2,1.4-5.7-0.3
		c-0.6-0.7-1-1.5-1-2.4l-2-23c-0.1-1.3-0.9-2.5-2-3.2l-20-11.4c-2-1.1-2.6-3.6-1.5-5.5c0.4-0.8,1.1-1.4,1.9-1.7l21.2-9
		C290.5,28.2,291.4,27.1,291.6,25.8"/>
	<path id="Fill_14_Copy_2" class="st0" d="M344.1,286.8l4.6-22.6c0.4-2.2,2.6-3.6,4.8-3.2c0.9,0.2,1.7,0.6,2.3,1.3l15.1,17.4
		c0.9,1,2.2,1.5,3.5,1.4l22.9-2.6c2.2-0.3,4.2,1.3,4.5,3.6c0.1,0.9-0.1,1.8-0.6,2.5l-11.9,19.8c-0.7,1.1-0.8,2.6-0.2,3.8l9.5,21
		c0.9,2,0,4.4-2,5.4c-0.8,0.4-1.7,0.5-2.6,0.3l-22.4-5.2c-1.3-0.3-2.7,0.1-3.7,1l-17,15.6c-1.7,1.5-4.2,1.4-5.7-0.3
		c-0.6-0.7-1-1.5-1-2.4l-2-23c-0.1-1.3-0.9-2.5-2-3.2l-20-11.4c-2-1.1-2.6-3.6-1.5-5.5c0.4-0.8,1.1-1.4,1.9-1.7l21.2-9
		C342.9,289.2,343.8,288.1,344.1,286.8"/>
	<path id="Fill_14_Copy" class="st0" d="M13.7,427.5l2.4-11.8c0.2-1.2,1.4-1.9,2.5-1.7c0.5,0.1,0.9,0.3,1.2,0.7l7.9,9.1
		c0.5,0.5,1.2,0.8,1.8,0.7l12-1.4c1.2-0.1,2.2,0.7,2.4,1.9c0.1,0.5,0,0.9-0.3,1.3l-6.2,10.3c-0.4,0.6-0.4,1.3-0.1,2l5,10.9
		c0.5,1.1,0,2.3-1.1,2.8c-0.4,0.2-0.9,0.2-1.4,0.1l-11.8-2.7c-0.7-0.2-1.4,0-1.9,0.5l-8.9,8.1c-0.9,0.8-2.2,0.7-3-0.1
		c-0.3-0.3-0.5-0.8-0.5-1.2l-1.1-12c-0.1-0.7-0.5-1.3-1.1-1.7l-10.5-5.9c-1-0.6-1.4-1.9-0.8-2.9c0.2-0.4,0.6-0.7,1-0.9l11.1-4.7
		C13.1,428.7,13.6,428.2,13.7,427.5"/>
	<path id="Fill_14_Copy-2" class="st0" d="M20.7,217.5l2.4-11.8c0.2-1.2,1.4-1.9,2.5-1.7c0.5,0.1,0.9,0.3,1.2,0.7l7.9,9.1
		c0.5,0.5,1.2,0.8,1.8,0.7l12-1.4c1.2-0.1,2.2,0.7,2.4,1.9c0.1,0.5,0,0.9-0.3,1.3l-6.2,10.3c-0.4,0.6-0.4,1.3-0.1,2l5,10.9
		c0.5,1.1,0,2.3-1.1,2.8c-0.4,0.2-0.9,0.2-1.4,0.1l-11.8-2.7c-0.7-0.2-1.4,0-1.9,0.5l-8.9,8.1c-0.9,0.8-2.2,0.7-3-0.1
		c-0.3-0.3-0.5-0.8-0.5-1.2l-1.1-12c-0.1-0.7-0.5-1.3-1.1-1.7l-10.5-5.9c-1-0.6-1.4-1.9-0.8-2.9c0.2-0.4,0.6-0.7,1-0.9l11.1-4.7
		C20.1,218.7,20.6,218.2,20.7,217.5"/>
</g>
</svg>
