<?xml version="1.0" encoding="utf-8"?>
<!-- Generator: Adobe Illustrator 22.0.1, SVG Export Plug-In . SVG Version: 6.00 Build 0)  -->
<svg version="1.1" id="Calque_1" xmlns="http://www.w3.org/2000/svg" xmlns:xlink="http://www.w3.org/1999/xlink" x="0px" y="0px"
	 viewBox="0 0 1805 458" style="enable-background:new 0 0 1805 458;" xml:space="preserve">
<style type="text/css">
	.st0{fill:#E6E6FC;}
</style>
<title>étoiles</title>
<desc>Created with Sketch.</desc>
<g id="Blomy---Site-Web">
	<g id="_x32_.0-Application-web" transform="translate(-58.000000, -1573.000000)">
		<g id="Premium" transform="translate(58.000000, 1491.000000)">
			<g id="étoiles" transform="translate(0.000000, 82.000000)">
				<path id="Fill-1" class="st0" d="M159.7,282.2l2.4-12c0.4-1.8,2.5-2.3,3.7-1l7.9,9.3c0.5,0.5,1.2,0.8,1.8,0.7l12-1.4
					c1.8-0.2,3,1.7,2.1,3.3l-6.2,10.5c-0.4,0.6-0.4,1.4-0.1,2l5,11.2c0.7,1.6-0.7,3.4-2.4,3l-11.8-2.8c-0.7-0.2-1.4,0-1.9,0.5
					l-8.9,8.3c-1.3,1.2-3.4,0.4-3.6-1.4l-1.1-12.2c-0.1-0.7-0.5-1.3-1.1-1.7l-10.5-6.1c-1.5-0.9-1.4-3.2,0.2-3.9l11.1-4.8
					C159.1,283.5,159.6,282.9,159.7,282.2"/>
				<path id="Fill-1-Copy" class="st0" d="M13.7,253.2l2.4-12c0.4-1.8,2.5-2.3,3.7-1l7.9,9.3c0.5,0.5,1.2,0.8,1.8,0.7l12-1.4
					c1.8-0.2,3,1.7,2.1,3.3l-6.2,10.5c-0.4,0.6-0.4,1.4-0.1,2l5,11.2c0.7,1.6-0.7,3.4-2.4,3L28.2,276c-0.7-0.2-1.4,0-1.9,0.5
					l-8.9,8.3c-1.3,1.2-3.4,0.4-3.6-1.4l-1.1-12.2c-0.1-0.7-0.5-1.3-1.1-1.7l-10.5-6.1c-1.5-0.9-1.4-3.2,0.2-3.9l11.1-4.8
					C13.1,254.5,13.6,253.9,13.7,253.2"/>
				<path id="Fill-4" class="st0" d="M563.7,382.2l2.4-12c0.4-1.8,2.5-2.3,3.7-1l7.9,9.3c0.5,0.5,1.2,0.8,1.8,0.7l12-1.4
					c1.8-0.2,3,1.7,2.1,3.3l-6.2,10.5c-0.4,0.6-0.4,1.4-0.1,2l5,11.2c0.7,1.6-0.7,3.4-2.4,3l-11.8-2.8c-0.7-0.2-1.4,0-1.9,0.5
					l-8.9,8.3c-1.3,1.2-3.4,0.4-3.6-1.4l-1.1-12.2c-0.1-0.7-0.5-1.3-1.1-1.7l-10.5-6.1c-1.5-0.9-1.4-3.2,0.2-3.9l11.1-4.8
					C563.1,383.5,563.6,382.9,563.7,382.2"/>
				<path id="Fill-6" class="st0" d="M1434.5,202l21.8-34.2c3.2-5,10.8-4.2,12.8,1.4l14.1,38.1c0.8,2.2,2.7,3.9,5,4.5l39.5,10.1
					c5.8,1.5,7.3,8.9,2.7,12.5l-32.1,25.1c-1.9,1.5-2.9,3.7-2.7,6.1l2.6,40.5c0.4,5.9-6.2,9.7-11.2,6.4l-33.9-22.6
					c-2-1.3-4.4-1.6-6.6-0.7l-37.9,14.9c-5.5,2.2-11.2-2.9-9.6-8.6l11.1-39c0.6-2.3,0.1-4.7-1.4-6.5l-26-31.2
					c-3.8-4.6-0.7-11.5,5.3-11.7l40.7-1.5C1431,205.2,1433.2,204,1434.5,202"/>
				<path id="Fill-6-Copy" class="st0" d="M1586.5,38l21.8-34.2c3.2-5,10.8-4.2,12.8,1.4l14.1,38.1c0.8,2.2,2.7,3.9,5,4.5l39.5,10.1
					c5.8,1.5,7.3,8.9,2.7,12.5l-32.1,25.1c-1.9,1.5-2.9,3.7-2.7,6.1l2.6,40.5c0.4,5.9-6.2,9.7-11.2,6.4l-33.9-22.6
					c-2-1.3-4.4-1.6-6.6-0.7l-37.9,14.9c-5.5,2.2-11.2-2.9-9.6-8.6l11.1-39c0.6-2.3,0.1-4.7-1.4-6.5l-26-31.2
					c-3.8-4.6-0.7-11.5,5.3-11.7l40.7-1.5C1583,41.2,1585.2,40,1586.5,38"/>
				<path id="Fill-6-Copy-2" class="st0" d="M1706.5,253l21.8-34.2c3.2-5,10.8-4.2,12.8,1.4l14.1,38.1c0.8,2.2,2.7,3.9,5,4.5
					l39.5,10.1c5.8,1.5,7.3,8.9,2.7,12.5l-32.1,25.1c-1.9,1.5-2.9,3.7-2.7,6.1l2.6,40.5c0.4,5.9-6.2,9.7-11.2,6.4l-33.9-22.6
					c-2-1.3-4.4-1.6-6.6-0.7l-37.9,14.9c-5.5,2.2-11.2-2.9-9.6-8.6l11.1-39c0.6-2.3,0.1-4.7-1.4-6.5l-26-31.2
					c-3.8-4.6-0.7-11.5,5.3-11.7l40.7-1.5C1703,256.2,1705.2,255,1706.5,253"/>
				<path id="Fill-8" class="st0" d="M1322.8,349.9l34.6-2.8c5-0.4,8.4,5.2,5.6,9.4l-18.8,29.2c-1.1,1.7-1.3,3.8-0.5,5.7l13.3,32.1
					c1.9,4.7-2.3,9.6-7.2,8.3l-33.5-8.9c-1.9-0.5-4,0-5.5,1.3l-26.3,22.7c-3.8,3.3-9.8,0.8-10.1-4.3l-1.9-34.8
					c-0.1-2-1.2-3.8-2.9-4.9l-29.6-18.1c-4.3-2.6-3.7-9.1,1-11l32.3-12.6c1.9-0.7,3.3-2.3,3.7-4.3l8-33.9c1.2-4.9,7.5-6.4,10.7-2.4
					l21.9,27C1318.9,349.2,1320.8,350.1,1322.8,349.9"/>
				<path id="Fill-10" class="st0" d="M952.4,388.9l0.8-20.1c0.1-2.9,3.6-4.5,5.8-2.6l15.5,12.9c0.9,0.7,2.1,1,3.2,0.7l19.4-5.4
					c2.8-0.8,5.3,2,4.3,4.7l-7.5,18.7c-0.4,1.1-0.3,2.3,0.3,3.3l11.2,16.7c1.6,2.4-0.3,5.7-3.2,5.5l-20.1-1.3
					c-1.2-0.1-2.3,0.4-3,1.3l-12.5,15.8c-1.8,2.3-5.5,1.5-6.2-1.3l-5-19.5c-0.3-1.1-1.1-2-2.2-2.5l-18.9-7c-2.8-1-3.1-4.8-0.7-6.3
					l17-10.7C951.7,391.1,952.3,390.1,952.4,388.9"/>
				<path id="Fill-12" class="st0" d="M609,234.6l11.4-14.9c1.7-2.2,5.1-1.5,5.8,1.2l4.8,18.2c0.3,1.1,1.1,1.9,2.1,2.3l17.7,6.3
					c2.6,0.9,3,4.4,0.7,5.9l-15.7,10.2c-0.9,0.6-1.5,1.6-1.5,2.7l-0.5,18.8c-0.1,2.7-3.3,4.2-5.4,2.5l-14.6-11.8
					c-0.8-0.7-2-0.9-3-0.6l-18,5.3c-2.6,0.8-5-1.8-4-4.4l6.7-17.5c0.4-1,0.3-2.2-0.4-3.1l-10.6-15.5c-1.5-2.3,0.2-5.3,2.9-5.2
					l18.7,1C607.3,235.9,608.3,235.5,609,234.6"/>
				<path id="Fill-14" class="st0" d="M1276.4,94.5l5.7-28c0.8-4.1,6-5.4,8.7-2.3l18.8,21.6c1.1,1.3,2.7,1.9,4.4,1.7l28.4-3.2
					c4.2-0.5,7,4,4.9,7.6l-14.7,24.5c-0.9,1.4-1,3.2-0.3,4.7l11.9,26c1.7,3.8-1.6,7.9-5.7,7l-27.9-6.4c-1.6-0.4-3.3,0.1-4.5,1.2
					l-21.1,19.3c-3.1,2.8-8.1,0.9-8.4-3.3l-2.5-28.5c-0.1-1.7-1.1-3.1-2.5-3.9l-24.9-14.1c-3.6-2.1-3.3-7.4,0.5-9l26.3-11.2
					C1274.9,97.4,1276,96.1,1276.4,94.5"/>
				<path id="Fill-16" class="st0" d="M241.4,382.9c0.5-2.5,3.7-3.4,5.4-1.4l11.6,13.3c0.7,0.8,1.7,1.2,2.7,1l17.5-2
					c2.6-0.3,4.3,2.5,3,4.7l-9.1,15.1c-0.5,0.9-0.6,2-0.2,2.9l7.3,16.1c1.1,2.3-1,4.9-3.5,4.3l-17.2-4c-1-0.2-2,0-2.8,0.7l-13,11.9
					c-1.9,1.7-5,0.5-5.2-2l-1.5-17.6c-0.1-1-0.7-1.9-1.6-2.4l-15.3-8.7c-2.2-1.3-2-4.6,0.3-5.6l16.2-6.9c0.9-0.4,1.6-1.2,1.8-2.2
					L241.4,382.9z"/>
				<path id="Fill-16-Copy" class="st0" d="M67.4,393.9c0.5-2.5,3.7-3.4,5.4-1.4l11.6,13.3c0.7,0.8,1.7,1.2,2.7,1l17.5-2
					c2.6-0.3,4.3,2.5,3,4.7l-9.1,15.1c-0.5,0.9-0.6,2-0.2,2.9l7.3,16.1c1.1,2.3-1,4.9-3.5,4.3l-17.2-4c-1-0.2-2,0-2.8,0.7l-13,11.9
					c-1.9,1.7-5,0.5-5.2-2L62.5,437c-0.1-1-0.7-1.9-1.6-2.4l-15.3-8.7c-2.2-1.3-2-4.6,0.3-5.6l16.2-6.9c0.9-0.4,1.6-1.2,1.8-2.2
					L67.4,393.9z"/>
				<path id="Fill-16-Copy-2" class="st0" d="M241.4,184.9c0.5-2.5,3.7-3.4,5.4-1.4l11.6,13.3c0.7,0.8,1.7,1.2,2.7,1l17.5-2
					c2.6-0.3,4.3,2.5,3,4.7l-9.1,15.1c-0.5,0.9-0.6,2-0.2,2.9l7.3,16.1c1.1,2.3-1,4.9-3.5,4.3l-17.2-4c-1-0.2-2,0-2.8,0.7l-13,11.9
					c-1.9,1.7-5,0.5-5.2-2l-1.5-17.6c-0.1-1-0.7-1.9-1.6-2.4l-15.3-8.7c-2.2-1.3-2-4.6,0.3-5.6l16.2-6.9c0.9-0.4,1.6-1.2,1.8-2.2
					L241.4,184.9z"/>
			</g>
		</g>
	</g>
</g>
</svg>
