<svg xmlns="http://www.w3.org/2000/svg" width="401.76" height="459" viewBox="0 0 401.76 459">
  <g id="étoiles" transform="translate(0)">
    <path id="Fill_14" data-name="Fill 14" d="M26.066,25.825l4.6-22.574A4.058,4.058,0,0,1,37.706,1.4L52.825,18.782a4.057,4.057,0,0,0,3.52,1.369l22.891-2.6a4.058,4.058,0,0,1,3.937,6.122l-11.86,19.75a4.056,4.056,0,0,0-.214,3.77l9.546,20.968A4.058,4.058,0,0,1,76.038,73.8L53.589,68.62a4.06,4.06,0,0,0-3.652.962L32.945,85.139A4.058,4.058,0,0,1,26.162,82.5l-2.014-22.95a4.056,4.056,0,0,0-2.043-3.176L2.059,45.023a4.058,4.058,0,0,1,.413-7.266l21.2-9.007a4.058,4.058,0,0,0,2.39-2.924" transform="translate(265.569 0)" fill="#fcf1e3"/>
    <path id="Fill_14_Copy_2" data-name="Fill 14 Copy 2" d="M26.066,25.825l4.6-22.574A4.058,4.058,0,0,1,37.706,1.4L52.825,18.782a4.057,4.057,0,0,0,3.52,1.369l22.891-2.6a4.058,4.058,0,0,1,3.937,6.122l-11.86,19.75a4.056,4.056,0,0,0-.214,3.77l9.546,20.968A4.058,4.058,0,0,1,76.038,73.8L53.589,68.62a4.06,4.06,0,0,0-3.652.962L32.945,85.139A4.058,4.058,0,0,1,26.162,82.5l-2.014-22.95a4.056,4.056,0,0,0-2.043-3.176L2.059,45.023a4.058,4.058,0,0,1,.413-7.266l21.2-9.007a4.058,4.058,0,0,0,2.39-2.924" transform="translate(318 261)" fill="#fcf1e3"/>
    <path id="Fill_14_Copy" data-name="Fill 14 Copy" d="M13.693,13.48,16.11,1.7a2.136,2.136,0,0,1,3.7-.967L27.749,9.8a2.138,2.138,0,0,0,1.849.715L41.623,9.161a2.12,2.12,0,0,1,2.068,3.2l-6.23,10.309a2.106,2.106,0,0,0-.113,1.968l5.014,10.945a2.122,2.122,0,0,1-2.419,2.942l-11.793-2.7a2.142,2.142,0,0,0-1.919.5l-8.926,8.121a2.134,2.134,0,0,1-3.563-1.377L12.685,31.085a2.116,2.116,0,0,0-1.073-1.658L1.081,23.5A2.112,2.112,0,0,1,1.3,19.708l11.139-4.7a2.121,2.121,0,0,0,1.256-1.526" transform="translate(0 414)" fill="#fcf1e3"/>
    <path id="Fill_14_Copy-2" data-name="Fill 14 Copy" d="M13.693,13.48,16.11,1.7a2.136,2.136,0,0,1,3.7-.967L27.749,9.8a2.138,2.138,0,0,0,1.849.715L41.623,9.161a2.12,2.12,0,0,1,2.068,3.2l-6.23,10.309a2.106,2.106,0,0,0-.113,1.968l5.014,10.945a2.122,2.122,0,0,1-2.419,2.942l-11.793-2.7a2.142,2.142,0,0,0-1.919.5l-8.926,8.121a2.134,2.134,0,0,1-3.563-1.377L12.685,31.085a2.116,2.116,0,0,0-1.073-1.658L1.081,23.5A2.112,2.112,0,0,1,1.3,19.708l11.139-4.7a2.121,2.121,0,0,0,1.256-1.526" transform="translate(7 204)" fill="#fcf1e3"/>
  </g>
</svg>
