<?xml version="1.0" encoding="utf-8"?>
<!-- Generator: Adobe Illustrator 22.0.1, SVG Export Plug-In . SVG Version: 6.00 Build 0)  -->
<svg version="1.1" id="Calque_1" xmlns="http://www.w3.org/2000/svg" xmlns:xlink="http://www.w3.org/1999/xlink" x="0px" y="0px"
	 viewBox="0 0 24 24" style="enable-background:new 0 0 24 24;" xml:space="preserve">
<style type="text/css">
	.st0{fill:#6C6C6C;}
</style>
<title>bonbon</title>
<desc>Created with Sketch.</desc>
<g id="Outline">
	<g>
		<path class="st0" d="M23.1,5.5c-0.2,0-0.4,0.2-0.4,0.4v13.8h-2.1c-2.5,0-4.9,0.3-7.3,0.8c-0.3,0.1-0.6-0.1-0.8-0.3
			c1.4-0.8,2.9-1.3,4.5-1.3h4.5c0.2,0,0.4-0.2,0.4-0.4v-2.7c0-0.2-0.2-0.4-0.4-0.4c-0.2,0-0.4,0.2-0.4,0.4v2.3H17
			c-1.6,0-3.3,0.4-4.7,1.2V8.9c0-0.2-0.2-0.4-0.4-0.4c-0.2,0-0.4,0.2-0.4,0.4v10.4c-1.4-0.8-3-1.2-4.7-1.2H2.8V4.3h5.9
			c1.6,0,2.9,1.3,2.9,2.9c0,0.2,0.2,0.4,0.4,0.4c0.2,0,0.4-0.2,0.4-0.4c0-1.6,1.3-2.9,2.9-2.9h5.9v10c0,0.2,0.2,0.4,0.4,0.4
			c0.2,0,0.4-0.2,0.4-0.4V3.9c0-0.2-0.2-0.4-0.4-0.4h-6.3c-1.4,0-2.7,0.8-3.3,2c-0.6-1.3-1.9-2-3.3-2H2.4C2.2,3.5,2,3.7,2,3.9v14.6
			c0,0.2,0.2,0.4,0.4,0.4h4.5c1.6,0,3.2,0.4,4.5,1.3c-0.2,0.3-0.5,0.4-0.8,0.3c-2.4-0.6-4.9-0.8-7.3-0.8H1.2V5.8
			c0-0.2-0.2-0.4-0.4-0.4S0.5,5.6,0.5,5.8V20c0,0.2,0.2,0.4,0.4,0.4h2.5c2.4,0,4.8,0.3,7.2,0.8c0.5,0.1,1.1-0.1,1.5-0.5
			c0.4,0.4,0.9,0.6,1.5,0.5c2.3-0.5,4.7-0.8,7.2-0.8h2.5c0.2,0,0.4-0.2,0.4-0.4V5.8C23.5,5.6,23.3,5.5,23.1,5.5z"/>
		<path class="st0" d="M10.7,6.8c-0.6-0.4-1.3-0.6-2-0.6H4.3c-0.2,0-0.4,0.2-0.4,0.4C3.9,6.8,4.1,7,4.3,7h4.4c0.6,0,1.1,0.2,1.6,0.5
			c0.2,0.1,0.4,0.1,0.5-0.1C10.9,7.2,10.9,7,10.7,6.8L10.7,6.8z"/>
		<path class="st0" d="M19.6,6.2h-4.4c-0.7,0-1.4,0.2-2,0.6C13,7,13,7.2,13.1,7.4c0.1,0.2,0.4,0.2,0.5,0.1c0.5-0.3,1-0.5,1.6-0.5
			h4.4C19.8,7,20,6.8,20,6.6C20,6.4,19.8,6.2,19.6,6.2z"/>
		<path class="st0" d="M10.7,8.8c-0.6-0.4-1.3-0.6-2-0.6H4.3c-0.2,0-0.4,0.2-0.4,0.4s0.2,0.4,0.4,0.4h4.4c0.6,0,1.1,0.2,1.6,0.5
			c0.2,0.1,0.4,0.1,0.5-0.1C10.9,9.1,10.9,8.9,10.7,8.8L10.7,8.8z"/>
		<path class="st0" d="M19.6,8.1h-4.4c-0.7,0-1.4,0.2-2,0.6C13,8.9,13,9.1,13.1,9.3c0.1,0.2,0.4,0.2,0.5,0.1l0,0
			c0.5-0.3,1-0.5,1.6-0.5h4.4c0.2,0,0.4-0.2,0.4-0.4S19.8,8.1,19.6,8.1z"/>
		<path class="st0" d="M10.7,10.7c-0.6-0.4-1.3-0.6-2-0.6H4.3c-0.2,0-0.4,0.2-0.4,0.4c0,0.2,0.2,0.4,0.4,0.4h4.4
			c0.6,0,1.1,0.2,1.6,0.5c0.2,0.1,0.4,0.1,0.5-0.1C10.9,11,10.9,10.8,10.7,10.7L10.7,10.7L10.7,10.7z"/>
		<path class="st0" d="M19.6,10.1h-4.4c-0.7,0-1.4,0.2-2,0.6C13,10.8,13,11,13.1,11.2c0.1,0.2,0.4,0.2,0.5,0.1l0,0
			c0.5-0.3,1-0.5,1.6-0.5h4.4c0.2,0,0.4-0.2,0.4-0.4C20,10.2,19.8,10.1,19.6,10.1z"/>
		<path class="st0" d="M10.7,12.6c-0.6-0.4-1.3-0.6-2-0.6H4.3c-0.2,0-0.4,0.2-0.4,0.4s0.2,0.4,0.4,0.4h4.4c0.6,0,1.1,0.2,1.6,0.5
			c0.2,0.1,0.4,0.1,0.5-0.1C10.9,13,10.9,12.7,10.7,12.6L10.7,12.6z"/>
		<path class="st0" d="M19.6,12h-4.4c-0.7,0-1.4,0.2-2,0.6C13,12.7,13,13,13.1,13.1c0.1,0.2,0.4,0.2,0.5,0.1c0.5-0.3,1-0.5,1.6-0.5
			h4.4c0.2,0,0.4-0.2,0.4-0.4S19.8,12,19.6,12z"/>
		<path class="st0" d="M10.7,14.5c-0.6-0.4-1.3-0.6-2-0.6H4.3c-0.2,0-0.4,0.2-0.4,0.4s0.2,0.4,0.4,0.4h4.4c0.6,0,1.1,0.2,1.6,0.5
			c0.2,0.1,0.4,0.1,0.5-0.1C10.9,14.9,10.9,14.6,10.7,14.5L10.7,14.5L10.7,14.5z"/>
		<path class="st0" d="M19.6,13.9h-4.4c-0.7,0-1.4,0.2-2,0.6C13,14.6,13,14.9,13.1,15c0.1,0.2,0.4,0.2,0.5,0.1
			c0.5-0.3,1-0.5,1.6-0.5h4.4c0.2,0,0.4-0.2,0.4-0.4S19.8,13.9,19.6,13.9z"/>
		<path class="st0" d="M8.7,15.8H4.3c-0.2,0-0.4,0.2-0.4,0.4c0,0.2,0.2,0.4,0.4,0.4h4.4c0.6,0,1.1,0.2,1.6,0.5
			c0.2,0.1,0.4,0.1,0.5-0.1c0.1-0.2,0.1-0.4-0.1-0.5l0,0C10.1,16,9.4,15.8,8.7,15.8z"/>
		<path class="st0" d="M19.6,15.8h-4.4c-0.7,0-1.4,0.2-2,0.6C13,16.5,13,16.8,13.1,17c0.1,0.2,0.4,0.2,0.5,0.1l0,0
			c0.5-0.3,1-0.5,1.6-0.5h4.4c0.2,0,0.4-0.2,0.4-0.4C20,16,19.8,15.8,19.6,15.8z"/>
	</g>
</g>
</svg>
