<?xml version="1.0" encoding="utf-8"?>
<!-- Generator: Adobe Illustrator 22.0.1, SVG Export Plug-In . SVG Version: 6.00 Build 0)  -->
<svg version="1.1" id="Calque_1" xmlns="http://www.w3.org/2000/svg" xmlns:xlink="http://www.w3.org/1999/xlink" x="0px" y="0px"
	 viewBox="0 0 1565.4 1297.8" style="enable-background:new 0 0 1565.4 1297.8;" xml:space="preserve">
<style type="text/css">
	.st0{fill:#E6E6FC;}
</style>
<path id="BG" class="st0" d="M1564.8,1294.4c0.2,0.8,0.4,1.7,0.6,2.5c-31.4-0.3-70.1-24.6-103.3-30.3c-42.2-7.3-85.4-8-128-5.3
	c-73.4,4.7-145.7,19.3-218.8,27.8c-117.7,13.6-236.8,11.2-353.9-7.3c-31.5-5-63-11.1-94.9-12.3c-39.5-1.5-78.7,4.7-117.9,9.7
	c-117.8,14.9-236.8,18.8-355.4,11.6c-51.1-3.1-111.4-1.5-160.9-11.7c-45.6-9.4-29.3-54.2-28.6-93c0.7-39.1-3.8-78.4-3.8-117.6
	c0.1-81.9,6.2-163.5,13.3-245C27.5,661,46.3,497,30,333.7c-5.7-56.6-14.8-113-15.2-170c-0.2-29.5,1.6-59.3,8.4-88.1
	c8.1-34.6,8.7-47.6,40.3-48c64.3-0.8,124.2,11.5,190,3.3C318,23,381.7,9.7,446.4,3.8c193.9-17.8,387.4,32.7,582,37.5
	c53.5,1.3,107-0.8,160.5-3l183.3-7.3c36.5-1.5,116.2-20.8,148.4,1.9c33.2,23.4,18,110.7,18.8,147c1.5,63.2,3.1,126.3,4.6,189.5
	c6.1,252.6,12.2,505.3,18.3,757.9C1563.7,1182.1,1552.2,1240.7,1564.8,1294.4"/>
</svg>
