<?xml version="1.0" encoding="utf-8"?>
<!-- Generator: Adobe Illustrator 22.0.1, SVG Export Plug-In . SVG Version: 6.00 Build 0)  -->
<svg version="1.1" id="Calque_1" xmlns="http://www.w3.org/2000/svg" xmlns:xlink="http://www.w3.org/1999/xlink" x="0px" y="0px"
	 viewBox="0 0 24 24" style="enable-background:new 0 0 24 24;" xml:space="preserve">
<style type="text/css">
	.st0{fill:#6C6C6C;}
</style>
<title>bonbon</title>
<desc>Created with Sketch.</desc>
<g>
	<path class="st0" d="M4.2,9c-1.5,1.2-1.7,3.5-0.5,5l6.8,8.3c1.2,1.5,3.5,1.7,5,0.5s1.7-3.5,0.5-5L9.2,9.5C8,7.9,5.7,7.7,4.2,9z
		 M5,9.9c1-0.8,2.5-0.7,3.3,0.3l3,3.7l-3.7,3l-3-3.7C3.8,12.2,4,10.7,5,9.9z M14.8,21.9c-1,0.8-2.5,0.7-3.3-0.3l-3-3.7l3.7-3l3,3.7
		C16,19.5,15.9,21,14.8,21.9z"/>
	<path class="st0" d="M9.1,1.9c-1.5,1.2-1.7,3.5-0.5,5l6.8,8.3c1.2,1.5,3.5,1.7,5,0.5s1.7-3.5,0.5-5l-6.8-8.3
		C12.9,0.8,10.6,0.6,9.1,1.9z M9.9,2.8c1-0.8,2.5-0.7,3.3,0.3l3,3.7l-3.7,3l-3-3.7C8.7,5.1,8.9,3.6,9.9,2.8z M19.8,14.7
		c-1,0.8-2.5,0.7-3.3-0.3l-3-3.7l3.7-3l3,3.7C20.9,12.4,20.8,13.9,19.8,14.7z"/>
</g>
</svg>
