<?xml version="1.0" encoding="utf-8"?>
<!-- Generator: Adobe Illustrator 22.0.1, SVG Export Plug-In . SVG Version: 6.00 Build 0)  -->
<svg version="1.1" id="Calque_1" xmlns="http://www.w3.org/2000/svg" xmlns:xlink="http://www.w3.org/1999/xlink" x="0px" y="0px"
	 viewBox="0 0 200 186" style="enable-background:new 0 0 200 186;" xml:space="preserve">
<style type="text/css">
	.st0{fill:#E6E6FC;}
	.st1{fill:#FFD064;}
	.st2{fill:#EABC6B;}
	.st3{fill:#E8AE4D;}
	.st4{fill:#FFE07D;}
	.st5{fill:#FFDDCE;}
	.st6{fill:#FFCBBE;}
	.st7{fill:#F5DBCC;}
	.st8{fill:#407093;}
	.st9{fill:#FFFFFF;}
</style>
<title>bulle_influence</title>
<desc>Created with Sketch.</desc>
<g id="Site-Blomy">
	<g id="_x31_.0-Accueil-web" transform="translate(-215.000000, -941.000000)">
		<g id="Projet-indépendant" transform="translate(-225.000000, 827.000000)">
			<g id="influence" transform="translate(385.000000, 114.000000)">
				<g id="bulle_influence" transform="translate(55.000000, 0.000000)">
					<path id="Fill-1" class="st0" d="M40.5,31.6c-6.4,9.7-10.8,20.7-18.6,29.3l0,0c-5,5.6-11.3,9.9-15.6,16.1l0,0
						C1.7,83.5,0,91.1,0,99l0,0v0.3c0,9.7,2.6,19.9,5.6,29.2l0,0c7,21.4,18,44.3,39,52.1l0,0c11.4,4.3,23.7,3.2,36,2.2l0,0
						c7.8-0.7,15.6-1.3,23.3-0.6l0,0c9.6,0.9,19,3.8,28.6,3.9l0,0h0.3c1,0,1.9,0,2.9-0.1l0,0c10-0.7,19.3-5.1,28.1-9.9l0,0
						c9.7-5.3,19.4-11.3,25.8-20.2l0,0c8.2-11.3,10.3-25.9,10.3-39.9l0,0c0.1-29.3-9.3-60.7-32.9-78l0,0l0.2-0.5
						C145.5,24.8,127,4.3,102.1,0.6l0,0c-2.5-0.4-5-0.5-7.4-0.5l0,0C73.3,0,52.5,13.3,40.5,31.6"/>
				</g>
			</g>
		</g>
	</g>
</g>
<image style="overflow:visible;enable-background:new    ;" width="512" height="512" xlink:href="../../../../../../../hands-up.png"  transform="matrix(0.2578 0 0 0.2578 -574.9695 93)">
</image>
<g>
	<g>
		<g>
			<g>
				<g>
					<path class="st1" d="M91.8,57.7c-0.5,0-1-0.2-1.4-0.7c-1.5-2.1-4.3-4.5-8.6-4c-5.1,0.5-8.8-1.1-11.1-2.5
						c-0.8-0.5-1-1.6-0.5-2.3c0.5-0.8,1.6-1,2.3-0.5c1.8,1.2,4.8,2.4,8.9,2c6.2-0.7,10,3.1,11.7,5.4c0.6,0.8,0.4,1.8-0.4,2.4
						C92.5,57.6,92.1,57.7,91.8,57.7L91.8,57.7z"/>
				</g>
				<g>
					<path class="st1" d="M74.1,66.7c-0.3,0-0.6-0.1-0.9-0.3c-0.8-0.5-1-1.5-0.6-2.3c2.2-3.5,6.1-6,11.5-7c3.9-0.8,7.2-0.6,7.3-0.6
						c0.9,0.1,1.6,0.9,1.6,1.8c-0.1,0.9-0.9,1.6-1.8,1.6c-0.1,0-11.6-0.7-15.7,6C75.2,66.4,74.6,66.7,74.1,66.7L74.1,66.7z"/>
				</g>
			</g>
			<g>
				<g>
					<path class="st2" d="M99.6,131.6c27.8,0,43.2-40.8-0.7-72.3c-1.1-0.8-1.7-2-1.7-3.4c0-1.1,0.4-2.2,1-3.1c2.1-2.9,5-8,6.8-12
						c0.4-1-0.2-2-1.3-2c-2.6,0-2.6-1.7-5.3-1.7s-2.6,1.7-5.3,1.7c-2.2,0-3.2-1.9-4.3-0.5c-3.2,4.1,7.7,18.5,7.7,18.5
						c-48.2,31.7-32.7,74.8-4.2,74.8H99.6L99.6,131.6z"/>
					<g>
						<path class="st3" d="M110.5,56.8c0,0,11.1-14.4,7.9-18.5c-1.1-1.4-2,0.5-4.3,0.5c-2.6,0-2.6-1.7-5.3-1.7
							c-2.6,0-2.6,1.7-5.3,1.7c-0.1,0-0.2,0-0.4,0c-1.1,4.5-5.8,11.6-8.6,15.4c1.1,1.6,1.9,2.6,1.9,2.6c-0.6,0.4-1.3,0.8-1.9,1.3
							c46.1,31.7,30.6,73.5,2.5,73.5h17.8C143.4,131.6,158.9,88.6,110.5,56.8L110.5,56.8z"/>
					</g>
					<g>
						<path class="st4" d="M112.6,61.9c-6.4,1.6-12.8,1.6-19.2,0c-2.2-0.6-3.5-3.1-2.7-5.4v-0.1c0.7-1.9,2.6-3,4.5-2.5
							c5.3,1.3,10.4,1.3,15.6,0c1.9-0.5,3.8,0.6,4.5,2.5v0.1C116.1,58.8,114.8,61.3,112.6,61.9L112.6,61.9z"/>
					</g>
				</g>
			</g>
		</g>
		<g>
			<g>
				<g>
					<g>
						<g>
							<g>
								<g>
									<g>
										<g>
											<g>
												<g>
													<g>
														<g>
															<path class="st5" d="M52.1,139l24.5,9.1c2.1,0.8,4.3,1.2,6.5,1.2h25.3c3.5,0,7-1,10-2.9l31.6-20
																c2.1-1.9,2.5-5,0.9-7.3c-1.7-2.5-4.6-3-7.7-1.5l-30.8,13.6v-5c-0.4-4.1-3.6-7.4-7.6-8L86,116
																c-4.3-0.6-6.5-2.1-10.3-4.3c-5.1-3-11-4.6-17-4.6H52L52.1,139z"/>
														</g>
														<path class="st5" d="M75.1,143.2c2.2,0.8,4.5,1.2,6.8,1.2h26.6c2.8,0,5.6-0.6,8.2-1.8l18.6-11.8c1.7-1.1,2.8-3,2.8-5
															c0-1.1-0.4-2.2-1-3.1c0,0-0.6-1-1.1-2L112.6,131v-5c-0.4-4.1-3.6-7.4-7.6-8l-19-2c-4.3-0.6-6.5-2.1-10.3-4.3
															c-5.1-3-11-4.6-17-4.6H52v27.5L75.1,143.2z"/>
														<path class="st6" d="M150.9,119c-1.7-2.5-4.6-3-7.7-1.5l-8.5,3.7c0.4,0.6,0.7,1.2,0.7,1.2c1.6,2.3,1.2,5.4-0.9,7.3
															l-18.4,11.7c-2.4,1.1-5.1,1.7-7.8,1.7H83.1c-2.2,0-4.4-0.4-6.5-1.2l-24.5-9.1v6.2l24.5,9.1c2.1,0.8,4.3,1.2,6.5,1.2
															h20.6h4.6c3.5,0,7-1,10-2.9l31.6-20C152,124.5,152.4,121.4,150.9,119L150.9,119z"/>
														<g>
															<path class="st7" d="M110.1,121L110.1,121L110.1,121C110.2,121,110.1,121,110.1,121L110.1,121z"/>
														</g>
														<g>
															<g>
																<g>
																	<path class="st6" d="M112.4,131.1H93.2c-0.9,0-1.7-0.8-1.7-1.7s0.8-1.7,1.7-1.7h19.2L112.4,131.1z"/>
																</g>
															</g>
														</g>
													</g>
												</g>
												<path class="st8" d="M57.3,143.8c0,1.8-1.4,3.2-3.2,3.2h-7.8c-1.8,0-3.2-1.4-3.2-3.2v-39.4c0-1.8,1.4-3.2,3.2-3.2h7.8
													c1.8,0,3.2,1.4,3.2,3.2V143.8z"/>
											</g>
										</g>
									</g>
								</g>
							</g>
						</g>
					</g>
				</g>
			</g>
		</g>
	</g>
	<path class="st9" d="M107.3,89.5c-0.8-0.3-1.5-0.5-2.1-0.8V78c2,0.3,3.2,1.4,3.3,1.4c0.7,0.6,1.8,0.6,2.4-0.1s0.6-1.8-0.1-2.4
		c-0.1-0.1-2.2-2-5.6-2.4v-2.4c0-0.9-0.8-1.7-1.7-1.7c-0.9,0-1.7,0.8-1.7,1.7v2.5c-0.4,0.1-0.8,0.2-1.3,0.3c-2.9,0.9-5,3.3-5.6,6.4
		c-0.5,2.8,0.4,5.5,2.3,7.1c1.1,0.9,2.5,1.7,4.5,2.6v13.4c-2-0.1-3.2-0.5-5.3-1.8c-0.8-0.5-1.8-0.3-2.3,0.5s-0.3,1.8,0.5,2.3
		c2.8,1.8,4.6,2.3,7.1,2.4v2.7c0,0.9,0.8,1.7,1.7,1.7c0.9,0,1.7-0.8,1.7-1.7v-2.8c4.8-0.8,7.5-4.6,8.1-8.2
		C114,95,111.6,91.1,107.3,89.5L107.3,89.5z M99.3,85.8c-1-0.8-1.4-2.2-1.1-3.8c0.3-1.5,1.3-3.2,3.3-3.8c0.1,0,0.2-0.1,0.3-0.1v9.1
		C100.7,86.8,99.9,86.3,99.3,85.8L99.3,85.8z M109.9,98.9c-0.4,2.2-2,4.6-4.8,5.3V92.4c0.3,0.1,0.7,0.2,1,0.4
		C110.3,94.2,110.1,97.8,109.9,98.9L109.9,98.9z"/>
</g>
</svg>
