<?xml version="1.0" encoding="utf-8"?>
<!-- Generator: Adobe Illustrator 22.0.1, SVG Export Plug-In . SVG Version: 6.00 Build 0)  -->
<svg version="1.1" id="Calque_1" xmlns="http://www.w3.org/2000/svg" xmlns:xlink="http://www.w3.org/1999/xlink" x="0px" y="0px"
	 viewBox="0 0 200 186" style="enable-background:new 0 0 200 186;" xml:space="preserve">
<style type="text/css">
	.st0{fill:#E6E6FC;}
	.st1{fill:#D6F4FC;}
	.st2{fill:#4D4E59;}
	.st3{fill:#E8F8FC;}
	.st4{fill:#FE4F60;}
	.st5{fill:#FF6D7A;}
	.st6{fill:#BDEFFC;}
	.st7{fill:#42434D;}
</style>
<title>bulle_influence</title>
<desc>Created with Sketch.</desc>
<g id="Site-Blomy">
	<g id="_x31_.0-Accueil-web" transform="translate(-215.000000, -941.000000)">
		<g id="Projet-indépendant" transform="translate(-225.000000, 827.000000)">
			<g id="influence" transform="translate(385.000000, 114.000000)">
				<g id="bulle_influence" transform="translate(55.000000, 0.000000)">
					<path id="Fill-1" class="st0" d="M40.5,31.6c-6.4,9.7-10.8,20.7-18.6,29.3l0,0c-5,5.6-11.3,9.9-15.6,16.1l0,0
						C1.7,83.5,0,91.1,0,99l0,0v0.3c0,9.7,2.6,19.9,5.6,29.2l0,0c7,21.4,18,44.3,39,52.1l0,0c11.4,4.3,23.7,3.2,36,2.2l0,0
						c7.8-0.7,15.6-1.3,23.3-0.6l0,0c9.6,0.9,19,3.8,28.6,3.9l0,0h0.3c1,0,1.9,0,2.9-0.1l0,0c10-0.7,19.3-5.1,28.1-9.9l0,0
						c9.7-5.3,19.4-11.3,25.8-20.2l0,0c8.2-11.3,10.3-25.9,10.3-39.9l0,0c0.1-29.3-9.3-60.7-32.9-78l0,0l0.2-0.5
						C145.5,24.8,127,4.3,102.1,0.6l0,0c-2.5-0.4-5-0.5-7.4-0.5l0,0C73.3,0,52.5,13.3,40.5,31.6"/>
				</g>
			</g>
		</g>
	</g>
</g>
<g>
	<path class="st1" d="M137.9,108c1.4,4.4-2.4,8.7-7,7.9c-16.6-3.1-34.3-2.7-52,1.8l-5.9,1.8c0,0,0-0.1,7.7,24.9
		c0.7,2.3-0.6,4.7-2.9,5.4l-4.7,1.5c-2.3,0.7-4.7-0.6-5.4-2.9l-7.8-24.9l-2.3,0.7c-4.6,1.4-9.4-1.1-10.9-5.7L41,100
		c-1.4-4.6,1.1-9.4,5.7-10.9L68,82.5c16.5-6.1,31.4-15.6,43.8-28.1c3.3-3.3,8.8-1.9,10.2,2.5l5,16c5.3-1.7,10.9,1.3,12.6,6.6
		c1.7,5.3-1.3,10.9-6.6,12.6L137.9,108z"/>
	<path class="st2" d="M139.6,79.5c1.7,5.3-1.3,10.9-6.6,12.6l-6-19.2C132.3,71.3,137.9,74.2,139.6,79.5z"/>
	<g>
		<path class="st1" d="M150.1,76.3c-0.3-1,0.2-2.1,1.3-2.4l5.5-1.7c1-0.3,2.1,0.3,2.4,1.3c0.3,1-0.2,2.1-1.3,2.4l-5.5,1.7
			C151.5,77.9,150.4,77.3,150.1,76.3z"/>
		<path class="st1" d="M140.3,63c-0.9-0.5-1.3-1.7-0.8-2.6l2.2-4.2c0.5-0.9,1.7-1.3,2.6-0.8c0.9,0.5,1.3,1.7,0.8,2.6l-2.2,4.2
			C142.4,63.2,141.2,63.5,140.3,63z"/>
		<path class="st1" d="M154.5,97.6l-4.2-2.2c-0.9-0.5-1.3-1.7-0.8-2.6s1.7-1.3,2.6-0.8l4.2,2.2c0.9,0.5,1.3,1.7,0.8,2.6
			C156.7,97.7,155.5,98.1,154.5,97.6z"/>
	</g>
	<path class="st3" d="M122,56.9c0.7,2.2,0.1,4.6-1.6,6.2c-13.5,12.9-30,23.5-48.9,30.5l-24.9,7.8c-1.7,0.5-3.2,1.5-4.3,2.7L41,100
		c-1.4-4.6,1.1-9.4,5.7-10.9L68,82.5c16.5-6.1,31.4-15.6,43.8-28.1C115,51.2,120.6,52.5,122,56.9L122,56.9z"/>
	<path class="st4" d="M68,82.5l11,35.2c-4.1,1.3-17.2,5.4-21.2,6.6c-4.6,1.4-9.4-1.1-10.9-5.7L41,100c-1.4-4.6,1.1-9.4,5.7-10.9
		L68,82.5z"/>
	<path class="st5" d="M71.5,93.7c-27,8.4-25.2,7.8-26.1,8.3c-1.7,0.8-3.7-0.1-4.3-1.9c-1.4-4.6,1.1-9.4,5.7-10.9L68,82.5L71.5,93.7z
		"/>
	<path class="st6" d="M75.2,126.3c-7.6,2.4-2,0.6-13,4l-2.1-6.7l13-4.1L75.2,126.3z"/>
	<path class="st7" d="M136.6,90.1c-1,0.9-2.2,1.6-3.6,2l-6-19.2c1.4-0.4,2.8-0.5,4.1-0.4C131.4,73.5,136.3,89.2,136.6,90.1z"/>
</g>
</svg>
