<?xml version="1.0" encoding="utf-8"?>
<!-- Generator: Adobe Illustrator 22.0.1, SVG Export Plug-In . SVG Version: 6.00 Build 0)  -->
<svg version="1.1" id="Calque_1" xmlns="http://www.w3.org/2000/svg" xmlns:xlink="http://www.w3.org/1999/xlink" x="0px" y="0px"
	 viewBox="0 0 200 186" style="enable-background:new 0 0 200 186;" xml:space="preserve">
<style type="text/css">
	.st0{fill:#E6E6FC;}
	.st1{fill:#FAEDE5;}
	.st2{fill:#F6DDCE;}
</style>
<title>bulle_influence</title>
<desc>Created with Sketch.</desc>
<g id="Site-Blomy">
	<g id="_x31_.0-Accueil-web" transform="translate(-215.000000, -941.000000)">
		<g id="Projet-indépendant" transform="translate(-225.000000, 827.000000)">
			<g id="influence" transform="translate(385.000000, 114.000000)">
				<g id="bulle_influence" transform="translate(55.000000, 0.000000)">
					<path id="Fill-1" class="st0" d="M40.5,31.6c-6.4,9.7-10.8,20.7-18.6,29.3l0,0c-5,5.6-11.3,9.9-15.6,16.1l0,0
						C1.7,83.5,0,91.1,0,99l0,0v0.3c0,9.7,2.6,19.9,5.6,29.2l0,0c7,21.4,18,44.3,39,52.1l0,0c11.4,4.3,23.7,3.2,36,2.2l0,0
						c7.8-0.7,15.6-1.3,23.3-0.6l0,0c9.6,0.9,19,3.8,28.6,3.9l0,0h0.3c1,0,1.9,0,2.9-0.1l0,0c10-0.7,19.3-5.1,28.1-9.9l0,0
						c9.7-5.3,19.4-11.3,25.8-20.2l0,0c8.2-11.3,10.3-25.9,10.3-39.9l0,0c0.1-29.3-9.3-60.7-32.9-78l0,0l0.2-0.5
						C145.5,24.8,127,4.3,102.1,0.6l0,0c-2.5-0.4-5-0.5-7.4-0.5l0,0C73.3,0,52.5,13.3,40.5,31.6"/>
				</g>
			</g>
		</g>
	</g>
</g>
<g>
	<path class="st1" d="M129,77.3c-1.3,0-2.5,0.5-3.3,1.4c-0.7,0.8-1.1,1.9-1.1,3v14.7c0,1.9-1.4,3.5-3.3,3.5c-2,0.1-3.6-1.5-3.6-3.5
		V50c0-2.4-1.9-4.4-4.2-4.5c-1.3,0-2.5,0.5-3.3,1.4c-0.8,0.8-1.1,1.9-1.1,3v30.9c0,1.9-1.4,3.5-3.3,3.5c-2,0.1-3.6-1.5-3.6-3.5V42.1
		c0-2.4-1.9-4.4-4.2-4.5c-1.3,0-2.5,0.5-3.3,1.4c-0.8,0.8-1.1,1.9-1.1,3v38.8c0,1.9-1.4,3.5-3.3,3.5c-2,0.1-3.6-1.5-3.6-3.5v-31
		c0-1.2-0.5-2.4-1.3-3.2s-2-1.3-3.2-1.2c-2.3,0.1-4.2,2.1-4.2,4.5v38.7c0,1.9-1.4,3.5-3.3,3.5c-2,0.1-3.6-1.5-3.6-3.5v-31
		c0-1.1-0.4-2.2-1.1-3c-0.9-0.9-2.1-1.5-3.3-1.4c-2.3,0.1-4.2,2.1-4.2,4.5v48.2c0,10,4.9,19.2,13,24.8V152c0,1.9,1.5,3.5,3.5,3.5
		h38.2c1.9,0,3.5-1.5,3.5-3.5v-22c8.1-5.8,13-15.3,13-25.4V81.8C133.3,79.4,131.4,77.4,129,77.3L129,77.3z"/>
	<path class="st2" d="M116.8,155.5c1.9,0,3.5-1.5,3.5-3.5v-22c8.1-5.8,13-15.3,13-25.4V81.8c0-2.4-1.9-4.4-4.2-4.5
		c-1.3,0-2.5,0.5-3.3,1.4c-0.7,0.8-1.1,1.9-1.1,3v14.7c0,1.9-1.4,3.5-3.3,3.5c-2,0.1-3.6-1.5-3.6-3.5V50c0-2.4-1.9-4.4-4.2-4.5
		c-1.3,0-2.5,0.5-3.3,1.4c-0.8,0.8-1.1,1.9-1.1,3v30.9c0,1.9-1.4,3.5-3.3,3.5c-2,0.1-3.6-1.5-3.6-3.5V42.1c0-2.4-1.9-4.4-4.2-4.5
		v117.9H116.8z"/>
</g>
</svg>
