<?xml version="1.0" encoding="UTF-8"?>
<svg width="13px" height="18px" viewBox="0 0 13 18" version="1.1" xmlns="http://www.w3.org/2000/svg" xmlns:xlink="http://www.w3.org/1999/xlink">
    <!-- Generator: Sketch 53.2 (72643) - https://sketchapp.com -->
    <title>calories</title>
    <desc>Created with Sketch.</desc>
    <g id="Site-Yuka" stroke="none" stroke-width="1" fill="none" fill-rule="evenodd">
        <g id="1.0-Accueil-web" transform="translate(-481.000000, -1966.000000)" fill="#6C6C6C">
            <g id="Produits-alimentaires" transform="translate(150.000000, 1700.000000)">
                <g id="produit">
                    <g id="calories" transform="translate(310.000000, 250.000000)">
                        <path d="M34,27.7536253 C34,25.324887 33.344967,24.1141844 32.6514461,22.831617 C32.3346618,22.2464319 32.0089957,21.6407139 31.7136757,20.8780666 C31.6700068,20.7644029 31.5612047,20.6844716 31.4353792,20.6720052 C31.3080733,20.6588056 31.1859485,20.7167374 31.1171146,20.8201348 C30.3969483,21.9164403 29.5805625,22.598423 29.129811,22.9232814 C28.1972216,19.8074272 29.5990663,16.4781784 29.6138693,16.4444459 C29.6671601,16.3183158 29.6338533,16.1753194 29.5302323,16.0843884 C29.4266113,15.9927241 29.2748804,15.9743912 29.149795,16.0359896 C25.1004327,18.0650714 21,22.7399527 21,27.7536253 C21.0007402,31.1972712 23.9161922,34 27.5007402,34 C31.0838078,34 34,31.1972712 34,27.7536253"></path>
                    </g>
                </g>
            </g>
        </g>
    </g>
</svg>