<?xml version="1.0" encoding="utf-8"?>
<!-- Generator: Adobe Illustrator 22.0.1, SVG Export Plug-In . SVG Version: 6.00 Build 0)  -->
<svg version="1.1" id="Calque_1" xmlns="http://www.w3.org/2000/svg" xmlns:xlink="http://www.w3.org/1999/xlink" x="0px" y="0px"
	 viewBox="0 0 24 24" style="enable-background:new 0 0 24 24;" xml:space="preserve">
<style type="text/css">
	.st0{fill:#6C6C6C;}
</style>
<title>bonbon</title>
<desc>Created with Sketch.</desc>
<g>
	<g>
		<path class="st0" d="M3,10.6c-1.3,0-2.4,1.1-2.4,2.4v7.5c0,1.3,1.1,2.4,2.4,2.4h2.8c0.5,0,1-0.2,1.4-0.5V10.6H3z"/>
	</g>
</g>
<g>
	<g>
		<path class="st0" d="M23.3,14.1c0-0.6-0.2-1.1-0.6-1.5c0.4-0.5,0.7-1.1,0.6-1.8c-0.1-1.2-1.2-2.1-2.5-2.1H15
			c0.3-0.9,0.8-2.5,0.8-3.8c0-2-1.7-3.8-2.8-3.8c-1,0-1.7,0.6-1.7,0.6c-0.1,0.1-0.2,0.2-0.2,0.4v3.2l-2.7,5.9l-0.1,0.1v10.1
			c0.8,0.4,1.7,0.6,2.4,0.6h8.7c1,0,1.9-0.7,2.1-1.6c0.1-0.5,0-1-0.2-1.4c0.7-0.4,1.2-1.1,1.2-1.9c0-0.3-0.1-0.7-0.2-0.9
			C22.9,15.7,23.3,14.9,23.3,14.1z"/>
	</g>
</g>
</svg>
