<svg xmlns="http://www.w3.org/2000/svg" xmlns:xlink="http://www.w3.org/1999/xlink" width="20.141" height="19.89" viewBox="0 0 20.141 19.89">
  <defs>
    <clipPath id="clip-path">
      <path id="Clip_2" data-name="Clip 2" d="M0,0H20.141V19.89H0Z" transform="translate(0 0.05)" fill="none"/>
    </clipPath>
  </defs>
  <g id="V" transform="translate(0 -0.253)">
    <g id="Group_3" data-name="Group 3" transform="translate(0 0.202)">
      <path id="Clip_2-2" data-name="Clip 2" d="M0,0H20.141V19.89H0Z" transform="translate(0 0.05)" fill="none"/>
      <g id="Group_3-2" data-name="Group 3" clip-path="url(#clip-path)">
        <path id="Fill_1" data-name="Fill 1" d="M20.142,9.945A10.009,10.009,0,0,1,10.071,19.89,10.009,10.009,0,0,1,0,9.945,10.009,10.009,0,0,1,10.071,0,10.009,10.009,0,0,1,20.142,9.945" transform="translate(0 0.05)" fill="#52b03c"/>
      </g>
    </g>
    <path id="Fill_4" data-name="Fill 4" d="M10.55,0,4.771,6.309,1.577,2.491,0,3.777,4.7,9.4l7.365-8.041Z" transform="translate(4.455 5.932)" fill="#fff"/>
  </g>
</svg>
