<?xml version="1.0" encoding="utf-8"?>
<!-- Generator: Adobe Illustrator 22.0.1, SVG Export Plug-In . SVG Version: 6.00 Build 0)  -->
<svg version="1.1" id="Calque_1" xmlns="http://www.w3.org/2000/svg" xmlns:xlink="http://www.w3.org/1999/xlink" x="0px" y="0px"
	 viewBox="0 0 24 24" style="enable-background:new 0 0 24 24;" xml:space="preserve">
<style type="text/css">
	.st0{fill:#6C6C6C;}
</style>
<title>bonbon</title>
<desc>Created with Sketch.</desc>
<g id="XMLID_1661_">
	<path id="XMLID_1664_" class="st0" d="M20.7,1.7c-0.9-0.9-2.5-0.9-3.4,0l-1.2,1.2L15,1.9l-2.9,2.9l1.4,1.4l-7.3,7.3l-1.9,4.6
		l4.5-1.8l7.4-7.4l1.4,1.4l2.9-2.9l-1.1-1.1l1.2-1.2C21.7,4.2,21.7,2.6,20.7,1.7z M8,15.2l-1.3,0.5l0.6-1.4l3.5-3.5h1.6L8,15.2z
		 M15.3,8l-1.5,1.5h-1.6l2.3-2.3L15.3,8z M17.6,8.5L14,4.8l1-1l3.7,3.7L17.6,8.5z M19.8,4.2l-1.2,1.2l-1.5-1.5l1.2-1.2
		c0.4-0.4,1.1-0.4,1.5,0C20.2,3.1,20.2,3.7,19.8,4.2z"/>
	<path id="XMLID_1670_" class="st0" d="M4.7,19.5l-0.5-0.6l-0.5,0.6c0,0-0.3,0.4-0.6,0.8c-0.6,0.9-0.7,1.4-0.7,1.7
		c0,1,0.8,1.9,1.9,1.9S6,23,6,22c0-0.3-0.1-0.7-0.7-1.7C5,19.9,4.7,19.5,4.7,19.5L4.7,19.5z M4.2,22.5c-0.3,0-0.5-0.2-0.5-0.5
		c0-0.2,0.2-0.5,0.5-1c0.3,0.4,0.5,0.8,0.5,1C4.7,22.3,4.4,22.5,4.2,22.5z"/>
</g>
</svg>
