<?xml version="1.0" encoding="utf-8"?>
<!-- Generator: Adobe Illustrator 22.0.1, SVG Export Plug-In . SVG Version: 6.00 Build 0)  -->
<svg version="1.1" id="Calque_1" xmlns="http://www.w3.org/2000/svg" xmlns:xlink="http://www.w3.org/1999/xlink" x="0px" y="0px"
	 viewBox="0 0 192.6 182.6" style="enable-background:new 0 0 192.6 182.6;" xml:space="preserve">
<style type="text/css">
	.st0{fill:#E6E6FC;}
</style>
<path id="Fill_1" class="st0" d="M11.4,182.5c-4.3,0.7-8.3-2.3-9-6.6c-0.3-2,0.2-4.1,1.4-5.8l6.3-8.8c0.7-0.9,1.3-1.9,1.6-3
	c0.5-2-0.4-4-1.1-5.8C-8.5,107.3-1.4,65.1,29,27.5c6.1-7.6,13-14.8,21.4-19.6C64.3,0,81.1-0.5,97.1,0.2c22.4,1,45.9,4.6,63.3,18.8
	c11.3,9.3,19,22.4,24.2,36c5.9,15.5,8.6,31.9,7.9,48.5c-0.5,12.3-2.9,24.9-9.5,35.4c-9,14.4-24.9,23.3-41.4,27.6s-33.6,4.8-50.5,5.9
	C70.1,173.7,33.6,179,11.4,182.5"/>
</svg>
