<?xml version="1.0" encoding="utf-8"?>
<!-- Generator: Adobe Illustrator 22.0.1, SVG Export Plug-In . SVG Version: 6.00 Build 0)  -->
<svg version="1.1" id="Calque_1" xmlns="http://www.w3.org/2000/svg" xmlns:xlink="http://www.w3.org/1999/xlink" x="0px" y="0px"
	 viewBox="0 0 210.1 191.8" style="enable-background:new 0 0 210.1 191.8;" xml:space="preserve">
<style type="text/css">
	.st0{fill:#E6E6FC;}
</style>
<path id="Fill_4" class="st0" d="M149,4.5c-20.1-3-40.5-5.8-60.8-4S47.5,9,32.4,22.6c-9.2,8.3-16.2,19-21.3,30.3
	C0.2,77-2.8,104,2.7,129.9c1.2,5.5,2.8,11.1,5.8,15.9c6.4,10.2,18.1,15.6,29.5,19.6c35.3,12.3,73,16.3,110.1,11.5
	c4.6-0.6,9.2-1.3,13.7-0.2c3.2,1,6.3,2.4,9.1,4.3l16.4,9.9c3.1,1.9,7.2,0.9,9.1-2.3c0.9-1.5,1.2-3.2,0.8-4.9l-4.6-19.7
	c-1-4.1-1.9-8.3-1.7-12.4c0.3-5.6,2.8-10.9,5.1-16.1c11.2-25.4,17.9-53.7,12.2-80.9c-1.8-8.8-8.6-21-15-27.3
	c-9.3-9.1-14.7-11.6-28.8-17.9C164.2,9.4,153.6,5.2,149,4.5"/>
</svg>
