<?xml version="1.0" encoding="utf-8"?>
<!-- Generator: Adobe Illustrator 22.0.1, SVG Export Plug-In . SVG Version: 6.00 Build 0)  -->
<svg version="1.1" id="Calque_1" xmlns="http://www.w3.org/2000/svg" xmlns:xlink="http://www.w3.org/1999/xlink" x="0px" y="0px"
	 viewBox="0 0 1730 430" style="enable-background:new 0 0 1730 430;" xml:space="preserve">
<style type="text/css">
	.st0{fill:#E6E6FC;}
</style>
<title>BG</title>
<desc>Created with Sketch.</desc>
<g id="Blomy---Site-Web">
	<g id="_x31_.0-Accueil-web" transform="translate(-160.000000, -3847.000000)">
		<g id="Utilisateurs" transform="translate(160.000000, 3538.000000)">
			<path id="BG" class="st0" d="M1673.1,409.7c-6.9-14.8-15.1-29.5-27.7-41.8c-15.8-15.4-37.7-26-59.6-35.7
				c-25.1-11.1-51.7-21.4-80.4-23c-28.7-1.6-60,7.5-73.9,27.5c-3.1,4.4-5.9,9.7-11.9,11.5c-5,1.5-10.6-0.1-15.7-1.5
				c-49.9-14.3-105.5-17-156.6-5.6c-51.1,11.5-97.3,37.5-125.6,73.1c-14.5-17.3-46.6-16.8-71.8-11.3c-74.2,16-138.2,59.4-169.8,115
				c-40.4-5.6-84.5-4.8-123.9,4.7c-11.8,2.8-74,35.5-58.7,49c-22.8-20.1-60.5-27.2-93.9-21.6c-33.4,5.6-62.5,22.5-84.5,43.2
				c2.4-2.2-65-11.9-71.9-12.1c-28.2-0.5-56.6,5.8-80.3,18c-22,11.3-41.5,28-67.6,30.4c-15.1,1.4-30.1-2.4-45.2-3.8
				c-25.4-2.4-51.7,2-73.6,12.3c-6.7,3.1-13.1,6.8-20.4,9c-15.6,4.5-32.8,1.4-49.3,0.1c-34.7-2.7-87.5,1.2-110.9,24.5
				c8.4,3.7,16.8,1.7,25.4,3.8c10.5,2.6,19.5,8.8,29.8,12.1c22.8,7.3,48.3,8.8,72.6,7.7c37.9-1.7,75.4-9.1,113.3-8.4
				c59,1.2,114.7,22,173.2,28.2c79.6,8.5,160.7-10.1,240.6-3.5c56.4,4.6,110.2,21.7,166.6,26.3c70.4,5.7,140.6-8.1,210.5-16.9
				c97.5-12.3,197-14.7,295.2-7.2c121.4,9.3,244.8,33.6,363.7,11.7c14.6-2.7,30.8-7.3,36.7-18.2c3.4-6.3,2.6-13.4,1.4-20.2
				c-2.7-16-7.1-31.9-13-47.3c-4-10.4-16.1-27.6-14.4-38.6C1711.3,536.6,1701.5,470.4,1673.1,409.7z"/>
		</g>
	</g>
</g>
</svg>
