<?xml version="1.0" encoding="utf-8"?>
<!-- Generator: Adobe Illustrator 22.0.1, SVG Export Plug-In . SVG Version: 6.00 Build 0)  -->
<svg version="1.1" id="Calque_1" xmlns="http://www.w3.org/2000/svg" xmlns:xlink="http://www.w3.org/1999/xlink" x="0px" y="0px"
	 viewBox="0 0 1040 436" style="enable-background:new 0 0 1040 436;" xml:space="preserve">
<style type="text/css">
	.st0{fill:#E6E6FC;}
</style>
<title>fond-illu</title>
<desc>Created with Sketch.</desc>
<g id="Site-Blomy">
	<g id="_x31_.0-Accueil-web" transform="translate(-359.000000, -429.000000)">
		<g id="Bons-choix" transform="translate(156.000000, 160.000000)">
			<path id="fond-illu" class="st0" d="M1045.6,269c-5,0-9.8,0.1-14.3,0.4c-40.1,2.5-80.9,14.7-111,41.2
				c-17.2,15.1-30.7,34.6-49.8,47.2c-25.9,17.1-58.6,19.4-89.6,18.4c-37-1.1-73.8-6-109.8-14.7c-57-13.8-119.3-36.6-171.6-10
				c-25.5,12.9-44.9,36.3-71.3,47.2c-24.8,10.2-52.1,8-79.3,5.8c-27.5-2.2-54.9-4.4-79.8,6c-26.6,11.1-66,49.6-66,80.9v0.1
				c0,11,4.8,21.9,12.8,29.4c27.9,25.9,93.8,13,127.9,10.3c46.2-3.6,94.6-7.5,138.5,10.7c25.1,10.4,47,27.6,72.2,37.6
				c38.5,15.3,80.4,12.8,122.5,10.3c38.7-2.3,77.5-4.6,113.8,7c55.2,17.6,96.3,64.6,149.5,87.5c26.4,11.4,55.1,16.5,83.7,19.1
				c39.6,3.5,81.7,1.4,115.5-19.4c26.1-16.1,44.7-41.9,59.3-68.9c29.1-53.9,44.2-115.1,44.2-176.4v-0.4c0-25.6-2.7-51.2-8-76.3
				c-3.9-18.4-9.7-37.2-22.6-50.8c-17.5-18.5-40.5-28.8-61.2-32c-18.2-2.8-66.1-10.4-104.7-10.5H1045.6z"/>
		</g>
	</g>
</g>
</svg>
