<svg xmlns="http://www.w3.org/2000/svg" width="210.072" height="191.82" viewBox="0 0 210.072 191.82">
  <path id="Fill_4" data-name="Fill 4" d="M148.988,4.546c-20.14-3-40.522-5.759-60.808-3.99S47.472,8.958,32.355,22.6C23.133,30.922,16.2,41.552,11.061,52.861a125,125,0,0,0-8.388,77.084c1.177,5.534,2.771,11.072,5.774,15.866C14.829,156,26.555,161.394,37.9,165.371A240.474,240.474,0,0,0,148,176.859c4.559-.593,9.246-1.312,13.706-.191a34.188,34.188,0,0,1,9.089,4.322l16.36,9.86a6.62,6.62,0,0,0,9.863-7.18l-4.624-19.736c-.958-4.09-1.924-8.251-1.673-12.444.338-5.647,2.842-10.9,5.121-16.078C207,110.051,213.7,81.674,208,54.547c-1.844-8.767-8.631-21.02-15.033-27.287-9.255-9.059-14.706-11.586-28.769-17.851,0,0-10.6-4.177-15.207-4.863" fill="#fff8ee"/>
</svg>
