<?xml version="1.0" encoding="utf-8"?>
<!-- Generator: Adobe Illustrator 22.0.1, SVG Export Plug-In . SVG Version: 6.00 Build 0)  -->
<svg version="1.1" id="Calque_1" xmlns="http://www.w3.org/2000/svg" xmlns:xlink="http://www.w3.org/1999/xlink" x="0px" y="0px"
	 viewBox="0 0 275 153" style="enable-background:new 0 0 275 153;" xml:space="preserve">
<style type="text/css">
	.st0{fill:#E6E6FC;}
</style>
<title>Combined Shape</title>
<desc>Created with Sketch.</desc>
<g id="Page-1">
	<g id="Ebook---Product-page" transform="translate(-1013.000000, -244.000000)">
		<g id="Group" transform="translate(607.000000, 176.000000)">
			<path id="Combined-Shape" class="st0" d="M553.3,73.3c15.2,5.9,28,16.4,36.7,29.9c10.8,0,20.8,3.4,29,9.2
				c9.4-10.7,23.2-17.4,38.6-17.4c17.1,0,32.2,8.3,41.6,21.1l0,0l0.4,0.6c4.6,6.4,7.7,14,8.9,22.1c0.4,2.5,0.6,5,0.6,7.6
				c0,28.4-23,51.4-51.4,51.4c-10.9,0-21-3.4-29.3-9.2c-9.4,10.7-23.2,17.4-38.6,17.4c-5.6,0-10.9-0.9-15.9-2.5
				c-13.1,10.6-29.7,16.9-47.8,16.9c-27.8,0-52.1-14.9-65.4-37.1l0,0l-2.5,0.1c-26.1,0-47.7-19.4-51-44.6c-0.3-2.2-0.4-4.5-0.4-6.8
				c0-28.4,23-51.4,51.4-51.4c7.3,0,14.2,1.5,20.5,4.2c13-10.4,29.5-16.6,47.4-16.6c9.4,0,18.4,1.7,26.7,4.8l0,0L553.3,73.3z"/>
		</g>
	</g>
</g>
</svg>
