<?xml version="1.0" encoding="utf-8"?>
<!-- Generator: Adobe Illustrator 22.0.1, SVG Export Plug-In . SVG Version: 6.00 Build 0)  -->
<svg version="1.1" id="Calque_1" xmlns="http://www.w3.org/2000/svg" xmlns:xlink="http://www.w3.org/1999/xlink" x="0px" y="0px"
	 viewBox="0 0 179.6 149.4" style="enable-background:new 0 0 179.6 149.4;" xml:space="preserve">
<style type="text/css">
	.st0{fill:#E6E6FC;}
</style>
<path id="Fill_6" class="st0" d="M11,42.4C3.4,53.6,0.1,67.3,0,80.9c-0.1,7.8,0.9,15.7,4,22.9c6.5,15.2,21.6,25.1,37.3,30.2
	c15,4.8,30.8,5.9,46.3,3.2c1.9-0.5,3.9-0.6,5.8-0.2c1.3,0.5,2.6,1.2,3.7,2.1c3.6,2.7,10.4,6.9,15.1,9.9c1.7,1.1,4,0.5,5-1.2
	c0.3-0.5,0.5-1.1,0.5-1.7c0.2-5,0.7-9.9,1.6-14.8c0.3-2.2,1.1-4.3,2.3-6.1c2-2.6,5.4-3.6,8.5-4.7c26.1-9,46-33.8,49-61.2
	c2.4-21.9-7.4-46.5-27.7-55c-8.5-3.5-17.9-4-27-3.9C111,0.4,78.2-2.4,51.2,8.3C31.1,16.3,14.2,37.6,11,42.4"/>
</svg>
