<svg xmlns="http://www.w3.org/2000/svg" width="192.555" height="182.555" viewBox="0 0 192.555 182.555">
  <path id="Fill_1" data-name="Fill 1" d="M11.424,182.456a7.883,7.883,0,0,1-7.6-12.389l6.322-8.806a9.109,9.109,0,0,0,1.628-3.005c.488-1.96-.361-3.974-1.15-5.833C-8.508,107.3-1.447,65.09,28.963,27.482c6.125-7.574,12.952-14.811,21.431-19.607C64.306.005,81.108-.493,97.075.246c22.373,1.035,45.942,4.641,63.268,18.834,11.306,9.262,19.013,22.377,24.207,35.951a121.19,121.19,0,0,1,7.894,48.478c-.529,12.284-2.94,24.887-9.475,35.352-9,14.407-24.943,23.287-41.359,27.65s-33.575,4.772-50.525,5.86c-20.971,1.346-57.532,6.67-79.661,10.085" transform="translate(0)" fill="#fff8ee"/>
</svg>
