<?xml version="1.0" encoding="utf-8"?>
<!-- Generator: Adobe Illustrator 22.0.1, SVG Export Plug-In . SVG Version: 6.00 Build 0)  -->
<svg version="1.1" id="Calque_1" xmlns="http://www.w3.org/2000/svg" xmlns:xlink="http://www.w3.org/1999/xlink" x="0px" y="0px"
	 viewBox="0 0 685 300" style="enable-background:new 0 0 685 300;" xml:space="preserve">
<style type="text/css">
	.st0{fill:#E6E6FC;}
</style>
<title>Fill 1</title>
<desc>Created with Sketch.</desc>
<g id="Site-Blomy">
	<g id="_x31_.0-Accueil-web" transform="translate(-31.000000, -1379.000000)">
		<g id="Projet-indépendant" transform="translate(31.000000, 827.000000)">
			<path id="Fill-1" class="st0" d="M135.5,801.7c56,26.2,115.6,62.6,175.2,46.1c29-8,53.9-28.2,83.5-33.8c38-7.3,74.8,9.8,111.2,18
				c36.2,8.2,77.4,8.1,114.5,8.6c6.9,0.1,14,0,20.5-2.2c10.3-3.6,18-12,25.2-20.2c6.1-6.9,12.3-14,16-22.5
				c7.1-16.7,2.8-36.9-8.2-51.4s-27.7-23.8-45-29c-83.7-25.2-184.9-9.8-260.2-60.6c-23.7-16-42.8-38.3-66.8-53.9
				c-34.9-22.7-76.6-29.3-117-35.2c-37.2-5.4-88.4-23.6-123.9-6.4c-17.1,8.3-29.1,24.2-38.8,40.5c-10.6,17.7-19.4,37-21.3,57.5
				c-2.6,28.8,9.3,76.1,29.3,98.8C52.4,781.9,104.9,787.5,135.5,801.7"/>
		</g>
	</g>
</g>
</svg>
