<svg xmlns="http://www.w3.org/2000/svg" xmlns:xlink="http://www.w3.org/1999/xlink" width="249.832" height="158.733" viewBox="0 0 249.832 158.733">
  <defs>
    <clipPath id="clip-path">
      <path id="Clip_4" data-name="Clip 4" d="M.049,1.818C2.892,12.181,11.358,67.5,26.1,85.74h0c21.653,26.784,73.336,44.331,77.444,42.9h0c4.108-1.427,20.154-46.733-31.224-91.755h0c-24-19.982-61-34.873-70.679-36.863h0A1.238,1.238,0,0,0,1.393,0h0A1.458,1.458,0,0,0,.049,1.818" transform="translate(0 0.447)" fill="none"/>
    </clipPath>
    <linearGradient id="linear-gradient" x1="1.066" y1="0.859" x2="-0.114" y2="0.148" gradientUnits="objectBoundingBox">
      <stop offset="0" stop-color="#177b48"/>
      <stop offset="1" stop-color="#34aa69"/>
    </linearGradient>
    <clipPath id="clip-path-6">
      <path id="Clip_20" data-name="Clip 20" d="M144.668.111C132.208,4.834,64.9,21.763,44.113,42.1h0C13.582,71.965-2.029,137.824.212,142.729h0c2.243,4.9,60.054,19.41,109.621-49.288h0c21.858-31.972,35.911-79.387,37.235-91.571h0c.005-.046.008-.094.009-.139h0V1.676A1.8,1.8,0,0,0,145.274,0h0a1.705,1.705,0,0,0-.606.111" transform="translate(0.006 0.609)" fill="none"/>
    </clipPath>
    <linearGradient id="linear-gradient-2" x1="0.163" y1="1.061" x2="0.829" y2="-0.09" xlink:href="#linear-gradient"/>
  </defs>
  <g id="plante_3" transform="translate(0 -0.75)">
    <path id="Fill_1" data-name="Fill 1" d="M105.365,9.519c0,5.257-23.587,9.519-52.682,9.519S0,14.776,0,9.519,23.586,0,52.682,0s52.682,4.261,52.682,9.519" transform="translate(65.902 140.445)" fill="#f4e9dc"/>
    <g id="Group_18" data-name="Group 18" transform="translate(0 15.891)">
      <g id="Group_5" data-name="Group 5">
        <path id="Clip_4-2" data-name="Clip 4" d="M.049,1.818C2.892,12.181,11.358,67.5,26.1,85.74h0c21.653,26.784,73.336,44.331,77.444,42.9h0c4.108-1.427,20.154-46.733-31.224-91.755h0c-24-19.982-61-34.873-70.679-36.863h0A1.238,1.238,0,0,0,1.393,0h0A1.458,1.458,0,0,0,.049,1.818" transform="translate(0 0.447)" fill="none"/>
        <g id="Group_5-2" data-name="Group 5" clip-path="url(#clip-path)">
          <path id="Fill_3" data-name="Fill 3" d="M.049,1.818C2.892,12.181,11.358,67.5,26.1,85.74h0c21.653,26.784,73.336,44.331,77.444,42.9h0c4.108-1.427,20.154-46.733-31.224-91.755h0c-24-19.982-61-34.873-70.679-36.863h0A1.238,1.238,0,0,0,1.393,0h0A1.458,1.458,0,0,0,.049,1.818" transform="translate(0 0.447)" fill="url(#linear-gradient)"/>
        </g>
      </g>
      <g id="Group_8" data-name="Group 8">
        <path id="Clip_7-2" data-name="Clip 7" d="M.049,1.818C2.892,12.181,11.358,67.5,26.1,85.74h0c21.653,26.784,73.336,44.331,77.444,42.9h0c4.108-1.427,20.154-46.733-31.224-91.755h0c-24-19.982-61-34.873-70.679-36.863h0A1.238,1.238,0,0,0,1.393,0h0A1.458,1.458,0,0,0,.049,1.818" transform="translate(0 0.447)" fill="none"/>
        <g id="Group_8-2" data-name="Group 8" clip-path="url(#clip-path)">
          <path id="Stroke_6" data-name="Stroke 6" d="M107.017,114.623S63.129,89.12,39.076,48.029,0,0,0,0" transform="translate(20.549 29.497)" fill="none" stroke="#34ab6a" stroke-linecap="round" stroke-miterlimit="10" stroke-width="3"/>
        </g>
      </g>
      <g id="Group_11" data-name="Group 11">
        <path id="Clip_10-2" data-name="Clip 10" d="M.049,1.818C2.892,12.181,11.358,67.5,26.1,85.74h0c21.653,26.784,73.336,44.331,77.444,42.9h0c4.108-1.427,20.154-46.733-31.224-91.755h0c-24-19.982-61-34.873-70.679-36.863h0A1.238,1.238,0,0,0,1.393,0h0A1.458,1.458,0,0,0,.049,1.818" transform="translate(0 0.447)" fill="none"/>
        <g id="Group_11-2" data-name="Group 11" clip-path="url(#clip-path)">
          <path id="Stroke_9" data-name="Stroke 9" d="M0,0S19.7,1.061,26.9,6.9" transform="translate(33.977 73.178)" fill="none" stroke="#34ab6a" stroke-linecap="round" stroke-miterlimit="10" stroke-width="3"/>
        </g>
      </g>
      <g id="Group_14" data-name="Group 14">
        <path id="Clip_13-2" data-name="Clip 13" d="M.049,1.818C2.892,12.181,11.358,67.5,26.1,85.74h0c21.653,26.784,73.336,44.331,77.444,42.9h0c4.108-1.427,20.154-46.733-31.224-91.755h0c-24-19.982-61-34.873-70.679-36.863h0A1.238,1.238,0,0,0,1.393,0h0A1.458,1.458,0,0,0,.049,1.818" transform="translate(0 0.447)" fill="none"/>
        <g id="Group_14-2" data-name="Group 14" clip-path="url(#clip-path)">
          <path id="Stroke_12" data-name="Stroke 12" d="M2.318,24.775S0,15.046,0,0" transform="translate(41.12 28.07)" fill="none" stroke="#34ab6a" stroke-linecap="round" stroke-miterlimit="10" stroke-width="3"/>
        </g>
      </g>
      <g id="Group_17" data-name="Group 17">
        <path id="Clip_16-2" data-name="Clip 16" d="M.049,1.818C2.892,12.181,11.358,67.5,26.1,85.74h0c21.653,26.784,73.336,44.331,77.444,42.9h0c4.108-1.427,20.154-46.733-31.224-91.755h0c-24-19.982-61-34.873-70.679-36.863h0A1.238,1.238,0,0,0,1.393,0h0A1.458,1.458,0,0,0,.049,1.818" transform="translate(0 0.447)" fill="none"/>
        <g id="Group_17-2" data-name="Group 17" clip-path="url(#clip-path)">
          <path id="Stroke_15" data-name="Stroke 15" d="M6.406,40.249S0,15.046,0,0" transform="translate(71.68 62.015)" fill="none" stroke="#34ab6a" stroke-linecap="round" stroke-miterlimit="10" stroke-width="3"/>
        </g>
      </g>
    </g>
    <g id="Group_40" data-name="Group 40" transform="translate(102.75 0.141)">
      <g id="Group_21" data-name="Group 21">
        <path id="Clip_20-2" data-name="Clip 20" d="M144.668.111C132.208,4.834,64.9,21.763,44.113,42.1h0C13.582,71.965-2.029,137.824.212,142.729h0c2.243,4.9,60.054,19.41,109.621-49.288h0c21.858-31.972,35.911-79.387,37.235-91.571h0c.005-.046.008-.094.009-.139h0V1.676A1.8,1.8,0,0,0,145.274,0h0a1.705,1.705,0,0,0-.606.111" transform="translate(0.006 0.609)" fill="none"/>
        <g id="Group_21-2" data-name="Group 21" clip-path="url(#clip-path-6)">
          <path id="Fill_19" data-name="Fill 19" d="M144.668.111C132.208,4.834,64.9,21.763,44.113,42.1h0C13.582,71.965-2.029,137.824.212,142.729h0c2.243,4.9,60.054,19.41,109.621-49.288h0c21.858-31.972,35.911-79.387,37.235-91.571h0c.005-.046.008-.094.009-.139h0V1.676A1.8,1.8,0,0,0,145.274,0h0a1.705,1.705,0,0,0-.606.111" transform="translate(0.006 0.609)" fill="url(#linear-gradient-2)"/>
        </g>
      </g>
      <g id="Group_24" data-name="Group 24">
        <path id="Clip_23-2" data-name="Clip 23" d="M144.668.111C132.208,4.834,64.9,21.763,44.113,42.1h0C13.582,71.965-2.029,137.824.212,142.729h0c2.243,4.9,60.054,19.41,109.621-49.288h0c21.858-31.972,35.911-79.387,37.235-91.571h0c.005-.046.008-.094.009-.139h0V1.676A1.8,1.8,0,0,0,145.274,0h0a1.705,1.705,0,0,0-.606.111" transform="translate(0.006 0.609)" fill="none"/>
        <g id="Group_24-2" data-name="Group 24" clip-path="url(#clip-path-6)">
          <path id="Stroke_22" data-name="Stroke 22" d="M0,145.535S26.347,88.369,74.26,53.863,128.98,0,128.98,0" transform="translate(-15.525 29.215)" fill="none" stroke="#34ab6a" stroke-linecap="round" stroke-miterlimit="10" stroke-width="3"/>
        </g>
      </g>
      <g id="Group_27" data-name="Group 27">
        <path id="Clip_26-2" data-name="Clip 26" d="M144.668.111C132.208,4.834,64.9,21.763,44.113,42.1h0C13.582,71.965-2.029,137.824.212,142.729h0c2.243,4.9,60.054,19.41,109.621-49.288h0c21.858-31.972,35.911-79.387,37.235-91.571h0c.005-.046.008-.094.009-.139h0V1.676A1.8,1.8,0,0,0,145.274,0h0a1.705,1.705,0,0,0-.606.111" transform="translate(0.006 0.609)" fill="none"/>
        <g id="Group_27-2" data-name="Group 27" clip-path="url(#clip-path-6)">
          <path id="Stroke_25" data-name="Stroke 25" d="M5.365,0S6.362,24.444,0,34.019" transform="translate(55.734 50.908)" fill="none" stroke="#34ab6a" stroke-linecap="round" stroke-miterlimit="10" stroke-width="3"/>
        </g>
      </g>
      <g id="Group_30" data-name="Group 30">
        <path id="Clip_29-2" data-name="Clip 29" d="M144.668.111C132.208,4.834,64.9,21.763,44.113,42.1h0C13.582,71.965-2.029,137.824.212,142.729h0c2.243,4.9,60.054,19.41,109.621-49.288h0c21.858-31.972,35.911-79.387,37.235-91.571h0c.005-.046.008-.094.009-.139h0V1.676A1.8,1.8,0,0,0,145.274,0h0a1.705,1.705,0,0,0-.606.111" transform="translate(0.006 0.609)" fill="none"/>
        <g id="Group_30-2" data-name="Group 30" clip-path="url(#clip-path-6)">
          <path id="Stroke_28" data-name="Stroke 28" d="M0,5.762S11.74,1.761,30.316,0" transform="translate(87.309 54.444)" fill="none" stroke="#34ab6a" stroke-linecap="round" stroke-miterlimit="10" stroke-width="3"/>
        </g>
      </g>
      <g id="Group_33" data-name="Group 33">
        <path id="Clip_32-2" data-name="Clip 32" d="M144.668.111C132.208,4.834,64.9,21.763,44.113,42.1h0C13.582,71.965-2.029,137.824.212,142.729h0c2.243,4.9,60.054,19.41,109.621-49.288h0c21.858-31.972,35.911-79.387,37.235-91.571h0c.005-.046.008-.094.009-.139h0V1.676A1.8,1.8,0,0,0,145.274,0h0a1.705,1.705,0,0,0-.606.111" transform="translate(0.006 0.609)" fill="none"/>
        <g id="Group_33-2" data-name="Group 33" clip-path="url(#clip-path-6)">
          <path id="Stroke_31" data-name="Stroke 31" d="M0,12.621S30.362,1.761,48.938,0" transform="translate(35.995 90.545)" fill="none" stroke="#34ab6a" stroke-linecap="round" stroke-miterlimit="10" stroke-width="3"/>
        </g>
      </g>
      <g id="Group_36" data-name="Group 36">
        <path id="Clip_35-2" data-name="Clip 35" d="M144.668.111C132.208,4.834,64.9,21.763,44.113,42.1h0C13.582,71.965-2.029,137.824.212,142.729h0c2.243,4.9,60.054,19.41,109.621-49.288h0c21.858-31.972,35.911-79.387,37.235-91.571h0c.005-.046.008-.094.009-.139h0V1.676A1.8,1.8,0,0,0,145.274,0h0a1.705,1.705,0,0,0-.606.111" transform="translate(0.006 0.609)" fill="none"/>
        <g id="Group_36-2" data-name="Group 36" clip-path="url(#clip-path-6)">
          <path id="Stroke_34" data-name="Stroke 34" d="M0,7.07S4.323,1.76,22.9,0" transform="translate(13.064 121.638)" fill="none" stroke="#34ab6a" stroke-linecap="round" stroke-miterlimit="10" stroke-width="3"/>
        </g>
      </g>
      <g id="Group_39" data-name="Group 39">
        <path id="Clip_38-2" data-name="Clip 38" d="M144.668.111C132.208,4.834,64.9,21.763,44.113,42.1h0C13.582,71.965-2.029,137.824.212,142.729h0c2.243,4.9,60.054,19.41,109.621-49.288h0c21.858-31.972,35.911-79.387,37.235-91.571h0c.005-.046.008-.094.009-.139h0V1.676A1.8,1.8,0,0,0,145.274,0h0a1.705,1.705,0,0,0-.606.111" transform="translate(0.006 0.609)" fill="none"/>
        <g id="Group_39-2" data-name="Group 39" clip-path="url(#clip-path-6)">
          <path id="Stroke_37" data-name="Stroke 37" d="M0,25.848A63.839,63.839,0,0,0,.518,0" transform="translate(20.825 93.129)" fill="none" stroke="#34ab6a" stroke-linecap="round" stroke-miterlimit="10" stroke-width="3"/>
        </g>
      </g>
    </g>
  </g>
</svg>
