<?xml version="1.0" encoding="utf-8"?>
<!-- Generator: Adobe Illustrator 22.0.1, SVG Export Plug-In . SVG Version: 6.00 Build 0)  -->
<svg version="1.1" id="Calque_1" xmlns="http://www.w3.org/2000/svg" xmlns:xlink="http://www.w3.org/1999/xlink" x="0px" y="0px"
	 viewBox="0 0 16 13" style="enable-background:new 0 0 16 13;" xml:space="preserve">
<style type="text/css">
	.st0{fill:#B2A4D4;}
</style>
<title>arrow</title>
<desc>Created with Sketch.</desc>
<g id="Page-1">
	<g id="arrow">
		<path id="Shape" class="st0" d="M7.8,12l0.5,0.5c0.3,0.3,0.8,0.3,1.1,0L14.8,7c0.3-0.3,0.3-0.8,0-1.1L9.4,0.5
			c-0.3-0.3-0.8-0.3-1.1,0L7.8,1c-0.3,0.3-0.3,0.8,0,1.1L11,5.4H0.8C0.3,5.4,0,5.7,0,6.1v0.8c0,0.4,0.3,0.8,0.8,0.8H11l-3.2,3.2
			C7.5,11.2,7.5,11.7,7.8,12z"/>
	</g>
</g>
</svg>
