<?xml version="1.0" encoding="UTF-8"?>
<svg width="16px" height="13px" viewBox="0 0 16 13" version="1.1" xmlns="http://www.w3.org/2000/svg" xmlns:xlink="http://www.w3.org/1999/xlink">
    <!-- Generator: Sketch 63.1 (92452) - https://sketch.com -->
    <title>arrow</title>
    <desc>Created with Sketch.</desc>
    <g id="Page-1" stroke="none" stroke-width="1" fill="none" fill-rule="evenodd">
        <g id="arrow" fill="#06DB5F" fill-rule="nonzero">
            <path d="M12.9955857,6.72647725 L13.5306777,7.26156725 C13.8364447,7.56733725 13.8364447,8.02598725 13.5306777,8.33175725 L8.06509475,13.7973372 C7.75932775,14.1031072 7.30067775,14.1031072 6.99491075,13.7973372 L1.52932775,8.33175725 C1.22356075,8.02598725 1.22356075,7.56733725 1.52932775,7.26156725 L2.06441975,6.72647725 C2.37018675,6.42070725 2.82883675,6.42070725 3.13460375,6.72647725 L6.38337675,9.97524725 L6.38337675,-0.26794275 C6.38337675,-0.68837275 6.72736475,-1.03235275 7.14779375,-1.03235275 L7.91221175,-1.03235275 C8.33264075,-1.03235275 8.67662875,-0.68837275 8.67662875,-0.26794275 L8.67662875,9.97524725 L11.9254017,6.72647725 C12.1929477,6.42070725 12.6898187,6.42070725 12.9955857,6.72647725 Z" id="Shape" transform="translate(7.530003, 6.497156) scale(-1, 1) rotate(90.000000) translate(-7.530003, -6.497156) "></path>
        </g>
    </g>
</svg>