<?xml version="1.0" encoding="UTF-8"?>
<svg width="760px" height="456px" viewBox="0 0 760 456" version="1.1" xmlns="http://www.w3.org/2000/svg" xmlns:xlink="http://www.w3.org/1999/xlink">
    <!-- Generator: Sketch 61.1 (89650) - https://sketch.com -->
    <title>Fill 1</title>
    <desc>Created with Sketch.</desc>
    <g id="Blomy---Site-Web" stroke="none" stroke-width="1" fill="none" fill-rule="evenodd">
        <g id="3.0-Equipe-web" transform="translate(-760.000000, -1486.000000)" fill="#FFF8EE">
            <g id="Histoire" transform="translate(-18.000000, 1486.000000)">
                <g id="txt" transform="translate(778.000000, 0.000000)">
                    <path d="M693.070179,26.3420155 C672.585086,15.5122141 648.046712,10.0522561 623.989736,6.7840583 C581.726195,1.04326367 538.427682,0.900685068 496.113619,6.36434641 C460.745564,10.9311822 426.00903,19.3865252 390.311862,21.3239894 C343.715005,23.8515191 297.427774,15.1992818 251.466047,8.17466257 C205.503598,1.15004331 157.950438,-4.25313013 112.435466,4.64846542 C30.1695895,20.7376272 -0.692654425,76.7574382 0.0117619857,144.150824 C0.540074293,194.619328 3.57209616,245.068698 9.09700151,295.317471 C12.2055276,323.585684 16.1216787,351.88229 24.1221458,379.438227 C27.8975579,392.441272 32.7577425,405.562207 42.31139,416.181535 C53.8880696,429.050025 71.3642365,437.103556 89.2171508,442.628322 C144.052648,459.597027 204.218182,455.69309 262.47544,453.479727 C327.471567,451.010216 392.591833,450.927508 457.595899,453.23222 C520.720559,455.469655 584.70553,459.901319 646.50147,448.653657 C666.112539,445.084254 685.699068,439.800822 702.042828,429.866612 C732.208594,411.527054 750.3401,376.656402 753.527295,345.879792 C757.963098,303.042638 759.376261,259.791945 759.90313,216.80604 C760.395355,176.550731 759.416678,135.798558 747.251782,96.9091642 C740.447235,75.1538918 729.689007,53.5732937 710.707294,37.9649489 C705.300032,33.5197061 699.377449,29.6762561 693.070179,26.3420155" id="Fill-1"></path>
                </g>
            </g>
        </g>
    </g>
</svg>