<?xml version="1.0" encoding="utf-8"?>
<!-- Generator: Adobe Illustrator 22.0.1, SVG Export Plug-In . SVG Version: 6.00 Build 0)  -->
<svg version="1.1" id="Calque_1" xmlns="http://www.w3.org/2000/svg" xmlns:xlink="http://www.w3.org/1999/xlink" x="0px" y="0px"
	 viewBox="0 0 684 183.8" style="enable-background:new 0 0 684 183.8;" xml:space="preserve">
<style type="text/css">
	.st0{fill:#FFDCBD;}
	.st1{fill:#B2A4D4;}
	.st2{fill:#E4F0F2;}
	.st3{fill:none;}
	.st4{clip-path:url(#SVGID_2_);}
	.st5{fill:#FFD1AE;}
</style>
<g id="Group_7" transform="translate(0 90.807)">
	<g id="XMLID_1_">
		<g>
			<path class="st0" d="M674.4-3.8c4.5-2.5,10.8,2.2,9.4,9.8c-1.3,7.6-16.7,27.7-18.3,29.2c0.9,1.4,5.2,6.7-0.3,13.1
				c-5.5,6.3-56,34.6-88.3,34.6H453l-12.8-61.6c29-0.3,52.9-1.1,54.5-2.8c4.1-4.4,28-39.3,34.8-45.1c6.8-5.8,32.7-15.4,32.7-15.4
				s10.1-3.6,14.7,3.4c4.6,7,0.6,12.3-0.7,13.6c-0.8,0.8-19.7,8.2-22.8,11.9S547.6,3.1,547,6c-1.6,7.6,12.7,19.9,28.5,19.9
				c15.9,0,29.1-17.7,29.1-31.8c0-7.4-14.2-17.5-15.9-19.9c-1.7-2.3-5.6-8,0.7-13.3c6.2-5.2,13.5,0.7,16.3,3.6
				c2.6,2.6,22.7,18.1,21.8,29c-1.2,14.6-6.7,30.2-6.7,30.2s16.2-1.2,33.4-34.4c3.3-6.4,8.4-18.8,18.8-11.1
				C679.3-16.8,676-8.8,674.4-3.8z"/>
			<path class="st1" d="M597-90.8c9.4,0,13.1,7.6,13.1,16.2c0,16.5-24.9,30.4-24.9,30.4s-26.2-15.9-26.2-30.5s7.9-16,13.3-16
				c7.6,0,12.2,7.3,12.2,7.3C586.9-88.1,591.7-91,597-90.8z"/>
			<path class="st2" d="M453,82.8l2,9.4L32.5,93L0,0.3l439.1,15.8l1.1,5.1c-47.6,0.6-109.1-0.1-109.1-0.1v61.7H453z"/>
			<path class="st2" d="M453,82.8H331.1V21.1c0,0,61.5,0.7,109.1,0.1L453,82.8z"/>
		</g>
		<g>
		</g>
	</g>
</g>
<g id="Group_11" transform="translate(330.968 48.216)">
	<path id="Clip_10-2" class="st3" d="M231.2,0.6c0,0-25.9,9.6-32.7,15.4l0,0c-6.8,5.8-30.6,40.7-34.8,45.1l0,0
		c-4.2,4.5-163.6,2.7-163.6,2.7l0,0v61.7h245.7c32.3,0,82.9-28.3,88.3-34.6l0,0c5.4-6.3,1.2-11.6,0.3-13.1l0,0
		c1.7-1.6,17-21.7,18.3-29.2l0,0c1.3-7.6-5.1-12.1-9.4-9.8l0,0c1.7-5,5-12.9-1.3-18l0,0c-10.4-7.7-15.6,4.7-18.8,11.1l0,0
		C309,56.3,290.6,61,290.6,61l0,0c3.2-8,5.2-16.4,5.9-25l0,0c0.9-10.9-19.1-26.4-21.8-29l0,0c-2.8-2.9-10.1-8.8-16.3-3.6l0,0
		c-6.3,5.3-2.4,10.9-0.7,13.3l0,0c1.7,2.4,15.9,12.5,15.9,19.9l0,0c0,14.1-13.3,31.8-29.1,31.8l0,0c-15.9,0-30.2-12.3-28.5-19.9l0,0
		c0.6-2.9,3.3-15.4,6.4-19.1l0,0c3.1-3.7,21.9-11.1,22.8-11.9l0,0c1.3-1.3,5.3-6.7,0.7-13.6l0,0c-2.3-3.4-5.9-4.3-8.9-4.3l0,0
		C235-0.3,233,0,231.2,0.6L231.2,0.6z"/>
	<g>
		<defs>
			<path id="SVGID_1_" d="M231.2,0.6c0,0-25.9,9.6-32.7,15.4l0,0c-6.8,5.8-30.6,40.7-34.8,45.1l0,0c-4.2,4.5-163.6,2.7-163.6,2.7
				l0,0v61.7h245.7c32.3,0,82.9-28.3,88.3-34.6l0,0c5.4-6.3,1.2-11.6,0.3-13.1l0,0c1.7-1.6,17-21.7,18.3-29.2l0,0
				c1.3-7.6-5.1-12.1-9.4-9.8l0,0c1.7-5,5-12.9-1.3-18l0,0c-10.4-7.7-15.6,4.7-18.8,11.1l0,0C309,56.3,290.6,61,290.6,61l0,0
				c3.2-8,5.2-16.4,5.9-25l0,0c0.9-10.9-19.1-26.4-21.8-29l0,0c-2.8-2.9-10.1-8.8-16.3-3.6l0,0c-6.3,5.3-2.4,10.9-0.7,13.3l0,0
				c1.7,2.4,15.9,12.5,15.9,19.9l0,0c0,14.1-13.3,31.8-29.1,31.8l0,0c-15.9,0-30.2-12.3-28.5-19.9l0,0c0.6-2.9,3.3-15.4,6.4-19.1
				l0,0c3.1-3.7,21.9-11.1,22.8-11.9l0,0c1.3-1.3,5.3-6.7,0.7-13.6l0,0c-2.3-3.4-5.9-4.3-8.9-4.3l0,0C235-0.3,233,0,231.2,0.6
				L231.2,0.6z"/>
		</defs>
		<clipPath id="SVGID_2_">
			<use xlink:href="#SVGID_1_"  style="overflow:visible;"/>
		</clipPath>
		<g id="Group_11-2" class="st4">
			<path id="Fill_9" class="st5" d="M234,135.6l140.3-21l4.9-81.4l-34,1.9c0,0-38.4,85.7-94.8,90.2c-78,12.5-31.1,21.4-31.1,21.4
				L234,135.6z"/>
		</g>
	</g>
</g>
</svg>
