<?xml version="1.0" encoding="utf-8"?>
<!-- Generator: Adobe Illustrator 22.0.1, SVG Export Plug-In . SVG Version: 6.00 Build 0)  -->
<svg version="1.1" id="Calque_1" xmlns="http://www.w3.org/2000/svg" xmlns:xlink="http://www.w3.org/1999/xlink" x="0px" y="0px"
	 viewBox="0 0 189 72.9" style="enable-background:new 0 0 189 72.9;" xml:space="preserve">
<style type="text/css">
	.st0{fill:#FFDCBD;}
	.st1{fill:#B2A4D4;}
	.st2{fill:none;}
	.st3{clip-path:url(#SVGID_2_);}
	.st4{fill:#E4F0F2;}
</style>
<g id="Group_8" transform="translate(0 -0.01)">
	<path id="Fill_1" class="st0" d="M49.1,44.4c0,0,63.2,0.7,64.9-1.1c1.6-1.8,11.1-15.6,13.8-17.9c2.7-2.3,12.9-6.1,12.9-6.1
		s4-1.4,5.8,1.3c1.2,1.6,1.1,3.9-0.3,5.4c-0.3,0.3-7.8,3.2-9,4.7c-1.2,1.5-2.3,6.4-2.5,7.6c-0.6,3,5,7.9,11.3,7.9s11.5-7,11.5-12.6
		c0-2.9-5.6-6.9-6.3-7.9c-0.7-0.9-2.2-3.2,0.3-5.3c2.5-2.1,5.4,0.3,6.5,1.4c1,1,9,7.2,8.6,11.5c-0.5,4.1-1.3,8.1-2.7,12
		c0,0,6.4-0.5,13.3-13.7c1.3-2.5,3.4-7.5,7.5-4.4c2.5,2,1.2,5.2,0.5,7.1c1.8-1,4.3,0.9,3.7,3.9c-0.5,3-6.6,11-7.3,11.6
		c1.3,1.5,1.2,3.7-0.1,5.2c-2.2,2.5-22.2,13.7-35,13.7H49.1V44.4z"/>
	<path id="Fill_3" class="st1" d="M149.6,2.9c1-1.8,2.9-3,5-2.9c3.7,0,5.2,3,5.2,6.4c0,6.5-9.9,12-9.9,12s-10.4-6.3-10.4-12.1
		s3.1-6.3,5.3-6.3C147.7,0,149.6,2.9,149.6,2.9"/>
	<g id="Group_7" transform="translate(0 36)">
		<path id="Clip_6-2" class="st2" d="M0,0.1h98.2v36.7H0V0.1z"/>
		<g>
			<defs>
				<rect id="SVGID_1_" y="0.1" width="98.2" height="36.7"/>
			</defs>
			<clipPath id="SVGID_2_">
				<use xlink:href="#SVGID_1_"  style="overflow:visible;"/>
			</clipPath>
			<g id="Group_7-2" class="st3">
				<path id="Fill_5" class="st4" d="M98.2,36.6L94.8,6.4L0,0.1l7,36.7L98.2,36.6z"/>
			</g>
		</g>
	</g>
</g>
</svg>
