<svg xmlns="http://www.w3.org/2000/svg" xmlns:xlink="http://www.w3.org/1999/xlink" width="683.972" height="183.798" viewBox="0 0 683.972 183.798">
  <defs>
    <clipPath id="clip-path">
      <path id="Clip_10" data-name="Clip 10" d="M231.059.918s-25.887,9.606-32.666,15.358h0c-6.779,5.752-30.65,40.655-34.8,45.1h0C159.44,65.827,0,64.049,0,64.049H0v61.73H245.714c32.32,0,82.892-28.266,88.341-34.6h0c5.448-6.339,1.181-11.626.292-13.072h0c1.668-1.556,17.012-21.682,18.347-29.243h0c1.335-7.562-5.066-12.088-9.426-9.778h0c1.668-5,4.977-12.906-1.323-18.021h0c-10.379-7.71-15.567,4.745-18.828,11.119h0C308.884,56.643,290.5,61.388,290.5,61.388h0a84.443,84.443,0,0,0,5.891-24.979h0c.924-10.929-19.13-26.351-21.754-28.987h0c-2.846-2.858-10.1-8.778-16.347-3.592h0c-6.328,5.252-2.4,10.931-.721,13.251h0c1.732,2.393,15.943,12.488,15.943,19.9h0c0,14.085-13.257,31.819-29.121,31.819h0c-15.863,0-30.166-12.3-28.535-19.858h0c.624-2.9,3.287-15.408,6.368-19.106h0c3.082-3.7,21.938-11.064,22.76-11.886h0c1.335-1.336,5.338-6.672.742-13.64h0C243.458.87,239.858,0,236.793,0h0a19.075,19.075,0,0,0-5.733.918Z" transform="translate(0.936 0.608)" fill="none"/>
    </clipPath>
  </defs>
  <g id="main" transform="translate(-0.808 -0.946)">
    <g id="Group_8" data-name="Group 8" transform="translate(0 0.92)">
      <path id="Fill_1" data-name="Fill 1" d="M0,64.048s159.441,1.778,163.591-2.668,28.023-39.351,34.8-45.1S231.059.918,231.059.918s10.071-3.577,14.667,3.39.593,12.306-.742,13.64c-.823.823-19.679,8.189-22.76,11.887s-5.745,16.209-6.369,19.106C214.226,56.5,228.529,68.8,244.392,68.8s29.121-17.734,29.121-31.819c0-7.413-14.211-17.507-15.942-19.9-1.678-2.319-5.608-8,.72-13.25,6.247-5.186,13.5.734,16.347,3.592,2.624,2.636,22.677,18.058,21.754,28.987-1.233,14.587-6.712,30.215-6.712,30.215s16.23-1.233,33.438-34.443c3.262-6.375,8.45-18.829,18.828-11.119,6.3,5.115,2.991,13.017,1.322,18.021,4.451-2.453,10.761,2.216,9.426,9.777S336.015,76.548,334.348,78.1c.889,1.446,5.156,6.734-.292,13.072s-56.022,34.6-88.341,34.6H0Z" transform="translate(331.904 47.903)" fill="#ffdcbd"/>
      <path id="Fill_3" data-name="Fill 3" d="M25.574,7.338A13.531,13.531,0,0,1,38.1,0c9.341,0,13.047,7.561,13.047,16.16,0,16.456-24.908,30.393-24.908,30.393S0,30.689,0,16.011,7.931,0,13.342,0c7.636,0,12.232,7.338,12.232,7.338" transform="translate(559.692 0.026)" fill="#00d35e"/>
      <g id="Group_7" data-name="Group 7" transform="translate(0 90.807)">
        <path id="Fill_5" data-name="Fill 5" d="M455,91.87,439.135,15.845,0,0,32.554,92.648Z" transform="translate(0.808 0.369)" fill="#e4f0f2"/>
      </g>
    </g>
    <g id="Group_11" data-name="Group 11" transform="translate(330.968 48.216)">
      <path id="Clip_10-2" data-name="Clip 10" d="M231.059.918s-25.887,9.606-32.666,15.358h0c-6.779,5.752-30.65,40.655-34.8,45.1h0C159.44,65.827,0,64.049,0,64.049H0v61.73H245.714c32.32,0,82.892-28.266,88.341-34.6h0c5.448-6.339,1.181-11.626.292-13.072h0c1.668-1.556,17.012-21.682,18.347-29.243h0c1.335-7.562-5.066-12.088-9.426-9.778h0c1.668-5,4.977-12.906-1.323-18.021h0c-10.379-7.71-15.567,4.745-18.828,11.119h0C308.884,56.643,290.5,61.388,290.5,61.388h0a84.443,84.443,0,0,0,5.891-24.979h0c.924-10.929-19.13-26.351-21.754-28.987h0c-2.846-2.858-10.1-8.778-16.347-3.592h0c-6.328,5.252-2.4,10.931-.721,13.251h0c1.732,2.393,15.943,12.488,15.943,19.9h0c0,14.085-13.257,31.819-29.121,31.819h0c-15.863,0-30.166-12.3-28.535-19.858h0c.624-2.9,3.287-15.408,6.368-19.106h0c3.082-3.7,21.938-11.064,22.76-11.886h0c1.335-1.336,5.338-6.672.742-13.64h0C243.458.87,239.858,0,236.793,0h0a19.075,19.075,0,0,0-5.733.918Z" transform="translate(0.936 0.608)" fill="none"/>
      <g id="Group_11-2" data-name="Group 11" clip-path="url(#clip-path)">
        <path id="Fill_9" data-name="Fill 9" d="M28.7,102.373,168.96,81.357,173.891,0,139.864,1.858S101.471,87.52,45.079,92.013c-77.966,12.547-31.128,21.394-31.128,21.394Z" transform="translate(206.093 34.155)" fill="#ffd1ae"/>
      </g>
    </g>
  </g>
</svg>
