<svg xmlns="http://www.w3.org/2000/svg" xmlns:xlink="http://www.w3.org/1999/xlink" width="189.016" height="72.866" viewBox="0 0 189.016 72.866">
  <defs>
    <clipPath id="clip-path">
      <path id="Clip_6" data-name="Clip 6" d="M0,0H98.242V36.73H0Z" transform="translate(0 0.146)" fill="none"/>
    </clipPath>
  </defs>
  <g id="Group_8" data-name="Group 8" transform="translate(0 -0.01)">
    <path id="Fill_1" data-name="Fill 1" d="M0,25.392s63.209.7,64.855-1.058,11.109-15.6,13.8-17.881S91.6.364,91.6.364s3.993-1.418,5.815,1.344a4.162,4.162,0,0,1-.294,5.407c-.326.326-7.8,3.246-9.023,4.713s-2.277,6.426-2.525,7.575c-.646,3,5.024,7.873,11.313,7.873s11.545-7.031,11.545-12.614c0-2.939-5.634-6.94-6.32-7.89-.665-.919-2.223-3.171.285-5.253,2.477-2.056,5.352.291,6.481,1.424,1.04,1.045,8.99,7.159,8.624,11.492a56.793,56.793,0,0,1-2.661,11.979s6.434-.489,13.256-13.655c1.293-2.528,3.35-7.465,7.464-4.408,2.5,2.028,1.186,5.16.524,7.144,1.764-.972,4.266.879,3.737,3.876s-6.612,10.977-7.273,11.594a3.862,3.862,0,0,1-.116,5.182c-2.16,2.513-22.209,13.718-35.022,13.718H0Z" transform="translate(49.121 18.991)" fill="#ffdcbd"/>
    <path id="Fill_3" data-name="Fill 3" d="M10.139,2.909A5.364,5.364,0,0,1,15.1,0c3.7,0,5.172,3,5.172,6.406,0,6.524-9.874,12.049-9.874,12.049S0,12.167,0,6.348,3.144,0,5.289,0c3.027,0,4.849,2.909,4.849,2.909" transform="translate(139.426 0.01)" fill="#00d35e"/>
    <g id="Group_7" data-name="Group 7" transform="translate(0 36)">
      <path id="Clip_6-2" data-name="Clip 6" d="M0,0H98.242V36.73H0Z" transform="translate(0 0.146)" fill="none"/>
      <g id="Group_7-2" data-name="Group 7" clip-path="url(#clip-path)">
        <path id="Fill_5" data-name="Fill 5" d="M98.242,36.421,94.816,6.282,0,0,7.029,36.73Z" transform="translate(0 0.146)" fill="#e4f0f2"/>
      </g>
    </g>
  </g>
</svg>
