<svg xmlns="http://www.w3.org/2000/svg" xmlns:xlink="http://www.w3.org/1999/xlink" width="162.398" height="135.592" viewBox="0 0 162.398 135.592">
  <defs>
    <clipPath id="clip-path">
      <path id="Clip_2" data-name="Clip 2" d="M0,0H27.325V24.92H0Z" transform="translate(0 0.328)" fill="none"/>
    </clipPath>
    <clipPath id="clip-path-2">
      <path id="Clip_7" data-name="Clip 7" d="M0,0H88.31V88.454H0Z" transform="translate(0.213 0.046)" fill="none"/>
    </clipPath>
    <clipPath id="clip-path-3">
      <path id="Clip_11" data-name="Clip 11" d="M13.015.384c-2.752,1.642-1.22,5.3-.841,6.234h0C10.893,5.556,8.818,4.031,8.818,4.031h0s-4.365-2.905-6.77.563h0C.057,7.838,3.087,9.974,3.407,10.271h0c.32.3,17.213,13.966,17.213,13.966h0s-8.552-.382-10.253.305h0c-1.7.687-8.787,9.708-8.787,9.708h0s-3.333,3.157-.314,5.664h0c1.716,1.426,4.545-.346,6.219-1.662h0c.739-.581,5.349-4.713,6.81-5.138h0c1.461-.424,5.863.638,7.619,1.4h0c4.426,1.926,8.942,8.611,9.985,14.333h0c-.244,4.154-9.4,4.135-9.4,4.135h0l-10.293-.558s-4.424.065-4.254,4.01h0a4.138,4.138,0,0,0,4.229,3.9h0c.377-.014,9.953,3.21,12.322,3.326h0A98.371,98.371,0,0,0,39.7,63.328h0c10.446-.55,13.42,2.109,15.307,3.41h0c9.557,6.592,62.306,54.483,64.533,56.95h0l19.728-23.194L41.935,26.332,27.866,6.23s-1.541-2.16-3.488-1.245h0a2.962,2.962,0,0,0-1.462,3.226h0C22.012,6.969,17.98,0,14.389,0h0a2.64,2.64,0,0,0-1.374.384Z" transform="translate(0.113 0.158)" fill="none"/>
    </clipPath>
  </defs>
  <g id="main" transform="translate(0 -0.219)">
    <g id="Group_9" data-name="Group 9" transform="translate(0 0.061)">
      <g id="Group_3" data-name="Group 3" transform="translate(0 42)">
        <path id="Clip_2-2" data-name="Clip 2" d="M0,0H27.325V24.92H0Z" transform="translate(0 0.328)" fill="none"/>
        <g id="Group_3-2" data-name="Group 3" clip-path="url(#clip-path)">
          <path id="Fill_1" data-name="Fill 1" d="M13.629,3.968A7.229,7.229,0,0,0,6.908.1C1.918.132-.033,4.186,0,8.78c.064,8.791,13.423,16.14,13.423,16.14S27.382,16.344,27.325,8.5s-4.3-8.523-7.19-8.5c-4.079.03-6.506,3.968-6.506,3.968" transform="translate(0 0.328)" fill="#00d35e"/>
        </g>
      </g>
      <path id="Fill_4" data-name="Fill 4" d="M139.264,100.493,41.934,26.331,27.866,6.23s-1.541-2.16-3.488-1.244a2.962,2.962,0,0,0-1.462,3.226c-1.02-1.4-6.04-10.127-9.9-7.828-2.752,1.643-1.22,5.3-.841,6.235-1.28-1.062-3.356-2.587-3.356-2.587s-4.365-2.905-6.77.563C.057,7.838,3.087,9.974,3.407,10.271S20.619,24.237,20.619,24.237s-8.552-.382-10.253.3-8.787,9.709-8.787,9.709-3.333,3.157-.314,5.664c1.717,1.426,4.545-.346,6.219-1.662.739-.581,5.349-4.714,6.81-5.137s5.863.637,7.619,1.4c4.426,1.927,8.943,8.611,9.985,14.333-.244,4.154-9.4,4.135-9.4,4.135l-10.293-.558s-4.424.065-4.254,4.01a4.138,4.138,0,0,0,4.229,3.9c.377-.014,9.952,3.21,12.322,3.326A98.321,98.321,0,0,0,39.7,63.327c10.446-.55,13.42,2.109,15.307,3.41,9.557,6.592,62.306,54.483,64.533,56.95l19.728-23.194" transform="translate(20.363 0.158)" fill="#ffdcbd"/>
      <g id="Group_8" data-name="Group 8" transform="translate(73.875 47.25)">
        <path id="Clip_7-2" data-name="Clip 7" d="M0,0H88.31V88.454H0Z" transform="translate(0.213 0.046)" fill="none"/>
        <g id="Group_8-2" data-name="Group 8" clip-path="url(#clip-path-2)">
          <path id="Fill_6" data-name="Fill 6" d="M15.515,0,0,26.065,71.674,88.454,88.31,54.962Z" transform="translate(0.213 0.046)" fill="#e4f0f2"/>
        </g>
      </g>
    </g>
    <g id="Group_12" data-name="Group 12" transform="translate(20.25 0.061)">
      <path id="Clip_11-2" data-name="Clip 11" d="M13.015.384c-2.752,1.642-1.22,5.3-.841,6.234h0C10.893,5.556,8.818,4.031,8.818,4.031h0s-4.365-2.905-6.77.563h0C.057,7.838,3.087,9.974,3.407,10.271h0c.32.3,17.213,13.966,17.213,13.966h0s-8.552-.382-10.253.305h0c-1.7.687-8.787,9.708-8.787,9.708h0s-3.333,3.157-.314,5.664h0c1.716,1.426,4.545-.346,6.219-1.662h0c.739-.581,5.349-4.713,6.81-5.138h0c1.461-.424,5.863.638,7.619,1.4h0c4.426,1.926,8.942,8.611,9.985,14.333h0c-.244,4.154-9.4,4.135-9.4,4.135h0l-10.293-.558s-4.424.065-4.254,4.01h0a4.138,4.138,0,0,0,4.229,3.9h0c.377-.014,9.953,3.21,12.322,3.326h0A98.371,98.371,0,0,0,39.7,63.328h0c10.446-.55,13.42,2.109,15.307,3.41h0c9.557,6.592,62.306,54.483,64.533,56.95h0l19.728-23.194L41.935,26.332,27.866,6.23s-1.541-2.16-3.488-1.245h0a2.962,2.962,0,0,0-1.462,3.226h0C22.012,6.969,17.98,0,14.389,0h0a2.64,2.64,0,0,0-1.374.384Z" transform="translate(0.113 0.158)" fill="none"/>
      <g id="Group_12-2" data-name="Group 12" clip-path="url(#clip-path-3)">
        <path id="Fill_10" data-name="Fill 10" d="M5.983,10.587,35.9,30.405,29.729,11.973,6.19,0,0,1.059Z" transform="translate(6.303 -3.811)" fill="#ffd1ae"/>
      </g>
    </g>
  </g>
</svg>
