<?xml version="1.0" encoding="UTF-8"?>
<svg width="42px" height="28px" viewBox="0 0 42 28" version="1.1" xmlns="http://www.w3.org/2000/svg" xmlns:xlink="http://www.w3.org/1999/xlink">
    <!-- Generator: Sketch 44.1 (41455) - http://www.bohemiancoding.com/sketch -->
    <title>card-visa</title>
    <desc>Created with Sketch.</desc>
    <defs></defs>
    <g id="Page-1" stroke="none" stroke-width="1" fill="none" fill-rule="evenodd">
        <g id="Subscribe-1/4" transform="translate(-641.000000, -1013.000000)">
            <g id="card-visa" transform="translate(641.000000, 1013.000000)">
                <path d="M37.7026929,27.5079528 L4.03274016,27.5079528 L4.03274016,27.5079528 C1.82360116,27.5079528 0.0327401575,25.7170918 0.0327401575,23.5079528 L0.0327401575,4.3555748 L0.0327401575,4.3555748 C0.0327401575,2.1464358 1.82360116,0.355574803 4.03274016,0.355574803 L37.7026929,0.355574803 L37.7026929,0.355574803 C39.9118319,0.355574803 41.7026929,2.1464358 41.7026929,4.3555748 L41.7026929,23.5079528 L41.7026929,23.5079528 C41.7026929,25.7170918 39.9118319,27.5079528 37.7026929,27.5079528 Z" id="Shape" fill="#808080" fill-rule="nonzero"></path>
                <g id="Group" transform="translate(3.637795, 7.937008)" fill="#FFFFFF">
                    <path d="M22.4488346,0.313181102 C22.7917795,0.377669291 23.1357165,0.438519685 23.478,0.506976378 C23.7428976,0.559889764 24.0775748,0.566834646 24.2320157,0.750708661 C24.3970394,0.947149606 24.2058898,1.25933858 24.1701732,1.51993701 C24.1179213,1.90322835 24.0329291,2.28255118 23.9816693,2.66650394 C23.9568661,2.84872441 23.921811,2.88543307 23.7362835,2.80606299 C22.9313386,2.46245669 22.0910079,2.32388976 21.2172756,2.43666142 C20.9298898,2.47370079 20.6557323,2.55373228 20.4219213,2.73297638 C20.0432598,3.02300787 20.0230866,3.42085039 20.3736378,3.74461417 C20.6745827,4.02274016 21.0456378,4.19140157 21.4077638,4.36998425 C21.8991969,4.61140157 22.3969134,4.84091339 22.8337795,5.17856693 C24.0729449,6.1359685 24.2829449,7.68070866 23.3400945,8.9383937 C22.7431654,9.73374803 21.9064724,10.1415118 20.9685827,10.3759843 C20.6411811,10.458 20.3078268,10.5076063 19.9718268,10.539685 C19.9169291,10.5456378 19.850126,10.5234803 19.8154016,10.5922677 C19.7816693,10.5922677 19.747937,10.5922677 19.713874,10.5922677 C19.5620787,10.5529134 19.4099528,10.5529134 19.2584882,10.5922677 C19.2078898,10.5922677 19.1566299,10.5922677 19.1063622,10.5922677 C18.9714331,10.5509291 18.8361732,10.5509291 18.7009134,10.5922677 C18.6671811,10.5922677 18.6334488,10.5922677 18.5993858,10.5922677 C18.2051811,10.4758583 17.7901417,10.484126 17.3906457,10.3935118 C17.0450551,10.3154646 16.7007874,10.2354331 16.3664409,10.1173701 C16.2420945,10.0740472 16.193811,10.0059213 16.2169606,9.87297638 C16.3260945,9.24992126 16.4315906,8.62653543 16.5337795,8.00314961 C16.5675118,7.79744882 16.6816063,7.87218898 16.7877638,7.92179528 C17.545748,8.27829921 18.3397795,8.47970079 19.178126,8.50516535 C19.6292126,8.51905512 20.0733543,8.48962205 20.4907087,8.29946457 C21.2083465,7.9723937 21.2820945,7.31262992 20.6550709,6.84170079 C20.3081575,6.58143307 19.9099843,6.41409449 19.5230551,6.2275748 C19.1040472,6.02584252 18.705874,5.79170079 18.3351496,5.50861417 C16.920378,4.43083465 17.1522047,2.8636063 17.9227559,1.89 C18.4796693,1.18625197 19.2386457,0.800314961 20.083937,0.561543307 C20.417622,0.467291339 20.758252,0.411401575 21.1018583,0.369070866 C21.1637008,0.361133858 21.2410866,0.389244094 21.283748,0.313181102 C21.2999528,0.313181102 21.3171496,0.313181102 21.3340157,0.313181102 C21.5026772,0.354519685 21.6716693,0.354519685 21.84,0.313181102 C21.874063,0.313181102 21.9077953,0.313181102 21.9415276,0.313181102 C22.0933228,0.352866142 22.2454488,0.352866142 22.3972441,0.313181102 C22.4147717,0.313181102 22.4316378,0.313181102 22.4488346,0.313181102 Z" id="Shape"></path>
                    <path d="M0.0158740157,0.515574803 C1.51431496,0.515244094 3.01275591,0.503007874 4.51086614,0.518220472 C5.17492913,0.524834646 5.53143307,0.834047244 5.66503937,1.46437795 C5.95970079,2.85401575 6.24543307,4.24497638 6.53381102,5.63593701 C6.54207874,5.67628346 6.53777953,5.7196063 6.53976378,5.76127559 C6.36614173,5.75730709 6.33075591,5.60848819 6.27519685,5.49340157 C6.01327559,4.95500787 5.70472441,4.44604724 5.32440945,3.98338583 C4.74401575,3.27732283 4.06407874,2.68237795 3.28691339,2.20185827 C3.12023622,2.09834646 2.97538583,1.97829921 2.86625197,1.81625197 C1.97333858,1.30133858 1.01659843,0.954425197 0.0162047244,0.718299213 C0.0158740157,0.650503937 0.0158740157,0.583370079 0.0158740157,0.515574803 Z" id="Shape"></path>
                    <path d="M2.86592126,1.81592126 C4.45927559,2.69229921 5.68752756,3.91592126 6.45047244,5.58269291 C6.47792126,5.6432126 6.51,5.70174803 6.53976378,5.76094488 C6.64724409,6.23617323 6.7543937,6.71140157 6.86617323,7.20514961 C6.95480315,7.12809449 6.9683622,7.02623622 7.0024252,6.93992126 C7.81497638,4.8683622 8.62719685,2.79713386 9.43247244,0.723259843 C9.49398425,0.565511811 9.56707087,0.501685039 9.74201575,0.504 C10.5433228,0.513259843 11.3449606,0.512267717 12.145937,0.504661417 C12.3367559,0.503007874 12.3777638,0.540047244 12.2974016,0.72623622 C10.9319055,3.89144882 9.57037795,7.05864567 8.21215748,10.2271654 C8.15329134,10.3647402 8.07458268,10.4146772 7.92708661,10.4133543 C7.10858268,10.4077323 6.29040945,10.4064094 5.47223622,10.4146772 C5.30225197,10.4166614 5.23974803,10.3455591 5.19774803,10.1940945 C4.42256693,7.40125984 3.64374803,4.60875591 2.86592126,1.81592126 Z" id="Shape"></path>
                    <path d="M13.1572441,10.4325354 C12.7858583,10.4325354 12.4141417,10.4245984 12.0434173,10.4358425 C11.8522677,10.442126 11.7900945,10.3915276 11.8251496,10.1907874 C12.1168346,8.51376378 12.3999213,6.83475591 12.686315,5.15574803 C12.9346772,3.70162205 13.1889921,2.24815748 13.4277638,0.792708661 C13.4631496,0.577086614 13.5302835,0.497055118 13.7594646,0.502346457 C14.4847087,0.517889764 15.2106142,0.512598425 15.936189,0.504661417 C16.1210551,0.502677165 16.1855433,0.536740157 16.1498268,0.744755906 C15.6087874,3.88549606 15.0746929,7.02689764 14.5452283,10.1692913 C14.5108346,10.3736693 14.4364252,10.4510551 14.2201417,10.4384882 C13.8669449,10.4176535 13.5117638,10.4325354 13.1572441,10.4325354 Z" id="Shape"></path>
                    <path d="M33.2497795,9.01908661 C32.7910866,6.94488189 32.3284252,4.87100787 31.8753543,2.79548031 C31.7295118,2.12811024 31.5846614,1.46074016 31.4275748,0.796015748 C31.3455591,0.450094488 31.2933071,0.414377953 30.9463937,0.414377953 C30.313748,0.414377953 29.6807717,0.422976378 29.0484567,0.411732283 C28.3642205,0.399496063 27.8830394,0.696141732 27.6111969,1.32018898 C27.1604409,2.3559685 26.6964567,3.3867874 26.2427244,4.42091339 C25.6295906,5.81815748 25.0088504,7.21143307 24.3957165,8.60900787 C24.168189,9.12590551 23.9158583,9.63255118 23.7237165,10.1636693 C23.6340945,10.4113701 23.7134646,10.5148819 23.9743937,10.5155433 C24.7760315,10.5175276 25.5773386,10.5115748 26.3789764,10.5195118 C26.5694646,10.5218268 26.6733071,10.4431181 26.7444094,10.2761102 C26.8747087,9.97351181 26.9911181,9.66595276 27.097937,9.35541732 C27.1749921,9.12954331 27.3109134,9.03628346 27.5477008,9.03727559 C28.4164724,9.04256693 29.2852441,9.03661417 30.1540157,9.04058268 C30.4592598,9.04223622 30.5108504,9.08952756 30.5773228,9.39311811 C30.6401575,9.68182677 30.7026614,9.97020472 30.7724409,10.2565984 C30.8170866,10.4404724 30.9083622,10.5224882 31.1067874,10.5195118 C31.7986299,10.5112441 32.4904724,10.5162047 33.1819843,10.5165354 C33.2752441,10.5165354 33.3694961,10.5254646 33.4369606,10.4404724 C33.4369606,10.4067402 33.4369606,10.3730079 33.4369606,10.3392756 C33.3542835,9.90207874 33.3460157,9.45628346 33.2497795,9.01908661 Z M29.9294646,6.90751181 C29.3308819,6.89792126 28.7329606,6.89792126 28.1347087,6.90751181 C27.9445512,6.91015748 27.9283465,6.85195276 27.9915118,6.69188976 C28.3020472,5.90943307 28.6049764,5.12433071 28.9098898,4.33955906 C29.0421732,3.9976063 29.1721417,3.65499213 29.3031024,3.31270866 C29.3259213,3.31634646 29.3490709,3.31965354 29.3718898,3.32296063 C29.5607244,4.18544882 29.7505512,5.0476063 29.9383937,5.91009449 C29.9942835,6.16507087 30.0369449,6.42335433 30.1063937,6.6743622 C30.156,6.85195276 30.1232598,6.91048819 29.9294646,6.90751181 Z" id="Shape"></path>
                </g>
            </g>
        </g>
    </g>
</svg>