<?xml version="1.0" encoding="UTF-8"?>
<svg width="28px" height="25px" viewBox="0 0 28 25" version="1.1" xmlns="http://www.w3.org/2000/svg" xmlns:xlink="http://www.w3.org/1999/xlink">
    <!-- Generator: Sketch 56.3 (81716) - https://sketch.com -->
    <title>icon-question</title>
    <desc>Created with Sketch.</desc>
    <g id="Page-1" stroke="none" stroke-width="1" fill="none" fill-rule="evenodd">
        <g id="Product-page-mobile-Copy" transform="translate(-170.000000, -1605.000000)" fill="#DCDCDC">
            <g id="icon-question" transform="translate(170.000000, 1605.000000)">
                <path d="M0.0647459207,17.2333147 C0.0647459207,18.5438322 1.1261352,19.6051562 2.43658741,19.6051562 L5.99454545,19.6051562 L5.99454545,23.2642145 C5.99454545,23.9225734 6.5285035,24.4500047 7.18059674,24.4500047 C7.51294172,24.4500047 7.81461072,24.3132681 8.02836364,24.0944242 L12.5175012,19.6052214 L25.5633473,19.6052214 C26.8737995,19.6052214 27.9351888,18.5438974 27.9351888,17.23338 L27.9351888,2.40852214 C27.9351888,1.09800466 26.8737995,0.0366153846 25.5633473,0.0366153846 L2.43665268,0.0366153846 C1.1261352,0.0366153846 0.0647459207,1.09800466 0.0647459207,2.40852214 L0.0647459207,17.2333147 L0.0647459207,17.2333147 Z M7.180662,10.4139767 C7.180662,9.59577622 7.8448951,8.93154312 8.66309557,8.93154312 C9.48129604,8.93154312 10.1455291,9.59577622 10.1455291,10.4139767 C10.1455291,11.2322424 9.48129604,11.8964103 8.66309557,11.8964103 C7.84482984,11.8964103 7.180662,11.2321772 7.180662,10.4139767 Z M12.5175664,10.4139767 C12.5175664,9.59577622 13.1817995,8.93154312 14,8.93154312 C14.8182657,8.93154312 15.4825641,9.59577622 15.4825641,10.4139767 C15.4825641,11.2322424 14.8182657,11.8964103 14,11.8964103 C13.1817995,11.8964103 12.5175664,11.2321772 12.5175664,10.4139767 Z M17.8544709,10.4139767 C17.8544709,9.59577622 18.5186387,8.93154312 19.337035,8.93154312 C20.1553007,8.93154312 20.819338,9.59577622 20.819338,10.4139767 C20.819338,11.2322424 20.1553007,11.8964103 19.337035,11.8964103 C18.5185734,11.8964103 17.8544709,11.2321772 17.8544709,10.4139767 Z" id="Shape"></path>
            </g>
        </g>
    </g>
</svg>