<?xml version="1.0" encoding="UTF-8"?>
<svg width="23px" height="30px" viewBox="0 0 23 30" version="1.1" xmlns="http://www.w3.org/2000/svg" xmlns:xlink="http://www.w3.org/1999/xlink">
    <!-- Generator: Sketch 56.3 (81716) - https://sketch.com -->
    <title>icon-secure</title>
    <desc>Created with Sketch.</desc>
    <g id="Page-1" stroke="none" stroke-width="1" fill="none" fill-rule="evenodd">
        <g id="Payment-Page" transform="translate(-255.000000, -1206.000000)" fill="#39BF71" fill-rule="nonzero">
            <g id="icon-secure" transform="translate(255.000000, 1206.000000)">
                <path d="M20.125,10.2173077 L18.6875,10.2173077 L18.6875,7.29807692 C18.6875,3.27415683 15.4629516,0 11.5,0 C7.53704839,0 4.3125,3.27415683 4.3125,7.29807692 L4.3125,10.2173077 L2.875,10.2173077 C1.28720478,10.2173077 0,11.5242264 0,13.1365385 L0,26.2730769 C0,27.8852998 1.28720478,29.1923077 2.875,29.1923077 L20.125,29.1923077 C21.7127952,29.1923077 23,27.8852998 23,26.2730769 L23,13.1365385 C23,11.5242264 21.7127952,10.2173077 20.125,10.2173077 Z M7.1875,7.29807692 C7.1875,4.88343972 9.12194821,2.91923077 11.5,2.91923077 C13.8780518,2.91923077 15.8125,4.88343972 15.8125,7.29807692 L15.8125,10.2173077 L7.1875,10.2173077 L7.1875,7.29807692 Z M10.4308243,24.8134615 L5.63602824,19.9274383 L7.66891861,17.8631837 L10.4308243,20.6675802 L15.7543297,15.2621747 L17.7872201,17.3264294 L10.4308243,24.8134615 Z" id="Shape"></path>
            </g>
        </g>
    </g>
</svg>