<?xml version="1.0" encoding="UTF-8"?>
<svg width="23px" height="49px" viewBox="0 0 23 49" version="1.1" xmlns="http://www.w3.org/2000/svg" xmlns:xlink="http://www.w3.org/1999/xlink">
    <!-- Generator: Sketch 63.1 (92452) - https://sketch.com -->
    <title>disclosure_indicator</title>
    <desc>Created with Sketch.</desc>
    <defs>
        <path d="M13.465332,25.3466797 C19.7319336,25.3466797 24.9204102,20.1582031 24.9204102,13.8916016 C24.9204102,7.63623047 19.7207031,2.43652344 13.4541016,2.43652344 C7.19873047,2.43652344 2.01025391,7.63623047 2.01025391,13.8916016 C2.01025391,20.1582031 7.20996094,25.3466797 13.465332,25.3466797 Z M13.465332,23.4375 C8.16455078,23.4375 3.93066406,19.1923828 3.93066406,13.8916016 C3.93066406,8.60205078 8.15332031,4.34570312 13.4541016,4.34570312 C18.7548828,4.34570312 23,8.60205078 23.0112526,13.8916016 C23.0224609,19.1923828 18.7661133,23.4375 13.465332,23.4375 Z M14.5546875,18.5859375 C14.7905273,18.5859375 14.9926758,18.4960938 15.1386719,18.3500977 L18.9345703,14.5429688 C19.1479492,14.3295898 19.2602539,14.1386719 19.2602539,13.8803711 C19.2602539,13.6445312 19.1591797,13.4536133 18.9345703,13.2290039 L15.1386719,9.421875 C14.9926758,9.27587891 14.7905273,9.19726562 14.5546875,9.19726562 C14.0942383,9.19726562 13.7460938,9.54541016 13.7460938,10.0058594 C13.7460938,10.2529297 13.847168,10.4550781 13.9931641,10.6010742 L15.4082031,11.9936523 L16.7558594,13.1279297 L14.3862305,13.0380859 L8.52392578,13.0380859 C8.04101562,13.0380859 7.69287109,13.3974609 7.69287109,13.8803711 C7.69287109,14.3632812 8.04101562,14.7226562 8.52392578,14.7226562 L14.3862305,14.7226562 L16.7670898,14.6328125 L15.4082031,15.7783203 L13.9931641,17.159668 C13.8359375,17.3168945 13.7460938,17.519043 13.7460938,17.7661133 C13.7460938,18.215332 14.0942383,18.5859375 14.5546875,18.5859375 Z" id="path-1"></path>
        <path d="M13.465332,25.3466797 C19.7319336,25.3466797 24.9204102,20.1582031 24.9204102,13.8916016 C24.9204102,7.63623047 19.7207031,2.43652344 13.4541016,2.43652344 C7.19873047,2.43652344 2.01025391,7.63623047 2.01025391,13.8916016 C2.01025391,20.1582031 7.20996094,25.3466797 13.465332,25.3466797 Z M13.465332,23.4375 C8.16455078,23.4375 3.93066406,19.1923828 3.93066406,13.8916016 C3.93066406,8.60205078 8.15332031,4.34570312 13.4541016,4.34570312 C18.7548828,4.34570312 23,8.60205078 23.0112526,13.8916016 C23.0224609,19.1923828 18.7661133,23.4375 13.465332,23.4375 Z M14.5546875,18.5859375 C14.7905273,18.5859375 14.9926758,18.4960938 15.1386719,18.3500977 L18.9345703,14.5429688 C19.1479492,14.3295898 19.2602539,14.1386719 19.2602539,13.8803711 C19.2602539,13.6445312 19.1591797,13.4536133 18.9345703,13.2290039 L15.1386719,9.421875 C14.9926758,9.27587891 14.7905273,9.19726562 14.5546875,9.19726562 C14.0942383,9.19726562 13.7460938,9.54541016 13.7460938,10.0058594 C13.7460938,10.2529297 13.847168,10.4550781 13.9931641,10.6010742 L15.4082031,11.9936523 L16.7558594,13.1279297 L14.3862305,13.0380859 L8.52392578,13.0380859 C8.04101562,13.0380859 7.69287109,13.3974609 7.69287109,13.8803711 C7.69287109,14.3632812 8.04101562,14.7226562 8.52392578,14.7226562 L14.3862305,14.7226562 L16.7670898,14.6328125 L15.4082031,15.7783203 L13.9931641,17.159668 C13.8359375,17.3168945 13.7460938,17.519043 13.7460938,17.7661133 C13.7460938,18.215332 14.0942383,18.5859375 14.5546875,18.5859375 Z" id="path-2"></path>
    </defs>
    <g id="Page-1" stroke="none" stroke-width="1" fill="none" fill-rule="evenodd">
        <g id="disclosure_indicator" transform="translate(-2.000000, -2.000000)" fill-rule="nonzero">
            <g id="green" transform="translate(0.000000, 25.000000)">
                <g id="symbol2">
                    <use fill="#000000" xlink:href="#path-1"></use>
                    <use fill="#06DB5F" xlink:href="#path-1"></use>
                </g>
            </g>
            <g id="grey">
                <g id="symbol1">
                    <use fill="#000000" xlink:href="#path-2"></use>
                    <use fill="#989898" xlink:href="#path-2"></use>
                </g>
            </g>
        </g>
    </g>
</svg>