<?xml version="1.0" encoding="utf-8"?>
<!-- Generator: Adobe Illustrator 22.0.1, SVG Export Plug-In . SVG Version: 6.00 Build 0)  -->
<svg version="1.1" id="Calque_1" xmlns="http://www.w3.org/2000/svg" xmlns:xlink="http://www.w3.org/1999/xlink" x="0px" y="0px"
	 viewBox="0 0 150 175" style="enable-background:new 0 0 150 175;" xml:space="preserve">
<style type="text/css">
	.st0{fill:#F0CFB1;}
	.st1{fill:#E6E6FC;}
	.st2{fill:#B2A4D4;}
	.st3{fill:#F8F8F8;}
	.st4{fill:#B9B9BC;}
	.st5{fill:#C6C7C9;}
	.st6{fill:#E6B997;}
	.st7{fill:none;}
</style>
<title>Group 2</title>
<desc>Created with Sketch.</desc>
<g id="Page-1">
	<g id="Desktop-Copy-7" transform="translate(-1007.000000, -168.000000)">
		
			<g id="Group-2" transform="translate(1078.500000, 256.500000) rotate(-10.000000) translate(-1078.500000, -256.500000) translate(984.000000, 154.000000)">
			
				<g id="iconfinder_mailbox_285983" transform="translate(94.756343, 102.480466) rotate(20.000000) translate(-94.756343, -102.480466) translate(25.256343, 18.980466)">
				
					<rect id="Rectangle" x="14.6" y="90.7" transform="matrix(2.482090e-06 1 -1 2.482090e-06 181.4538 17.2718)" class="st0" width="135" height="17.3"/>
				<path id="Shape" class="st1" d="M8.6,69.2l-7,21.6c-5.1,15.8,2.6,30.2,20,30.2c18.2,0,35.3-14.2,40.5-30.2l7-21.6h8.7h60.5V30.2
					C138.2,13.6,124.6,0,108,0L38.8,0C22.3,0,8.6,13.6,8.6,30.2L8.6,69.2z"/>
				<path id="Path" class="st2" d="M8.6,69.2l60.5,0l0-38.9C69,13.6,55.5,0,38.8,0C22.3,0,8.6,13.6,8.6,30.2L8.6,69.2z"/>
				<path id="Path_1_" class="st2" d="M64.8,30.2v38.9H69l0-38.9C69,13.6,55.5,0,38.8,0C53.1,0,64.8,13.6,64.8,30.2L64.8,30.2z"/>
				<path id="Path_2_" class="st3" d="M69,64.8l0-35.6c0-4.2-1-8.2-2.9-11.9l-40.2,0l0,47.5h34.5H69z"/>
				<path id="Shape_1_" class="st4" d="M36.7,26H54c1.2,0,2.1,1,2.1,2.1v8.7c0,1.2-0.9,2.2-2.1,2.2H36.7c-1.2,0-2.2-1-2.2-2.2V28
					C34.5,26.9,35.5,26,36.7,26L36.7,26z M36.7,43.2l17.3,0c1.2,0,2.1,1,2.1,2.2c0,1.1-0.9,2.1-2.1,2.1H36.7c-1.2,0-2.2-1-2.2-2.1
					C34.5,44.2,35.5,43.2,36.7,43.2L36.7,43.2z"/>
				<path id="Path_3_" class="st5" d="M64.8,30.2v34.5H69l0-34.5c0-4.7-1-9.1-2.9-13h-3.8C63.9,21.2,64.8,25.6,64.8,30.2L64.8,30.2z
					"/>
				<polygon id="Path_4_" class="st6" points="73.5,69.2 90.7,69.2 73.5,86.4 				"/>
			</g>
			
				<g id="Group_3" transform="translate(135.139197, 56.896052) rotate(20.000000) translate(-135.139197, -56.896052) translate(113.639197, 34.896052)">
				<polygon id="Clip_2-2" class="st7" points="0,0.5 42.7,0.5 42.7,39.5 0,39.5 				"/>
				<g id="Group_3-2-Clipped" transform="translate(17.100000, 20.700000)">
					<g id="Group_3-2" transform="translate(0.000000, -0.000000)">
						<path id="Fill_1" class="st2" d="M6.8,0.9c-4.3,0-5.9,3.5-5.9,7.5c0.1,7.6,11.5,14,11.5,14s12-7.4,11.9-14.2
							c0-6.8-3.7-7.4-6.2-7.4c-3.5,0-5.6,3.4-5.6,3.4C12.5,4.2,11,0.8,6.8,0.9z"/>
					</g>
				</g>
			</g>
		</g>
	</g>
</g>
</svg>
