<?xml version="1.0" encoding="UTF-8"?>
<svg width="150px" height="175px" viewBox="0 0 150 175" version="1.1" xmlns="http://www.w3.org/2000/svg" xmlns:xlink="http://www.w3.org/1999/xlink">
    <!-- Generator: Sketch 63.1 (92452) - https://sketch.com -->
    <title>Group 2</title>
    <desc>Created with Sketch.</desc>
    <g id="Page-1" stroke="none" stroke-width="1" fill="none" fill-rule="evenodd">
        <g id="Desktop-Copy-7" transform="translate(-1007.000000, -168.000000)">
            <g id="Group-2" transform="translate(1078.500000, 256.500000) rotate(-10.000000) translate(-1078.500000, -256.500000) translate(984.000000, 154.000000)">
                <g id="iconfinder_mailbox_285983" transform="translate(94.756343, 102.480466) rotate(20.000000) translate(-94.756343, -102.480466) translate(25.256343, 18.980466)">
                    <rect id="Rectangle" fill="#F0CFB1" x="73.45701" y="31.863105" width="17.26812" height="135"></rect>
                    <path d="M8.55171,69.17805 L1.56924,90.72918 C-3.57372,106.52688 4.14288,120.97458 21.53169,120.97458 C39.77883,120.97458 56.8026,106.7715 62.06787,90.72918 L69.04845,69.17805 L77.74407,69.17805 L138.24,69.17805 L138.24,30.24324 C138.24,13.59153 124.64631,0 107.98974,0 L38.80008,0 C22.26771,0 8.55171,13.59153 8.55171,30.24324 L8.55171,69.17805 Z" id="Shape" fill="#15D36A"></path>
                    <path d="M8.55171,69.17805 L69.04818,69.17805 L69.04818,30.24324 C69.04818,13.59153 55.45449,-2.55795385e-13 38.80008,-2.55795385e-13 C22.26771,-2.55795385e-13 8.55171,13.59153 8.55171,30.24324 L8.55171,69.17805 Z" id="Path" fill="#00A84B"></path>
                    <path d="M64.76139,30.24324 L64.76139,69.17805 L69.04791,69.17805 L69.04791,30.24324 C69.04791,13.59153 55.45449,-3.58113539e-13 38.80008,-3.58113539e-13 C53.12763,-3.58113539e-13 64.76139,13.59153 64.76139,30.24324 L64.76139,30.24324 Z" id="Path" fill="#007F38"></path>
                    <path d="M69.04818,64.77192 L69.04818,29.14218 C69.04818,24.97878 68.06943,20.93769 66.10977,17.26326 L25.94025,17.26326 L25.94025,64.77192 L60.47514,64.77192 L69.04818,64.77192 Z" id="Path" fill="#F8F8F8"></path>
                    <path d="M36.71784,25.95753 L53.98434,25.95753 C55.20987,25.95753 56.06631,26.93817 56.06631,28.03923 L56.06631,36.73296 C56.06631,37.95633 55.20987,38.93724 53.98434,38.93724 L36.71784,38.93724 C35.49231,38.93724 34.51329,37.9566 34.51329,36.73296 L34.51329,28.03923 C34.51329,26.93817 35.49231,25.95753 36.71784,25.95753 L36.71784,25.95753 Z M36.71784,43.22295 L53.98434,43.22295 C55.20987,43.22295 56.06631,44.20143 56.06631,45.42696 C56.06631,46.52802 55.20987,47.50866 53.98434,47.50866 L36.71784,47.50866 C35.49231,47.50866 34.51329,46.52802 34.51329,45.42696 C34.51329,44.20143 35.49231,43.22295 36.71784,43.22295 L36.71784,43.22295 Z" id="Shape" fill="#B9B9BC"></path>
                    <path d="M64.76139,30.24324 L64.76139,64.77219 L69.04791,64.77219 L69.04791,30.24324 C69.04791,25.5906 68.06916,21.18231 66.1095,17.26353 L62.31222,17.26353 C63.90522,21.18231 64.76139,25.59033 64.76139,30.24324 L64.76139,30.24324 Z" id="Path" fill="#C6C7C9"></path>
                    <polygon id="Path" fill="#E6B997" points="73.45701 69.17805 90.7254 69.17805 73.45701 86.44347"></polygon>
                </g>
                <g id="Group_3" transform="translate(135.139197, 56.896052) rotate(20.000000) translate(-135.139197, -56.896052) translate(113.639197, 34.896052)">
                    <polygon id="Clip_2-2" points="0 0.513317647 42.6917647 0.513317647 42.6917647 39.4746353 0 39.4746353"></polygon>
                    <g id="Group_3-2-Clipped" transform="translate(17.100000, 20.700000)" fill="#00A84B" fill-rule="nonzero">
                        <g id="Group_3-2" transform="translate(0.000000, -0.000000)">
                            <path d="M6.76882838,0.877433859 C2.49600598,0.908427312 0.825667052,4.42195785 0.853523445,8.40391217 C0.90853982,16.0240752 12.348812,22.3939342 12.348812,22.3939342 C12.348812,22.3939342 24.3009454,14.9604363 24.2528931,8.16406511 C24.2048408,1.36769393 20.5709744,0.776352939 18.0952375,0.794315054 C14.6023941,0.820025532 12.5239591,4.23353174 12.5239591,4.23353174 C12.5243073,4.23388394 11.0416508,0.846440406 6.76882838,0.877433859 Z" id="Fill_1"></path>
                        </g>
                    </g>
                </g>
            </g>
        </g>
    </g>
</svg>