<?xml version="1.0" encoding="UTF-8"?>
<svg width="275px" height="153px" viewBox="0 0 275 153" version="1.1" xmlns="http://www.w3.org/2000/svg" xmlns:xlink="http://www.w3.org/1999/xlink">
    <!-- Generator: Sketch 64 (93537) - https://sketch.com -->
    <title>Combined Shape</title>
    <desc>Created with Sketch.</desc>
    <defs>
        <linearGradient x1="61.5026016%" y1="36.5810455%" x2="37.2071243%" y2="64.8744059%" id="linearGradient-1">
            <stop stop-color="#ECF8FD" offset="0%"></stop>
            <stop stop-color="#E6F1FF" offset="100%"></stop>
        </linearGradient>
    </defs>
    <g id="Page-1" stroke="none" stroke-width="1" fill="none" fill-rule="evenodd">
        <g id="Ebook---Product-page" transform="translate(-1013.000000, -244.000000)" fill="url(#linearGradient-1)">
            <g id="Group" transform="translate(607.000000, 176.000000)">
                <path d="M553.311285,73.3493408 C568.487145,79.207494 581.310582,89.7804 589.9878,103.2588 C600.777,103.3074 610.7724,106.6932 619.0344,112.428 C628.4466,101.7522 642.249,95.0292 657.5904,95.0292 C674.6652,95.0292 689.8122,103.3398 699.1596,116.154 L699.1596,116.154 L699.566876,116.719256 C704.140128,123.158034 707.262377,130.698823 708.4584,138.8664 C708.831,141.345 709.0254,143.8722 709.0254,146.4642 C709.0254,174.8466 686.0052,197.883 657.5904,197.883 C646.6878,197.883 636.5952,194.481 628.2684,188.6976 C618.84,199.3734 605.07,206.1126 589.7124,206.1126 C584.1558,206.1126 578.7936,205.2216 573.7716,203.5854 C560.6982,214.1802 544.0608,220.5144 525.933,220.5144 C498.1662,220.5144 473.8662,205.6266 460.5822,183.4164 L460.5822,183.4164 L458.055,183.4812 C431.9568,183.4812 410.3946,164.0412 407.0574,138.8664 C406.7658,136.6308 406.62,134.3628 406.62,132.0462 C406.62,103.6476 429.6564,80.6274 458.055,80.6274 C465.3288,80.6274 472.2462,82.134 478.5156,84.8556 C491.5242,74.4876 508.0158,68.283 525.933,68.283 C535.3128,68.283 544.3038,69.984 552.5982,73.0782 L552.5982,73.0782 Z" id="Combined-Shape"></path>
            </g>
        </g>
    </g>
</svg>