<svg xmlns="http://www.w3.org/2000/svg" width="501" height="543" viewBox="0 0 501 543">
  <path id="BG" d="M481.279,541.6q.091.527.187,1.053c-9.645-.124-21.574-10.285-31.77-12.683-12.978-3.053-26.255-3.355-39.369-2.221-22.566,1.952-44.826,8.08-67.29,11.623a296.708,296.708,0,0,1-108.845-3.055c-9.7-2.084-19.375-4.657-29.181-5.148-12.135-.607-24.216,1.984-36.266,4.061A433.6,433.6,0,0,1,59.452,540.1c-15.717-1.292-34.259-.638-49.494-4.9-14.022-3.924-9-22.694-8.8-38.91.207-16.343-1.17-32.813-1.159-49.2.023-34.251,1.91-68.426,4.1-102.5,4.365-68.032,10.146-136.623,5.122-204.943C7.478,115.97,4.653,92.34,4.532,68.5A210.75,210.75,0,0,1,7.125,31.637C9.632,17.153,9.786,11.731,19.53,11.569c19.761-.327,38.2,4.824,58.436,1.4C97.791,9.61,117.4,4.064,137.307,1.58c59.634-7.44,119.147,13.692,179.006,15.7,16.456.554,32.918-.341,49.367-1.235l56.366-3.065c11.24-.611,55.255-6.755,65.181,2.765,10.221,9.8,13.5,47.483,13.767,62.643.47,26.426-26.562,49.738-26.093,76.165q2.818,158.559,5.637,317.118c.407,22.921-3.131,47.423.741,69.926" transform="translate(0 0)" fill="#ebf7fa"/>
</svg>
