<svg xmlns="http://www.w3.org/2000/svg" width="942.652" height="371.128" viewBox="0 0 942.652 371.128">
  <g id="bulles" transform="translate(0 -0.75)">
    <path id="Fill_1" data-name="Fill 1" d="M19.888,9.944A9.944,9.944,0,1,1,9.944,0a9.944,9.944,0,0,1,9.944,9.944" transform="translate(125.193 64.266)" fill="#fff"/>
    <path id="Fill_3" data-name="Fill 3" d="M14.063,7.031A7.031,7.031,0,1,1,7.031,0a7.031,7.031,0,0,1,7.031,7.031" transform="translate(0 172.129)" fill="#fff"/>
    <path id="Fill_5" data-name="Fill 5" d="M14.063,7.032A7.031,7.031,0,1,1,7.031,0a7.031,7.031,0,0,1,7.031,7.032" transform="translate(208.613 299.551)" fill="#fff"/>
    <path id="Fill_7" data-name="Fill 7" d="M7.906,3.953A3.953,3.953,0,1,1,3.953,0,3.954,3.954,0,0,1,7.906,3.953" transform="translate(128.613 302.63)" fill="#fff"/>
    <path id="Fill_9" data-name="Fill 9" d="M20.311,10.155A10.155,10.155,0,1,1,10.155,0,10.155,10.155,0,0,1,20.311,10.155" transform="translate(61.39 228.8)" fill="#fff"/>
    <path id="Fill_11" data-name="Fill 11" d="M11.924,5.962A5.962,5.962,0,1,1,5.962,0a5.961,5.961,0,0,1,5.962,5.962" transform="translate(191.649 102.76)" fill="#fff"/>
    <path id="Fill_13" data-name="Fill 13" d="M8.431,4.216A4.215,4.215,0,1,1,4.215,0,4.216,4.216,0,0,1,8.431,4.216" transform="translate(212.897 0.75)" fill="#fff"/>
    <path id="Fill_16" data-name="Fill 16" d="M18.761,9.38A9.381,9.381,0,1,1,9.38,0a9.381,9.381,0,0,1,9.381,9.38" transform="translate(116.376 161.974)" fill="#fff"/>
    <path id="Fill_18" data-name="Fill 18" d="M7.906,3.953A3.953,3.953,0,1,1,3.953,0,3.953,3.953,0,0,1,7.906,3.953" transform="translate(218.723 363.971)" fill="#fff"/>
    <path id="Fill_21" data-name="Fill 21" d="M0,9.944A9.944,9.944,0,1,0,9.944,0,9.944,9.944,0,0,0,0,9.944" transform="translate(800.141 90.09)" fill="#fff"/>
    <path id="Fill_23" data-name="Fill 23" d="M0,7.031A7.032,7.032,0,1,0,7.031,0,7.031,7.031,0,0,0,0,7.031" transform="translate(928.589 172.129)" fill="#fff"/>
    <path id="Fill_26" data-name="Fill 26" d="M0,7.031A7.032,7.032,0,1,0,7.031,0,7.032,7.032,0,0,0,0,7.031" transform="translate(736.257 292.52)" fill="#fff"/>
    <path id="Fill_28" data-name="Fill 28" d="M0,3.953A3.953,3.953,0,1,0,3.953,0,3.954,3.954,0,0,0,0,3.953" transform="translate(806.132 306.583)" fill="#fff"/>
    <path id="Fill_30" data-name="Fill 30" d="M0,10.155A10.155,10.155,0,1,0,10.155,0,10.155,10.155,0,0,0,0,10.155" transform="translate(811.157 228.8)" fill="#fff"/>
    <path id="Fill_32" data-name="Fill 32" d="M0,5.961A5.961,5.961,0,1,0,5.961,0,5.961,5.961,0,0,0,0,5.961" transform="translate(730.296 106.743)" fill="#fff"/>
    <path id="Fill_34" data-name="Fill 34" d="M0,4.216A4.215,4.215,0,1,0,4.215,0,4.215,4.215,0,0,0,0,4.216" transform="translate(732.042 28.936)" fill="#fff"/>
    <path id="Fill_36" data-name="Fill 36" d="M0,9.381A9.381,9.381,0,1,0,9.381,0,9.381,9.381,0,0,0,0,9.381" transform="translate(850.12 176.812)" fill="#fff"/>
    <path id="Fill_38" data-name="Fill 38" d="M0,3.953A3.953,3.953,0,1,0,3.953,0,3.953,3.953,0,0,0,0,3.953" transform="translate(716.023 363.971)" fill="#fff"/>
  </g>
</svg>
