<svg xmlns="http://www.w3.org/2000/svg" width="267" height="119" viewBox="0 0 267 119">
  <path id="Nuage" d="M203.789.789a81.538,81.538,0,0,1-47.954,15.189c-13.918-.132-27.969-3.839-41.606-1.045C98.815,18.092,86.347,29.021,72.438,36.384a96.238,96.238,0,0,1-40.99,11.06c-10.219.41-22.38.059-28.265,8.434a19.028,19.028,0,0,0-3.1,9.443C-1.1,79.878,10.98,94.212,25.51,95.5c10.008.888,19.6-3.591,29.352-6.008A72.837,72.837,0,0,1,83.7,88.258c17.8,2.823,33.805,12.091,50.154,19.7s34.581,13.755,52.174,9.822c5.923-1.324,11.548-3.755,17.442-5.2a54.324,54.324,0,0,1,21.375-.895c9.1,1.442,19.276,4.986,26.874-.24,2.868-1.972,4.871-4.959,6.573-8a71.007,71.007,0,0,0,.758-66.728A70.837,70.837,0,0,0,203.392,0" fill="#ebf7fa"/>
</svg>
