<svg xmlns="http://www.w3.org/2000/svg" width="255" height="105" viewBox="0 0 255 105">
  <path id="Nuage" d="M248.824,52.233A33.259,33.259,0,0,0,235.3,41.209c-8.1-3.538-17.262-3.682-26.07-2.962s-17.6,2.243-26.423,1.827c-12.218-.576-21.82-6.311-33.037-9.872-12-3.809-21.293-13.5-33.64-16.824l-.166-.041c-1.939-1.223-3.917-2.378-5.968-3.407C96.007,2.913,80.141,2.233,64.809,1.74,50.705,1.287,30.821-3.319,18.3,4.609,12.275,8.42,8.47,14.884,5.524,21.379,2.324,28.433-.169,36.007.009,43.753.259,54.631,6.7,71.8,15.128,79.425c9.592,8.683,29.407,8.549,41.437,12.589,11.375,3.82,23.369,8.286,35.489,10.845l.419.542a67.056,67.056,0,0,0,16.866,1.536,56.463,56.463,0,0,0,26.676-5.84c11.953-6.011,24.343-13.134,38-14.121,9.647-.7,19.184,1.911,28.765,3.24a109.477,109.477,0,0,0,29.507.073A39.613,39.613,0,0,0,245.353,84.7c4.032-2.086,7.551-5.493,8.934-9.822a19.377,19.377,0,0,0,.271-9.383,33,33,0,0,0-5.734-13.258" transform="translate(0 0)" fill="#ebf7fa"/>
</svg>
